0, 0, Header, 1, 9, 480
1, 0, Start_track
1, 0, Tempo, 375000
1, 0, Title_t, ""
1, 0, Time_signature, 6, 3, 5, 184
1, 0, End_track
2, 0, Start_track
2, 0, Title_t, "SUPMIDI(C)2014"
2, 0, Control_c, 1, 100, 0
2, 0, Control_c, 1, 101, 0
2, 0, Control_c, 1, 6, 12
2, 0, Pitch_bend_c, 1, 8192
2, 0, Control_c, 1, 101, 0
2, 0, Control_c, 1, 100, 1
2, 0, Control_c, 1, 6, 64
2, 0, Control_c, 1, 38, 0
2, 0, Control_c, 1, 101, 127
2, 0, Control_c, 1, 100, 127
2, 0, Control_c, 0, 100, 0
2, 0, Control_c, 0, 101, 0
2, 0, Control_c, 0, 6, 12
2, 0, Pitch_bend_c, 0, 8192
2, 0, Control_c, 0, 101, 0
2, 0, Control_c, 0, 100, 1
2, 0, Control_c, 0, 6, 64
2, 0, Control_c, 0, 38, 0
2, 0, Control_c, 0, 101, 127
2, 0, Control_c, 0, 100, 127
2, 0, Control_c, 1, 101, 0
2, 0, Control_c, 1, 100, 2
2, 0, Control_c, 1, 6, 64
2, 0, Control_c, 1, 101, 127
2, 0, Control_c, 1, 100, 127
2, 0, Control_c, 0, 101, 0
2, 0, Control_c, 0, 100, 2
2, 0, Control_c, 0, 6, 64
2, 0, Control_c, 0, 101, 127
2, 0, Control_c, 0, 100, 127
2, 0, Program_c, 1, 25
2, 0, Program_c, 0, 25
2, 0, Control_c, 1, 0, 0
2, 0, Control_c, 0, 0, 0
2, 0, Control_c, 1, 7, 96
2, 0, Control_c, 0, 7, 96
2, 0, Control_c, 1, 10, 64
2, 0, Control_c, 0, 10, 64
2, 0, Control_c, 1, 93, 0
2, 0, Control_c, 0, 93, 0
2, 0, Control_c, 1, 91, 0
2, 0, Control_c, 0, 91, 0
2, 0, Control_c, 1, 92, 0
2, 0, Control_c, 0, 92, 0
2, 0, Control_c, 1, 95, 0
2, 0, Control_c, 0, 95, 0
2, 480, Note_on_c, 0, 60, 95
2, 480, Note_on_c, 0, 52, 95
2, 480, Note_on_c, 0, 48, 95
2, 720, Note_off_c, 0, 60, 80
2, 720, Note_off_c, 0, 52, 80
2, 720, Note_off_c, 0, 48, 80
2, 1200, Note_on_c, 0, 60, 95
2, 1200, Note_on_c, 0, 52, 95
2, 1200, Note_on_c, 0, 48, 95
2, 1440, Note_off_c, 0, 60, 80
2, 1440, Note_off_c, 0, 52, 80
2, 1440, Note_off_c, 0, 48, 80
2, 1920, Note_on_c, 0, 60, 95
2, 1920, Note_on_c, 0, 52, 95
2, 1920, Note_on_c, 0, 48, 95
2, 2160, Note_off_c, 0, 60, 80
2, 2160, Note_off_c, 0, 52, 80
2, 2160, Note_off_c, 0, 48, 80
2, 2640, Note_on_c, 0, 60, 95
2, 2640, Note_on_c, 0, 52, 95
2, 2640, Note_on_c, 0, 48, 95
2, 2880, Note_off_c, 0, 60, 80
2, 2880, Note_off_c, 0, 52, 80
2, 2880, Note_off_c, 0, 48, 80
2, 3360, Note_on_c, 0, 60, 95
2, 3360, Note_on_c, 0, 52, 95
2, 3360, Note_on_c, 0, 48, 95
2, 3600, Note_off_c, 0, 60, 80
2, 3600, Note_off_c, 0, 52, 80
2, 3600, Note_off_c, 0, 48, 80
2, 4080, Note_on_c, 0, 60, 95
2, 4080, Note_on_c, 0, 52, 95
2, 4080, Note_on_c, 0, 48, 95
2, 4320, Note_off_c, 0, 60, 80
2, 4320, Note_off_c, 0, 52, 80
2, 4320, Note_off_c, 0, 48, 80
2, 4800, Note_on_c, 0, 60, 95
2, 4800, Note_on_c, 0, 52, 95
2, 4800, Note_on_c, 0, 48, 95
2, 5040, Note_off_c, 0, 60, 80
2, 5040, Note_off_c, 0, 52, 80
2, 5040, Note_off_c, 0, 48, 80
2, 5520, Note_on_c, 0, 60, 95
2, 5520, Note_on_c, 0, 52, 95
2, 5520, Note_on_c, 0, 48, 95
2, 5760, Note_off_c, 0, 60, 80
2, 5760, Note_off_c, 0, 52, 80
2, 5760, Note_off_c, 0, 48, 80
2, 6240, Note_on_c, 0, 55, 95
2, 6240, Note_on_c, 0, 52, 95
2, 6240, Note_on_c, 0, 48, 95
2, 6240, Note_on_c, 0, 43, 95
2, 6480, Note_off_c, 0, 55, 80
2, 6480, Note_off_c, 0, 52, 80
2, 6480, Note_off_c, 0, 48, 80
2, 6480, Note_off_c, 0, 43, 80
2, 6960, Note_on_c, 0, 55, 95
2, 6960, Note_on_c, 0, 52, 95
2, 6960, Note_on_c, 0, 48, 95
2, 6960, Note_on_c, 0, 43, 95
2, 7200, Note_off_c, 0, 55, 80
2, 7200, Note_off_c, 0, 52, 80
2, 7200, Note_off_c, 0, 48, 80
2, 7200, Note_off_c, 0, 43, 80
2, 7680, Note_on_c, 0, 57, 95
2, 7680, Note_on_c, 0, 53, 95
2, 7680, Note_on_c, 0, 48, 95
2, 7680, Note_on_c, 0, 45, 95
2, 7920, Note_off_c, 0, 57, 80
2, 7920, Note_off_c, 0, 53, 80
2, 7920, Note_off_c, 0, 48, 80
2, 7920, Note_off_c, 0, 45, 80
2, 7920, Note_on_c, 0, 55, 95
2, 7920, Note_on_c, 0, 52, 95
2, 7920, Note_on_c, 0, 48, 95
2, 7920, Note_on_c, 0, 43, 95
2, 8160, Note_off_c, 0, 55, 80
2, 8160, Note_off_c, 0, 52, 80
2, 8160, Note_off_c, 0, 48, 80
2, 8160, Note_off_c, 0, 43, 80
2, 8400, Note_on_c, 0, 55, 95
2, 8400, Note_on_c, 0, 52, 95
2, 8400, Note_on_c, 0, 48, 95
2, 8400, Note_on_c, 0, 43, 95
2, 8640, Note_off_c, 0, 55, 80
2, 8640, Note_off_c, 0, 52, 80
2, 8640, Note_off_c, 0, 48, 80
2, 8640, Note_off_c, 0, 43, 80
2, 9120, Note_on_c, 0, 55, 95
2, 9120, Note_on_c, 0, 52, 95
2, 9120, Note_on_c, 0, 48, 95
2, 9120, Note_on_c, 0, 43, 95
2, 9360, Note_off_c, 0, 55, 80
2, 9360, Note_off_c, 0, 52, 80
2, 9360, Note_off_c, 0, 48, 80
2, 9360, Note_off_c, 0, 43, 80
2, 9840, Note_on_c, 0, 55, 95
2, 9840, Note_on_c, 0, 52, 95
2, 9840, Note_on_c, 0, 48, 95
2, 9840, Note_on_c, 0, 43, 95
2, 10080, Note_off_c, 0, 55, 80
2, 10080, Note_off_c, 0, 52, 80
2, 10080, Note_off_c, 0, 48, 80
2, 10080, Note_off_c, 0, 43, 80
2, 10560, Note_on_c, 0, 57, 95
2, 10560, Note_on_c, 0, 53, 95
2, 10560, Note_on_c, 0, 48, 95
2, 10560, Note_on_c, 0, 45, 95
2, 10800, Note_off_c, 0, 57, 80
2, 10800, Note_off_c, 0, 53, 80
2, 10800, Note_off_c, 0, 48, 80
2, 10800, Note_off_c, 0, 45, 80
2, 10800, Note_on_c, 0, 55, 95
2, 10800, Note_on_c, 0, 52, 95
2, 10800, Note_on_c, 0, 48, 95
2, 10800, Note_on_c, 0, 43, 95
2, 11040, Note_off_c, 0, 55, 80
2, 11040, Note_off_c, 0, 52, 80
2, 11040, Note_off_c, 0, 48, 80
2, 11040, Note_off_c, 0, 43, 80
2, 11280, Note_on_c, 0, 55, 95
2, 11280, Note_on_c, 0, 52, 95
2, 11280, Note_on_c, 0, 48, 95
2, 11280, Note_on_c, 0, 43, 95
2, 11520, Note_off_c, 0, 55, 80
2, 11520, Note_off_c, 0, 52, 80
2, 11520, Note_off_c, 0, 48, 80
2, 11520, Note_off_c, 0, 43, 80
2, 12000, Note_on_c, 0, 55, 95
2, 12000, Note_on_c, 0, 52, 95
2, 12000, Note_on_c, 0, 48, 95
2, 12000, Note_on_c, 0, 43, 95
2, 12240, Note_off_c, 0, 55, 80
2, 12240, Note_off_c, 0, 52, 80
2, 12240, Note_off_c, 0, 48, 80
2, 12240, Note_off_c, 0, 43, 80
2, 12720, Note_on_c, 0, 59, 95
2, 12720, Note_on_c, 0, 55, 95
2, 12720, Note_on_c, 0, 52, 95
2, 12720, Note_on_c, 0, 47, 95
2, 12960, Note_off_c, 0, 59, 80
2, 12960, Note_off_c, 0, 55, 80
2, 12960, Note_off_c, 0, 52, 80
2, 12960, Note_off_c, 0, 47, 80
2, 13440, Note_on_c, 0, 57, 95
2, 13440, Note_on_c, 0, 52, 95
2, 13440, Note_on_c, 0, 48, 95
2, 13440, Note_on_c, 0, 45, 95
2, 13680, Note_off_c, 0, 57, 80
2, 13680, Note_off_c, 0, 52, 80
2, 13680, Note_off_c, 0, 48, 80
2, 13680, Note_off_c, 0, 45, 80
2, 14160, Note_on_c, 0, 57, 95
2, 14160, Note_on_c, 0, 52, 95
2, 14160, Note_on_c, 0, 48, 95
2, 14160, Note_on_c, 0, 45, 95
2, 14400, Note_off_c, 0, 57, 80
2, 14400, Note_off_c, 0, 52, 80
2, 14400, Note_off_c, 0, 48, 80
2, 14400, Note_off_c, 0, 45, 80
2, 14880, Note_on_c, 0, 57, 95
2, 14880, Note_on_c, 0, 53, 95
2, 14880, Note_on_c, 0, 50, 95
2, 14880, Note_on_c, 0, 45, 95
2, 15120, Note_off_c, 0, 57, 80
2, 15120, Note_off_c, 0, 53, 80
2, 15120, Note_off_c, 0, 50, 80
2, 15120, Note_off_c, 0, 45, 80
2, 15600, Note_on_c, 0, 55, 95
2, 15600, Note_on_c, 0, 50, 95
2, 15600, Note_on_c, 0, 47, 95
2, 15600, Note_on_c, 0, 43, 95
2, 15840, Note_off_c, 0, 55, 80
2, 15840, Note_off_c, 0, 50, 80
2, 15840, Note_off_c, 0, 47, 80
2, 15840, Note_off_c, 0, 43, 80
2, 16320, Note_on_c, 0, 55, 95
2, 16320, Note_on_c, 0, 52, 95
2, 16320, Note_on_c, 0, 48, 95
2, 16320, Note_on_c, 0, 43, 95
2, 16560, Note_off_c, 0, 55, 80
2, 16560, Note_off_c, 0, 52, 80
2, 16560, Note_off_c, 0, 48, 80
2, 16560, Note_off_c, 0, 43, 80
2, 17040, Note_on_c, 0, 55, 95
2, 17040, Note_on_c, 0, 52, 95
2, 17040, Note_on_c, 0, 48, 95
2, 17040, Note_on_c, 0, 43, 95
2, 17280, Note_off_c, 0, 55, 80
2, 17280, Note_off_c, 0, 52, 80
2, 17280, Note_off_c, 0, 48, 80
2, 17280, Note_off_c, 0, 43, 80
2, 17760, Note_on_c, 0, 57, 95
2, 17760, Note_on_c, 0, 53, 95
2, 17760, Note_on_c, 0, 48, 95
2, 17760, Note_on_c, 0, 45, 95
2, 18000, Note_off_c, 0, 57, 80
2, 18000, Note_off_c, 0, 53, 80
2, 18000, Note_off_c, 0, 48, 80
2, 18000, Note_off_c, 0, 45, 80
2, 18480, Note_on_c, 0, 59, 95
2, 18480, Note_on_c, 0, 55, 95
2, 18480, Note_on_c, 0, 50, 95
2, 18480, Note_on_c, 0, 47, 95
2, 18720, Note_off_c, 0, 59, 80
2, 18720, Note_off_c, 0, 55, 80
2, 18720, Note_off_c, 0, 50, 80
2, 18720, Note_off_c, 0, 47, 80
2, 19200, Note_on_c, 0, 60, 95
2, 19200, Note_on_c, 0, 55, 95
2, 19200, Note_on_c, 0, 52, 95
2, 19200, Note_on_c, 0, 48, 95
2, 19440, Note_off_c, 0, 60, 80
2, 19440, Note_off_c, 0, 55, 80
2, 19440, Note_off_c, 0, 52, 80
2, 19440, Note_off_c, 0, 48, 80
2, 19920, Note_on_c, 0, 57, 95
2, 19920, Note_on_c, 0, 52, 95
2, 19920, Note_on_c, 0, 48, 95
2, 19920, Note_on_c, 0, 45, 95
2, 20160, Note_off_c, 0, 57, 80
2, 20160, Note_off_c, 0, 52, 80
2, 20160, Note_off_c, 0, 48, 80
2, 20160, Note_off_c, 0, 45, 80
2, 20640, Note_on_c, 0, 57, 95
2, 20640, Note_on_c, 0, 53, 95
2, 20640, Note_on_c, 0, 50, 95
2, 20640, Note_on_c, 0, 45, 95
2, 20880, Note_off_c, 0, 57, 80
2, 20880, Note_off_c, 0, 53, 80
2, 20880, Note_off_c, 0, 50, 80
2, 20880, Note_off_c, 0, 45, 80
2, 21360, Note_on_c, 0, 55, 95
2, 21360, Note_on_c, 0, 50, 95
2, 21360, Note_on_c, 0, 47, 95
2, 21360, Note_on_c, 0, 43, 95
2, 21600, Note_off_c, 0, 55, 80
2, 21600, Note_off_c, 0, 50, 80
2, 21600, Note_off_c, 0, 47, 80
2, 21600, Note_off_c, 0, 43, 80
2, 22080, Note_on_c, 0, 55, 95
2, 22080, Note_on_c, 0, 52, 95
2, 22080, Note_on_c, 0, 48, 95
2, 22080, Note_on_c, 0, 43, 95
2, 22320, Note_off_c, 0, 55, 80
2, 22320, Note_off_c, 0, 52, 80
2, 22320, Note_off_c, 0, 48, 80
2, 22320, Note_off_c, 0, 43, 80
2, 22800, Note_on_c, 0, 55, 95
2, 22800, Note_on_c, 0, 52, 95
2, 22800, Note_on_c, 0, 48, 95
2, 22800, Note_on_c, 0, 43, 95
2, 23040, Note_off_c, 0, 55, 80
2, 23040, Note_off_c, 0, 52, 80
2, 23040, Note_off_c, 0, 48, 80
2, 23040, Note_off_c, 0, 43, 80
2, 23520, Note_on_c, 0, 57, 95
2, 23520, Note_on_c, 0, 53, 95
2, 23520, Note_on_c, 0, 48, 95
2, 23520, Note_on_c, 0, 45, 95
2, 23760, Note_off_c, 0, 57, 80
2, 23760, Note_off_c, 0, 53, 80
2, 23760, Note_off_c, 0, 48, 80
2, 23760, Note_off_c, 0, 45, 80
2, 24240, Note_on_c, 0, 59, 95
2, 24240, Note_on_c, 0, 55, 95
2, 24240, Note_on_c, 0, 50, 95
2, 24240, Note_on_c, 0, 47, 95
2, 24480, Note_off_c, 0, 59, 80
2, 24480, Note_off_c, 0, 55, 80
2, 24480, Note_off_c, 0, 50, 80
2, 24480, Note_off_c, 0, 47, 80
2, 24960, Note_on_c, 0, 55, 95
2, 24960, Note_on_c, 0, 52, 95
2, 24960, Note_on_c, 0, 48, 95
2, 24960, Note_on_c, 0, 43, 95
2, 25200, Note_off_c, 0, 55, 80
2, 25200, Note_off_c, 0, 52, 80
2, 25200, Note_off_c, 0, 48, 80
2, 25200, Note_off_c, 0, 43, 80
2, 25680, Note_on_c, 0, 57, 95
2, 25680, Note_on_c, 0, 53, 95
2, 25680, Note_on_c, 0, 48, 95
2, 25680, Note_on_c, 0, 45, 95
2, 25920, Note_off_c, 0, 57, 80
2, 25920, Note_off_c, 0, 53, 80
2, 25920, Note_off_c, 0, 48, 80
2, 25920, Note_off_c, 0, 45, 80
2, 26400, Note_on_c, 0, 55, 95
2, 26400, Note_on_c, 0, 52, 95
2, 26400, Note_on_c, 0, 47, 95
2, 26400, Note_on_c, 0, 43, 95
2, 26640, Note_off_c, 0, 55, 80
2, 26640, Note_off_c, 0, 52, 80
2, 26640, Note_off_c, 0, 47, 80
2, 26640, Note_off_c, 0, 43, 80
2, 27120, Note_on_c, 0, 55, 95
2, 27120, Note_on_c, 0, 50, 95
2, 27120, Note_on_c, 0, 47, 95
2, 27120, Note_on_c, 0, 43, 95
2, 27360, Note_off_c, 0, 55, 80
2, 27360, Note_off_c, 0, 50, 80
2, 27360, Note_off_c, 0, 47, 80
2, 27360, Note_off_c, 0, 43, 80
2, 27840, Note_on_c, 0, 55, 95
2, 27840, Note_on_c, 0, 52, 95
2, 27840, Note_on_c, 0, 48, 95
2, 27840, Note_on_c, 0, 43, 95
2, 28080, Note_off_c, 0, 55, 80
2, 28080, Note_off_c, 0, 52, 80
2, 28080, Note_off_c, 0, 48, 80
2, 28080, Note_off_c, 0, 43, 80
2, 28560, Note_on_c, 0, 55, 95
2, 28560, Note_on_c, 0, 52, 95
2, 28560, Note_on_c, 0, 48, 95
2, 28560, Note_on_c, 0, 43, 95
2, 28800, Note_off_c, 0, 55, 80
2, 28800, Note_off_c, 0, 52, 80
2, 28800, Note_off_c, 0, 48, 80
2, 28800, Note_off_c, 0, 43, 80
2, 29280, Note_on_c, 0, 55, 95
2, 29280, Note_on_c, 0, 52, 95
2, 29280, Note_on_c, 0, 48, 95
2, 29280, Note_on_c, 0, 43, 95
2, 29520, Note_off_c, 0, 55, 80
2, 29520, Note_off_c, 0, 52, 80
2, 29520, Note_off_c, 0, 48, 80
2, 29520, Note_off_c, 0, 43, 80
2, 30000, Note_on_c, 0, 55, 95
2, 30000, Note_on_c, 0, 52, 95
2, 30000, Note_on_c, 0, 48, 95
2, 30000, Note_on_c, 0, 43, 95
2, 30240, Note_off_c, 0, 55, 80
2, 30240, Note_off_c, 0, 52, 80
2, 30240, Note_off_c, 0, 48, 80
2, 30240, Note_off_c, 0, 43, 80
2, 30720, Note_on_c, 0, 57, 95
2, 30720, Note_on_c, 0, 53, 95
2, 30720, Note_on_c, 0, 48, 95
2, 30720, Note_on_c, 0, 45, 95
2, 30960, Note_off_c, 0, 57, 80
2, 30960, Note_off_c, 0, 53, 80
2, 30960, Note_off_c, 0, 48, 80
2, 30960, Note_off_c, 0, 45, 80
2, 30960, Note_on_c, 0, 55, 95
2, 30960, Note_on_c, 0, 52, 95
2, 30960, Note_on_c, 0, 48, 95
2, 30960, Note_on_c, 0, 43, 95
2, 31200, Note_off_c, 0, 55, 80
2, 31200, Note_off_c, 0, 52, 80
2, 31200, Note_off_c, 0, 48, 80
2, 31200, Note_off_c, 0, 43, 80
2, 31440, Note_on_c, 0, 55, 95
2, 31440, Note_on_c, 0, 52, 95
2, 31440, Note_on_c, 0, 48, 95
2, 31440, Note_on_c, 0, 43, 95
2, 31680, Note_off_c, 0, 55, 80
2, 31680, Note_off_c, 0, 52, 80
2, 31680, Note_off_c, 0, 48, 80
2, 31680, Note_off_c, 0, 43, 80
2, 32160, Note_on_c, 0, 55, 95
2, 32160, Note_on_c, 0, 52, 95
2, 32160, Note_on_c, 0, 48, 95
2, 32160, Note_on_c, 0, 43, 95
2, 32400, Note_off_c, 0, 55, 80
2, 32400, Note_off_c, 0, 52, 80
2, 32400, Note_off_c, 0, 48, 80
2, 32400, Note_off_c, 0, 43, 80
2, 32880, Note_on_c, 0, 55, 95
2, 32880, Note_on_c, 0, 52, 95
2, 32880, Note_on_c, 0, 48, 95
2, 32880, Note_on_c, 0, 43, 95
2, 33120, Note_off_c, 0, 55, 80
2, 33120, Note_off_c, 0, 52, 80
2, 33120, Note_off_c, 0, 48, 80
2, 33120, Note_off_c, 0, 43, 80
2, 33600, Note_on_c, 0, 57, 95
2, 33600, Note_on_c, 0, 53, 95
2, 33600, Note_on_c, 0, 48, 95
2, 33600, Note_on_c, 0, 45, 95
2, 33840, Note_off_c, 0, 57, 80
2, 33840, Note_off_c, 0, 53, 80
2, 33840, Note_off_c, 0, 48, 80
2, 33840, Note_off_c, 0, 45, 80
2, 33840, Note_on_c, 0, 55, 95
2, 33840, Note_on_c, 0, 52, 95
2, 33840, Note_on_c, 0, 48, 95
2, 33840, Note_on_c, 0, 43, 95
2, 34080, Note_off_c, 0, 55, 80
2, 34080, Note_off_c, 0, 52, 80
2, 34080, Note_off_c, 0, 48, 80
2, 34080, Note_off_c, 0, 43, 80
2, 34320, Note_on_c, 0, 55, 95
2, 34320, Note_on_c, 0, 52, 95
2, 34320, Note_on_c, 0, 48, 95
2, 34320, Note_on_c, 0, 43, 95
2, 34560, Note_off_c, 0, 55, 80
2, 34560, Note_off_c, 0, 52, 80
2, 34560, Note_off_c, 0, 48, 80
2, 34560, Note_off_c, 0, 43, 80
2, 35040, Note_on_c, 0, 55, 95
2, 35040, Note_on_c, 0, 52, 95
2, 35040, Note_on_c, 0, 48, 95
2, 35040, Note_on_c, 0, 43, 95
2, 35280, Note_off_c, 0, 55, 80
2, 35280, Note_off_c, 0, 52, 80
2, 35280, Note_off_c, 0, 48, 80
2, 35280, Note_off_c, 0, 43, 80
2, 35760, Note_on_c, 0, 59, 95
2, 35760, Note_on_c, 0, 55, 95
2, 35760, Note_on_c, 0, 52, 95
2, 35760, Note_on_c, 0, 47, 95
2, 36000, Note_off_c, 0, 59, 80
2, 36000, Note_off_c, 0, 55, 80
2, 36000, Note_off_c, 0, 52, 80
2, 36000, Note_off_c, 0, 47, 80
2, 36480, Note_on_c, 0, 57, 95
2, 36480, Note_on_c, 0, 52, 95
2, 36480, Note_on_c, 0, 48, 95
2, 36480, Note_on_c, 0, 45, 95
2, 36720, Note_off_c, 0, 57, 80
2, 36720, Note_off_c, 0, 52, 80
2, 36720, Note_off_c, 0, 48, 80
2, 36720, Note_off_c, 0, 45, 80
2, 37200, Note_on_c, 0, 57, 95
2, 37200, Note_on_c, 0, 52, 95
2, 37200, Note_on_c, 0, 48, 95
2, 37200, Note_on_c, 0, 45, 95
2, 37440, Note_off_c, 0, 57, 80
2, 37440, Note_off_c, 0, 52, 80
2, 37440, Note_off_c, 0, 48, 80
2, 37440, Note_off_c, 0, 45, 80
2, 37920, Note_on_c, 0, 57, 95
2, 37920, Note_on_c, 0, 53, 95
2, 37920, Note_on_c, 0, 50, 95
2, 37920, Note_on_c, 0, 45, 95
2, 38160, Note_off_c, 0, 57, 80
2, 38160, Note_off_c, 0, 53, 80
2, 38160, Note_off_c, 0, 50, 80
2, 38160, Note_off_c, 0, 45, 80
2, 38640, Note_on_c, 0, 55, 95
2, 38640, Note_on_c, 0, 50, 95
2, 38640, Note_on_c, 0, 47, 95
2, 38640, Note_on_c, 0, 43, 95
2, 38880, Note_off_c, 0, 55, 80
2, 38880, Note_off_c, 0, 50, 80
2, 38880, Note_off_c, 0, 47, 80
2, 38880, Note_off_c, 0, 43, 80
2, 39360, Note_on_c, 0, 55, 95
2, 39360, Note_on_c, 0, 52, 95
2, 39360, Note_on_c, 0, 48, 95
2, 39360, Note_on_c, 0, 43, 95
2, 39600, Note_off_c, 0, 55, 80
2, 39600, Note_off_c, 0, 52, 80
2, 39600, Note_off_c, 0, 48, 80
2, 39600, Note_off_c, 0, 43, 80
2, 40080, Note_on_c, 0, 55, 95
2, 40080, Note_on_c, 0, 52, 95
2, 40080, Note_on_c, 0, 48, 95
2, 40080, Note_on_c, 0, 43, 95
2, 40320, Note_off_c, 0, 55, 80
2, 40320, Note_off_c, 0, 52, 80
2, 40320, Note_off_c, 0, 48, 80
2, 40320, Note_off_c, 0, 43, 80
2, 40800, Note_on_c, 0, 57, 95
2, 40800, Note_on_c, 0, 53, 95
2, 40800, Note_on_c, 0, 48, 95
2, 40800, Note_on_c, 0, 45, 95
2, 41040, Note_off_c, 0, 57, 80
2, 41040, Note_off_c, 0, 53, 80
2, 41040, Note_off_c, 0, 48, 80
2, 41040, Note_off_c, 0, 45, 80
2, 41520, Note_on_c, 0, 59, 95
2, 41520, Note_on_c, 0, 55, 95
2, 41520, Note_on_c, 0, 50, 95
2, 41520, Note_on_c, 0, 47, 95
2, 41760, Note_off_c, 0, 59, 80
2, 41760, Note_off_c, 0, 55, 80
2, 41760, Note_off_c, 0, 50, 80
2, 41760, Note_off_c, 0, 47, 80
2, 42240, Note_on_c, 0, 60, 95
2, 42240, Note_on_c, 0, 55, 95
2, 42240, Note_on_c, 0, 52, 95
2, 42240, Note_on_c, 0, 48, 95
2, 42480, Note_off_c, 0, 60, 80
2, 42480, Note_off_c, 0, 55, 80
2, 42480, Note_off_c, 0, 52, 80
2, 42480, Note_off_c, 0, 48, 80
2, 42960, Note_on_c, 0, 57, 95
2, 42960, Note_on_c, 0, 52, 95
2, 42960, Note_on_c, 0, 48, 95
2, 42960, Note_on_c, 0, 45, 95
2, 43200, Note_off_c, 0, 57, 80
2, 43200, Note_off_c, 0, 52, 80
2, 43200, Note_off_c, 0, 48, 80
2, 43200, Note_off_c, 0, 45, 80
2, 43680, Note_on_c, 0, 57, 95
2, 43680, Note_on_c, 0, 53, 95
2, 43680, Note_on_c, 0, 50, 95
2, 43680, Note_on_c, 0, 45, 95
2, 43920, Note_off_c, 0, 57, 80
2, 43920, Note_off_c, 0, 53, 80
2, 43920, Note_off_c, 0, 50, 80
2, 43920, Note_off_c, 0, 45, 80
2, 44400, Note_on_c, 0, 55, 95
2, 44400, Note_on_c, 0, 50, 95
2, 44400, Note_on_c, 0, 47, 95
2, 44400, Note_on_c, 0, 43, 95
2, 44640, Note_off_c, 0, 55, 80
2, 44640, Note_off_c, 0, 50, 80
2, 44640, Note_off_c, 0, 47, 80
2, 44640, Note_off_c, 0, 43, 80
2, 45120, Note_on_c, 0, 55, 95
2, 45120, Note_on_c, 0, 52, 95
2, 45120, Note_on_c, 0, 48, 95
2, 45120, Note_on_c, 0, 43, 95
2, 45360, Note_off_c, 0, 55, 80
2, 45360, Note_off_c, 0, 52, 80
2, 45360, Note_off_c, 0, 48, 80
2, 45360, Note_off_c, 0, 43, 80
2, 45840, Note_on_c, 0, 55, 95
2, 45840, Note_on_c, 0, 52, 95
2, 45840, Note_on_c, 0, 48, 95
2, 45840, Note_on_c, 0, 43, 95
2, 46080, Note_off_c, 0, 55, 80
2, 46080, Note_off_c, 0, 52, 80
2, 46080, Note_off_c, 0, 48, 80
2, 46080, Note_off_c, 0, 43, 80
2, 46560, Note_on_c, 0, 57, 95
2, 46560, Note_on_c, 0, 53, 95
2, 46560, Note_on_c, 0, 48, 95
2, 46560, Note_on_c, 0, 45, 95
2, 46800, Note_off_c, 0, 57, 80
2, 46800, Note_off_c, 0, 53, 80
2, 46800, Note_off_c, 0, 48, 80
2, 46800, Note_off_c, 0, 45, 80
2, 47280, Note_on_c, 0, 59, 95
2, 47280, Note_on_c, 0, 55, 95
2, 47280, Note_on_c, 0, 50, 95
2, 47280, Note_on_c, 0, 47, 95
2, 47520, Note_off_c, 0, 59, 80
2, 47520, Note_off_c, 0, 55, 80
2, 47520, Note_off_c, 0, 50, 80
2, 47520, Note_off_c, 0, 47, 80
2, 48000, Note_on_c, 0, 55, 95
2, 48000, Note_on_c, 0, 52, 95
2, 48000, Note_on_c, 0, 48, 95
2, 48000, Note_on_c, 0, 43, 95
2, 48240, Note_off_c, 0, 55, 80
2, 48240, Note_off_c, 0, 52, 80
2, 48240, Note_off_c, 0, 48, 80
2, 48240, Note_off_c, 0, 43, 80
2, 48720, Note_on_c, 0, 57, 95
2, 48720, Note_on_c, 0, 53, 95
2, 48720, Note_on_c, 0, 48, 95
2, 48720, Note_on_c, 0, 45, 95
2, 48960, Note_off_c, 0, 57, 80
2, 48960, Note_off_c, 0, 53, 80
2, 48960, Note_off_c, 0, 48, 80
2, 48960, Note_off_c, 0, 45, 80
2, 49440, Note_on_c, 0, 55, 95
2, 49440, Note_on_c, 0, 52, 95
2, 49440, Note_on_c, 0, 47, 95
2, 49440, Note_on_c, 0, 43, 95
2, 49680, Note_off_c, 0, 55, 80
2, 49680, Note_off_c, 0, 52, 80
2, 49680, Note_off_c, 0, 47, 80
2, 49680, Note_off_c, 0, 43, 80
2, 50160, Note_on_c, 0, 55, 95
2, 50160, Note_on_c, 0, 50, 95
2, 50160, Note_on_c, 0, 47, 95
2, 50160, Note_on_c, 0, 43, 95
2, 50400, Note_off_c, 0, 55, 80
2, 50400, Note_off_c, 0, 50, 80
2, 50400, Note_off_c, 0, 47, 80
2, 50400, Note_off_c, 0, 43, 80
2, 50880, Note_on_c, 0, 55, 95
2, 50880, Note_on_c, 0, 52, 95
2, 50880, Note_on_c, 0, 48, 95
2, 50880, Note_on_c, 0, 43, 95
2, 51120, Note_off_c, 0, 55, 80
2, 51120, Note_off_c, 0, 52, 80
2, 51120, Note_off_c, 0, 48, 80
2, 51120, Note_off_c, 0, 43, 80
2, 51600, Note_on_c, 0, 55, 95
2, 51600, Note_on_c, 0, 52, 95
2, 51600, Note_on_c, 0, 48, 95
2, 51600, Note_on_c, 0, 43, 95
2, 51840, Note_off_c, 0, 55, 80
2, 51840, Note_off_c, 0, 52, 80
2, 51840, Note_off_c, 0, 48, 80
2, 51840, Note_off_c, 0, 43, 80
2, 52320, Note_on_c, 0, 55, 95
2, 52320, Note_on_c, 0, 52, 95
2, 52320, Note_on_c, 0, 48, 95
2, 52320, Note_on_c, 0, 43, 95
2, 52560, Note_off_c, 0, 55, 80
2, 52560, Note_off_c, 0, 52, 80
2, 52560, Note_off_c, 0, 48, 80
2, 52560, Note_off_c, 0, 43, 80
2, 53040, Note_on_c, 0, 55, 95
2, 53040, Note_on_c, 0, 52, 95
2, 53040, Note_on_c, 0, 48, 95
2, 53040, Note_on_c, 0, 43, 95
2, 53280, Note_off_c, 0, 55, 80
2, 53280, Note_off_c, 0, 52, 80
2, 53280, Note_off_c, 0, 48, 80
2, 53280, Note_off_c, 0, 43, 80
2, 53760, Note_on_c, 0, 57, 95
2, 53760, Note_on_c, 0, 53, 95
2, 53760, Note_on_c, 0, 48, 95
2, 53760, Note_on_c, 0, 45, 95
2, 54000, Note_off_c, 0, 57, 80
2, 54000, Note_off_c, 0, 53, 80
2, 54000, Note_off_c, 0, 48, 80
2, 54000, Note_off_c, 0, 45, 80
2, 54000, Note_on_c, 0, 55, 95
2, 54000, Note_on_c, 0, 52, 95
2, 54000, Note_on_c, 0, 48, 95
2, 54000, Note_on_c, 0, 43, 95
2, 54240, Note_off_c, 0, 55, 80
2, 54240, Note_off_c, 0, 52, 80
2, 54240, Note_off_c, 0, 48, 80
2, 54240, Note_off_c, 0, 43, 80
2, 54480, Note_on_c, 0, 55, 95
2, 54480, Note_on_c, 0, 52, 95
2, 54480, Note_on_c, 0, 48, 95
2, 54480, Note_on_c, 0, 43, 95
2, 54720, Note_off_c, 0, 55, 80
2, 54720, Note_off_c, 0, 52, 80
2, 54720, Note_off_c, 0, 48, 80
2, 54720, Note_off_c, 0, 43, 80
2, 55200, Note_on_c, 0, 55, 95
2, 55200, Note_on_c, 0, 52, 95
2, 55200, Note_on_c, 0, 48, 95
2, 55200, Note_on_c, 0, 43, 95
2, 55440, Note_off_c, 0, 55, 80
2, 55440, Note_off_c, 0, 52, 80
2, 55440, Note_off_c, 0, 48, 80
2, 55440, Note_off_c, 0, 43, 80
2, 55920, Note_on_c, 0, 55, 95
2, 55920, Note_on_c, 0, 52, 95
2, 55920, Note_on_c, 0, 48, 95
2, 55920, Note_on_c, 0, 43, 95
2, 56160, Note_off_c, 0, 55, 80
2, 56160, Note_off_c, 0, 52, 80
2, 56160, Note_off_c, 0, 48, 80
2, 56160, Note_off_c, 0, 43, 80
2, 56640, Note_on_c, 0, 57, 95
2, 56640, Note_on_c, 0, 53, 95
2, 56640, Note_on_c, 0, 48, 95
2, 56640, Note_on_c, 0, 45, 95
2, 56880, Note_off_c, 0, 57, 80
2, 56880, Note_off_c, 0, 53, 80
2, 56880, Note_off_c, 0, 48, 80
2, 56880, Note_off_c, 0, 45, 80
2, 56880, Note_on_c, 0, 55, 95
2, 56880, Note_on_c, 0, 52, 95
2, 56880, Note_on_c, 0, 48, 95
2, 56880, Note_on_c, 0, 43, 95
2, 57120, Note_off_c, 0, 55, 80
2, 57120, Note_off_c, 0, 52, 80
2, 57120, Note_off_c, 0, 48, 80
2, 57120, Note_off_c, 0, 43, 80
2, 57360, Note_on_c, 0, 55, 95
2, 57360, Note_on_c, 0, 52, 95
2, 57360, Note_on_c, 0, 48, 95
2, 57360, Note_on_c, 0, 43, 95
2, 57600, Note_off_c, 0, 55, 80
2, 57600, Note_off_c, 0, 52, 80
2, 57600, Note_off_c, 0, 48, 80
2, 57600, Note_off_c, 0, 43, 80
2, 58080, Note_on_c, 0, 55, 95
2, 58080, Note_on_c, 0, 52, 95
2, 58080, Note_on_c, 0, 48, 95
2, 58080, Note_on_c, 0, 43, 95
2, 58320, Note_off_c, 0, 55, 80
2, 58320, Note_off_c, 0, 52, 80
2, 58320, Note_off_c, 0, 48, 80
2, 58320, Note_off_c, 0, 43, 80
2, 58800, Note_on_c, 0, 59, 95
2, 58800, Note_on_c, 0, 55, 95
2, 58800, Note_on_c, 0, 52, 95
2, 58800, Note_on_c, 0, 47, 95
2, 59040, Note_off_c, 0, 59, 80
2, 59040, Note_off_c, 0, 55, 80
2, 59040, Note_off_c, 0, 52, 80
2, 59040, Note_off_c, 0, 47, 80
2, 59520, Note_on_c, 0, 57, 95
2, 59520, Note_on_c, 0, 52, 95
2, 59520, Note_on_c, 0, 48, 95
2, 59520, Note_on_c, 0, 45, 95
2, 59760, Note_off_c, 0, 57, 80
2, 59760, Note_off_c, 0, 52, 80
2, 59760, Note_off_c, 0, 48, 80
2, 59760, Note_off_c, 0, 45, 80
2, 60240, Note_on_c, 0, 57, 95
2, 60240, Note_on_c, 0, 52, 95
2, 60240, Note_on_c, 0, 48, 95
2, 60240, Note_on_c, 0, 45, 95
2, 60480, Note_off_c, 0, 57, 80
2, 60480, Note_off_c, 0, 52, 80
2, 60480, Note_off_c, 0, 48, 80
2, 60480, Note_off_c, 0, 45, 80
2, 60960, Note_on_c, 0, 57, 95
2, 60960, Note_on_c, 0, 53, 95
2, 60960, Note_on_c, 0, 50, 95
2, 60960, Note_on_c, 0, 45, 95
2, 61200, Note_off_c, 0, 57, 80
2, 61200, Note_off_c, 0, 53, 80
2, 61200, Note_off_c, 0, 50, 80
2, 61200, Note_off_c, 0, 45, 80
2, 61680, Note_on_c, 0, 55, 95
2, 61680, Note_on_c, 0, 50, 95
2, 61680, Note_on_c, 0, 47, 95
2, 61680, Note_on_c, 0, 43, 95
2, 61920, Note_off_c, 0, 55, 80
2, 61920, Note_off_c, 0, 50, 80
2, 61920, Note_off_c, 0, 47, 80
2, 61920, Note_off_c, 0, 43, 80
2, 62400, Note_on_c, 0, 55, 95
2, 62400, Note_on_c, 0, 52, 95
2, 62400, Note_on_c, 0, 48, 95
2, 62400, Note_on_c, 0, 43, 95
2, 62640, Note_off_c, 0, 55, 80
2, 62640, Note_off_c, 0, 52, 80
2, 62640, Note_off_c, 0, 48, 80
2, 62640, Note_off_c, 0, 43, 80
2, 63120, Note_on_c, 0, 55, 95
2, 63120, Note_on_c, 0, 52, 95
2, 63120, Note_on_c, 0, 48, 95
2, 63120, Note_on_c, 0, 43, 95
2, 63360, Note_off_c, 0, 55, 80
2, 63360, Note_off_c, 0, 52, 80
2, 63360, Note_off_c, 0, 48, 80
2, 63360, Note_off_c, 0, 43, 80
2, 63840, Note_on_c, 0, 57, 95
2, 63840, Note_on_c, 0, 53, 95
2, 63840, Note_on_c, 0, 48, 95
2, 63840, Note_on_c, 0, 45, 95
2, 64080, Note_off_c, 0, 57, 80
2, 64080, Note_off_c, 0, 53, 80
2, 64080, Note_off_c, 0, 48, 80
2, 64080, Note_off_c, 0, 45, 80
2, 64560, Note_on_c, 0, 59, 95
2, 64560, Note_on_c, 0, 55, 95
2, 64560, Note_on_c, 0, 50, 95
2, 64560, Note_on_c, 0, 47, 95
2, 64800, Note_off_c, 0, 59, 80
2, 64800, Note_off_c, 0, 55, 80
2, 64800, Note_off_c, 0, 50, 80
2, 64800, Note_off_c, 0, 47, 80
2, 65280, Note_on_c, 0, 60, 95
2, 65280, Note_on_c, 0, 55, 95
2, 65280, Note_on_c, 0, 52, 95
2, 65280, Note_on_c, 0, 48, 95
2, 65520, Note_off_c, 0, 60, 80
2, 65520, Note_off_c, 0, 55, 80
2, 65520, Note_off_c, 0, 52, 80
2, 65520, Note_off_c, 0, 48, 80
2, 66000, Note_on_c, 0, 57, 95
2, 66000, Note_on_c, 0, 52, 95
2, 66000, Note_on_c, 0, 48, 95
2, 66000, Note_on_c, 0, 45, 95
2, 66240, Note_off_c, 0, 57, 80
2, 66240, Note_off_c, 0, 52, 80
2, 66240, Note_off_c, 0, 48, 80
2, 66240, Note_off_c, 0, 45, 80
2, 66720, Note_on_c, 0, 57, 95
2, 66720, Note_on_c, 0, 53, 95
2, 66720, Note_on_c, 0, 50, 95
2, 66720, Note_on_c, 0, 45, 95
2, 66960, Note_off_c, 0, 57, 80
2, 66960, Note_off_c, 0, 53, 80
2, 66960, Note_off_c, 0, 50, 80
2, 66960, Note_off_c, 0, 45, 80
2, 67440, Note_on_c, 0, 55, 95
2, 67440, Note_on_c, 0, 50, 95
2, 67440, Note_on_c, 0, 47, 95
2, 67440, Note_on_c, 0, 43, 95
2, 67680, Note_off_c, 0, 55, 80
2, 67680, Note_off_c, 0, 50, 80
2, 67680, Note_off_c, 0, 47, 80
2, 67680, Note_off_c, 0, 43, 80
2, 68160, Note_on_c, 0, 55, 95
2, 68160, Note_on_c, 0, 52, 95
2, 68160, Note_on_c, 0, 48, 95
2, 68160, Note_on_c, 0, 43, 95
2, 68400, Note_off_c, 0, 55, 80
2, 68400, Note_off_c, 0, 52, 80
2, 68400, Note_off_c, 0, 48, 80
2, 68400, Note_off_c, 0, 43, 80
2, 68880, Note_on_c, 0, 55, 95
2, 68880, Note_on_c, 0, 52, 95
2, 68880, Note_on_c, 0, 48, 95
2, 68880, Note_on_c, 0, 43, 95
2, 69120, Note_off_c, 0, 55, 80
2, 69120, Note_off_c, 0, 52, 80
2, 69120, Note_off_c, 0, 48, 80
2, 69120, Note_off_c, 0, 43, 80
2, 69600, Note_on_c, 0, 57, 95
2, 69600, Note_on_c, 0, 53, 95
2, 69600, Note_on_c, 0, 48, 95
2, 69600, Note_on_c, 0, 45, 95
2, 69840, Note_off_c, 0, 57, 80
2, 69840, Note_off_c, 0, 53, 80
2, 69840, Note_off_c, 0, 48, 80
2, 69840, Note_off_c, 0, 45, 80
2, 70320, Note_on_c, 0, 59, 95
2, 70320, Note_on_c, 0, 55, 95
2, 70320, Note_on_c, 0, 50, 95
2, 70320, Note_on_c, 0, 47, 95
2, 70560, Note_off_c, 0, 59, 80
2, 70560, Note_off_c, 0, 55, 80
2, 70560, Note_off_c, 0, 50, 80
2, 70560, Note_off_c, 0, 47, 80
2, 71040, Note_on_c, 0, 55, 95
2, 71040, Note_on_c, 0, 52, 95
2, 71040, Note_on_c, 0, 48, 95
2, 71040, Note_on_c, 0, 43, 95
2, 71280, Note_off_c, 0, 55, 80
2, 71280, Note_off_c, 0, 52, 80
2, 71280, Note_off_c, 0, 48, 80
2, 71280, Note_off_c, 0, 43, 80
2, 71760, Note_on_c, 0, 57, 95
2, 71760, Note_on_c, 0, 53, 95
2, 71760, Note_on_c, 0, 48, 95
2, 71760, Note_on_c, 0, 45, 95
2, 72000, Note_off_c, 0, 57, 80
2, 72000, Note_off_c, 0, 53, 80
2, 72000, Note_off_c, 0, 48, 80
2, 72000, Note_off_c, 0, 45, 80
2, 72480, Note_on_c, 0, 55, 95
2, 72480, Note_on_c, 0, 52, 95
2, 72480, Note_on_c, 0, 47, 95
2, 72480, Note_on_c, 0, 43, 95
2, 72720, Note_off_c, 0, 55, 80
2, 72720, Note_off_c, 0, 52, 80
2, 72720, Note_off_c, 0, 47, 80
2, 72720, Note_off_c, 0, 43, 80
2, 73200, Note_on_c, 0, 55, 95
2, 73200, Note_on_c, 0, 50, 95
2, 73200, Note_on_c, 0, 47, 95
2, 73200, Note_on_c, 0, 43, 95
2, 73440, Note_off_c, 0, 55, 80
2, 73440, Note_off_c, 0, 50, 80
2, 73440, Note_off_c, 0, 47, 80
2, 73440, Note_off_c, 0, 43, 80
2, 73920, Note_on_c, 0, 55, 95
2, 73920, Note_on_c, 0, 52, 95
2, 73920, Note_on_c, 0, 48, 95
2, 73920, Note_on_c, 0, 43, 95
2, 74160, Note_off_c, 0, 55, 80
2, 74160, Note_off_c, 0, 52, 80
2, 74160, Note_off_c, 0, 48, 80
2, 74160, Note_off_c, 0, 43, 80
2, 74640, Note_on_c, 0, 55, 95
2, 74640, Note_on_c, 0, 52, 95
2, 74640, Note_on_c, 0, 48, 95
2, 74640, Note_on_c, 0, 43, 95
2, 74880, Note_off_c, 0, 55, 80
2, 74880, Note_off_c, 0, 52, 80
2, 74880, Note_off_c, 0, 48, 80
2, 74880, Note_off_c, 0, 43, 80
2, 75360, Note_on_c, 0, 55, 95
2, 75360, Note_on_c, 0, 52, 95
2, 75360, Note_on_c, 0, 48, 95
2, 75360, Note_on_c, 0, 43, 95
2, 75600, Note_off_c, 0, 55, 80
2, 75600, Note_off_c, 0, 52, 80
2, 75600, Note_off_c, 0, 48, 80
2, 75600, Note_off_c, 0, 43, 80
2, 76080, Note_on_c, 0, 55, 95
2, 76080, Note_on_c, 0, 52, 95
2, 76080, Note_on_c, 0, 48, 95
2, 76080, Note_on_c, 0, 43, 95
2, 76320, Note_off_c, 0, 55, 80
2, 76320, Note_off_c, 0, 52, 80
2, 76320, Note_off_c, 0, 48, 80
2, 76320, Note_off_c, 0, 43, 80
2, 76800, Note_on_c, 0, 57, 95
2, 76800, Note_on_c, 0, 53, 95
2, 76800, Note_on_c, 0, 48, 95
2, 76800, Note_on_c, 0, 45, 95
2, 77040, Note_off_c, 0, 57, 80
2, 77040, Note_off_c, 0, 53, 80
2, 77040, Note_off_c, 0, 48, 80
2, 77040, Note_off_c, 0, 45, 80
2, 77040, Note_on_c, 0, 55, 95
2, 77040, Note_on_c, 0, 52, 95
2, 77040, Note_on_c, 0, 48, 95
2, 77040, Note_on_c, 0, 43, 95
2, 77280, Note_off_c, 0, 55, 80
2, 77280, Note_off_c, 0, 52, 80
2, 77280, Note_off_c, 0, 48, 80
2, 77280, Note_off_c, 0, 43, 80
2, 77520, Note_on_c, 0, 55, 95
2, 77520, Note_on_c, 0, 52, 95
2, 77520, Note_on_c, 0, 48, 95
2, 77520, Note_on_c, 0, 43, 95
2, 77760, Note_off_c, 0, 55, 80
2, 77760, Note_off_c, 0, 52, 80
2, 77760, Note_off_c, 0, 48, 80
2, 77760, Note_off_c, 0, 43, 80
2, 78240, Note_on_c, 0, 55, 95
2, 78240, Note_on_c, 0, 52, 95
2, 78240, Note_on_c, 0, 48, 95
2, 78240, Note_on_c, 0, 43, 95
2, 78480, Note_off_c, 0, 55, 80
2, 78480, Note_off_c, 0, 52, 80
2, 78480, Note_off_c, 0, 48, 80
2, 78480, Note_off_c, 0, 43, 80
2, 78960, Note_on_c, 0, 55, 95
2, 78960, Note_on_c, 0, 52, 95
2, 78960, Note_on_c, 0, 48, 95
2, 78960, Note_on_c, 0, 43, 95
2, 79200, Note_off_c, 0, 55, 80
2, 79200, Note_off_c, 0, 52, 80
2, 79200, Note_off_c, 0, 48, 80
2, 79200, Note_off_c, 0, 43, 80
2, 79680, Note_on_c, 0, 57, 95
2, 79680, Note_on_c, 0, 53, 95
2, 79680, Note_on_c, 0, 48, 95
2, 79680, Note_on_c, 0, 45, 95
2, 79920, Note_off_c, 0, 57, 80
2, 79920, Note_off_c, 0, 53, 80
2, 79920, Note_off_c, 0, 48, 80
2, 79920, Note_off_c, 0, 45, 80
2, 79920, Note_on_c, 0, 55, 95
2, 79920, Note_on_c, 0, 52, 95
2, 79920, Note_on_c, 0, 48, 95
2, 79920, Note_on_c, 0, 43, 95
2, 80160, Note_off_c, 0, 55, 80
2, 80160, Note_off_c, 0, 52, 80
2, 80160, Note_off_c, 0, 48, 80
2, 80160, Note_off_c, 0, 43, 80
2, 80400, Note_on_c, 0, 55, 95
2, 80400, Note_on_c, 0, 52, 95
2, 80400, Note_on_c, 0, 48, 95
2, 80400, Note_on_c, 0, 43, 95
2, 80640, Note_off_c, 0, 55, 80
2, 80640, Note_off_c, 0, 52, 80
2, 80640, Note_off_c, 0, 48, 80
2, 80640, Note_off_c, 0, 43, 80
2, 81120, Note_on_c, 0, 55, 95
2, 81120, Note_on_c, 0, 52, 95
2, 81120, Note_on_c, 0, 48, 95
2, 81120, Note_on_c, 0, 43, 95
2, 81360, Note_off_c, 0, 55, 80
2, 81360, Note_off_c, 0, 52, 80
2, 81360, Note_off_c, 0, 48, 80
2, 81360, Note_off_c, 0, 43, 80
2, 81840, Note_on_c, 0, 59, 95
2, 81840, Note_on_c, 0, 55, 95
2, 81840, Note_on_c, 0, 52, 95
2, 81840, Note_on_c, 0, 47, 95
2, 82080, Note_off_c, 0, 59, 80
2, 82080, Note_off_c, 0, 55, 80
2, 82080, Note_off_c, 0, 52, 80
2, 82080, Note_off_c, 0, 47, 80
2, 82560, Note_on_c, 0, 57, 95
2, 82560, Note_on_c, 0, 52, 95
2, 82560, Note_on_c, 0, 48, 95
2, 82560, Note_on_c, 0, 45, 95
2, 82800, Note_off_c, 0, 57, 80
2, 82800, Note_off_c, 0, 52, 80
2, 82800, Note_off_c, 0, 48, 80
2, 82800, Note_off_c, 0, 45, 80
2, 83280, Note_on_c, 0, 57, 95
2, 83280, Note_on_c, 0, 52, 95
2, 83280, Note_on_c, 0, 48, 95
2, 83280, Note_on_c, 0, 45, 95
2, 83520, Note_off_c, 0, 57, 80
2, 83520, Note_off_c, 0, 52, 80
2, 83520, Note_off_c, 0, 48, 80
2, 83520, Note_off_c, 0, 45, 80
2, 84000, Note_on_c, 0, 57, 95
2, 84000, Note_on_c, 0, 53, 95
2, 84000, Note_on_c, 0, 50, 95
2, 84000, Note_on_c, 0, 45, 95
2, 84240, Note_off_c, 0, 57, 80
2, 84240, Note_off_c, 0, 53, 80
2, 84240, Note_off_c, 0, 50, 80
2, 84240, Note_off_c, 0, 45, 80
2, 84720, Note_on_c, 0, 55, 95
2, 84720, Note_on_c, 0, 50, 95
2, 84720, Note_on_c, 0, 47, 95
2, 84720, Note_on_c, 0, 43, 95
2, 84960, Note_off_c, 0, 55, 80
2, 84960, Note_off_c, 0, 50, 80
2, 84960, Note_off_c, 0, 47, 80
2, 84960, Note_off_c, 0, 43, 80
2, 85440, Note_on_c, 0, 55, 95
2, 85440, Note_on_c, 0, 52, 95
2, 85440, Note_on_c, 0, 48, 95
2, 85440, Note_on_c, 0, 43, 95
2, 85680, Note_off_c, 0, 55, 80
2, 85680, Note_off_c, 0, 52, 80
2, 85680, Note_off_c, 0, 48, 80
2, 85680, Note_off_c, 0, 43, 80
2, 86160, Note_on_c, 0, 55, 95
2, 86160, Note_on_c, 0, 52, 95
2, 86160, Note_on_c, 0, 48, 95
2, 86160, Note_on_c, 0, 43, 95
2, 86400, Note_off_c, 0, 55, 80
2, 86400, Note_off_c, 0, 52, 80
2, 86400, Note_off_c, 0, 48, 80
2, 86400, Note_off_c, 0, 43, 80
2, 86880, Note_on_c, 0, 57, 95
2, 86880, Note_on_c, 0, 53, 95
2, 86880, Note_on_c, 0, 48, 95
2, 86880, Note_on_c, 0, 45, 95
2, 87120, Note_off_c, 0, 57, 80
2, 87120, Note_off_c, 0, 53, 80
2, 87120, Note_off_c, 0, 48, 80
2, 87120, Note_off_c, 0, 45, 80
2, 87600, Note_on_c, 0, 59, 95
2, 87600, Note_on_c, 0, 55, 95
2, 87600, Note_on_c, 0, 50, 95
2, 87600, Note_on_c, 0, 47, 95
2, 87840, Note_off_c, 0, 59, 80
2, 87840, Note_off_c, 0, 55, 80
2, 87840, Note_off_c, 0, 50, 80
2, 87840, Note_off_c, 0, 47, 80
2, 88320, Note_on_c, 0, 60, 95
2, 88320, Note_on_c, 0, 55, 95
2, 88320, Note_on_c, 0, 52, 95
2, 88320, Note_on_c, 0, 48, 95
2, 88560, Note_off_c, 0, 60, 80
2, 88560, Note_off_c, 0, 55, 80
2, 88560, Note_off_c, 0, 52, 80
2, 88560, Note_off_c, 0, 48, 80
2, 89040, Note_on_c, 0, 57, 95
2, 89040, Note_on_c, 0, 52, 95
2, 89040, Note_on_c, 0, 48, 95
2, 89040, Note_on_c, 0, 45, 95
2, 89280, Note_off_c, 0, 57, 80
2, 89280, Note_off_c, 0, 52, 80
2, 89280, Note_off_c, 0, 48, 80
2, 89280, Note_off_c, 0, 45, 80
2, 89760, Note_on_c, 0, 57, 95
2, 89760, Note_on_c, 0, 53, 95
2, 89760, Note_on_c, 0, 50, 95
2, 89760, Note_on_c, 0, 45, 95
2, 90000, Note_off_c, 0, 57, 80
2, 90000, Note_off_c, 0, 53, 80
2, 90000, Note_off_c, 0, 50, 80
2, 90000, Note_off_c, 0, 45, 80
2, 90480, Note_on_c, 0, 55, 95
2, 90480, Note_on_c, 0, 50, 95
2, 90480, Note_on_c, 0, 47, 95
2, 90480, Note_on_c, 0, 43, 95
2, 90720, Note_off_c, 0, 55, 80
2, 90720, Note_off_c, 0, 50, 80
2, 90720, Note_off_c, 0, 47, 80
2, 90720, Note_off_c, 0, 43, 80
2, 91200, Note_on_c, 0, 55, 95
2, 91200, Note_on_c, 0, 52, 95
2, 91200, Note_on_c, 0, 48, 95
2, 91200, Note_on_c, 0, 43, 95
2, 91440, Note_off_c, 0, 55, 80
2, 91440, Note_off_c, 0, 52, 80
2, 91440, Note_off_c, 0, 48, 80
2, 91440, Note_off_c, 0, 43, 80
2, 91920, Note_on_c, 0, 55, 95
2, 91920, Note_on_c, 0, 52, 95
2, 91920, Note_on_c, 0, 48, 95
2, 91920, Note_on_c, 0, 43, 95
2, 92160, Note_off_c, 0, 55, 80
2, 92160, Note_off_c, 0, 52, 80
2, 92160, Note_off_c, 0, 48, 80
2, 92160, Note_off_c, 0, 43, 80
2, 92640, Note_on_c, 0, 57, 95
2, 92640, Note_on_c, 0, 53, 95
2, 92640, Note_on_c, 0, 48, 95
2, 92640, Note_on_c, 0, 45, 95
2, 92880, Note_off_c, 0, 57, 80
2, 92880, Note_off_c, 0, 53, 80
2, 92880, Note_off_c, 0, 48, 80
2, 92880, Note_off_c, 0, 45, 80
2, 93360, Note_on_c, 0, 59, 95
2, 93360, Note_on_c, 0, 55, 95
2, 93360, Note_on_c, 0, 50, 95
2, 93360, Note_on_c, 0, 47, 95
2, 93600, Note_off_c, 0, 59, 80
2, 93600, Note_off_c, 0, 55, 80
2, 93600, Note_off_c, 0, 50, 80
2, 93600, Note_off_c, 0, 47, 80
2, 94080, Note_on_c, 0, 55, 95
2, 94080, Note_on_c, 0, 52, 95
2, 94080, Note_on_c, 0, 48, 95
2, 94080, Note_on_c, 0, 43, 95
2, 94320, Note_off_c, 0, 55, 80
2, 94320, Note_off_c, 0, 52, 80
2, 94320, Note_off_c, 0, 48, 80
2, 94320, Note_off_c, 0, 43, 80
2, 94800, Note_on_c, 0, 57, 95
2, 94800, Note_on_c, 0, 53, 95
2, 94800, Note_on_c, 0, 48, 95
2, 94800, Note_on_c, 0, 45, 95
2, 95040, Note_off_c, 0, 57, 80
2, 95040, Note_off_c, 0, 53, 80
2, 95040, Note_off_c, 0, 48, 80
2, 95040, Note_off_c, 0, 45, 80
2, 95520, Note_on_c, 0, 55, 95
2, 95520, Note_on_c, 0, 52, 95
2, 95520, Note_on_c, 0, 47, 95
2, 95520, Note_on_c, 0, 43, 95
2, 95760, Note_off_c, 0, 55, 80
2, 95760, Note_off_c, 0, 52, 80
2, 95760, Note_off_c, 0, 47, 80
2, 95760, Note_off_c, 0, 43, 80
2, 96240, Note_on_c, 0, 55, 95
2, 96240, Note_on_c, 0, 50, 95
2, 96240, Note_on_c, 0, 47, 95
2, 96240, Note_on_c, 0, 43, 95
2, 96480, Note_off_c, 0, 55, 80
2, 96480, Note_off_c, 0, 50, 80
2, 96480, Note_off_c, 0, 47, 80
2, 96480, Note_off_c, 0, 43, 80
2, 96960, Note_on_c, 0, 55, 95
2, 96960, Note_on_c, 0, 52, 95
2, 96960, Note_on_c, 0, 48, 95
2, 96960, Note_on_c, 0, 43, 95
2, 97200, Note_off_c, 0, 55, 80
2, 97200, Note_off_c, 0, 52, 80
2, 97200, Note_off_c, 0, 48, 80
2, 97200, Note_off_c, 0, 43, 80
2, 97680, Note_on_c, 0, 55, 95
2, 97680, Note_on_c, 0, 52, 95
2, 97680, Note_on_c, 0, 48, 95
2, 97680, Note_on_c, 0, 43, 95
2, 97920, Note_off_c, 0, 55, 80
2, 97920, Note_off_c, 0, 52, 80
2, 97920, Note_off_c, 0, 48, 80
2, 97920, Note_off_c, 0, 43, 80
2, 98400, Note_on_c, 0, 55, 95
2, 98400, Note_on_c, 0, 52, 95
2, 98400, Note_on_c, 0, 48, 95
2, 98400, Note_on_c, 0, 43, 95
2, 98640, Note_off_c, 0, 55, 80
2, 98640, Note_off_c, 0, 52, 80
2, 98640, Note_off_c, 0, 48, 80
2, 98640, Note_off_c, 0, 43, 80
2, 99120, Note_on_c, 0, 55, 95
2, 99120, Note_on_c, 0, 52, 95
2, 99120, Note_on_c, 0, 48, 95
2, 99120, Note_on_c, 0, 43, 95
2, 99360, Note_off_c, 0, 55, 80
2, 99360, Note_off_c, 0, 52, 80
2, 99360, Note_off_c, 0, 48, 80
2, 99360, Note_off_c, 0, 43, 80
2, 99840, Note_on_c, 0, 57, 95
2, 99840, Note_on_c, 0, 53, 95
2, 99840, Note_on_c, 0, 48, 95
2, 99840, Note_on_c, 0, 45, 95
2, 100080, Note_off_c, 0, 57, 80
2, 100080, Note_off_c, 0, 53, 80
2, 100080, Note_off_c, 0, 48, 80
2, 100080, Note_off_c, 0, 45, 80
2, 100080, Note_on_c, 0, 55, 95
2, 100080, Note_on_c, 0, 52, 95
2, 100080, Note_on_c, 0, 48, 95
2, 100080, Note_on_c, 0, 43, 95
2, 100320, Note_off_c, 0, 55, 80
2, 100320, Note_off_c, 0, 52, 80
2, 100320, Note_off_c, 0, 48, 80
2, 100320, Note_off_c, 0, 43, 80
2, 100560, Note_on_c, 0, 55, 95
2, 100560, Note_on_c, 0, 52, 95
2, 100560, Note_on_c, 0, 48, 95
2, 100560, Note_on_c, 0, 43, 95
2, 100800, Note_off_c, 0, 55, 80
2, 100800, Note_off_c, 0, 52, 80
2, 100800, Note_off_c, 0, 48, 80
2, 100800, Note_off_c, 0, 43, 80
2, 101280, Note_on_c, 0, 55, 95
2, 101280, Note_on_c, 0, 52, 95
2, 101280, Note_on_c, 0, 48, 95
2, 101280, Note_on_c, 0, 43, 95
2, 101520, Note_off_c, 0, 55, 80
2, 101520, Note_off_c, 0, 52, 80
2, 101520, Note_off_c, 0, 48, 80
2, 101520, Note_off_c, 0, 43, 80
2, 102000, Note_on_c, 0, 55, 95
2, 102000, Note_on_c, 0, 52, 95
2, 102000, Note_on_c, 0, 48, 95
2, 102000, Note_on_c, 0, 43, 95
2, 102240, Note_off_c, 0, 55, 80
2, 102240, Note_off_c, 0, 52, 80
2, 102240, Note_off_c, 0, 48, 80
2, 102240, Note_off_c, 0, 43, 80
2, 102720, Note_on_c, 0, 57, 95
2, 102720, Note_on_c, 0, 53, 95
2, 102720, Note_on_c, 0, 48, 95
2, 102720, Note_on_c, 0, 45, 95
2, 102960, Note_off_c, 0, 57, 80
2, 102960, Note_off_c, 0, 53, 80
2, 102960, Note_off_c, 0, 48, 80
2, 102960, Note_off_c, 0, 45, 80
2, 102960, Note_on_c, 0, 55, 95
2, 102960, Note_on_c, 0, 52, 95
2, 102960, Note_on_c, 0, 48, 95
2, 102960, Note_on_c, 0, 43, 95
2, 103200, Note_off_c, 0, 55, 80
2, 103200, Note_off_c, 0, 52, 80
2, 103200, Note_off_c, 0, 48, 80
2, 103200, Note_off_c, 0, 43, 80
2, 103440, Note_on_c, 0, 55, 95
2, 103440, Note_on_c, 0, 52, 95
2, 103440, Note_on_c, 0, 48, 95
2, 103440, Note_on_c, 0, 43, 95
2, 103680, Note_off_c, 0, 55, 80
2, 103680, Note_off_c, 0, 52, 80
2, 103680, Note_off_c, 0, 48, 80
2, 103680, Note_off_c, 0, 43, 80
2, 104160, Note_on_c, 0, 55, 95
2, 104160, Note_on_c, 0, 52, 95
2, 104160, Note_on_c, 0, 48, 95
2, 104160, Note_on_c, 0, 43, 95
2, 104400, Note_off_c, 0, 55, 80
2, 104400, Note_off_c, 0, 52, 80
2, 104400, Note_off_c, 0, 48, 80
2, 104400, Note_off_c, 0, 43, 80
2, 104880, Note_on_c, 0, 59, 95
2, 104880, Note_on_c, 0, 55, 95
2, 104880, Note_on_c, 0, 52, 95
2, 104880, Note_on_c, 0, 47, 95
2, 105120, Note_off_c, 0, 59, 80
2, 105120, Note_off_c, 0, 55, 80
2, 105120, Note_off_c, 0, 52, 80
2, 105120, Note_off_c, 0, 47, 80
2, 105600, Note_on_c, 0, 57, 95
2, 105600, Note_on_c, 0, 52, 95
2, 105600, Note_on_c, 0, 48, 95
2, 105600, Note_on_c, 0, 45, 95
2, 105840, Note_off_c, 0, 57, 80
2, 105840, Note_off_c, 0, 52, 80
2, 105840, Note_off_c, 0, 48, 80
2, 105840, Note_off_c, 0, 45, 80
2, 106320, Note_on_c, 0, 57, 95
2, 106320, Note_on_c, 0, 52, 95
2, 106320, Note_on_c, 0, 48, 95
2, 106320, Note_on_c, 0, 45, 95
2, 106560, Note_off_c, 0, 57, 80
2, 106560, Note_off_c, 0, 52, 80
2, 106560, Note_off_c, 0, 48, 80
2, 106560, Note_off_c, 0, 45, 80
2, 107040, Note_on_c, 0, 57, 95
2, 107040, Note_on_c, 0, 53, 95
2, 107040, Note_on_c, 0, 50, 95
2, 107040, Note_on_c, 0, 45, 95
2, 107280, Note_off_c, 0, 57, 80
2, 107280, Note_off_c, 0, 53, 80
2, 107280, Note_off_c, 0, 50, 80
2, 107280, Note_off_c, 0, 45, 80
2, 107760, Note_on_c, 0, 55, 95
2, 107760, Note_on_c, 0, 50, 95
2, 107760, Note_on_c, 0, 47, 95
2, 107760, Note_on_c, 0, 43, 95
2, 108000, Note_off_c, 0, 55, 80
2, 108000, Note_off_c, 0, 50, 80
2, 108000, Note_off_c, 0, 47, 80
2, 108000, Note_off_c, 0, 43, 80
2, 108480, Note_on_c, 0, 55, 95
2, 108480, Note_on_c, 0, 52, 95
2, 108480, Note_on_c, 0, 48, 95
2, 108480, Note_on_c, 0, 43, 95
2, 108720, Note_off_c, 0, 55, 80
2, 108720, Note_off_c, 0, 52, 80
2, 108720, Note_off_c, 0, 48, 80
2, 108720, Note_off_c, 0, 43, 80
2, 109200, Note_on_c, 0, 55, 95
2, 109200, Note_on_c, 0, 52, 95
2, 109200, Note_on_c, 0, 48, 95
2, 109200, Note_on_c, 0, 43, 95
2, 109440, Note_off_c, 0, 55, 80
2, 109440, Note_off_c, 0, 52, 80
2, 109440, Note_off_c, 0, 48, 80
2, 109440, Note_off_c, 0, 43, 80
2, 109920, Note_on_c, 0, 57, 95
2, 109920, Note_on_c, 0, 53, 95
2, 109920, Note_on_c, 0, 48, 95
2, 109920, Note_on_c, 0, 45, 95
2, 110160, Note_off_c, 0, 57, 80
2, 110160, Note_off_c, 0, 53, 80
2, 110160, Note_off_c, 0, 48, 80
2, 110160, Note_off_c, 0, 45, 80
2, 110640, Note_on_c, 0, 59, 95
2, 110640, Note_on_c, 0, 55, 95
2, 110640, Note_on_c, 0, 50, 95
2, 110640, Note_on_c, 0, 47, 95
2, 110880, Note_off_c, 0, 59, 80
2, 110880, Note_off_c, 0, 55, 80
2, 110880, Note_off_c, 0, 50, 80
2, 110880, Note_off_c, 0, 47, 80
2, 111360, Note_on_c, 0, 60, 95
2, 111360, Note_on_c, 0, 55, 95
2, 111360, Note_on_c, 0, 52, 95
2, 111360, Note_on_c, 0, 48, 95
2, 111600, Note_off_c, 0, 60, 80
2, 111600, Note_off_c, 0, 55, 80
2, 111600, Note_off_c, 0, 52, 80
2, 111600, Note_off_c, 0, 48, 80
2, 112080, Note_on_c, 0, 57, 95
2, 112080, Note_on_c, 0, 52, 95
2, 112080, Note_on_c, 0, 48, 95
2, 112080, Note_on_c, 0, 45, 95
2, 112320, Note_off_c, 0, 57, 80
2, 112320, Note_off_c, 0, 52, 80
2, 112320, Note_off_c, 0, 48, 80
2, 112320, Note_off_c, 0, 45, 80
2, 112800, Note_on_c, 0, 57, 95
2, 112800, Note_on_c, 0, 53, 95
2, 112800, Note_on_c, 0, 50, 95
2, 112800, Note_on_c, 0, 45, 95
2, 113040, Note_off_c, 0, 57, 80
2, 113040, Note_off_c, 0, 53, 80
2, 113040, Note_off_c, 0, 50, 80
2, 113040, Note_off_c, 0, 45, 80
2, 113520, Note_on_c, 0, 55, 95
2, 113520, Note_on_c, 0, 50, 95
2, 113520, Note_on_c, 0, 47, 95
2, 113520, Note_on_c, 0, 43, 95
2, 113760, Note_off_c, 0, 55, 80
2, 113760, Note_off_c, 0, 50, 80
2, 113760, Note_off_c, 0, 47, 80
2, 113760, Note_off_c, 0, 43, 80
2, 114240, Note_on_c, 0, 55, 95
2, 114240, Note_on_c, 0, 52, 95
2, 114240, Note_on_c, 0, 48, 95
2, 114240, Note_on_c, 0, 43, 95
2, 114480, Note_off_c, 0, 55, 80
2, 114480, Note_off_c, 0, 52, 80
2, 114480, Note_off_c, 0, 48, 80
2, 114480, Note_off_c, 0, 43, 80
2, 114960, Note_on_c, 0, 55, 95
2, 114960, Note_on_c, 0, 52, 95
2, 114960, Note_on_c, 0, 48, 95
2, 114960, Note_on_c, 0, 43, 95
2, 115200, Note_off_c, 0, 55, 80
2, 115200, Note_off_c, 0, 52, 80
2, 115200, Note_off_c, 0, 48, 80
2, 115200, Note_off_c, 0, 43, 80
2, 115680, Note_on_c, 0, 57, 95
2, 115680, Note_on_c, 0, 53, 95
2, 115680, Note_on_c, 0, 48, 95
2, 115680, Note_on_c, 0, 45, 95
2, 115920, Note_off_c, 0, 57, 80
2, 115920, Note_off_c, 0, 53, 80
2, 115920, Note_off_c, 0, 48, 80
2, 115920, Note_off_c, 0, 45, 80
2, 116400, Note_on_c, 0, 59, 95
2, 116400, Note_on_c, 0, 55, 95
2, 116400, Note_on_c, 0, 50, 95
2, 116400, Note_on_c, 0, 47, 95
2, 116640, Note_off_c, 0, 59, 80
2, 116640, Note_off_c, 0, 55, 80
2, 116640, Note_off_c, 0, 50, 80
2, 116640, Note_off_c, 0, 47, 80
2, 117120, Note_on_c, 0, 55, 95
2, 117120, Note_on_c, 0, 52, 95
2, 117120, Note_on_c, 0, 48, 95
2, 117120, Note_on_c, 0, 43, 95
2, 117360, Note_off_c, 0, 55, 80
2, 117360, Note_off_c, 0, 52, 80
2, 117360, Note_off_c, 0, 48, 80
2, 117360, Note_off_c, 0, 43, 80
2, 117840, Note_on_c, 0, 57, 95
2, 117840, Note_on_c, 0, 53, 95
2, 117840, Note_on_c, 0, 48, 95
2, 117840, Note_on_c, 0, 45, 95
2, 118080, Note_off_c, 0, 57, 80
2, 118080, Note_off_c, 0, 53, 80
2, 118080, Note_off_c, 0, 48, 80
2, 118080, Note_off_c, 0, 45, 80
2, 118560, Note_on_c, 0, 55, 95
2, 118560, Note_on_c, 0, 52, 95
2, 118560, Note_on_c, 0, 47, 95
2, 118560, Note_on_c, 0, 43, 95
2, 118800, Note_off_c, 0, 55, 80
2, 118800, Note_off_c, 0, 52, 80
2, 118800, Note_off_c, 0, 47, 80
2, 118800, Note_off_c, 0, 43, 80
2, 119280, Note_on_c, 0, 55, 95
2, 119280, Note_on_c, 0, 50, 95
2, 119280, Note_on_c, 0, 47, 95
2, 119280, Note_on_c, 0, 43, 95
2, 119520, Note_off_c, 0, 55, 80
2, 119520, Note_off_c, 0, 50, 80
2, 119520, Note_off_c, 0, 47, 80
2, 119520, Note_off_c, 0, 43, 80
2, 120000, Note_on_c, 0, 55, 95
2, 120000, Note_on_c, 0, 52, 95
2, 120000, Note_on_c, 0, 48, 95
2, 120000, Note_on_c, 0, 43, 95
2, 120240, Note_off_c, 0, 55, 80
2, 120240, Note_off_c, 0, 52, 80
2, 120240, Note_off_c, 0, 48, 80
2, 120240, Note_off_c, 0, 43, 80
2, 120720, Note_on_c, 0, 55, 95
2, 120720, Note_on_c, 0, 52, 95
2, 120720, Note_on_c, 0, 48, 95
2, 120720, Note_on_c, 0, 43, 95
2, 120960, Note_off_c, 0, 55, 80
2, 120960, Note_off_c, 0, 52, 80
2, 120960, Note_off_c, 0, 48, 80
2, 120960, Note_off_c, 0, 43, 80
2, 121440, Note_on_c, 0, 55, 95
2, 121440, Note_on_c, 0, 52, 95
2, 121440, Note_on_c, 0, 48, 95
2, 121440, Note_on_c, 0, 43, 95
2, 121680, Note_off_c, 0, 55, 80
2, 121680, Note_off_c, 0, 52, 80
2, 121680, Note_off_c, 0, 48, 80
2, 121680, Note_off_c, 0, 43, 80
2, 122160, Note_on_c, 0, 55, 95
2, 122160, Note_on_c, 0, 52, 95
2, 122160, Note_on_c, 0, 48, 95
2, 122160, Note_on_c, 0, 43, 95
2, 122400, Note_off_c, 0, 55, 80
2, 122400, Note_off_c, 0, 52, 80
2, 122400, Note_off_c, 0, 48, 80
2, 122400, Note_off_c, 0, 43, 80
2, 122880, Note_on_c, 0, 57, 95
2, 122880, Note_on_c, 0, 53, 95
2, 122880, Note_on_c, 0, 48, 95
2, 122880, Note_on_c, 0, 45, 95
2, 123120, Note_off_c, 0, 57, 80
2, 123120, Note_off_c, 0, 53, 80
2, 123120, Note_off_c, 0, 48, 80
2, 123120, Note_off_c, 0, 45, 80
2, 123120, Note_on_c, 0, 55, 95
2, 123120, Note_on_c, 0, 52, 95
2, 123120, Note_on_c, 0, 48, 95
2, 123120, Note_on_c, 0, 43, 95
2, 123360, Note_off_c, 0, 55, 80
2, 123360, Note_off_c, 0, 52, 80
2, 123360, Note_off_c, 0, 48, 80
2, 123360, Note_off_c, 0, 43, 80
2, 123600, Note_on_c, 0, 55, 95
2, 123600, Note_on_c, 0, 52, 95
2, 123600, Note_on_c, 0, 48, 95
2, 123600, Note_on_c, 0, 43, 95
2, 123840, Note_off_c, 0, 55, 80
2, 123840, Note_off_c, 0, 52, 80
2, 123840, Note_off_c, 0, 48, 80
2, 123840, Note_off_c, 0, 43, 80
2, 124320, Note_on_c, 0, 55, 95
2, 124320, Note_on_c, 0, 52, 95
2, 124320, Note_on_c, 0, 48, 95
2, 124320, Note_on_c, 0, 43, 95
2, 124560, Note_off_c, 0, 55, 80
2, 124560, Note_off_c, 0, 52, 80
2, 124560, Note_off_c, 0, 48, 80
2, 124560, Note_off_c, 0, 43, 80
2, 125040, Note_on_c, 0, 55, 95
2, 125040, Note_on_c, 0, 52, 95
2, 125040, Note_on_c, 0, 48, 95
2, 125040, Note_on_c, 0, 43, 95
2, 125280, Note_off_c, 0, 55, 80
2, 125280, Note_off_c, 0, 52, 80
2, 125280, Note_off_c, 0, 48, 80
2, 125280, Note_off_c, 0, 43, 80
2, 125760, Note_on_c, 0, 57, 95
2, 125760, Note_on_c, 0, 53, 95
2, 125760, Note_on_c, 0, 48, 95
2, 125760, Note_on_c, 0, 45, 95
2, 126000, Note_off_c, 0, 57, 80
2, 126000, Note_off_c, 0, 53, 80
2, 126000, Note_off_c, 0, 48, 80
2, 126000, Note_off_c, 0, 45, 80
2, 126000, Note_on_c, 0, 55, 95
2, 126000, Note_on_c, 0, 52, 95
2, 126000, Note_on_c, 0, 48, 95
2, 126000, Note_on_c, 0, 43, 95
2, 126240, Note_off_c, 0, 55, 80
2, 126240, Note_off_c, 0, 52, 80
2, 126240, Note_off_c, 0, 48, 80
2, 126240, Note_off_c, 0, 43, 80
2, 126480, Note_on_c, 0, 55, 95
2, 126480, Note_on_c, 0, 52, 95
2, 126480, Note_on_c, 0, 48, 95
2, 126480, Note_on_c, 0, 43, 95
2, 126720, Note_off_c, 0, 55, 80
2, 126720, Note_off_c, 0, 52, 80
2, 126720, Note_off_c, 0, 48, 80
2, 126720, Note_off_c, 0, 43, 80
2, 127200, Note_on_c, 0, 55, 95
2, 127200, Note_on_c, 0, 52, 95
2, 127200, Note_on_c, 0, 48, 95
2, 127200, Note_on_c, 0, 43, 95
2, 127440, Note_off_c, 0, 55, 80
2, 127440, Note_off_c, 0, 52, 80
2, 127440, Note_off_c, 0, 48, 80
2, 127440, Note_off_c, 0, 43, 80
2, 127920, Note_on_c, 0, 59, 95
2, 127920, Note_on_c, 0, 55, 95
2, 127920, Note_on_c, 0, 52, 95
2, 127920, Note_on_c, 0, 47, 95
2, 128160, Note_off_c, 0, 59, 80
2, 128160, Note_off_c, 0, 55, 80
2, 128160, Note_off_c, 0, 52, 80
2, 128160, Note_off_c, 0, 47, 80
2, 128640, Note_on_c, 0, 57, 95
2, 128640, Note_on_c, 0, 52, 95
2, 128640, Note_on_c, 0, 48, 95
2, 128640, Note_on_c, 0, 45, 95
2, 128880, Note_off_c, 0, 57, 80
2, 128880, Note_off_c, 0, 52, 80
2, 128880, Note_off_c, 0, 48, 80
2, 128880, Note_off_c, 0, 45, 80
2, 129360, Note_on_c, 0, 57, 95
2, 129360, Note_on_c, 0, 52, 95
2, 129360, Note_on_c, 0, 48, 95
2, 129360, Note_on_c, 0, 45, 95
2, 129600, Note_off_c, 0, 57, 80
2, 129600, Note_off_c, 0, 52, 80
2, 129600, Note_off_c, 0, 48, 80
2, 129600, Note_off_c, 0, 45, 80
2, 130080, Note_on_c, 0, 57, 95
2, 130080, Note_on_c, 0, 53, 95
2, 130080, Note_on_c, 0, 50, 95
2, 130080, Note_on_c, 0, 45, 95
2, 130320, Note_off_c, 0, 57, 80
2, 130320, Note_off_c, 0, 53, 80
2, 130320, Note_off_c, 0, 50, 80
2, 130320, Note_off_c, 0, 45, 80
2, 130800, Note_on_c, 0, 55, 95
2, 130800, Note_on_c, 0, 50, 95
2, 130800, Note_on_c, 0, 47, 95
2, 130800, Note_on_c, 0, 43, 95
2, 131040, Note_off_c, 0, 55, 80
2, 131040, Note_off_c, 0, 50, 80
2, 131040, Note_off_c, 0, 47, 80
2, 131040, Note_off_c, 0, 43, 80
2, 131520, Note_on_c, 0, 55, 95
2, 131520, Note_on_c, 0, 52, 95
2, 131520, Note_on_c, 0, 48, 95
2, 131520, Note_on_c, 0, 43, 95
2, 131760, Note_off_c, 0, 55, 80
2, 131760, Note_off_c, 0, 52, 80
2, 131760, Note_off_c, 0, 48, 80
2, 131760, Note_off_c, 0, 43, 80
2, 132240, Note_on_c, 0, 55, 95
2, 132240, Note_on_c, 0, 52, 95
2, 132240, Note_on_c, 0, 48, 95
2, 132240, Note_on_c, 0, 43, 95
2, 132480, Note_off_c, 0, 55, 80
2, 132480, Note_off_c, 0, 52, 80
2, 132480, Note_off_c, 0, 48, 80
2, 132480, Note_off_c, 0, 43, 80
2, 132960, Note_on_c, 0, 57, 95
2, 132960, Note_on_c, 0, 53, 95
2, 132960, Note_on_c, 0, 48, 95
2, 132960, Note_on_c, 0, 45, 95
2, 133200, Note_off_c, 0, 57, 80
2, 133200, Note_off_c, 0, 53, 80
2, 133200, Note_off_c, 0, 48, 80
2, 133200, Note_off_c, 0, 45, 80
2, 133680, Note_on_c, 0, 59, 95
2, 133680, Note_on_c, 0, 55, 95
2, 133680, Note_on_c, 0, 50, 95
2, 133680, Note_on_c, 0, 47, 95
2, 133920, Note_off_c, 0, 59, 80
2, 133920, Note_off_c, 0, 55, 80
2, 133920, Note_off_c, 0, 50, 80
2, 133920, Note_off_c, 0, 47, 80
2, 134400, Note_on_c, 0, 60, 95
2, 134400, Note_on_c, 0, 55, 95
2, 134400, Note_on_c, 0, 52, 95
2, 134400, Note_on_c, 0, 48, 95
2, 134640, Note_off_c, 0, 60, 80
2, 134640, Note_off_c, 0, 55, 80
2, 134640, Note_off_c, 0, 52, 80
2, 134640, Note_off_c, 0, 48, 80
2, 135120, Note_on_c, 0, 57, 95
2, 135120, Note_on_c, 0, 52, 95
2, 135120, Note_on_c, 0, 48, 95
2, 135120, Note_on_c, 0, 45, 95
2, 135360, Note_off_c, 0, 57, 80
2, 135360, Note_off_c, 0, 52, 80
2, 135360, Note_off_c, 0, 48, 80
2, 135360, Note_off_c, 0, 45, 80
2, 135840, Note_on_c, 0, 57, 95
2, 135840, Note_on_c, 0, 53, 95
2, 135840, Note_on_c, 0, 50, 95
2, 135840, Note_on_c, 0, 45, 95
2, 136080, Note_off_c, 0, 57, 80
2, 136080, Note_off_c, 0, 53, 80
2, 136080, Note_off_c, 0, 50, 80
2, 136080, Note_off_c, 0, 45, 80
2, 136560, Note_on_c, 0, 55, 95
2, 136560, Note_on_c, 0, 50, 95
2, 136560, Note_on_c, 0, 47, 95
2, 136560, Note_on_c, 0, 43, 95
2, 136800, Note_off_c, 0, 55, 80
2, 136800, Note_off_c, 0, 50, 80
2, 136800, Note_off_c, 0, 47, 80
2, 136800, Note_off_c, 0, 43, 80
2, 137280, Note_on_c, 0, 55, 95
2, 137280, Note_on_c, 0, 52, 95
2, 137280, Note_on_c, 0, 48, 95
2, 137280, Note_on_c, 0, 43, 95
2, 137520, Note_off_c, 0, 55, 80
2, 137520, Note_off_c, 0, 52, 80
2, 137520, Note_off_c, 0, 48, 80
2, 137520, Note_off_c, 0, 43, 80
2, 138000, Note_on_c, 0, 55, 95
2, 138000, Note_on_c, 0, 52, 95
2, 138000, Note_on_c, 0, 48, 95
2, 138000, Note_on_c, 0, 43, 95
2, 138240, Note_off_c, 0, 55, 80
2, 138240, Note_off_c, 0, 52, 80
2, 138240, Note_off_c, 0, 48, 80
2, 138240, Note_off_c, 0, 43, 80
2, 138720, Note_on_c, 0, 57, 95
2, 138720, Note_on_c, 0, 53, 95
2, 138720, Note_on_c, 0, 48, 95
2, 138720, Note_on_c, 0, 45, 95
2, 138960, Note_off_c, 0, 57, 80
2, 138960, Note_off_c, 0, 53, 80
2, 138960, Note_off_c, 0, 48, 80
2, 138960, Note_off_c, 0, 45, 80
2, 139440, Note_on_c, 0, 59, 95
2, 139440, Note_on_c, 0, 55, 95
2, 139440, Note_on_c, 0, 50, 95
2, 139440, Note_on_c, 0, 47, 95
2, 139680, Note_off_c, 0, 59, 80
2, 139680, Note_off_c, 0, 55, 80
2, 139680, Note_off_c, 0, 50, 80
2, 139680, Note_off_c, 0, 47, 80
2, 140160, Note_on_c, 0, 55, 95
2, 140160, Note_on_c, 0, 52, 95
2, 140160, Note_on_c, 0, 48, 95
2, 140160, Note_on_c, 0, 43, 95
2, 140400, Note_off_c, 0, 55, 80
2, 140400, Note_off_c, 0, 52, 80
2, 140400, Note_off_c, 0, 48, 80
2, 140400, Note_off_c, 0, 43, 80
2, 140880, Note_on_c, 0, 57, 95
2, 140880, Note_on_c, 0, 53, 95
2, 140880, Note_on_c, 0, 48, 95
2, 140880, Note_on_c, 0, 45, 95
2, 141120, Note_off_c, 0, 57, 80
2, 141120, Note_off_c, 0, 53, 80
2, 141120, Note_off_c, 0, 48, 80
2, 141120, Note_off_c, 0, 45, 80
2, 141600, Note_on_c, 0, 55, 95
2, 141600, Note_on_c, 0, 52, 95
2, 141600, Note_on_c, 0, 47, 95
2, 141600, Note_on_c, 0, 43, 95
2, 141840, Note_off_c, 0, 55, 80
2, 141840, Note_off_c, 0, 52, 80
2, 141840, Note_off_c, 0, 47, 80
2, 141840, Note_off_c, 0, 43, 80
2, 142320, Note_on_c, 0, 55, 95
2, 142320, Note_on_c, 0, 50, 95
2, 142320, Note_on_c, 0, 47, 95
2, 142320, Note_on_c, 0, 43, 95
2, 142560, Note_off_c, 0, 55, 80
2, 142560, Note_off_c, 0, 50, 80
2, 142560, Note_off_c, 0, 47, 80
2, 142560, Note_off_c, 0, 43, 80
2, 143040, Note_on_c, 0, 55, 95
2, 143040, Note_on_c, 0, 52, 95
2, 143040, Note_on_c, 0, 48, 95
2, 143040, Note_on_c, 0, 43, 95
2, 143280, Note_off_c, 0, 55, 80
2, 143280, Note_off_c, 0, 52, 80
2, 143280, Note_off_c, 0, 48, 80
2, 143280, Note_off_c, 0, 43, 80
2, 143760, Note_on_c, 0, 55, 95
2, 143760, Note_on_c, 0, 52, 95
2, 143760, Note_on_c, 0, 48, 95
2, 143760, Note_on_c, 0, 43, 95
2, 144000, Note_off_c, 0, 55, 80
2, 144000, Note_off_c, 0, 52, 80
2, 144000, Note_off_c, 0, 48, 80
2, 144000, Note_off_c, 0, 43, 80
2, 144480, Note_on_c, 0, 55, 95
2, 144480, Note_on_c, 0, 52, 95
2, 144480, Note_on_c, 0, 48, 95
2, 144480, Note_on_c, 0, 43, 95
2, 144720, Note_off_c, 0, 55, 80
2, 144720, Note_off_c, 0, 52, 80
2, 144720, Note_off_c, 0, 48, 80
2, 144720, Note_off_c, 0, 43, 80
2, 145200, Note_on_c, 0, 55, 95
2, 145200, Note_on_c, 0, 52, 95
2, 145200, Note_on_c, 0, 48, 95
2, 145200, Note_on_c, 0, 43, 95
2, 145440, Note_off_c, 0, 55, 80
2, 145440, Note_off_c, 0, 52, 80
2, 145440, Note_off_c, 0, 48, 80
2, 145440, Note_off_c, 0, 43, 80
2, 145920, Note_on_c, 0, 57, 95
2, 145920, Note_on_c, 0, 53, 95
2, 145920, Note_on_c, 0, 48, 95
2, 145920, Note_on_c, 0, 45, 95
2, 146160, Note_off_c, 0, 57, 80
2, 146160, Note_off_c, 0, 53, 80
2, 146160, Note_off_c, 0, 48, 80
2, 146160, Note_off_c, 0, 45, 80
2, 146160, Note_on_c, 0, 55, 95
2, 146160, Note_on_c, 0, 52, 95
2, 146160, Note_on_c, 0, 48, 95
2, 146160, Note_on_c, 0, 43, 95
2, 146400, Note_off_c, 0, 55, 80
2, 146400, Note_off_c, 0, 52, 80
2, 146400, Note_off_c, 0, 48, 80
2, 146400, Note_off_c, 0, 43, 80
2, 146640, Note_on_c, 0, 55, 95
2, 146640, Note_on_c, 0, 52, 95
2, 146640, Note_on_c, 0, 48, 95
2, 146640, Note_on_c, 0, 43, 95
2, 146880, Note_off_c, 0, 55, 80
2, 146880, Note_off_c, 0, 52, 80
2, 146880, Note_off_c, 0, 48, 80
2, 146880, Note_off_c, 0, 43, 80
2, 147360, Note_on_c, 0, 55, 95
2, 147360, Note_on_c, 0, 52, 95
2, 147360, Note_on_c, 0, 48, 95
2, 147360, Note_on_c, 0, 43, 95
2, 147600, Note_off_c, 0, 55, 80
2, 147600, Note_off_c, 0, 52, 80
2, 147600, Note_off_c, 0, 48, 80
2, 147600, Note_off_c, 0, 43, 80
2, 148080, Note_on_c, 0, 55, 95
2, 148080, Note_on_c, 0, 52, 95
2, 148080, Note_on_c, 0, 48, 95
2, 148080, Note_on_c, 0, 43, 95
2, 148320, Note_off_c, 0, 55, 80
2, 148320, Note_off_c, 0, 52, 80
2, 148320, Note_off_c, 0, 48, 80
2, 148320, Note_off_c, 0, 43, 80
2, 148800, Note_on_c, 0, 57, 95
2, 148800, Note_on_c, 0, 53, 95
2, 148800, Note_on_c, 0, 48, 95
2, 148800, Note_on_c, 0, 45, 95
2, 149040, Note_off_c, 0, 57, 80
2, 149040, Note_off_c, 0, 53, 80
2, 149040, Note_off_c, 0, 48, 80
2, 149040, Note_off_c, 0, 45, 80
2, 149040, Note_on_c, 0, 55, 95
2, 149040, Note_on_c, 0, 52, 95
2, 149040, Note_on_c, 0, 48, 95
2, 149040, Note_on_c, 0, 43, 95
2, 149280, Note_off_c, 0, 55, 80
2, 149280, Note_off_c, 0, 52, 80
2, 149280, Note_off_c, 0, 48, 80
2, 149280, Note_off_c, 0, 43, 80
2, 149520, Note_on_c, 0, 55, 95
2, 149520, Note_on_c, 0, 52, 95
2, 149520, Note_on_c, 0, 48, 95
2, 149520, Note_on_c, 0, 43, 95
2, 149760, Note_off_c, 0, 55, 80
2, 149760, Note_off_c, 0, 52, 80
2, 149760, Note_off_c, 0, 48, 80
2, 149760, Note_off_c, 0, 43, 80
2, 150240, Note_on_c, 0, 55, 95
2, 150240, Note_on_c, 0, 52, 95
2, 150240, Note_on_c, 0, 48, 95
2, 150240, Note_on_c, 0, 43, 95
2, 150480, Note_off_c, 0, 55, 80
2, 150480, Note_off_c, 0, 52, 80
2, 150480, Note_off_c, 0, 48, 80
2, 150480, Note_off_c, 0, 43, 80
2, 150960, Note_on_c, 0, 59, 95
2, 150960, Note_on_c, 0, 55, 95
2, 150960, Note_on_c, 0, 52, 95
2, 150960, Note_on_c, 0, 47, 95
2, 151200, Note_off_c, 0, 59, 80
2, 151200, Note_off_c, 0, 55, 80
2, 151200, Note_off_c, 0, 52, 80
2, 151200, Note_off_c, 0, 47, 80
2, 151680, Note_on_c, 0, 57, 95
2, 151680, Note_on_c, 0, 52, 95
2, 151680, Note_on_c, 0, 48, 95
2, 151680, Note_on_c, 0, 45, 95
2, 151920, Note_off_c, 0, 57, 80
2, 151920, Note_off_c, 0, 52, 80
2, 151920, Note_off_c, 0, 48, 80
2, 151920, Note_off_c, 0, 45, 80
2, 152400, Note_on_c, 0, 57, 95
2, 152400, Note_on_c, 0, 52, 95
2, 152400, Note_on_c, 0, 48, 95
2, 152400, Note_on_c, 0, 45, 95
2, 152640, Note_off_c, 0, 57, 80
2, 152640, Note_off_c, 0, 52, 80
2, 152640, Note_off_c, 0, 48, 80
2, 152640, Note_off_c, 0, 45, 80
2, 153120, Note_on_c, 0, 57, 95
2, 153120, Note_on_c, 0, 53, 95
2, 153120, Note_on_c, 0, 50, 95
2, 153120, Note_on_c, 0, 45, 95
2, 153360, Note_off_c, 0, 57, 80
2, 153360, Note_off_c, 0, 53, 80
2, 153360, Note_off_c, 0, 50, 80
2, 153360, Note_off_c, 0, 45, 80
2, 153840, Note_on_c, 0, 55, 95
2, 153840, Note_on_c, 0, 50, 95
2, 153840, Note_on_c, 0, 47, 95
2, 153840, Note_on_c, 0, 43, 95
2, 154080, Note_off_c, 0, 55, 80
2, 154080, Note_off_c, 0, 50, 80
2, 154080, Note_off_c, 0, 47, 80
2, 154080, Note_off_c, 0, 43, 80
2, 154560, Note_on_c, 0, 55, 95
2, 154560, Note_on_c, 0, 52, 95
2, 154560, Note_on_c, 0, 48, 95
2, 154560, Note_on_c, 0, 43, 95
2, 154800, Note_off_c, 0, 55, 80
2, 154800, Note_off_c, 0, 52, 80
2, 154800, Note_off_c, 0, 48, 80
2, 154800, Note_off_c, 0, 43, 80
2, 155280, Note_on_c, 0, 55, 95
2, 155280, Note_on_c, 0, 52, 95
2, 155280, Note_on_c, 0, 48, 95
2, 155280, Note_on_c, 0, 43, 95
2, 155520, Note_off_c, 0, 55, 80
2, 155520, Note_off_c, 0, 52, 80
2, 155520, Note_off_c, 0, 48, 80
2, 155520, Note_off_c, 0, 43, 80
2, 156000, Note_on_c, 0, 57, 95
2, 156000, Note_on_c, 0, 53, 95
2, 156000, Note_on_c, 0, 48, 95
2, 156000, Note_on_c, 0, 45, 95
2, 156240, Note_off_c, 0, 57, 80
2, 156240, Note_off_c, 0, 53, 80
2, 156240, Note_off_c, 0, 48, 80
2, 156240, Note_off_c, 0, 45, 80
2, 156720, Note_on_c, 0, 59, 95
2, 156720, Note_on_c, 0, 55, 95
2, 156720, Note_on_c, 0, 50, 95
2, 156720, Note_on_c, 0, 47, 95
2, 156960, Note_off_c, 0, 59, 80
2, 156960, Note_off_c, 0, 55, 80
2, 156960, Note_off_c, 0, 50, 80
2, 156960, Note_off_c, 0, 47, 80
2, 157440, Note_on_c, 0, 60, 95
2, 157440, Note_on_c, 0, 55, 95
2, 157440, Note_on_c, 0, 52, 95
2, 157440, Note_on_c, 0, 48, 95
2, 157680, Note_off_c, 0, 60, 80
2, 157680, Note_off_c, 0, 55, 80
2, 157680, Note_off_c, 0, 52, 80
2, 157680, Note_off_c, 0, 48, 80
2, 158160, Note_on_c, 0, 57, 95
2, 158160, Note_on_c, 0, 52, 95
2, 158160, Note_on_c, 0, 48, 95
2, 158160, Note_on_c, 0, 45, 95
2, 158400, Note_off_c, 0, 57, 80
2, 158400, Note_off_c, 0, 52, 80
2, 158400, Note_off_c, 0, 48, 80
2, 158400, Note_off_c, 0, 45, 80
2, 158880, Note_on_c, 0, 57, 95
2, 158880, Note_on_c, 0, 53, 95
2, 158880, Note_on_c, 0, 50, 95
2, 158880, Note_on_c, 0, 45, 95
2, 159120, Note_off_c, 0, 57, 80
2, 159120, Note_off_c, 0, 53, 80
2, 159120, Note_off_c, 0, 50, 80
2, 159120, Note_off_c, 0, 45, 80
2, 159600, Note_on_c, 0, 55, 95
2, 159600, Note_on_c, 0, 50, 95
2, 159600, Note_on_c, 0, 47, 95
2, 159600, Note_on_c, 0, 43, 95
2, 159840, Note_off_c, 0, 55, 80
2, 159840, Note_off_c, 0, 50, 80
2, 159840, Note_off_c, 0, 47, 80
2, 159840, Note_off_c, 0, 43, 80
2, 160320, Note_on_c, 0, 55, 95
2, 160320, Note_on_c, 0, 52, 95
2, 160320, Note_on_c, 0, 48, 95
2, 160320, Note_on_c, 0, 43, 95
2, 160560, Note_off_c, 0, 55, 80
2, 160560, Note_off_c, 0, 52, 80
2, 160560, Note_off_c, 0, 48, 80
2, 160560, Note_off_c, 0, 43, 80
2, 161040, Note_on_c, 0, 55, 95
2, 161040, Note_on_c, 0, 52, 95
2, 161040, Note_on_c, 0, 48, 95
2, 161040, Note_on_c, 0, 43, 95
2, 161280, Note_off_c, 0, 55, 80
2, 161280, Note_off_c, 0, 52, 80
2, 161280, Note_off_c, 0, 48, 80
2, 161280, Note_off_c, 0, 43, 80
2, 161760, Note_on_c, 0, 57, 95
2, 161760, Note_on_c, 0, 53, 95
2, 161760, Note_on_c, 0, 48, 95
2, 161760, Note_on_c, 0, 45, 95
2, 162000, Note_off_c, 0, 57, 80
2, 162000, Note_off_c, 0, 53, 80
2, 162000, Note_off_c, 0, 48, 80
2, 162000, Note_off_c, 0, 45, 80
2, 162480, Note_on_c, 0, 59, 95
2, 162480, Note_on_c, 0, 55, 95
2, 162480, Note_on_c, 0, 50, 95
2, 162480, Note_on_c, 0, 47, 95
2, 162720, Note_off_c, 0, 59, 80
2, 162720, Note_off_c, 0, 55, 80
2, 162720, Note_off_c, 0, 50, 80
2, 162720, Note_off_c, 0, 47, 80
2, 163200, Note_on_c, 0, 55, 95
2, 163200, Note_on_c, 0, 52, 95
2, 163200, Note_on_c, 0, 48, 95
2, 163200, Note_on_c, 0, 43, 95
2, 163440, Note_off_c, 0, 55, 80
2, 163440, Note_off_c, 0, 52, 80
2, 163440, Note_off_c, 0, 48, 80
2, 163440, Note_off_c, 0, 43, 80
2, 163920, Note_on_c, 0, 57, 95
2, 163920, Note_on_c, 0, 53, 95
2, 163920, Note_on_c, 0, 48, 95
2, 163920, Note_on_c, 0, 45, 95
2, 164160, Note_off_c, 0, 57, 80
2, 164160, Note_off_c, 0, 53, 80
2, 164160, Note_off_c, 0, 48, 80
2, 164160, Note_off_c, 0, 45, 80
2, 164640, Note_on_c, 0, 55, 95
2, 164640, Note_on_c, 0, 52, 95
2, 164640, Note_on_c, 0, 47, 95
2, 164640, Note_on_c, 0, 43, 95
2, 164880, Note_off_c, 0, 55, 80
2, 164880, Note_off_c, 0, 52, 80
2, 164880, Note_off_c, 0, 47, 80
2, 164880, Note_off_c, 0, 43, 80
2, 165360, Note_on_c, 0, 55, 95
2, 165360, Note_on_c, 0, 50, 95
2, 165360, Note_on_c, 0, 47, 95
2, 165360, Note_on_c, 0, 43, 95
2, 165600, Note_off_c, 0, 55, 80
2, 165600, Note_off_c, 0, 50, 80
2, 165600, Note_off_c, 0, 47, 80
2, 165600, Note_off_c, 0, 43, 80
2, 166080, Note_on_c, 0, 55, 95
2, 166080, Note_on_c, 0, 52, 95
2, 166080, Note_on_c, 0, 48, 95
2, 166080, Note_on_c, 0, 43, 95
2, 166320, Note_off_c, 0, 55, 80
2, 166320, Note_off_c, 0, 52, 80
2, 166320, Note_off_c, 0, 48, 80
2, 166320, Note_off_c, 0, 43, 80
2, 166800, Note_on_c, 0, 55, 95
2, 166800, Note_on_c, 0, 52, 95
2, 166800, Note_on_c, 0, 48, 95
2, 166800, Note_on_c, 0, 43, 95
2, 167040, Note_off_c, 0, 55, 80
2, 167040, Note_off_c, 0, 52, 80
2, 167040, Note_off_c, 0, 48, 80
2, 167040, Note_off_c, 0, 43, 80
2, 167520, Note_on_c, 0, 55, 95
2, 167520, Note_on_c, 0, 52, 95
2, 167520, Note_on_c, 0, 48, 95
2, 167520, Note_on_c, 0, 43, 95
2, 167760, Note_off_c, 0, 55, 80
2, 167760, Note_off_c, 0, 52, 80
2, 167760, Note_off_c, 0, 48, 80
2, 167760, Note_off_c, 0, 43, 80
2, 168240, Note_on_c, 0, 55, 95
2, 168240, Note_on_c, 0, 52, 95
2, 168240, Note_on_c, 0, 48, 95
2, 168240, Note_on_c, 0, 43, 95
2, 168480, Note_off_c, 0, 55, 80
2, 168480, Note_off_c, 0, 52, 80
2, 168480, Note_off_c, 0, 48, 80
2, 168480, Note_off_c, 0, 43, 80
2, 168960, Note_on_c, 0, 57, 95
2, 168960, Note_on_c, 0, 53, 95
2, 168960, Note_on_c, 0, 48, 95
2, 168960, Note_on_c, 0, 45, 95
2, 169200, Note_off_c, 0, 57, 80
2, 169200, Note_off_c, 0, 53, 80
2, 169200, Note_off_c, 0, 48, 80
2, 169200, Note_off_c, 0, 45, 80
2, 169200, Note_on_c, 0, 55, 95
2, 169200, Note_on_c, 0, 52, 95
2, 169200, Note_on_c, 0, 48, 95
2, 169200, Note_on_c, 0, 43, 95
2, 169440, Note_off_c, 0, 55, 80
2, 169440, Note_off_c, 0, 52, 80
2, 169440, Note_off_c, 0, 48, 80
2, 169440, Note_off_c, 0, 43, 80
2, 169680, Note_on_c, 0, 55, 95
2, 169680, Note_on_c, 0, 52, 95
2, 169680, Note_on_c, 0, 48, 95
2, 169680, Note_on_c, 0, 43, 95
2, 169920, Note_off_c, 0, 55, 80
2, 169920, Note_off_c, 0, 52, 80
2, 169920, Note_off_c, 0, 48, 80
2, 169920, Note_off_c, 0, 43, 80
2, 170400, Note_on_c, 0, 55, 95
2, 170400, Note_on_c, 0, 52, 95
2, 170400, Note_on_c, 0, 48, 95
2, 170400, Note_on_c, 0, 43, 95
2, 170640, Note_off_c, 0, 55, 80
2, 170640, Note_off_c, 0, 52, 80
2, 170640, Note_off_c, 0, 48, 80
2, 170640, Note_off_c, 0, 43, 80
2, 171120, Note_on_c, 0, 55, 95
2, 171120, Note_on_c, 0, 52, 95
2, 171120, Note_on_c, 0, 48, 95
2, 171120, Note_on_c, 0, 43, 95
2, 171360, Note_off_c, 0, 55, 80
2, 171360, Note_off_c, 0, 52, 80
2, 171360, Note_off_c, 0, 48, 80
2, 171360, Note_off_c, 0, 43, 80
2, 171840, Note_on_c, 0, 57, 95
2, 171840, Note_on_c, 0, 53, 95
2, 171840, Note_on_c, 0, 48, 95
2, 171840, Note_on_c, 0, 45, 95
2, 172080, Note_off_c, 0, 57, 80
2, 172080, Note_off_c, 0, 53, 80
2, 172080, Note_off_c, 0, 48, 80
2, 172080, Note_off_c, 0, 45, 80
2, 172080, Note_on_c, 0, 55, 95
2, 172080, Note_on_c, 0, 52, 95
2, 172080, Note_on_c, 0, 48, 95
2, 172080, Note_on_c, 0, 43, 95
2, 172320, Note_off_c, 0, 55, 80
2, 172320, Note_off_c, 0, 52, 80
2, 172320, Note_off_c, 0, 48, 80
2, 172320, Note_off_c, 0, 43, 80
2, 172560, Note_on_c, 0, 55, 95
2, 172560, Note_on_c, 0, 52, 95
2, 172560, Note_on_c, 0, 48, 95
2, 172560, Note_on_c, 0, 43, 95
2, 172800, Note_off_c, 0, 55, 80
2, 172800, Note_off_c, 0, 52, 80
2, 172800, Note_off_c, 0, 48, 80
2, 172800, Note_off_c, 0, 43, 80
2, 173280, Note_on_c, 0, 55, 95
2, 173280, Note_on_c, 0, 52, 95
2, 173280, Note_on_c, 0, 48, 95
2, 173280, Note_on_c, 0, 43, 95
2, 173520, Note_off_c, 0, 55, 80
2, 173520, Note_off_c, 0, 52, 80
2, 173520, Note_off_c, 0, 48, 80
2, 173520, Note_off_c, 0, 43, 80
2, 174000, Note_on_c, 0, 59, 95
2, 174000, Note_on_c, 0, 55, 95
2, 174000, Note_on_c, 0, 52, 95
2, 174000, Note_on_c, 0, 47, 95
2, 174240, Note_off_c, 0, 59, 80
2, 174240, Note_off_c, 0, 55, 80
2, 174240, Note_off_c, 0, 52, 80
2, 174240, Note_off_c, 0, 47, 80
2, 174720, Note_on_c, 0, 57, 95
2, 174720, Note_on_c, 0, 52, 95
2, 174720, Note_on_c, 0, 48, 95
2, 174720, Note_on_c, 0, 45, 95
2, 174960, Note_off_c, 0, 57, 80
2, 174960, Note_off_c, 0, 52, 80
2, 174960, Note_off_c, 0, 48, 80
2, 174960, Note_off_c, 0, 45, 80
2, 175440, Note_on_c, 0, 57, 95
2, 175440, Note_on_c, 0, 52, 95
2, 175440, Note_on_c, 0, 48, 95
2, 175440, Note_on_c, 0, 45, 95
2, 175680, Note_off_c, 0, 57, 80
2, 175680, Note_off_c, 0, 52, 80
2, 175680, Note_off_c, 0, 48, 80
2, 175680, Note_off_c, 0, 45, 80
2, 176160, Note_on_c, 0, 57, 95
2, 176160, Note_on_c, 0, 53, 95
2, 176160, Note_on_c, 0, 50, 95
2, 176160, Note_on_c, 0, 45, 95
2, 176400, Note_off_c, 0, 57, 80
2, 176400, Note_off_c, 0, 53, 80
2, 176400, Note_off_c, 0, 50, 80
2, 176400, Note_off_c, 0, 45, 80
2, 176880, Note_on_c, 0, 55, 95
2, 176880, Note_on_c, 0, 50, 95
2, 176880, Note_on_c, 0, 47, 95
2, 176880, Note_on_c, 0, 43, 95
2, 177120, Note_off_c, 0, 55, 80
2, 177120, Note_off_c, 0, 50, 80
2, 177120, Note_off_c, 0, 47, 80
2, 177120, Note_off_c, 0, 43, 80
2, 177600, Note_on_c, 0, 55, 95
2, 177600, Note_on_c, 0, 52, 95
2, 177600, Note_on_c, 0, 48, 95
2, 177600, Note_on_c, 0, 43, 95
2, 177840, Note_off_c, 0, 55, 80
2, 177840, Note_off_c, 0, 52, 80
2, 177840, Note_off_c, 0, 48, 80
2, 177840, Note_off_c, 0, 43, 80
2, 178320, Note_on_c, 0, 55, 95
2, 178320, Note_on_c, 0, 52, 95
2, 178320, Note_on_c, 0, 48, 95
2, 178320, Note_on_c, 0, 43, 95
2, 178560, Note_off_c, 0, 55, 80
2, 178560, Note_off_c, 0, 52, 80
2, 178560, Note_off_c, 0, 48, 80
2, 178560, Note_off_c, 0, 43, 80
2, 179040, Note_on_c, 0, 57, 95
2, 179040, Note_on_c, 0, 53, 95
2, 179040, Note_on_c, 0, 48, 95
2, 179040, Note_on_c, 0, 45, 95
2, 179280, Note_off_c, 0, 57, 80
2, 179280, Note_off_c, 0, 53, 80
2, 179280, Note_off_c, 0, 48, 80
2, 179280, Note_off_c, 0, 45, 80
2, 179760, Note_on_c, 0, 59, 95
2, 179760, Note_on_c, 0, 55, 95
2, 179760, Note_on_c, 0, 50, 95
2, 179760, Note_on_c, 0, 47, 95
2, 180000, Note_off_c, 0, 59, 80
2, 180000, Note_off_c, 0, 55, 80
2, 180000, Note_off_c, 0, 50, 80
2, 180000, Note_off_c, 0, 47, 80
2, 180480, Note_on_c, 0, 60, 95
2, 180480, Note_on_c, 0, 55, 95
2, 180480, Note_on_c, 0, 52, 95
2, 180480, Note_on_c, 0, 48, 95
2, 180720, Note_off_c, 0, 60, 80
2, 180720, Note_off_c, 0, 55, 80
2, 180720, Note_off_c, 0, 52, 80
2, 180720, Note_off_c, 0, 48, 80
2, 181200, Note_on_c, 0, 57, 95
2, 181200, Note_on_c, 0, 52, 95
2, 181200, Note_on_c, 0, 48, 95
2, 181200, Note_on_c, 0, 45, 95
2, 181440, Note_off_c, 0, 57, 80
2, 181440, Note_off_c, 0, 52, 80
2, 181440, Note_off_c, 0, 48, 80
2, 181440, Note_off_c, 0, 45, 80
2, 181920, Note_on_c, 0, 57, 95
2, 181920, Note_on_c, 0, 53, 95
2, 181920, Note_on_c, 0, 50, 95
2, 181920, Note_on_c, 0, 45, 95
2, 182160, Note_off_c, 0, 57, 80
2, 182160, Note_off_c, 0, 53, 80
2, 182160, Note_off_c, 0, 50, 80
2, 182160, Note_off_c, 0, 45, 80
2, 182640, Note_on_c, 0, 55, 95
2, 182640, Note_on_c, 0, 50, 95
2, 182640, Note_on_c, 0, 47, 95
2, 182640, Note_on_c, 0, 43, 95
2, 182880, Note_off_c, 0, 55, 80
2, 182880, Note_off_c, 0, 50, 80
2, 182880, Note_off_c, 0, 47, 80
2, 182880, Note_off_c, 0, 43, 80
2, 183360, Note_on_c, 0, 55, 95
2, 183360, Note_on_c, 0, 52, 95
2, 183360, Note_on_c, 0, 48, 95
2, 183360, Note_on_c, 0, 43, 95
2, 183600, Note_off_c, 0, 55, 80
2, 183600, Note_off_c, 0, 52, 80
2, 183600, Note_off_c, 0, 48, 80
2, 183600, Note_off_c, 0, 43, 80
2, 184080, Note_on_c, 0, 55, 95
2, 184080, Note_on_c, 0, 52, 95
2, 184080, Note_on_c, 0, 48, 95
2, 184080, Note_on_c, 0, 43, 95
2, 184320, Note_off_c, 0, 55, 80
2, 184320, Note_off_c, 0, 52, 80
2, 184320, Note_off_c, 0, 48, 80
2, 184320, Note_off_c, 0, 43, 80
2, 184800, Note_on_c, 0, 57, 95
2, 184800, Note_on_c, 0, 53, 95
2, 184800, Note_on_c, 0, 48, 95
2, 184800, Note_on_c, 0, 45, 95
2, 185040, Note_off_c, 0, 57, 80
2, 185040, Note_off_c, 0, 53, 80
2, 185040, Note_off_c, 0, 48, 80
2, 185040, Note_off_c, 0, 45, 80
2, 185520, Note_on_c, 0, 59, 95
2, 185520, Note_on_c, 0, 55, 95
2, 185520, Note_on_c, 0, 50, 95
2, 185520, Note_on_c, 0, 47, 95
2, 185760, Note_off_c, 0, 59, 80
2, 185760, Note_off_c, 0, 55, 80
2, 185760, Note_off_c, 0, 50, 80
2, 185760, Note_off_c, 0, 47, 80
2, 186240, Note_on_c, 0, 55, 95
2, 186240, Note_on_c, 0, 52, 95
2, 186240, Note_on_c, 0, 48, 95
2, 186240, Note_on_c, 0, 43, 95
2, 186480, Note_off_c, 0, 55, 80
2, 186480, Note_off_c, 0, 52, 80
2, 186480, Note_off_c, 0, 48, 80
2, 186480, Note_off_c, 0, 43, 80
2, 186960, Note_on_c, 0, 57, 95
2, 186960, Note_on_c, 0, 53, 95
2, 186960, Note_on_c, 0, 48, 95
2, 186960, Note_on_c, 0, 45, 95
2, 187200, Note_off_c, 0, 57, 80
2, 187200, Note_off_c, 0, 53, 80
2, 187200, Note_off_c, 0, 48, 80
2, 187200, Note_off_c, 0, 45, 80
2, 187680, Note_on_c, 0, 55, 95
2, 187680, Note_on_c, 0, 52, 95
2, 187680, Note_on_c, 0, 47, 95
2, 187680, Note_on_c, 0, 43, 95
2, 187920, Note_off_c, 0, 55, 80
2, 187920, Note_off_c, 0, 52, 80
2, 187920, Note_off_c, 0, 47, 80
2, 187920, Note_off_c, 0, 43, 80
2, 188400, Note_on_c, 0, 55, 95
2, 188400, Note_on_c, 0, 50, 95
2, 188400, Note_on_c, 0, 47, 95
2, 188400, Note_on_c, 0, 43, 95
2, 188640, Note_off_c, 0, 55, 80
2, 188640, Note_off_c, 0, 50, 80
2, 188640, Note_off_c, 0, 47, 80
2, 188640, Note_off_c, 0, 43, 80
2, 189120, Note_on_c, 0, 55, 95
2, 189120, Note_on_c, 0, 52, 95
2, 189120, Note_on_c, 0, 48, 95
2, 189120, Note_on_c, 0, 43, 95
2, 189360, Note_off_c, 0, 55, 80
2, 189360, Note_off_c, 0, 52, 80
2, 189360, Note_off_c, 0, 48, 80
2, 189360, Note_off_c, 0, 43, 80
2, 189840, Note_on_c, 0, 55, 95
2, 189840, Note_on_c, 0, 52, 95
2, 189840, Note_on_c, 0, 48, 95
2, 189840, Note_on_c, 0, 43, 95
2, 190080, Note_off_c, 0, 55, 80
2, 190080, Note_off_c, 0, 52, 80
2, 190080, Note_off_c, 0, 48, 80
2, 190080, Note_off_c, 0, 43, 80
2, 190560, Note_on_c, 0, 55, 95
2, 190560, Note_on_c, 0, 52, 95
2, 190560, Note_on_c, 0, 48, 95
2, 190560, Note_on_c, 0, 43, 95
2, 190800, Note_off_c, 0, 55, 80
2, 190800, Note_off_c, 0, 52, 80
2, 190800, Note_off_c, 0, 48, 80
2, 190800, Note_off_c, 0, 43, 80
2, 191280, Note_on_c, 0, 55, 95
2, 191280, Note_on_c, 0, 52, 95
2, 191280, Note_on_c, 0, 48, 95
2, 191280, Note_on_c, 0, 43, 95
2, 191520, Note_off_c, 0, 55, 80
2, 191520, Note_off_c, 0, 52, 80
2, 191520, Note_off_c, 0, 48, 80
2, 191520, Note_off_c, 0, 43, 80
2, 192000, Note_on_c, 0, 57, 95
2, 192000, Note_on_c, 0, 53, 95
2, 192000, Note_on_c, 0, 48, 95
2, 192000, Note_on_c, 0, 45, 95
2, 192240, Note_off_c, 0, 57, 80
2, 192240, Note_off_c, 0, 53, 80
2, 192240, Note_off_c, 0, 48, 80
2, 192240, Note_off_c, 0, 45, 80
2, 192240, Note_on_c, 0, 55, 95
2, 192240, Note_on_c, 0, 52, 95
2, 192240, Note_on_c, 0, 48, 95
2, 192240, Note_on_c, 0, 43, 95
2, 192480, Note_off_c, 0, 55, 80
2, 192480, Note_off_c, 0, 52, 80
2, 192480, Note_off_c, 0, 48, 80
2, 192480, Note_off_c, 0, 43, 80
2, 192720, Note_on_c, 0, 55, 95
2, 192720, Note_on_c, 0, 52, 95
2, 192720, Note_on_c, 0, 48, 95
2, 192720, Note_on_c, 0, 43, 95
2, 192960, Note_off_c, 0, 55, 80
2, 192960, Note_off_c, 0, 52, 80
2, 192960, Note_off_c, 0, 48, 80
2, 192960, Note_off_c, 0, 43, 80
2, 193440, Note_on_c, 0, 55, 95
2, 193440, Note_on_c, 0, 52, 95
2, 193440, Note_on_c, 0, 48, 95
2, 193440, Note_on_c, 0, 43, 95
2, 193680, Note_off_c, 0, 55, 80
2, 193680, Note_off_c, 0, 52, 80
2, 193680, Note_off_c, 0, 48, 80
2, 193680, Note_off_c, 0, 43, 80
2, 194160, Note_on_c, 0, 55, 95
2, 194160, Note_on_c, 0, 52, 95
2, 194160, Note_on_c, 0, 48, 95
2, 194160, Note_on_c, 0, 43, 95
2, 194400, Note_off_c, 0, 55, 80
2, 194400, Note_off_c, 0, 52, 80
2, 194400, Note_off_c, 0, 48, 80
2, 194400, Note_off_c, 0, 43, 80
2, 194880, Note_on_c, 0, 57, 95
2, 194880, Note_on_c, 0, 53, 95
2, 194880, Note_on_c, 0, 48, 95
2, 194880, Note_on_c, 0, 45, 95
2, 195120, Note_off_c, 0, 57, 80
2, 195120, Note_off_c, 0, 53, 80
2, 195120, Note_off_c, 0, 48, 80
2, 195120, Note_off_c, 0, 45, 80
2, 195120, Note_on_c, 0, 55, 95
2, 195120, Note_on_c, 0, 52, 95
2, 195120, Note_on_c, 0, 48, 95
2, 195120, Note_on_c, 0, 43, 95
2, 195360, Note_off_c, 0, 55, 80
2, 195360, Note_off_c, 0, 52, 80
2, 195360, Note_off_c, 0, 48, 80
2, 195360, Note_off_c, 0, 43, 80
2, 195600, Note_on_c, 0, 55, 95
2, 195600, Note_on_c, 0, 52, 95
2, 195600, Note_on_c, 0, 48, 95
2, 195600, Note_on_c, 0, 43, 95
2, 195840, Note_off_c, 0, 55, 80
2, 195840, Note_off_c, 0, 52, 80
2, 195840, Note_off_c, 0, 48, 80
2, 195840, Note_off_c, 0, 43, 80
2, 196320, Note_on_c, 0, 55, 95
2, 196320, Note_on_c, 0, 52, 95
2, 196320, Note_on_c, 0, 48, 95
2, 196320, Note_on_c, 0, 43, 95
2, 196560, Note_off_c, 0, 55, 80
2, 196560, Note_off_c, 0, 52, 80
2, 196560, Note_off_c, 0, 48, 80
2, 196560, Note_off_c, 0, 43, 80
2, 197040, Note_on_c, 0, 59, 95
2, 197040, Note_on_c, 0, 55, 95
2, 197040, Note_on_c, 0, 52, 95
2, 197040, Note_on_c, 0, 47, 95
2, 197280, Note_off_c, 0, 59, 80
2, 197280, Note_off_c, 0, 55, 80
2, 197280, Note_off_c, 0, 52, 80
2, 197280, Note_off_c, 0, 47, 80
2, 197760, Note_on_c, 0, 57, 95
2, 197760, Note_on_c, 0, 52, 95
2, 197760, Note_on_c, 0, 48, 95
2, 197760, Note_on_c, 0, 45, 95
2, 198000, Note_off_c, 0, 57, 80
2, 198000, Note_off_c, 0, 52, 80
2, 198000, Note_off_c, 0, 48, 80
2, 198000, Note_off_c, 0, 45, 80
2, 198480, Note_on_c, 0, 57, 95
2, 198480, Note_on_c, 0, 52, 95
2, 198480, Note_on_c, 0, 48, 95
2, 198480, Note_on_c, 0, 45, 95
2, 198720, Note_off_c, 0, 57, 80
2, 198720, Note_off_c, 0, 52, 80
2, 198720, Note_off_c, 0, 48, 80
2, 198720, Note_off_c, 0, 45, 80
2, 199200, Note_on_c, 0, 57, 95
2, 199200, Note_on_c, 0, 53, 95
2, 199200, Note_on_c, 0, 50, 95
2, 199200, Note_on_c, 0, 45, 95
2, 199440, Note_off_c, 0, 57, 80
2, 199440, Note_off_c, 0, 53, 80
2, 199440, Note_off_c, 0, 50, 80
2, 199440, Note_off_c, 0, 45, 80
2, 199920, Note_on_c, 0, 55, 95
2, 199920, Note_on_c, 0, 50, 95
2, 199920, Note_on_c, 0, 47, 95
2, 199920, Note_on_c, 0, 43, 95
2, 200160, Note_off_c, 0, 55, 80
2, 200160, Note_off_c, 0, 50, 80
2, 200160, Note_off_c, 0, 47, 80
2, 200160, Note_off_c, 0, 43, 80
2, 200640, Note_on_c, 0, 55, 95
2, 200640, Note_on_c, 0, 52, 95
2, 200640, Note_on_c, 0, 48, 95
2, 200640, Note_on_c, 0, 43, 95
2, 200880, Note_off_c, 0, 55, 80
2, 200880, Note_off_c, 0, 52, 80
2, 200880, Note_off_c, 0, 48, 80
2, 200880, Note_off_c, 0, 43, 80
2, 201360, Note_on_c, 0, 55, 95
2, 201360, Note_on_c, 0, 52, 95
2, 201360, Note_on_c, 0, 48, 95
2, 201360, Note_on_c, 0, 43, 95
2, 201600, Note_off_c, 0, 55, 80
2, 201600, Note_off_c, 0, 52, 80
2, 201600, Note_off_c, 0, 48, 80
2, 201600, Note_off_c, 0, 43, 80
2, 202080, Note_on_c, 0, 57, 95
2, 202080, Note_on_c, 0, 53, 95
2, 202080, Note_on_c, 0, 48, 95
2, 202080, Note_on_c, 0, 45, 95
2, 202320, Note_off_c, 0, 57, 80
2, 202320, Note_off_c, 0, 53, 80
2, 202320, Note_off_c, 0, 48, 80
2, 202320, Note_off_c, 0, 45, 80
2, 202800, Note_on_c, 0, 59, 95
2, 202800, Note_on_c, 0, 55, 95
2, 202800, Note_on_c, 0, 50, 95
2, 202800, Note_on_c, 0, 47, 95
2, 203040, Note_off_c, 0, 59, 80
2, 203040, Note_off_c, 0, 55, 80
2, 203040, Note_off_c, 0, 50, 80
2, 203040, Note_off_c, 0, 47, 80
2, 203520, Note_on_c, 0, 60, 95
2, 203520, Note_on_c, 0, 55, 95
2, 203520, Note_on_c, 0, 52, 95
2, 203520, Note_on_c, 0, 48, 95
2, 203760, Note_off_c, 0, 60, 80
2, 203760, Note_off_c, 0, 55, 80
2, 203760, Note_off_c, 0, 52, 80
2, 203760, Note_off_c, 0, 48, 80
2, 204240, Note_on_c, 0, 57, 95
2, 204240, Note_on_c, 0, 52, 95
2, 204240, Note_on_c, 0, 48, 95
2, 204240, Note_on_c, 0, 45, 95
2, 204480, Note_off_c, 0, 57, 80
2, 204480, Note_off_c, 0, 52, 80
2, 204480, Note_off_c, 0, 48, 80
2, 204480, Note_off_c, 0, 45, 80
2, 204960, Note_on_c, 0, 57, 95
2, 204960, Note_on_c, 0, 53, 95
2, 204960, Note_on_c, 0, 50, 95
2, 204960, Note_on_c, 0, 45, 95
2, 205200, Note_off_c, 0, 57, 80
2, 205200, Note_off_c, 0, 53, 80
2, 205200, Note_off_c, 0, 50, 80
2, 205200, Note_off_c, 0, 45, 80
2, 205680, Note_on_c, 0, 55, 95
2, 205680, Note_on_c, 0, 50, 95
2, 205680, Note_on_c, 0, 47, 95
2, 205680, Note_on_c, 0, 43, 95
2, 205920, Note_off_c, 0, 55, 80
2, 205920, Note_off_c, 0, 50, 80
2, 205920, Note_off_c, 0, 47, 80
2, 205920, Note_off_c, 0, 43, 80
2, 206400, Note_on_c, 0, 55, 95
2, 206400, Note_on_c, 0, 52, 95
2, 206400, Note_on_c, 0, 48, 95
2, 206400, Note_on_c, 0, 43, 95
2, 206640, Note_off_c, 0, 55, 80
2, 206640, Note_off_c, 0, 52, 80
2, 206640, Note_off_c, 0, 48, 80
2, 206640, Note_off_c, 0, 43, 80
2, 207120, Note_on_c, 0, 55, 95
2, 207120, Note_on_c, 0, 52, 95
2, 207120, Note_on_c, 0, 48, 95
2, 207120, Note_on_c, 0, 43, 95
2, 207360, Note_off_c, 0, 55, 80
2, 207360, Note_off_c, 0, 52, 80
2, 207360, Note_off_c, 0, 48, 80
2, 207360, Note_off_c, 0, 43, 80
2, 207840, Note_on_c, 0, 57, 95
2, 207840, Note_on_c, 0, 53, 95
2, 207840, Note_on_c, 0, 48, 95
2, 207840, Note_on_c, 0, 45, 95
2, 208080, Note_off_c, 0, 57, 80
2, 208080, Note_off_c, 0, 53, 80
2, 208080, Note_off_c, 0, 48, 80
2, 208080, Note_off_c, 0, 45, 80
2, 208560, Note_on_c, 0, 59, 95
2, 208560, Note_on_c, 0, 55, 95
2, 208560, Note_on_c, 0, 50, 95
2, 208560, Note_on_c, 0, 47, 95
2, 208800, Note_off_c, 0, 59, 80
2, 208800, Note_off_c, 0, 55, 80
2, 208800, Note_off_c, 0, 50, 80
2, 208800, Note_off_c, 0, 47, 80
2, 209280, Note_on_c, 0, 55, 95
2, 209280, Note_on_c, 0, 52, 95
2, 209280, Note_on_c, 0, 48, 95
2, 209280, Note_on_c, 0, 43, 95
2, 209520, Note_off_c, 0, 55, 80
2, 209520, Note_off_c, 0, 52, 80
2, 209520, Note_off_c, 0, 48, 80
2, 209520, Note_off_c, 0, 43, 80
2, 210000, Note_on_c, 0, 57, 95
2, 210000, Note_on_c, 0, 53, 95
2, 210000, Note_on_c, 0, 48, 95
2, 210000, Note_on_c, 0, 45, 95
2, 210240, Note_off_c, 0, 57, 80
2, 210240, Note_off_c, 0, 53, 80
2, 210240, Note_off_c, 0, 48, 80
2, 210240, Note_off_c, 0, 45, 80
2, 210720, Note_on_c, 0, 55, 95
2, 210720, Note_on_c, 0, 52, 95
2, 210720, Note_on_c, 0, 48, 95
2, 210720, Note_on_c, 0, 43, 95
2, 210960, Note_off_c, 0, 55, 80
2, 210960, Note_off_c, 0, 52, 80
2, 210960, Note_off_c, 0, 48, 80
2, 210960, Note_off_c, 0, 43, 80
2, 210960, Note_on_c, 0, 55, 95
2, 210960, Note_on_c, 0, 50, 95
2, 210960, Note_on_c, 0, 47, 95
2, 210960, Note_on_c, 0, 43, 95
2, 211680, Note_off_c, 0, 55, 80
2, 211680, Note_off_c, 0, 50, 80
2, 211680, Note_off_c, 0, 47, 80
2, 211680, Note_off_c, 0, 43, 80
2, 211680, Note_on_c, 0, 55, 95
2, 211680, Note_on_c, 0, 52, 95
2, 211680, Note_on_c, 0, 48, 95
2, 211680, Note_on_c, 0, 43, 95
2, 213120, Note_off_c, 0, 55, 80
2, 213120, Note_off_c, 0, 52, 80
2, 213120, Note_off_c, 0, 48, 80
2, 213120, Note_off_c, 0, 43, 80
2, 213120, End_track
3, 0, Start_track
3, 0, Title_t, "Mike Oldfield - In Dulci Jubilo"
3, 0, Control_c, 3, 100, 0
3, 0, Control_c, 3, 101, 0
3, 0, Control_c, 3, 6, 12
3, 0, Pitch_bend_c, 3, 8192
3, 0, Control_c, 3, 101, 0
3, 0, Control_c, 3, 100, 1
3, 0, Control_c, 3, 6, 64
3, 0, Control_c, 3, 38, 0
3, 0, Control_c, 3, 101, 127
3, 0, Control_c, 3, 100, 127
3, 0, Control_c, 2, 100, 0
3, 0, Control_c, 2, 101, 0
3, 0, Control_c, 2, 6, 12
3, 0, Pitch_bend_c, 2, 8192
3, 0, Control_c, 2, 101, 0
3, 0, Control_c, 2, 100, 1
3, 0, Control_c, 2, 6, 64
3, 0, Control_c, 2, 38, 0
3, 0, Control_c, 2, 101, 127
3, 0, Control_c, 2, 100, 127
3, 0, Control_c, 3, 101, 0
3, 0, Control_c, 3, 100, 2
3, 0, Control_c, 3, 6, 64
3, 0, Control_c, 3, 101, 127
3, 0, Control_c, 3, 100, 127
3, 0, Control_c, 2, 101, 0
3, 0, Control_c, 2, 100, 2
3, 0, Control_c, 2, 6, 64
3, 0, Control_c, 2, 101, 127
3, 0, Control_c, 2, 100, 127
3, 0, Program_c, 3, 0
3, 0, Program_c, 2, 0
3, 0, Control_c, 3, 0, 0
3, 0, Control_c, 2, 0, 0
3, 0, Control_c, 3, 7, 96
3, 0, Control_c, 2, 7, 96
3, 0, Control_c, 3, 10, 64
3, 0, Control_c, 2, 10, 64
3, 0, Control_c, 3, 93, 0
3, 0, Control_c, 2, 93, 0
3, 0, Control_c, 3, 91, 0
3, 0, Control_c, 2, 91, 0
3, 0, Control_c, 3, 92, 0
3, 0, Control_c, 2, 92, 0
3, 0, Control_c, 3, 95, 0
3, 0, Control_c, 2, 95, 0
3, 0, Note_on_c, 2, 48, 95
3, 240, Note_off_c, 2, 48, 80
3, 480, Note_on_c, 2, 55, 95
3, 720, Note_off_c, 2, 55, 80
3, 720, Note_on_c, 2, 48, 95
3, 960, Note_off_c, 2, 48, 80
3, 1200, Note_on_c, 2, 55, 95
3, 1440, Note_off_c, 2, 55, 80
3, 1440, Note_on_c, 2, 48, 95
3, 1680, Note_off_c, 2, 48, 80
3, 1920, Note_on_c, 2, 55, 95
3, 2160, Note_off_c, 2, 55, 80
3, 2160, Note_on_c, 2, 48, 95
3, 2400, Note_off_c, 2, 48, 80
3, 2640, Note_on_c, 2, 55, 95
3, 2880, Note_off_c, 2, 55, 80
3, 2880, Note_on_c, 2, 48, 95
3, 3120, Note_off_c, 2, 48, 80
3, 3360, Note_on_c, 2, 55, 95
3, 3600, Note_off_c, 2, 55, 80
3, 3600, Note_on_c, 2, 48, 95
3, 3840, Note_off_c, 2, 48, 80
3, 4080, Note_on_c, 2, 55, 95
3, 4320, Note_off_c, 2, 55, 80
3, 4320, Note_on_c, 2, 48, 95
3, 4560, Note_off_c, 2, 48, 80
3, 4800, Note_on_c, 2, 55, 95
3, 5040, Note_off_c, 2, 55, 80
3, 5040, Note_on_c, 2, 48, 95
3, 5280, Note_off_c, 2, 48, 80
3, 5520, Note_on_c, 2, 55, 95
3, 5760, Note_off_c, 2, 55, 80
3, 5760, Note_on_c, 2, 48, 95
3, 6000, Note_off_c, 2, 48, 80
3, 6480, Note_on_c, 2, 48, 95
3, 6720, Note_off_c, 2, 48, 80
3, 7200, Note_on_c, 2, 48, 95
3, 7440, Note_off_c, 2, 48, 80
3, 7680, Note_on_c, 2, 41, 95
3, 7920, Note_off_c, 2, 41, 80
3, 7920, Note_on_c, 2, 48, 95
3, 8160, Note_off_c, 2, 48, 80
3, 8640, Note_on_c, 2, 48, 95
3, 8880, Note_off_c, 2, 48, 80
3, 9360, Note_on_c, 2, 48, 95
3, 9600, Note_off_c, 2, 48, 80
3, 10080, Note_on_c, 2, 48, 95
3, 10320, Note_off_c, 2, 48, 80
3, 10560, Note_on_c, 2, 41, 95
3, 10800, Note_off_c, 2, 41, 80
3, 10800, Note_on_c, 2, 48, 95
3, 11040, Note_off_c, 2, 48, 80
3, 11520, Note_on_c, 2, 48, 95
3, 11760, Note_off_c, 2, 48, 80
3, 12240, Note_on_c, 2, 40, 95
3, 12480, Note_off_c, 2, 40, 80
3, 12960, Note_on_c, 2, 45, 95
3, 13200, Note_off_c, 2, 45, 80
3, 13680, Note_on_c, 2, 43, 95
3, 13920, Note_off_c, 2, 43, 80
3, 14400, Note_on_c, 2, 50, 95
3, 14640, Note_off_c, 2, 50, 80
3, 15120, Note_on_c, 2, 43, 95
3, 15360, Note_off_c, 2, 43, 80
3, 15840, Note_on_c, 2, 48, 95
3, 16080, Note_off_c, 2, 48, 80
3, 16560, Note_on_c, 2, 48, 95
3, 16800, Note_off_c, 2, 48, 80
3, 17280, Note_on_c, 2, 41, 95
3, 17520, Note_off_c, 2, 41, 80
3, 18000, Note_on_c, 2, 43, 95
3, 18240, Note_off_c, 2, 43, 80
3, 18720, Note_on_c, 2, 48, 95
3, 18960, Note_off_c, 2, 48, 80
3, 19440, Note_on_c, 2, 45, 95
3, 19680, Note_off_c, 2, 45, 80
3, 20160, Note_on_c, 2, 50, 95
3, 20400, Note_off_c, 2, 50, 80
3, 20880, Note_on_c, 2, 43, 95
3, 21120, Note_off_c, 2, 43, 80
3, 21600, Note_on_c, 2, 48, 95
3, 21840, Note_off_c, 2, 48, 80
3, 22320, Note_on_c, 2, 48, 95
3, 22560, Note_off_c, 2, 48, 80
3, 23040, Note_on_c, 2, 41, 95
3, 23280, Note_off_c, 2, 41, 80
3, 23760, Note_on_c, 2, 43, 95
3, 24000, Note_off_c, 2, 43, 80
3, 24480, Note_on_c, 2, 48, 95
3, 24720, Note_off_c, 2, 48, 80
3, 25200, Note_on_c, 2, 41, 95
3, 25440, Note_off_c, 2, 41, 80
3, 25920, Note_on_c, 2, 48, 95
3, 26160, Note_off_c, 2, 48, 80
3, 26640, Note_on_c, 2, 43, 95
3, 26880, Note_off_c, 2, 43, 80
3, 27360, Note_on_c, 2, 48, 95
3, 27600, Note_off_c, 2, 48, 80
3, 28080, Note_on_c, 2, 48, 95
3, 28320, Note_off_c, 2, 48, 80
3, 28800, Note_on_c, 2, 48, 95
3, 29040, Note_off_c, 2, 48, 80
3, 29520, Note_on_c, 2, 48, 95
3, 29760, Note_off_c, 2, 48, 80
3, 30240, Note_on_c, 2, 48, 95
3, 30480, Note_off_c, 2, 48, 80
3, 30720, Note_on_c, 2, 41, 95
3, 30960, Note_off_c, 2, 41, 80
3, 30960, Note_on_c, 2, 48, 95
3, 31200, Note_off_c, 2, 48, 80
3, 31680, Note_on_c, 2, 48, 95
3, 31920, Note_off_c, 2, 48, 80
3, 32400, Note_on_c, 2, 48, 95
3, 32640, Note_off_c, 2, 48, 80
3, 33120, Note_on_c, 2, 48, 95
3, 33360, Note_off_c, 2, 48, 80
3, 33600, Note_on_c, 2, 41, 95
3, 33840, Note_off_c, 2, 41, 80
3, 33840, Note_on_c, 2, 48, 95
3, 34080, Note_off_c, 2, 48, 80
3, 34560, Note_on_c, 2, 48, 95
3, 34800, Note_off_c, 2, 48, 80
3, 35280, Note_on_c, 2, 40, 95
3, 35520, Note_off_c, 2, 40, 80
3, 36000, Note_on_c, 2, 45, 95
3, 36240, Note_off_c, 2, 45, 80
3, 36720, Note_on_c, 2, 43, 95
3, 36960, Note_off_c, 2, 43, 80
3, 37440, Note_on_c, 2, 50, 95
3, 37680, Note_off_c, 2, 50, 80
3, 38160, Note_on_c, 2, 43, 95
3, 38400, Note_off_c, 2, 43, 80
3, 38880, Note_on_c, 2, 48, 95
3, 39120, Note_off_c, 2, 48, 80
3, 39600, Note_on_c, 2, 48, 95
3, 39840, Note_off_c, 2, 48, 80
3, 40320, Note_on_c, 2, 41, 95
3, 40560, Note_off_c, 2, 41, 80
3, 41040, Note_on_c, 2, 43, 95
3, 41280, Note_off_c, 2, 43, 80
3, 41760, Note_on_c, 2, 48, 95
3, 42000, Note_off_c, 2, 48, 80
3, 42480, Note_on_c, 2, 45, 95
3, 42720, Note_off_c, 2, 45, 80
3, 43200, Note_on_c, 2, 50, 95
3, 43440, Note_off_c, 2, 50, 80
3, 43920, Note_on_c, 2, 43, 95
3, 44160, Note_off_c, 2, 43, 80
3, 44640, Note_on_c, 2, 48, 95
3, 44880, Note_off_c, 2, 48, 80
3, 45360, Note_on_c, 2, 48, 95
3, 45600, Note_off_c, 2, 48, 80
3, 46080, Note_on_c, 2, 41, 95
3, 46320, Note_off_c, 2, 41, 80
3, 46800, Note_on_c, 2, 43, 95
3, 47040, Note_off_c, 2, 43, 80
3, 47520, Note_on_c, 2, 48, 95
3, 47760, Note_off_c, 2, 48, 80
3, 48240, Note_on_c, 2, 41, 95
3, 48480, Note_off_c, 2, 41, 80
3, 48960, Note_on_c, 2, 48, 95
3, 49200, Note_off_c, 2, 48, 80
3, 49680, Note_on_c, 2, 43, 95
3, 49920, Note_off_c, 2, 43, 80
3, 50400, Note_on_c, 2, 48, 95
3, 50640, Note_off_c, 2, 48, 80
3, 51120, Note_on_c, 2, 48, 95
3, 51360, Note_off_c, 2, 48, 80
3, 51840, Note_on_c, 2, 48, 95
3, 52080, Note_off_c, 2, 48, 80
3, 52560, Note_on_c, 2, 48, 95
3, 52800, Note_off_c, 2, 48, 80
3, 53280, Note_on_c, 2, 48, 95
3, 53520, Note_off_c, 2, 48, 80
3, 53760, Note_on_c, 2, 41, 95
3, 54000, Note_off_c, 2, 41, 80
3, 54000, Note_on_c, 2, 48, 95
3, 54240, Note_off_c, 2, 48, 80
3, 54720, Note_on_c, 2, 48, 95
3, 54960, Note_off_c, 2, 48, 80
3, 55440, Note_on_c, 2, 48, 95
3, 55680, Note_off_c, 2, 48, 80
3, 56160, Note_on_c, 2, 48, 95
3, 56400, Note_off_c, 2, 48, 80
3, 56640, Note_on_c, 2, 41, 95
3, 56880, Note_off_c, 2, 41, 80
3, 56880, Note_on_c, 2, 48, 95
3, 57120, Note_off_c, 2, 48, 80
3, 57600, Note_on_c, 2, 48, 95
3, 57840, Note_off_c, 2, 48, 80
3, 58320, Note_on_c, 2, 40, 95
3, 58560, Note_off_c, 2, 40, 80
3, 59040, Note_on_c, 2, 45, 95
3, 59280, Note_off_c, 2, 45, 80
3, 59760, Note_on_c, 2, 43, 95
3, 60000, Note_off_c, 2, 43, 80
3, 60480, Note_on_c, 2, 50, 95
3, 60720, Note_off_c, 2, 50, 80
3, 61200, Note_on_c, 2, 43, 95
3, 61440, Note_off_c, 2, 43, 80
3, 61920, Note_on_c, 2, 48, 95
3, 62160, Note_off_c, 2, 48, 80
3, 62640, Note_on_c, 2, 48, 95
3, 62880, Note_off_c, 2, 48, 80
3, 63360, Note_on_c, 2, 41, 95
3, 63600, Note_off_c, 2, 41, 80
3, 64080, Note_on_c, 2, 43, 95
3, 64320, Note_off_c, 2, 43, 80
3, 64800, Note_on_c, 2, 48, 95
3, 65040, Note_off_c, 2, 48, 80
3, 65520, Note_on_c, 2, 45, 95
3, 65760, Note_off_c, 2, 45, 80
3, 66240, Note_on_c, 2, 50, 95
3, 66480, Note_off_c, 2, 50, 80
3, 66960, Note_on_c, 2, 43, 95
3, 67200, Note_off_c, 2, 43, 80
3, 67680, Note_on_c, 2, 48, 95
3, 67920, Note_off_c, 2, 48, 80
3, 68400, Note_on_c, 2, 48, 95
3, 68640, Note_off_c, 2, 48, 80
3, 69120, Note_on_c, 2, 41, 95
3, 69360, Note_off_c, 2, 41, 80
3, 69840, Note_on_c, 2, 43, 95
3, 70080, Note_off_c, 2, 43, 80
3, 70560, Note_on_c, 2, 48, 95
3, 70800, Note_off_c, 2, 48, 80
3, 71280, Note_on_c, 2, 41, 95
3, 71520, Note_off_c, 2, 41, 80
3, 72000, Note_on_c, 2, 48, 95
3, 72240, Note_off_c, 2, 48, 80
3, 72720, Note_on_c, 2, 43, 95
3, 72960, Note_off_c, 2, 43, 80
3, 73440, Note_on_c, 2, 48, 95
3, 73680, Note_off_c, 2, 48, 80
3, 74160, Note_on_c, 2, 48, 95
3, 74400, Note_off_c, 2, 48, 80
3, 74880, Note_on_c, 2, 48, 95
3, 75120, Note_off_c, 2, 48, 80
3, 75600, Note_on_c, 2, 48, 95
3, 75840, Note_off_c, 2, 48, 80
3, 76320, Note_on_c, 2, 48, 95
3, 76560, Note_off_c, 2, 48, 80
3, 76800, Note_on_c, 2, 41, 95
3, 77040, Note_off_c, 2, 41, 80
3, 77040, Note_on_c, 2, 48, 95
3, 77280, Note_off_c, 2, 48, 80
3, 77760, Note_on_c, 2, 48, 95
3, 78000, Note_off_c, 2, 48, 80
3, 78480, Note_on_c, 2, 48, 95
3, 78720, Note_off_c, 2, 48, 80
3, 79200, Note_on_c, 2, 48, 95
3, 79440, Note_off_c, 2, 48, 80
3, 79680, Note_on_c, 2, 41, 95
3, 79920, Note_off_c, 2, 41, 80
3, 79920, Note_on_c, 2, 48, 95
3, 80160, Note_off_c, 2, 48, 80
3, 80640, Note_on_c, 2, 48, 95
3, 80880, Note_off_c, 2, 48, 80
3, 81360, Note_on_c, 2, 40, 95
3, 81600, Note_off_c, 2, 40, 80
3, 82080, Note_on_c, 2, 45, 95
3, 82320, Note_off_c, 2, 45, 80
3, 82800, Note_on_c, 2, 43, 95
3, 83040, Note_off_c, 2, 43, 80
3, 83520, Note_on_c, 2, 50, 95
3, 83760, Note_off_c, 2, 50, 80
3, 84240, Note_on_c, 2, 43, 95
3, 84480, Note_off_c, 2, 43, 80
3, 84960, Note_on_c, 2, 48, 95
3, 85200, Note_off_c, 2, 48, 80
3, 85680, Note_on_c, 2, 48, 95
3, 85920, Note_off_c, 2, 48, 80
3, 86400, Note_on_c, 2, 41, 95
3, 86640, Note_off_c, 2, 41, 80
3, 87120, Note_on_c, 2, 43, 95
3, 87360, Note_off_c, 2, 43, 80
3, 87840, Note_on_c, 2, 48, 95
3, 88080, Note_off_c, 2, 48, 80
3, 88560, Note_on_c, 2, 45, 95
3, 88800, Note_off_c, 2, 45, 80
3, 89280, Note_on_c, 2, 50, 95
3, 89520, Note_off_c, 2, 50, 80
3, 90000, Note_on_c, 2, 43, 95
3, 90240, Note_off_c, 2, 43, 80
3, 90720, Note_on_c, 2, 48, 95
3, 90960, Note_off_c, 2, 48, 80
3, 91440, Note_on_c, 2, 48, 95
3, 91680, Note_off_c, 2, 48, 80
3, 92160, Note_on_c, 2, 41, 95
3, 92400, Note_off_c, 2, 41, 80
3, 92880, Note_on_c, 2, 43, 95
3, 93120, Note_off_c, 2, 43, 80
3, 93600, Note_on_c, 2, 48, 95
3, 93840, Note_off_c, 2, 48, 80
3, 94320, Note_on_c, 2, 41, 95
3, 94560, Note_off_c, 2, 41, 80
3, 95040, Note_on_c, 2, 48, 95
3, 95280, Note_off_c, 2, 48, 80
3, 95760, Note_on_c, 2, 43, 95
3, 96000, Note_off_c, 2, 43, 80
3, 96480, Note_on_c, 2, 48, 95
3, 96720, Note_off_c, 2, 48, 80
3, 97200, Note_on_c, 2, 48, 95
3, 97440, Note_off_c, 2, 48, 80
3, 97920, Note_on_c, 2, 48, 95
3, 98160, Note_off_c, 2, 48, 80
3, 98640, Note_on_c, 2, 48, 95
3, 98880, Note_off_c, 2, 48, 80
3, 99360, Note_on_c, 2, 48, 95
3, 99600, Note_off_c, 2, 48, 80
3, 99840, Note_on_c, 2, 41, 95
3, 100080, Note_off_c, 2, 41, 80
3, 100080, Note_on_c, 2, 48, 95
3, 100320, Note_off_c, 2, 48, 80
3, 100800, Note_on_c, 2, 48, 95
3, 101040, Note_off_c, 2, 48, 80
3, 101520, Note_on_c, 2, 48, 95
3, 101760, Note_off_c, 2, 48, 80
3, 102240, Note_on_c, 2, 48, 95
3, 102480, Note_off_c, 2, 48, 80
3, 102720, Note_on_c, 2, 41, 95
3, 102960, Note_off_c, 2, 41, 80
3, 102960, Note_on_c, 2, 48, 95
3, 103200, Note_off_c, 2, 48, 80
3, 103680, Note_on_c, 2, 48, 95
3, 103920, Note_off_c, 2, 48, 80
3, 104400, Note_on_c, 2, 40, 95
3, 104640, Note_off_c, 2, 40, 80
3, 105120, Note_on_c, 2, 45, 95
3, 105360, Note_off_c, 2, 45, 80
3, 105840, Note_on_c, 2, 43, 95
3, 106080, Note_off_c, 2, 43, 80
3, 106560, Note_on_c, 2, 50, 95
3, 106800, Note_off_c, 2, 50, 80
3, 107280, Note_on_c, 2, 43, 95
3, 107520, Note_off_c, 2, 43, 80
3, 108000, Note_on_c, 2, 48, 95
3, 108240, Note_off_c, 2, 48, 80
3, 108720, Note_on_c, 2, 48, 95
3, 108960, Note_off_c, 2, 48, 80
3, 109440, Note_on_c, 2, 41, 95
3, 109680, Note_off_c, 2, 41, 80
3, 110160, Note_on_c, 2, 43, 95
3, 110400, Note_off_c, 2, 43, 80
3, 110880, Note_on_c, 2, 48, 95
3, 111120, Note_off_c, 2, 48, 80
3, 111600, Note_on_c, 2, 45, 95
3, 111840, Note_off_c, 2, 45, 80
3, 112320, Note_on_c, 2, 50, 95
3, 112560, Note_off_c, 2, 50, 80
3, 113040, Note_on_c, 2, 43, 95
3, 113280, Note_off_c, 2, 43, 80
3, 113760, Note_on_c, 2, 48, 95
3, 114000, Note_off_c, 2, 48, 80
3, 114480, Note_on_c, 2, 48, 95
3, 114720, Note_off_c, 2, 48, 80
3, 115200, Note_on_c, 2, 41, 95
3, 115440, Note_off_c, 2, 41, 80
3, 115920, Note_on_c, 2, 43, 95
3, 116160, Note_off_c, 2, 43, 80
3, 116640, Note_on_c, 2, 48, 95
3, 116880, Note_off_c, 2, 48, 80
3, 117360, Note_on_c, 2, 41, 95
3, 117600, Note_off_c, 2, 41, 80
3, 118080, Note_on_c, 2, 48, 95
3, 118320, Note_off_c, 2, 48, 80
3, 118800, Note_on_c, 2, 43, 95
3, 119040, Note_off_c, 2, 43, 80
3, 119520, Note_on_c, 2, 48, 95
3, 119760, Note_off_c, 2, 48, 80
3, 120240, Note_on_c, 2, 48, 95
3, 120480, Note_off_c, 2, 48, 80
3, 120960, Note_on_c, 2, 48, 95
3, 121200, Note_off_c, 2, 48, 80
3, 121680, Note_on_c, 2, 48, 95
3, 121920, Note_off_c, 2, 48, 80
3, 122400, Note_on_c, 2, 48, 95
3, 122640, Note_off_c, 2, 48, 80
3, 122880, Note_on_c, 2, 41, 95
3, 123120, Note_off_c, 2, 41, 80
3, 123120, Note_on_c, 2, 48, 95
3, 123360, Note_off_c, 2, 48, 80
3, 123840, Note_on_c, 2, 48, 95
3, 124080, Note_off_c, 2, 48, 80
3, 124560, Note_on_c, 2, 48, 95
3, 124800, Note_off_c, 2, 48, 80
3, 125280, Note_on_c, 2, 48, 95
3, 125520, Note_off_c, 2, 48, 80
3, 125760, Note_on_c, 2, 41, 95
3, 126000, Note_off_c, 2, 41, 80
3, 126000, Note_on_c, 2, 48, 95
3, 126240, Note_off_c, 2, 48, 80
3, 126720, Note_on_c, 2, 48, 95
3, 126960, Note_off_c, 2, 48, 80
3, 127440, Note_on_c, 2, 40, 95
3, 127680, Note_off_c, 2, 40, 80
3, 128160, Note_on_c, 2, 45, 95
3, 128400, Note_off_c, 2, 45, 80
3, 128880, Note_on_c, 2, 43, 95
3, 129120, Note_off_c, 2, 43, 80
3, 129600, Note_on_c, 2, 50, 95
3, 129840, Note_off_c, 2, 50, 80
3, 130320, Note_on_c, 2, 43, 95
3, 130560, Note_off_c, 2, 43, 80
3, 131040, Note_on_c, 2, 48, 95
3, 131280, Note_off_c, 2, 48, 80
3, 131760, Note_on_c, 2, 48, 95
3, 132000, Note_off_c, 2, 48, 80
3, 132480, Note_on_c, 2, 41, 95
3, 132720, Note_off_c, 2, 41, 80
3, 133200, Note_on_c, 2, 43, 95
3, 133440, Note_off_c, 2, 43, 80
3, 133920, Note_on_c, 2, 48, 95
3, 134160, Note_off_c, 2, 48, 80
3, 134640, Note_on_c, 2, 45, 95
3, 134880, Note_off_c, 2, 45, 80
3, 135360, Note_on_c, 2, 50, 95
3, 135600, Note_off_c, 2, 50, 80
3, 136080, Note_on_c, 2, 43, 95
3, 136320, Note_off_c, 2, 43, 80
3, 136800, Note_on_c, 2, 48, 95
3, 137040, Note_off_c, 2, 48, 80
3, 137520, Note_on_c, 2, 48, 95
3, 137760, Note_off_c, 2, 48, 80
3, 138240, Note_on_c, 2, 41, 95
3, 138480, Note_off_c, 2, 41, 80
3, 138960, Note_on_c, 2, 43, 95
3, 139200, Note_off_c, 2, 43, 80
3, 139680, Note_on_c, 2, 48, 95
3, 139920, Note_off_c, 2, 48, 80
3, 140400, Note_on_c, 2, 41, 95
3, 140640, Note_off_c, 2, 41, 80
3, 141120, Note_on_c, 2, 48, 95
3, 141360, Note_off_c, 2, 48, 80
3, 141840, Note_on_c, 2, 43, 95
3, 142080, Note_off_c, 2, 43, 80
3, 142560, Note_on_c, 2, 48, 95
3, 142800, Note_off_c, 2, 48, 80
3, 143280, Note_on_c, 2, 48, 95
3, 143520, Note_off_c, 2, 48, 80
3, 144000, Note_on_c, 2, 48, 95
3, 144240, Note_off_c, 2, 48, 80
3, 144720, Note_on_c, 2, 48, 95
3, 144960, Note_off_c, 2, 48, 80
3, 145440, Note_on_c, 2, 48, 95
3, 145680, Note_off_c, 2, 48, 80
3, 145920, Note_on_c, 2, 41, 95
3, 146160, Note_off_c, 2, 41, 80
3, 146160, Note_on_c, 2, 48, 95
3, 146400, Note_off_c, 2, 48, 80
3, 146880, Note_on_c, 2, 48, 95
3, 147120, Note_off_c, 2, 48, 80
3, 147600, Note_on_c, 2, 48, 95
3, 147840, Note_off_c, 2, 48, 80
3, 148320, Note_on_c, 2, 48, 95
3, 148560, Note_off_c, 2, 48, 80
3, 148800, Note_on_c, 2, 41, 95
3, 149040, Note_off_c, 2, 41, 80
3, 149040, Note_on_c, 2, 48, 95
3, 149280, Note_off_c, 2, 48, 80
3, 149760, Note_on_c, 2, 48, 95
3, 150000, Note_off_c, 2, 48, 80
3, 150480, Note_on_c, 2, 40, 95
3, 150720, Note_off_c, 2, 40, 80
3, 151200, Note_on_c, 2, 45, 95
3, 151440, Note_off_c, 2, 45, 80
3, 151920, Note_on_c, 2, 43, 95
3, 152160, Note_off_c, 2, 43, 80
3, 152640, Note_on_c, 2, 50, 95
3, 152880, Note_off_c, 2, 50, 80
3, 153360, Note_on_c, 2, 43, 95
3, 153600, Note_off_c, 2, 43, 80
3, 154080, Note_on_c, 2, 48, 95
3, 154320, Note_off_c, 2, 48, 80
3, 154800, Note_on_c, 2, 48, 95
3, 155040, Note_off_c, 2, 48, 80
3, 155520, Note_on_c, 2, 41, 95
3, 155760, Note_off_c, 2, 41, 80
3, 156240, Note_on_c, 2, 43, 95
3, 156480, Note_off_c, 2, 43, 80
3, 156960, Note_on_c, 2, 48, 95
3, 157200, Note_off_c, 2, 48, 80
3, 157680, Note_on_c, 2, 45, 95
3, 157920, Note_off_c, 2, 45, 80
3, 158400, Note_on_c, 2, 50, 95
3, 158640, Note_off_c, 2, 50, 80
3, 159120, Note_on_c, 2, 43, 95
3, 159360, Note_off_c, 2, 43, 80
3, 159840, Note_on_c, 2, 48, 95
3, 160080, Note_off_c, 2, 48, 80
3, 160560, Note_on_c, 2, 48, 95
3, 160800, Note_off_c, 2, 48, 80
3, 161280, Note_on_c, 2, 41, 95
3, 161520, Note_off_c, 2, 41, 80
3, 162000, Note_on_c, 2, 43, 95
3, 162240, Note_off_c, 2, 43, 80
3, 162720, Note_on_c, 2, 48, 95
3, 162960, Note_off_c, 2, 48, 80
3, 163440, Note_on_c, 2, 41, 95
3, 163680, Note_off_c, 2, 41, 80
3, 164160, Note_on_c, 2, 48, 95
3, 164400, Note_off_c, 2, 48, 80
3, 164880, Note_on_c, 2, 43, 95
3, 165120, Note_off_c, 2, 43, 80
3, 165600, Note_on_c, 2, 48, 95
3, 165840, Note_off_c, 2, 48, 80
3, 166320, Note_on_c, 2, 48, 95
3, 166560, Note_off_c, 2, 48, 80
3, 167040, Note_on_c, 2, 48, 95
3, 167280, Note_off_c, 2, 48, 80
3, 167760, Note_on_c, 2, 48, 95
3, 168000, Note_off_c, 2, 48, 80
3, 168480, Note_on_c, 2, 48, 95
3, 168720, Note_off_c, 2, 48, 80
3, 168960, Note_on_c, 2, 41, 95
3, 169200, Note_off_c, 2, 41, 80
3, 169200, Note_on_c, 2, 48, 95
3, 169440, Note_off_c, 2, 48, 80
3, 169920, Note_on_c, 2, 48, 95
3, 170160, Note_off_c, 2, 48, 80
3, 170640, Note_on_c, 2, 48, 95
3, 170880, Note_off_c, 2, 48, 80
3, 171360, Note_on_c, 2, 48, 95
3, 171600, Note_off_c, 2, 48, 80
3, 171840, Note_on_c, 2, 41, 95
3, 172080, Note_off_c, 2, 41, 80
3, 172080, Note_on_c, 2, 48, 95
3, 172320, Note_off_c, 2, 48, 80
3, 172800, Note_on_c, 2, 48, 95
3, 173040, Note_off_c, 2, 48, 80
3, 173520, Note_on_c, 2, 40, 95
3, 173760, Note_off_c, 2, 40, 80
3, 174240, Note_on_c, 2, 45, 95
3, 174480, Note_off_c, 2, 45, 80
3, 174960, Note_on_c, 2, 43, 95
3, 175200, Note_off_c, 2, 43, 80
3, 175680, Note_on_c, 2, 50, 95
3, 175920, Note_off_c, 2, 50, 80
3, 176400, Note_on_c, 2, 43, 95
3, 176640, Note_off_c, 2, 43, 80
3, 177120, Note_on_c, 2, 48, 95
3, 177360, Note_off_c, 2, 48, 80
3, 177840, Note_on_c, 2, 48, 95
3, 178080, Note_off_c, 2, 48, 80
3, 178560, Note_on_c, 2, 41, 95
3, 178800, Note_off_c, 2, 41, 80
3, 179280, Note_on_c, 2, 43, 95
3, 179520, Note_off_c, 2, 43, 80
3, 180000, Note_on_c, 2, 48, 95
3, 180240, Note_off_c, 2, 48, 80
3, 180720, Note_on_c, 2, 45, 95
3, 180960, Note_off_c, 2, 45, 80
3, 181440, Note_on_c, 2, 50, 95
3, 181680, Note_off_c, 2, 50, 80
3, 182160, Note_on_c, 2, 43, 95
3, 182400, Note_off_c, 2, 43, 80
3, 182880, Note_on_c, 2, 48, 95
3, 183120, Note_off_c, 2, 48, 80
3, 183600, Note_on_c, 2, 48, 95
3, 183840, Note_off_c, 2, 48, 80
3, 184320, Note_on_c, 2, 41, 95
3, 184560, Note_off_c, 2, 41, 80
3, 185040, Note_on_c, 2, 43, 95
3, 185280, Note_off_c, 2, 43, 80
3, 185760, Note_on_c, 2, 48, 95
3, 186000, Note_off_c, 2, 48, 80
3, 186480, Note_on_c, 2, 41, 95
3, 186720, Note_off_c, 2, 41, 80
3, 187200, Note_on_c, 2, 48, 95
3, 187440, Note_off_c, 2, 48, 80
3, 187920, Note_on_c, 2, 43, 95
3, 188160, Note_off_c, 2, 43, 80
3, 188640, Note_on_c, 2, 48, 95
3, 188880, Note_off_c, 2, 48, 80
3, 189360, Note_on_c, 2, 48, 95
3, 189600, Note_off_c, 2, 48, 80
3, 190080, Note_on_c, 2, 48, 95
3, 190320, Note_off_c, 2, 48, 80
3, 190800, Note_on_c, 2, 48, 95
3, 191040, Note_off_c, 2, 48, 80
3, 191520, Note_on_c, 2, 48, 95
3, 191760, Note_off_c, 2, 48, 80
3, 192000, Note_on_c, 2, 41, 95
3, 192240, Note_off_c, 2, 41, 80
3, 192240, Note_on_c, 2, 48, 95
3, 192480, Note_off_c, 2, 48, 80
3, 192960, Note_on_c, 2, 48, 95
3, 193200, Note_off_c, 2, 48, 80
3, 193680, Note_on_c, 2, 48, 95
3, 193920, Note_off_c, 2, 48, 80
3, 194400, Note_on_c, 2, 48, 95
3, 194640, Note_off_c, 2, 48, 80
3, 194880, Note_on_c, 2, 41, 95
3, 195120, Note_off_c, 2, 41, 80
3, 195120, Note_on_c, 2, 48, 95
3, 195360, Note_off_c, 2, 48, 80
3, 195840, Note_on_c, 2, 48, 95
3, 196080, Note_off_c, 2, 48, 80
3, 196560, Note_on_c, 2, 40, 95
3, 196800, Note_off_c, 2, 40, 80
3, 197280, Note_on_c, 2, 45, 95
3, 197520, Note_off_c, 2, 45, 80
3, 198000, Note_on_c, 2, 43, 95
3, 198240, Note_off_c, 2, 43, 80
3, 198720, Note_on_c, 2, 50, 95
3, 198960, Note_off_c, 2, 50, 80
3, 199440, Note_on_c, 2, 43, 95
3, 199680, Note_off_c, 2, 43, 80
3, 200160, Note_on_c, 2, 48, 95
3, 200400, Note_off_c, 2, 48, 80
3, 200880, Note_on_c, 2, 48, 95
3, 201120, Note_off_c, 2, 48, 80
3, 201600, Note_on_c, 2, 41, 95
3, 201840, Note_off_c, 2, 41, 80
3, 202320, Note_on_c, 2, 43, 95
3, 202560, Note_off_c, 2, 43, 80
3, 203040, Note_on_c, 2, 48, 95
3, 203280, Note_off_c, 2, 48, 80
3, 203760, Note_on_c, 2, 45, 95
3, 204000, Note_off_c, 2, 45, 80
3, 204480, Note_on_c, 2, 50, 95
3, 204720, Note_off_c, 2, 50, 80
3, 205200, Note_on_c, 2, 43, 95
3, 205440, Note_off_c, 2, 43, 80
3, 205920, Note_on_c, 2, 48, 95
3, 206160, Note_off_c, 2, 48, 80
3, 206640, Note_on_c, 2, 48, 95
3, 206880, Note_off_c, 2, 48, 80
3, 207360, Note_on_c, 2, 41, 95
3, 207600, Note_off_c, 2, 41, 80
3, 208080, Note_on_c, 2, 43, 95
3, 208320, Note_off_c, 2, 43, 80
3, 208800, Note_on_c, 2, 48, 95
3, 209040, Note_off_c, 2, 48, 80
3, 209520, Note_on_c, 2, 41, 95
3, 209760, Note_off_c, 2, 41, 80
3, 210240, Note_on_c, 2, 48, 95
3, 210480, Note_off_c, 2, 48, 80
3, 210960, Note_on_c, 2, 43, 95
3, 211680, Note_off_c, 2, 43, 80
3, 211680, Note_on_c, 2, 48, 95
3, 212160, Note_off_c, 2, 48, 80
3, 212160, Note_on_c, 2, 43, 95
3, 212400, Note_off_c, 2, 43, 80
3, 212400, Note_on_c, 2, 48, 95
3, 213120, Note_off_c, 2, 48, 80
3, 213120, End_track
4, 0, Start_track
4, 0, Title_t, ""
4, 0, Control_c, 5, 100, 0
4, 0, Control_c, 5, 101, 0
4, 0, Control_c, 5, 6, 12
4, 0, Pitch_bend_c, 5, 8192
4, 0, Control_c, 5, 101, 0
4, 0, Control_c, 5, 100, 1
4, 0, Control_c, 5, 6, 64
4, 0, Control_c, 5, 38, 0
4, 0, Control_c, 5, 101, 127
4, 0, Control_c, 5, 100, 127
4, 0, Control_c, 4, 100, 0
4, 0, Control_c, 4, 101, 0
4, 0, Control_c, 4, 6, 12
4, 0, Pitch_bend_c, 4, 8192
4, 0, Control_c, 4, 101, 0
4, 0, Control_c, 4, 100, 1
4, 0, Control_c, 4, 6, 64
4, 0, Control_c, 4, 38, 0
4, 0, Control_c, 4, 101, 127
4, 0, Control_c, 4, 100, 127
4, 0, Control_c, 5, 101, 0
4, 0, Control_c, 5, 100, 2
4, 0, Control_c, 5, 6, 64
4, 0, Control_c, 5, 101, 127
4, 0, Control_c, 5, 100, 127
4, 0, Control_c, 4, 101, 0
4, 0, Control_c, 4, 100, 2
4, 0, Control_c, 4, 6, 64
4, 0, Control_c, 4, 101, 127
4, 0, Control_c, 4, 100, 127
4, 0, Program_c, 5, 74
4, 0, Program_c, 4, 74
4, 0, Control_c, 5, 0, 0
4, 0, Control_c, 4, 0, 0
4, 0, Control_c, 5, 7, 112
4, 0, Control_c, 4, 7, 112
4, 0, Control_c, 5, 10, 64
4, 0, Control_c, 4, 10, 64
4, 0, Control_c, 5, 93, 0
4, 0, Control_c, 4, 93, 0
4, 0, Control_c, 5, 91, 0
4, 0, Control_c, 4, 91, 0
4, 0, Control_c, 5, 92, 0
4, 0, Control_c, 4, 92, 0
4, 0, Control_c, 5, 95, 0
4, 0, Control_c, 4, 95, 0
4, 5760, Note_on_c, 4, 72, 95
4, 6000, Note_off_c, 4, 72, 80
4, 6240, Note_on_c, 4, 72, 95
4, 6480, Note_off_c, 4, 72, 80
4, 6480, Note_on_c, 4, 76, 95
4, 6960, Note_off_c, 4, 76, 80
4, 6960, Note_on_c, 4, 77, 95
4, 7200, Note_off_c, 4, 77, 80
4, 7200, Note_on_c, 4, 79, 95
4, 7440, Note_off_c, 4, 79, 80
4, 7680, Note_on_c, 4, 81, 95
4, 7920, Note_off_c, 4, 81, 80
4, 7920, Note_on_c, 4, 79, 95
4, 8640, Note_off_c, 4, 79, 80
4, 8640, Note_on_c, 4, 72, 95
4, 8880, Note_off_c, 4, 72, 80
4, 9120, Note_on_c, 4, 72, 95
4, 9360, Note_off_c, 4, 72, 80
4, 9360, Note_on_c, 4, 76, 95
4, 9840, Note_off_c, 4, 76, 80
4, 9840, Note_on_c, 4, 77, 95
4, 10080, Note_off_c, 4, 77, 80
4, 10080, Note_on_c, 4, 79, 95
4, 10320, Note_off_c, 4, 79, 80
4, 10560, Note_on_c, 4, 81, 95
4, 10800, Note_off_c, 4, 81, 80
4, 10800, Note_on_c, 4, 79, 95
4, 11520, Note_off_c, 4, 79, 80
4, 11520, Note_on_c, 4, 79, 95
4, 12000, Note_off_c, 4, 79, 80
4, 12000, Note_on_c, 4, 81, 95
4, 12240, Note_off_c, 4, 81, 80
4, 12240, Note_on_c, 4, 79, 95
4, 12480, Note_off_c, 4, 79, 80
4, 12720, Note_on_c, 4, 77, 95
4, 12960, Note_off_c, 4, 77, 80
4, 12960, Note_on_c, 4, 76, 95
4, 13680, Note_off_c, 4, 76, 80
4, 13680, Note_on_c, 4, 72, 95
4, 14160, Note_off_c, 4, 72, 80
4, 14400, Note_on_c, 4, 74, 95
4, 14640, Note_off_c, 4, 74, 80
4, 14880, Note_on_c, 4, 74, 95
4, 15120, Note_off_c, 4, 74, 80
4, 15120, Note_on_c, 4, 76, 95
4, 15600, Note_off_c, 4, 76, 80
4, 15600, Note_on_c, 4, 74, 95
4, 15680, Note_off_c, 4, 74, 80
4, 15680, Note_on_c, 4, 76, 95
4, 15760, Note_off_c, 4, 76, 80
4, 15760, Note_on_c, 4, 74, 95
4, 15840, Note_off_c, 4, 74, 80
4, 15840, Note_on_c, 4, 72, 95
4, 16080, Note_off_c, 4, 72, 80
4, 16320, Note_on_c, 4, 74, 95
4, 16560, Note_off_c, 4, 74, 80
4, 16560, Note_on_c, 4, 76, 95
4, 17040, Note_off_c, 4, 76, 80
4, 17040, Note_on_c, 4, 77, 95
4, 17280, Note_off_c, 4, 77, 80
4, 17280, Note_on_c, 4, 79, 95
4, 17760, Note_off_c, 4, 79, 80
4, 17760, Note_on_c, 4, 81, 95
4, 18000, Note_off_c, 4, 81, 80
4, 18000, Note_on_c, 4, 79, 95
4, 18480, Note_off_c, 4, 79, 80
4, 18480, Note_on_c, 4, 77, 95
4, 18720, Note_off_c, 4, 77, 80
4, 18720, Note_on_c, 4, 76, 95
4, 19440, Note_off_c, 4, 76, 80
4, 19440, Note_on_c, 4, 72, 95
4, 19920, Note_off_c, 4, 72, 80
4, 20160, Note_on_c, 4, 74, 95
4, 20400, Note_off_c, 4, 74, 80
4, 20640, Note_on_c, 4, 74, 95
4, 20880, Note_off_c, 4, 74, 80
4, 20880, Note_on_c, 4, 76, 95
4, 21360, Note_off_c, 4, 76, 80
4, 21360, Note_on_c, 4, 74, 95
4, 21440, Note_off_c, 4, 74, 80
4, 21440, Note_on_c, 4, 76, 95
4, 21520, Note_off_c, 4, 76, 80
4, 21520, Note_on_c, 4, 74, 95
4, 21600, Note_off_c, 4, 74, 80
4, 21600, Note_on_c, 4, 72, 95
4, 21840, Note_off_c, 4, 72, 80
4, 22080, Note_on_c, 4, 74, 95
4, 22320, Note_off_c, 4, 74, 80
4, 22320, Note_on_c, 4, 76, 95
4, 22800, Note_off_c, 4, 76, 80
4, 23040, Note_on_c, 4, 69, 95
4, 23760, Note_off_c, 4, 69, 80
4, 23760, Note_on_c, 4, 71, 95
4, 24480, Note_off_c, 4, 71, 80
4, 24480, Note_on_c, 4, 72, 95
4, 25200, Note_off_c, 4, 72, 80
4, 25200, Note_on_c, 4, 79, 95
4, 25440, Note_off_c, 4, 79, 80
4, 25680, Note_on_c, 4, 77, 95
4, 25920, Note_off_c, 4, 77, 80
4, 25920, Note_on_c, 4, 76, 95
4, 26160, Note_off_c, 4, 76, 80
4, 26400, Note_on_c, 4, 76, 95
4, 26640, Note_off_c, 4, 76, 80
4, 26640, Note_on_c, 4, 74, 95
4, 26880, Note_off_c, 4, 74, 80
4, 27120, Note_on_c, 4, 74, 95
4, 27360, Note_off_c, 4, 74, 80
4, 27360, Note_on_c, 4, 72, 95
4, 28080, Note_off_c, 4, 72, 80
4, 28560, Note_on_c, 4, 74, 95
4, 28640, Note_off_c, 4, 74, 80
4, 28640, Note_on_c, 4, 72, 95
4, 28720, Note_off_c, 4, 72, 80
4, 28720, Note_on_c, 4, 74, 95
4, 28800, Note_off_c, 4, 74, 80
4, 28800, Note_on_c, 4, 72, 95
4, 29040, Note_off_c, 4, 72, 80
4, 29280, Note_on_c, 4, 72, 95
4, 29520, Note_off_c, 4, 72, 80
4, 29520, Note_on_c, 4, 76, 95
4, 30000, Note_off_c, 4, 76, 80
4, 30000, Note_on_c, 4, 77, 95
4, 30240, Note_off_c, 4, 77, 80
4, 30240, Note_on_c, 4, 79, 95
4, 30480, Note_off_c, 4, 79, 80
4, 30720, Note_on_c, 4, 81, 95
4, 30960, Note_off_c, 4, 81, 80
4, 30960, Note_on_c, 4, 79, 95
4, 31080, Note_off_c, 4, 79, 80
4, 31080, Note_on_c, 4, 81, 76
4, 31200, Note_off_c, 4, 81, 80
4, 31200, Note_on_c, 4, 79, 76
4, 31320, Note_off_c, 4, 79, 80
4, 31320, Note_on_c, 4, 77, 95
4, 31440, Note_off_c, 4, 77, 80
4, 31440, Note_on_c, 4, 76, 76
4, 31560, Note_off_c, 4, 76, 80
4, 31560, Note_on_c, 4, 74, 76
4, 31680, Note_off_c, 4, 74, 80
4, 31680, Note_on_c, 4, 72, 95
4, 31920, Note_off_c, 4, 72, 80
4, 32160, Note_on_c, 4, 72, 95
4, 32400, Note_off_c, 4, 72, 80
4, 32400, Note_on_c, 4, 76, 95
4, 32880, Note_off_c, 4, 76, 80
4, 32880, Note_on_c, 4, 77, 95
4, 33120, Note_off_c, 4, 77, 80
4, 33120, Note_on_c, 4, 79, 95
4, 33360, Note_off_c, 4, 79, 80
4, 33600, Note_on_c, 4, 81, 95
4, 33840, Note_off_c, 4, 81, 80
4, 33840, Note_on_c, 4, 79, 95
4, 34320, Note_off_c, 4, 79, 80
4, 34560, Note_on_c, 4, 79, 95
4, 34800, Note_off_c, 4, 79, 80
4, 35040, Note_on_c, 4, 81, 95
4, 35280, Note_off_c, 4, 81, 80
4, 35280, Note_on_c, 4, 79, 95
4, 35760, Note_off_c, 4, 79, 80
4, 35760, Note_on_c, 4, 77, 95
4, 36000, Note_off_c, 4, 77, 80
4, 36000, Note_on_c, 4, 76, 95
4, 36480, Note_off_c, 4, 76, 80
4, 36480, Note_on_c, 4, 74, 95
4, 36560, Note_off_c, 4, 74, 80
4, 36560, Note_on_c, 4, 76, 76
4, 36640, Note_off_c, 4, 76, 80
4, 36640, Note_on_c, 4, 74, 76
4, 36720, Note_off_c, 4, 74, 80
4, 36720, Note_on_c, 4, 72, 95
4, 37200, Note_off_c, 4, 72, 80
4, 37440, Note_on_c, 4, 74, 95
4, 38160, Note_off_c, 4, 74, 80
4, 38160, Note_on_c, 4, 76, 95
4, 38640, Note_off_c, 4, 76, 80
4, 38640, Note_on_c, 4, 74, 95
4, 38720, Note_off_c, 4, 74, 80
4, 38720, Note_on_c, 4, 76, 76
4, 38800, Note_off_c, 4, 76, 80
4, 38800, Note_on_c, 4, 74, 76
4, 38880, Note_off_c, 4, 74, 80
4, 38880, Note_on_c, 4, 72, 95
4, 39360, Note_off_c, 4, 72, 80
4, 39360, Note_on_c, 4, 74, 95
4, 39600, Note_off_c, 4, 74, 80
4, 39600, Note_on_c, 4, 76, 95
4, 40080, Note_off_c, 4, 76, 80
4, 40080, Note_on_c, 4, 77, 95
4, 40320, Note_off_c, 4, 77, 80
4, 40320, Note_on_c, 4, 79, 95
4, 40800, Note_off_c, 4, 79, 80
4, 40800, Note_on_c, 4, 81, 95
4, 41040, Note_off_c, 4, 81, 80
4, 41040, Note_on_c, 4, 79, 95
4, 41520, Note_off_c, 4, 79, 80
4, 41520, Note_on_c, 4, 77, 95
4, 41760, Note_off_c, 4, 77, 80
4, 41760, Note_on_c, 4, 76, 95
4, 42480, Note_off_c, 4, 76, 80
4, 42480, Note_on_c, 4, 72, 95
4, 42960, Note_off_c, 4, 72, 80
4, 43200, Note_on_c, 4, 74, 95
4, 43440, Note_off_c, 4, 74, 80
4, 43680, Note_on_c, 4, 74, 95
4, 43920, Note_off_c, 4, 74, 80
4, 43920, Note_on_c, 4, 76, 95
4, 44400, Note_off_c, 4, 76, 80
4, 44400, Note_on_c, 4, 74, 95
4, 44480, Note_off_c, 4, 74, 80
4, 44480, Note_on_c, 4, 76, 76
4, 44560, Note_off_c, 4, 76, 80
4, 44560, Note_on_c, 4, 74, 76
4, 44640, Note_off_c, 4, 74, 80
4, 44640, Note_on_c, 4, 72, 95
4, 45120, Note_off_c, 4, 72, 80
4, 45120, Note_on_c, 4, 74, 95
4, 45360, Note_off_c, 4, 74, 80
4, 45360, Note_on_c, 4, 76, 95
4, 45600, Note_off_c, 4, 76, 80
4, 45600, Note_on_c, 4, 74, 95
4, 45840, Note_off_c, 4, 74, 80
4, 45840, Note_on_c, 4, 72, 95
4, 46080, Note_off_c, 4, 72, 80
4, 46080, Note_on_c, 4, 69, 95
4, 46800, Note_off_c, 4, 69, 80
4, 46800, Note_on_c, 4, 71, 95
4, 47520, Note_off_c, 4, 71, 80
4, 47520, Note_on_c, 4, 72, 95
4, 48000, Note_off_c, 4, 72, 80
4, 48240, Note_on_c, 4, 79, 95
4, 48720, Note_off_c, 4, 79, 80
4, 48720, Note_on_c, 4, 77, 95
4, 48960, Note_off_c, 4, 77, 80
4, 48960, Note_on_c, 4, 76, 95
4, 49320, Note_off_c, 4, 76, 80
4, 49320, Note_on_c, 4, 77, 95
4, 49440, Note_off_c, 4, 77, 80
4, 49440, Note_on_c, 4, 76, 95
4, 49680, Note_off_c, 4, 76, 80
4, 49680, Note_on_c, 4, 74, 95
4, 50160, Note_off_c, 4, 74, 80
4, 50160, Note_on_c, 4, 74, 95
4, 50400, Note_off_c, 4, 74, 80
4, 50400, Note_on_c, 4, 72, 95
4, 51120, Note_off_c, 4, 72, 80
4, 51600, Note_on_c, 4, 74, 95
4, 51680, Note_off_c, 4, 74, 80
4, 51680, Note_on_c, 4, 72, 76
4, 51760, Note_off_c, 4, 72, 80
4, 51760, Note_on_c, 4, 74, 76
4, 51840, Note_off_c, 4, 74, 80
4, 51840, Note_on_c, 4, 72, 95
4, 52080, Note_off_c, 4, 72, 80
4, 52320, Note_on_c, 4, 72, 95
4, 52560, Note_off_c, 4, 72, 80
4, 52560, Note_on_c, 4, 76, 95
4, 53040, Note_off_c, 4, 76, 80
4, 53040, Note_on_c, 4, 77, 95
4, 53280, Note_off_c, 4, 77, 80
4, 53280, Note_on_c, 4, 79, 95
4, 53520, Note_off_c, 4, 79, 80
4, 53760, Note_on_c, 4, 81, 95
4, 54000, Note_off_c, 4, 81, 80
4, 54000, Note_on_c, 4, 79, 95
4, 54120, Note_off_c, 4, 79, 80
4, 54120, Note_on_c, 4, 81, 76
4, 54240, Note_off_c, 4, 81, 80
4, 54240, Note_on_c, 4, 79, 76
4, 54360, Note_off_c, 4, 79, 80
4, 54360, Note_on_c, 4, 77, 95
4, 54480, Note_off_c, 4, 77, 80
4, 54480, Note_on_c, 4, 76, 76
4, 54600, Note_off_c, 4, 76, 80
4, 54600, Note_on_c, 4, 74, 76
4, 54720, Note_off_c, 4, 74, 80
4, 54720, Note_on_c, 4, 72, 95
4, 54960, Note_off_c, 4, 72, 80
4, 55200, Note_on_c, 4, 72, 95
4, 55440, Note_off_c, 4, 72, 80
4, 55440, Note_on_c, 4, 76, 95
4, 55920, Note_off_c, 4, 76, 80
4, 55920, Note_on_c, 4, 77, 95
4, 56160, Note_off_c, 4, 77, 80
4, 56160, Note_on_c, 4, 79, 95
4, 56400, Note_off_c, 4, 79, 80
4, 56640, Note_on_c, 4, 81, 95
4, 56880, Note_off_c, 4, 81, 80
4, 56880, Note_on_c, 4, 79, 95
4, 57360, Note_off_c, 4, 79, 80
4, 57600, Note_on_c, 4, 79, 95
4, 57840, Note_off_c, 4, 79, 80
4, 58080, Note_on_c, 4, 81, 95
4, 58320, Note_off_c, 4, 81, 80
4, 58320, Note_on_c, 4, 79, 95
4, 58800, Note_off_c, 4, 79, 80
4, 58800, Note_on_c, 4, 77, 95
4, 59040, Note_off_c, 4, 77, 80
4, 59040, Note_on_c, 4, 76, 95
4, 59520, Note_off_c, 4, 76, 80
4, 59520, Note_on_c, 4, 74, 95
4, 59600, Note_off_c, 4, 74, 80
4, 59600, Note_on_c, 4, 76, 76
4, 59680, Note_off_c, 4, 76, 80
4, 59680, Note_on_c, 4, 74, 76
4, 59760, Note_off_c, 4, 74, 80
4, 59760, Note_on_c, 4, 72, 95
4, 60240, Note_off_c, 4, 72, 80
4, 60480, Note_on_c, 4, 74, 95
4, 61200, Note_off_c, 4, 74, 80
4, 61200, Note_on_c, 4, 76, 95
4, 61680, Note_off_c, 4, 76, 80
4, 61680, Note_on_c, 4, 74, 95
4, 61760, Note_off_c, 4, 74, 80
4, 61760, Note_on_c, 4, 76, 76
4, 61840, Note_off_c, 4, 76, 80
4, 61840, Note_on_c, 4, 74, 76
4, 61920, Note_off_c, 4, 74, 80
4, 61920, Note_on_c, 4, 72, 95
4, 62400, Note_off_c, 4, 72, 80
4, 62400, Note_on_c, 4, 74, 95
4, 62640, Note_off_c, 4, 74, 80
4, 62640, Note_on_c, 4, 76, 95
4, 63120, Note_off_c, 4, 76, 80
4, 63120, Note_on_c, 4, 77, 95
4, 63360, Note_off_c, 4, 77, 80
4, 63360, Note_on_c, 4, 79, 95
4, 63840, Note_off_c, 4, 79, 80
4, 63840, Note_on_c, 4, 81, 95
4, 64080, Note_off_c, 4, 81, 80
4, 64080, Note_on_c, 4, 79, 95
4, 64560, Note_off_c, 4, 79, 80
4, 64560, Note_on_c, 4, 77, 95
4, 64800, Note_off_c, 4, 77, 80
4, 64800, Note_on_c, 4, 76, 95
4, 65520, Note_off_c, 4, 76, 80
4, 65520, Note_on_c, 4, 72, 95
4, 66000, Note_off_c, 4, 72, 80
4, 66240, Note_on_c, 4, 74, 95
4, 66480, Note_off_c, 4, 74, 80
4, 66720, Note_on_c, 4, 74, 95
4, 66960, Note_off_c, 4, 74, 80
4, 66960, Note_on_c, 4, 76, 95
4, 67440, Note_off_c, 4, 76, 80
4, 67440, Note_on_c, 4, 74, 95
4, 67520, Note_off_c, 4, 74, 80
4, 67520, Note_on_c, 4, 76, 76
4, 67600, Note_off_c, 4, 76, 80
4, 67600, Note_on_c, 4, 74, 76
4, 67680, Note_off_c, 4, 74, 80
4, 67680, Note_on_c, 4, 72, 95
4, 68160, Note_off_c, 4, 72, 80
4, 68160, Note_on_c, 4, 74, 95
4, 68400, Note_off_c, 4, 74, 80
4, 68400, Note_on_c, 4, 76, 95
4, 68640, Note_off_c, 4, 76, 80
4, 68640, Note_on_c, 4, 74, 95
4, 68880, Note_off_c, 4, 74, 80
4, 68880, Note_on_c, 4, 72, 95
4, 69120, Note_off_c, 4, 72, 80
4, 69120, Note_on_c, 4, 69, 95
4, 69840, Note_off_c, 4, 69, 80
4, 69840, Note_on_c, 4, 71, 95
4, 70560, Note_off_c, 4, 71, 80
4, 70560, Note_on_c, 4, 72, 95
4, 71040, Note_off_c, 4, 72, 80
4, 71280, Note_on_c, 4, 79, 95
4, 71760, Note_off_c, 4, 79, 80
4, 71760, Note_on_c, 4, 77, 95
4, 72000, Note_off_c, 4, 77, 80
4, 72000, Note_on_c, 4, 76, 95
4, 72360, Note_off_c, 4, 76, 80
4, 72360, Note_on_c, 4, 77, 95
4, 72480, Note_off_c, 4, 77, 80
4, 72480, Note_on_c, 4, 76, 95
4, 72720, Note_off_c, 4, 76, 80
4, 72720, Note_on_c, 4, 74, 95
4, 73200, Note_off_c, 4, 74, 80
4, 73200, Note_on_c, 4, 74, 95
4, 73440, Note_off_c, 4, 74, 80
4, 73440, Note_on_c, 4, 72, 95
4, 74160, Note_off_c, 4, 72, 80
4, 74640, Note_on_c, 4, 74, 95
4, 74720, Note_off_c, 4, 74, 80
4, 74720, Note_on_c, 4, 72, 76
4, 74800, Note_off_c, 4, 72, 80
4, 74800, Note_on_c, 4, 74, 76
4, 74880, Note_off_c, 4, 74, 80
4, 74880, Note_on_c, 4, 72, 95
4, 75120, Note_off_c, 4, 72, 80
4, 75360, Note_on_c, 4, 72, 95
4, 75600, Note_off_c, 4, 72, 80
4, 75600, Note_on_c, 4, 76, 95
4, 76080, Note_off_c, 4, 76, 80
4, 76080, Note_on_c, 4, 77, 95
4, 76320, Note_off_c, 4, 77, 80
4, 76320, Note_on_c, 4, 79, 95
4, 76560, Note_off_c, 4, 79, 80
4, 76800, Note_on_c, 4, 81, 95
4, 77040, Note_off_c, 4, 81, 80
4, 77040, Note_on_c, 4, 79, 95
4, 77160, Note_off_c, 4, 79, 80
4, 77160, Note_on_c, 4, 81, 76
4, 77280, Note_off_c, 4, 81, 80
4, 77280, Note_on_c, 4, 79, 76
4, 77400, Note_off_c, 4, 79, 80
4, 77400, Note_on_c, 4, 77, 95
4, 77520, Note_off_c, 4, 77, 80
4, 77520, Note_on_c, 4, 76, 76
4, 77640, Note_off_c, 4, 76, 80
4, 77640, Note_on_c, 4, 74, 76
4, 77760, Note_off_c, 4, 74, 80
4, 77760, Note_on_c, 4, 72, 95
4, 78000, Note_off_c, 4, 72, 80
4, 78240, Note_on_c, 4, 72, 95
4, 78480, Note_off_c, 4, 72, 80
4, 78480, Note_on_c, 4, 76, 95
4, 78960, Note_off_c, 4, 76, 80
4, 78960, Note_on_c, 4, 77, 95
4, 79200, Note_off_c, 4, 77, 80
4, 79200, Note_on_c, 4, 79, 95
4, 79440, Note_off_c, 4, 79, 80
4, 79680, Note_on_c, 4, 81, 95
4, 79920, Note_off_c, 4, 81, 80
4, 79920, Note_on_c, 4, 79, 95
4, 80400, Note_off_c, 4, 79, 80
4, 80640, Note_on_c, 4, 79, 95
4, 80880, Note_off_c, 4, 79, 80
4, 81120, Note_on_c, 4, 81, 95
4, 81360, Note_off_c, 4, 81, 80
4, 81360, Note_on_c, 4, 79, 95
4, 81840, Note_off_c, 4, 79, 80
4, 81840, Note_on_c, 4, 77, 95
4, 82080, Note_off_c, 4, 77, 80
4, 82080, Note_on_c, 4, 76, 95
4, 82560, Note_off_c, 4, 76, 80
4, 82560, Note_on_c, 4, 74, 95
4, 82640, Note_off_c, 4, 74, 80
4, 82640, Note_on_c, 4, 76, 76
4, 82720, Note_off_c, 4, 76, 80
4, 82720, Note_on_c, 4, 74, 76
4, 82800, Note_off_c, 4, 74, 80
4, 82800, Note_on_c, 4, 72, 95
4, 83280, Note_off_c, 4, 72, 80
4, 83520, Note_on_c, 4, 74, 95
4, 84240, Note_off_c, 4, 74, 80
4, 84240, Note_on_c, 4, 76, 95
4, 84720, Note_off_c, 4, 76, 80
4, 84720, Note_on_c, 4, 74, 95
4, 84800, Note_off_c, 4, 74, 80
4, 84800, Note_on_c, 4, 76, 76
4, 84880, Note_off_c, 4, 76, 80
4, 84880, Note_on_c, 4, 74, 76
4, 84960, Note_off_c, 4, 74, 80
4, 84960, Note_on_c, 4, 72, 95
4, 85440, Note_off_c, 4, 72, 80
4, 85440, Note_on_c, 4, 74, 95
4, 85680, Note_off_c, 4, 74, 80
4, 85680, Note_on_c, 4, 76, 95
4, 86160, Note_off_c, 4, 76, 80
4, 86160, Note_on_c, 4, 77, 95
4, 86400, Note_off_c, 4, 77, 80
4, 86400, Note_on_c, 4, 79, 95
4, 86880, Note_off_c, 4, 79, 80
4, 86880, Note_on_c, 4, 81, 95
4, 87120, Note_off_c, 4, 81, 80
4, 87120, Note_on_c, 4, 79, 95
4, 87600, Note_off_c, 4, 79, 80
4, 87600, Note_on_c, 4, 77, 95
4, 87840, Note_off_c, 4, 77, 80
4, 87840, Note_on_c, 4, 76, 95
4, 88560, Note_off_c, 4, 76, 80
4, 88560, Note_on_c, 4, 72, 95
4, 89040, Note_off_c, 4, 72, 80
4, 89280, Note_on_c, 4, 74, 95
4, 89520, Note_off_c, 4, 74, 80
4, 89760, Note_on_c, 4, 74, 95
4, 90000, Note_off_c, 4, 74, 80
4, 90000, Note_on_c, 4, 76, 95
4, 90480, Note_off_c, 4, 76, 80
4, 90480, Note_on_c, 4, 74, 95
4, 90560, Note_off_c, 4, 74, 80
4, 90560, Note_on_c, 4, 76, 76
4, 90640, Note_off_c, 4, 76, 80
4, 90640, Note_on_c, 4, 74, 76
4, 90720, Note_off_c, 4, 74, 80
4, 90720, Note_on_c, 4, 72, 95
4, 91200, Note_off_c, 4, 72, 80
4, 91200, Note_on_c, 4, 74, 95
4, 91440, Note_off_c, 4, 74, 80
4, 91440, Note_on_c, 4, 76, 95
4, 91680, Note_off_c, 4, 76, 80
4, 91680, Note_on_c, 4, 74, 95
4, 91920, Note_off_c, 4, 74, 80
4, 91920, Note_on_c, 4, 72, 95
4, 92160, Note_off_c, 4, 72, 80
4, 92160, Note_on_c, 4, 69, 95
4, 92880, Note_off_c, 4, 69, 80
4, 92880, Note_on_c, 4, 71, 95
4, 93600, Note_off_c, 4, 71, 80
4, 93600, Note_on_c, 4, 72, 95
4, 94080, Note_off_c, 4, 72, 80
4, 94320, Note_on_c, 4, 79, 95
4, 94800, Note_off_c, 4, 79, 80
4, 94800, Note_on_c, 4, 77, 95
4, 95040, Note_off_c, 4, 77, 80
4, 95040, Note_on_c, 4, 76, 95
4, 95280, Note_off_c, 4, 76, 80
4, 95280, Note_on_c, 4, 77, 95
4, 95520, Note_off_c, 4, 77, 80
4, 95520, Note_on_c, 4, 76, 95
4, 95760, Note_off_c, 4, 76, 80
4, 95760, Note_on_c, 4, 74, 95
4, 96120, Note_off_c, 4, 74, 80
4, 96120, Note_on_c, 4, 72, 95
4, 96240, Note_off_c, 4, 72, 80
4, 96240, Note_on_c, 4, 74, 95
4, 96480, Note_off_c, 4, 74, 80
4, 96480, Note_on_c, 4, 72, 95
4, 97920, Note_off_c, 4, 72, 80
4, 167040, Note_on_c, 4, 72, 95
4, 167280, Note_off_c, 4, 72, 80
4, 167520, Note_on_c, 4, 72, 95
4, 167760, Note_off_c, 4, 72, 80
4, 167760, Note_on_c, 4, 76, 95
4, 168240, Note_off_c, 4, 76, 80
4, 168240, Note_on_c, 4, 77, 95
4, 168480, Note_off_c, 4, 77, 80
4, 168480, Note_on_c, 4, 79, 95
4, 168720, Note_off_c, 4, 79, 80
4, 168960, Note_on_c, 4, 81, 95
4, 169200, Note_off_c, 4, 81, 80
4, 169200, Note_on_c, 4, 79, 95
4, 169320, Note_off_c, 4, 79, 80
4, 169320, Note_on_c, 4, 81, 76
4, 169440, Note_off_c, 4, 81, 80
4, 169440, Note_on_c, 4, 79, 76
4, 169560, Note_off_c, 4, 79, 80
4, 169560, Note_on_c, 4, 77, 95
4, 169680, Note_off_c, 4, 77, 80
4, 169680, Note_on_c, 4, 76, 76
4, 169800, Note_off_c, 4, 76, 80
4, 169800, Note_on_c, 4, 74, 76
4, 169920, Note_off_c, 4, 74, 80
4, 169920, Note_on_c, 4, 72, 95
4, 170160, Note_off_c, 4, 72, 80
4, 170400, Note_on_c, 4, 72, 95
4, 170640, Note_off_c, 4, 72, 80
4, 170640, Note_on_c, 4, 76, 95
4, 171120, Note_off_c, 4, 76, 80
4, 171120, Note_on_c, 4, 77, 95
4, 171360, Note_off_c, 4, 77, 80
4, 171360, Note_on_c, 4, 79, 95
4, 171600, Note_off_c, 4, 79, 80
4, 171840, Note_on_c, 4, 81, 95
4, 172080, Note_off_c, 4, 81, 80
4, 172080, Note_on_c, 4, 79, 95
4, 172560, Note_off_c, 4, 79, 80
4, 172800, Note_on_c, 4, 79, 95
4, 173040, Note_off_c, 4, 79, 80
4, 173280, Note_on_c, 4, 81, 95
4, 173520, Note_off_c, 4, 81, 80
4, 173520, Note_on_c, 4, 79, 95
4, 174000, Note_off_c, 4, 79, 80
4, 174000, Note_on_c, 4, 77, 95
4, 174240, Note_off_c, 4, 77, 80
4, 174240, Note_on_c, 4, 76, 95
4, 174720, Note_off_c, 4, 76, 80
4, 174720, Note_on_c, 4, 74, 95
4, 174800, Note_off_c, 4, 74, 80
4, 174800, Note_on_c, 4, 76, 76
4, 174880, Note_off_c, 4, 76, 80
4, 174880, Note_on_c, 4, 74, 76
4, 174960, Note_off_c, 4, 74, 80
4, 174960, Note_on_c, 4, 72, 95
4, 175440, Note_off_c, 4, 72, 80
4, 175680, Note_on_c, 4, 74, 95
4, 176400, Note_off_c, 4, 74, 80
4, 176400, Note_on_c, 4, 76, 95
4, 176880, Note_off_c, 4, 76, 80
4, 176880, Note_on_c, 4, 74, 95
4, 176960, Note_off_c, 4, 74, 80
4, 176960, Note_on_c, 4, 76, 76
4, 177040, Note_off_c, 4, 76, 80
4, 177040, Note_on_c, 4, 74, 76
4, 177120, Note_off_c, 4, 74, 80
4, 177120, Note_on_c, 4, 72, 95
4, 177600, Note_off_c, 4, 72, 80
4, 177600, Note_on_c, 4, 74, 95
4, 177840, Note_off_c, 4, 74, 80
4, 177840, Note_on_c, 4, 76, 95
4, 178320, Note_off_c, 4, 76, 80
4, 178320, Note_on_c, 4, 77, 95
4, 178560, Note_off_c, 4, 77, 80
4, 178560, Note_on_c, 4, 79, 95
4, 178800, Note_off_c, 4, 79, 80
4, 178800, Note_on_c, 4, 79, 95
4, 179040, Note_off_c, 4, 79, 80
4, 179040, Note_on_c, 4, 81, 95
4, 179280, Note_off_c, 4, 81, 80
4, 179280, Note_on_c, 4, 79, 95
4, 179520, Note_off_c, 4, 79, 80
4, 179760, Note_on_c, 4, 77, 95
4, 180000, Note_off_c, 4, 77, 80
4, 180000, Note_on_c, 4, 76, 95
4, 180480, Note_off_c, 4, 76, 80
4, 180480, Note_on_c, 4, 74, 95
4, 180560, Note_off_c, 4, 74, 80
4, 180560, Note_on_c, 4, 76, 76
4, 180640, Note_off_c, 4, 76, 80
4, 180640, Note_on_c, 4, 74, 76
4, 180720, Note_off_c, 4, 74, 80
4, 180720, Note_on_c, 4, 72, 95
4, 180960, Note_off_c, 4, 72, 80
4, 181440, Note_on_c, 4, 74, 95
4, 181680, Note_off_c, 4, 74, 80
4, 181920, Note_on_c, 4, 74, 95
4, 182160, Note_off_c, 4, 74, 80
4, 182160, Note_on_c, 4, 76, 95
4, 182640, Note_off_c, 4, 76, 80
4, 182640, Note_on_c, 4, 74, 95
4, 182720, Note_off_c, 4, 74, 80
4, 182720, Note_on_c, 4, 76, 76
4, 182800, Note_off_c, 4, 76, 80
4, 182800, Note_on_c, 4, 74, 76
4, 182880, Note_off_c, 4, 74, 80
4, 182880, Note_on_c, 4, 72, 95
4, 183360, Note_off_c, 4, 72, 80
4, 183360, Note_on_c, 4, 74, 95
4, 183600, Note_off_c, 4, 74, 80
4, 183600, Note_on_c, 4, 76, 95
4, 183840, Note_off_c, 4, 76, 80
4, 183840, Note_on_c, 4, 74, 95
4, 184080, Note_off_c, 4, 74, 80
4, 184080, Note_on_c, 4, 72, 95
4, 184320, Note_off_c, 4, 72, 80
4, 184320, Note_on_c, 4, 69, 95
4, 185040, Note_off_c, 4, 69, 80
4, 185040, Note_on_c, 4, 71, 95
4, 185760, Note_off_c, 4, 71, 80
4, 185760, Note_on_c, 4, 72, 95
4, 186240, Note_off_c, 4, 72, 80
4, 186240, Note_on_c, 4, 72, 95
4, 186480, Note_off_c, 4, 72, 80
4, 186480, Note_on_c, 4, 79, 95
4, 186720, Note_off_c, 4, 79, 80
4, 186960, Note_on_c, 4, 77, 95
4, 187200, Note_off_c, 4, 77, 80
4, 187200, Note_on_c, 4, 76, 95
4, 187440, Note_off_c, 4, 76, 80
4, 187680, Note_on_c, 4, 76, 95
4, 187920, Note_off_c, 4, 76, 80
4, 187920, Note_on_c, 4, 74, 95
4, 188160, Note_off_c, 4, 74, 80
4, 188400, Note_on_c, 4, 74, 95
4, 188640, Note_off_c, 4, 74, 80
4, 188640, Note_on_c, 4, 72, 95
4, 189840, Note_off_c, 4, 72, 80
4, 195840, Note_on_c, 4, 76, 95
4, 196080, Note_off_c, 4, 76, 80
4, 196080, Note_on_c, 4, 77, 95
4, 196320, Note_off_c, 4, 77, 80
4, 196320, Note_on_c, 4, 76, 95
4, 196560, Note_off_c, 4, 76, 80
4, 196560, Note_on_c, 4, 74, 95
4, 197040, Note_off_c, 4, 74, 80
4, 197040, Note_on_c, 4, 76, 95
4, 197280, Note_off_c, 4, 76, 80
4, 197280, Note_on_c, 4, 72, 95
4, 197520, Note_off_c, 4, 72, 80
4, 197520, Note_on_c, 4, 71, 95
4, 197760, Note_off_c, 4, 71, 80
4, 197760, Note_on_c, 4, 72, 95
4, 198000, Note_off_c, 4, 72, 80
4, 198000, Note_on_c, 4, 69, 95
4, 198240, Note_off_c, 4, 69, 80
4, 198240, Note_on_c, 4, 71, 95
4, 198480, Note_off_c, 4, 71, 80
4, 198480, Note_on_c, 4, 72, 95
4, 198720, Note_off_c, 4, 72, 80
4, 198720, Note_on_c, 4, 74, 95
4, 198960, Note_off_c, 4, 74, 80
4, 198960, Note_on_c, 4, 76, 95
4, 199200, Note_off_c, 4, 76, 80
4, 199200, Note_on_c, 4, 77, 95
4, 199440, Note_off_c, 4, 77, 80
4, 199440, Note_on_c, 4, 67, 95
4, 199680, Note_off_c, 4, 67, 80
4, 199680, Note_on_c, 4, 69, 95
4, 199920, Note_off_c, 4, 69, 80
4, 199920, Note_on_c, 4, 71, 95
4, 200160, Note_off_c, 4, 71, 80
4, 200160, Note_on_c, 4, 72, 95
4, 200400, Note_off_c, 4, 72, 80
4, 200400, Note_on_c, 4, 74, 95
4, 200640, Note_off_c, 4, 74, 80
4, 200640, Note_on_c, 4, 76, 95
4, 200880, Note_off_c, 4, 76, 80
4, 200880, Note_on_c, 4, 79, 95
4, 201120, Note_off_c, 4, 79, 80
4, 201120, Note_on_c, 4, 77, 95
4, 201360, Note_off_c, 4, 77, 80
4, 201360, Note_on_c, 4, 76, 95
4, 201600, Note_off_c, 4, 76, 80
4, 201600, Note_on_c, 4, 77, 95
4, 201840, Note_off_c, 4, 77, 80
4, 201840, Note_on_c, 4, 76, 95
4, 202080, Note_off_c, 4, 76, 80
4, 202080, Note_on_c, 4, 77, 95
4, 202320, Note_off_c, 4, 77, 80
4, 202320, Note_on_c, 4, 74, 95
4, 202560, Note_off_c, 4, 74, 80
4, 202560, Note_on_c, 4, 79, 95
4, 202800, Note_off_c, 4, 79, 80
4, 202800, Note_on_c, 4, 77, 95
4, 203040, Note_off_c, 4, 77, 80
4, 203040, Note_on_c, 4, 76, 95
4, 203280, Note_off_c, 4, 76, 80
4, 203280, Note_on_c, 4, 77, 95
4, 203520, Note_off_c, 4, 77, 80
4, 203520, Note_on_c, 4, 79, 95
4, 203760, Note_off_c, 4, 79, 80
4, 203760, Note_on_c, 4, 72, 95
4, 204000, Note_off_c, 4, 72, 80
4, 204000, Note_on_c, 4, 74, 95
4, 204240, Note_off_c, 4, 74, 80
4, 204240, Note_on_c, 4, 76, 95
4, 204480, Note_off_c, 4, 76, 80
4, 204480, Note_on_c, 4, 77, 95
4, 204720, Note_off_c, 4, 77, 80
4, 204720, Note_on_c, 4, 76, 95
4, 204960, Note_off_c, 4, 76, 80
4, 204960, Note_on_c, 4, 77, 95
4, 205200, Note_off_c, 4, 77, 80
4, 205200, Note_on_c, 4, 74, 95
4, 205440, Note_off_c, 4, 74, 80
4, 205440, Note_on_c, 4, 79, 95
4, 205680, Note_off_c, 4, 79, 80
4, 205680, Note_on_c, 4, 77, 95
4, 205920, Note_off_c, 4, 77, 80
4, 205920, Note_on_c, 4, 76, 95
4, 206160, Note_off_c, 4, 76, 80
4, 206160, Note_on_c, 4, 77, 95
4, 206400, Note_off_c, 4, 77, 80
4, 206400, Note_on_c, 4, 79, 95
4, 206640, Note_off_c, 4, 79, 80
4, 206640, Note_on_c, 4, 72, 95
4, 206880, Note_off_c, 4, 72, 80
4, 206880, Note_on_c, 4, 71, 95
4, 207120, Note_off_c, 4, 71, 80
4, 207120, Note_on_c, 4, 72, 95
4, 207360, Note_off_c, 4, 72, 80
4, 207360, Note_on_c, 4, 69, 95
4, 207600, Note_off_c, 4, 69, 80
4, 207600, Note_on_c, 4, 67, 95
4, 207840, Note_off_c, 4, 67, 80
4, 207840, Note_on_c, 4, 65, 95
4, 208080, Note_off_c, 4, 65, 80
4, 208080, Note_on_c, 4, 67, 95
4, 208320, Note_off_c, 4, 67, 80
4, 208320, Note_on_c, 4, 69, 95
4, 208560, Note_off_c, 4, 69, 80
4, 208560, Note_on_c, 4, 71, 95
4, 208800, Note_off_c, 4, 71, 80
4, 208800, Note_on_c, 4, 72, 95
4, 209040, Note_off_c, 4, 72, 80
4, 209040, Note_on_c, 4, 74, 95
4, 209280, Note_off_c, 4, 74, 80
4, 209280, Note_on_c, 4, 76, 95
4, 209520, Note_off_c, 4, 76, 80
4, 209520, Note_on_c, 4, 79, 95
4, 209760, Note_off_c, 4, 79, 80
4, 209760, Note_on_c, 4, 77, 95
4, 210000, Note_off_c, 4, 77, 80
4, 210000, Note_on_c, 4, 76, 95
4, 210240, Note_off_c, 4, 76, 80
4, 210240, Note_on_c, 4, 76, 95
4, 210480, Note_off_c, 4, 76, 80
4, 210480, Note_on_c, 4, 77, 95
4, 210720, Note_off_c, 4, 77, 80
4, 210720, Note_on_c, 4, 76, 95
4, 210960, Note_off_c, 4, 76, 80
4, 210960, Note_on_c, 4, 74, 95
4, 211200, Note_off_c, 4, 74, 80
4, 211200, Note_on_c, 4, 72, 95
4, 211440, Note_off_c, 4, 72, 80
4, 211440, Note_on_c, 4, 71, 95
4, 211680, Note_off_c, 4, 71, 80
4, 211680, Note_on_c, 4, 72, 95
4, 211920, Note_off_c, 4, 72, 80
4, 211920, Note_on_c, 4, 67, 95
4, 212160, Note_off_c, 4, 67, 80
4, 212160, Note_on_c, 4, 64, 95
4, 212400, Note_off_c, 4, 64, 80
4, 212400, Note_on_c, 4, 60, 95
4, 213120, Note_off_c, 4, 60, 80
4, 213120, End_track
5, 0, Start_track
5, 0, Title_t, ""
5, 0, Control_c, 7, 100, 0
5, 0, Control_c, 7, 101, 0
5, 0, Control_c, 7, 6, 12
5, 0, Pitch_bend_c, 7, 8192
5, 0, Control_c, 7, 101, 0
5, 0, Control_c, 7, 100, 1
5, 0, Control_c, 7, 6, 64
5, 0, Control_c, 7, 38, 0
5, 0, Control_c, 7, 101, 127
5, 0, Control_c, 7, 100, 127
5, 0, Control_c, 6, 100, 0
5, 0, Control_c, 6, 101, 0
5, 0, Control_c, 6, 6, 12
5, 0, Pitch_bend_c, 6, 8192
5, 0, Control_c, 6, 101, 0
5, 0, Control_c, 6, 100, 1
5, 0, Control_c, 6, 6, 64
5, 0, Control_c, 6, 38, 0
5, 0, Control_c, 6, 101, 127
5, 0, Control_c, 6, 100, 127
5, 0, Control_c, 7, 101, 0
5, 0, Control_c, 7, 100, 2
5, 0, Control_c, 7, 6, 64
5, 0, Control_c, 7, 101, 127
5, 0, Control_c, 7, 100, 127
5, 0, Control_c, 6, 101, 0
5, 0, Control_c, 6, 100, 2
5, 0, Control_c, 6, 6, 64
5, 0, Control_c, 6, 101, 127
5, 0, Control_c, 6, 100, 127
5, 0, Program_c, 7, 29
5, 0, Program_c, 6, 29
5, 0, Control_c, 7, 0, 0
5, 0, Control_c, 6, 0, 0
5, 0, Control_c, 7, 7, 96
5, 0, Control_c, 6, 7, 96
5, 0, Control_c, 7, 10, 64
5, 0, Control_c, 6, 10, 64
5, 0, Control_c, 7, 93, 0
5, 0, Control_c, 6, 93, 0
5, 0, Control_c, 7, 91, 0
5, 0, Control_c, 6, 91, 0
5, 0, Control_c, 7, 92, 0
5, 0, Control_c, 6, 92, 0
5, 0, Control_c, 7, 95, 0
5, 0, Control_c, 6, 95, 0
5, 96480, Note_on_c, 6, 67, 95
5, 96600, Note_off_c, 6, 67, 80
5, 96600, Note_on_c, 6, 69, 95
5, 96720, Note_off_c, 6, 69, 80
5, 96720, Note_on_c, 6, 67, 95
5, 96840, Note_off_c, 6, 67, 80
5, 96840, Note_on_c, 6, 69, 95
5, 96960, Note_off_c, 6, 69, 80
5, 96960, Note_on_c, 6, 67, 95
5, 97080, Note_off_c, 6, 67, 80
5, 97080, Note_on_c, 6, 69, 95
5, 97200, Note_off_c, 6, 69, 80
5, 97200, Note_on_c, 6, 67, 95
5, 97320, Note_off_c, 6, 67, 80
5, 97320, Note_on_c, 6, 69, 95
5, 97440, Note_off_c, 6, 69, 80
5, 97440, Note_on_c, 6, 67, 95
5, 97560, Note_off_c, 6, 67, 80
5, 97560, Note_on_c, 6, 69, 95
5, 97680, Note_off_c, 6, 69, 80
5, 97680, Note_on_c, 6, 67, 95
5, 97920, Note_off_c, 6, 67, 80
5, 97920, Note_on_c, 6, 67, 95
5, 98640, Note_off_c, 6, 67, 80
5, 98640, Note_on_c, 6, 67, 95
5, 99120, Note_off_c, 6, 67, 80
5, 99120, Note_on_c, 6, 65, 95
5, 99360, Note_off_c, 6, 65, 80
5, 99360, Note_on_c, 6, 64, 95
5, 99840, Note_off_c, 6, 64, 80
5, 99840, Note_on_c, 6, 60, 95
5, 100080, Note_off_c, 6, 60, 80
5, 100080, Note_on_c, 6, 55, 95
5, 100800, Note_off_c, 6, 55, 80
5, 100800, Note_on_c, 6, 67, 95
5, 101280, Note_off_c, 6, 67, 80
5, 101280, Note_on_c, 6, 65, 95
5, 101520, Note_off_c, 6, 65, 80
5, 101520, Note_on_c, 6, 64, 95
5, 101760, Note_off_c, 6, 64, 80
5, 101760, Note_on_c, 6, 65, 95
5, 102000, Note_off_c, 6, 65, 80
5, 102000, Note_on_c, 6, 67, 95
5, 102240, Note_off_c, 6, 67, 80
5, 102240, Note_on_c, 6, 60, 95
5, 102960, Note_off_c, 6, 60, 80
5, 102960, Note_on_c, 6, 55, 95
5, 103680, Note_off_c, 6, 55, 80
5, 103680, Note_on_c, 6, 64, 95
5, 104400, Note_off_c, 6, 64, 80
5, 104400, Note_on_c, 6, 62, 95
5, 104880, Note_off_c, 6, 62, 80
5, 104880, Note_on_c, 6, 64, 95
5, 105120, Note_off_c, 6, 64, 80
5, 105120, Note_on_c, 6, 60, 95
5, 105360, Note_off_c, 6, 60, 80
5, 105360, Note_on_c, 6, 59, 95
5, 105600, Note_off_c, 6, 59, 80
5, 105600, Note_on_c, 6, 57, 95
5, 105840, Note_off_c, 6, 57, 80
5, 105840, Note_on_c, 6, 67, 95
5, 106080, Note_off_c, 6, 67, 80
5, 106080, Note_on_c, 6, 65, 95
5, 106320, Note_off_c, 6, 65, 80
5, 106320, Note_on_c, 6, 64, 95
5, 106560, Note_off_c, 6, 64, 80
5, 106560, Note_on_c, 6, 65, 95
5, 106800, Note_off_c, 6, 65, 80
5, 106800, Note_on_c, 6, 64, 95
5, 107040, Note_off_c, 6, 64, 80
5, 107040, Note_on_c, 6, 65, 95
5, 107280, Note_off_c, 6, 65, 80
5, 107280, Note_on_c, 6, 62, 95
5, 107520, Note_off_c, 6, 62, 80
5, 107520, Note_on_c, 6, 67, 95
5, 107760, Note_off_c, 6, 67, 80
5, 107760, Note_on_c, 6, 65, 95
5, 108000, Note_off_c, 6, 65, 80
5, 108000, Note_on_c, 6, 64, 95
5, 108240, Note_off_c, 6, 64, 80
5, 108240, Note_on_c, 6, 65, 95
5, 108480, Note_off_c, 6, 65, 80
5, 108480, Note_on_c, 6, 67, 95
5, 108720, Note_off_c, 6, 67, 80
5, 108720, Note_on_c, 6, 60, 95
5, 108960, Note_off_c, 6, 60, 80
5, 108960, Note_on_c, 6, 59, 95
5, 109200, Note_off_c, 6, 59, 80
5, 109200, Note_on_c, 6, 60, 95
5, 109440, Note_off_c, 6, 60, 80
5, 109440, Note_on_c, 6, 57, 95
5, 109680, Note_off_c, 6, 57, 80
5, 109680, Note_on_c, 6, 55, 95
5, 109920, Note_off_c, 6, 55, 80
5, 109920, Note_on_c, 6, 53, 95
5, 110160, Note_off_c, 6, 53, 80
5, 110160, Note_on_c, 6, 55, 95
5, 110400, Note_off_c, 6, 55, 80
5, 110400, Note_on_c, 6, 57, 95
5, 110640, Note_off_c, 6, 57, 80
5, 110640, Note_on_c, 6, 59, 95
5, 110880, Note_off_c, 6, 59, 80
5, 110880, Note_on_c, 6, 60, 95
5, 111120, Note_off_c, 6, 60, 80
5, 111120, Note_on_c, 6, 62, 95
5, 111360, Note_off_c, 6, 62, 80
5, 111360, Note_on_c, 6, 64, 95
5, 111600, Note_off_c, 6, 64, 80
5, 111600, Note_on_c, 6, 67, 95
5, 111840, Note_off_c, 6, 67, 80
5, 111840, Note_on_c, 6, 65, 95
5, 112080, Note_off_c, 6, 65, 80
5, 112080, Note_on_c, 6, 64, 95
5, 112320, Note_off_c, 6, 64, 80
5, 112320, Note_on_c, 6, 64, 95
5, 112560, Note_off_c, 6, 64, 80
5, 112560, Note_on_c, 6, 65, 95
5, 112800, Note_off_c, 6, 65, 80
5, 112800, Note_on_c, 6, 64, 95
5, 113040, Note_off_c, 6, 64, 80
5, 113040, Note_on_c, 6, 62, 95
5, 113280, Note_off_c, 6, 62, 80
5, 113280, Note_on_c, 6, 67, 95
5, 113520, Note_off_c, 6, 67, 80
5, 113520, Note_on_c, 6, 65, 95
5, 113760, Note_off_c, 6, 65, 80
5, 113760, Note_on_c, 6, 64, 95
5, 114000, Note_off_c, 6, 64, 80
5, 114000, Note_on_c, 6, 65, 95
5, 114240, Note_off_c, 6, 65, 80
5, 114240, Note_on_c, 6, 67, 95
5, 114480, Note_off_c, 6, 67, 80
5, 114480, Note_on_c, 6, 60, 95
5, 114720, Note_off_c, 6, 60, 80
5, 114720, Note_on_c, 6, 59, 95
5, 114960, Note_off_c, 6, 59, 80
5, 114960, Note_on_c, 6, 60, 95
5, 115200, Note_off_c, 6, 60, 80
5, 115200, Note_on_c, 6, 57, 95
5, 115440, Note_off_c, 6, 57, 80
5, 115440, Note_on_c, 6, 55, 95
5, 115680, Note_off_c, 6, 55, 80
5, 115680, Note_on_c, 6, 53, 95
5, 115920, Note_off_c, 6, 53, 80
5, 115920, Note_on_c, 6, 55, 95
5, 116160, Note_off_c, 6, 55, 80
5, 116160, Note_on_c, 6, 57, 95
5, 116400, Note_off_c, 6, 57, 80
5, 116400, Note_on_c, 6, 59, 95
5, 116640, Note_off_c, 6, 59, 80
5, 116640, Note_on_c, 6, 60, 95
5, 116880, Note_off_c, 6, 60, 80
5, 116880, Note_on_c, 6, 62, 95
5, 117120, Note_off_c, 6, 62, 80
5, 117120, Note_on_c, 6, 64, 95
5, 117360, Note_off_c, 6, 64, 80
5, 117360, Note_on_c, 6, 67, 95
5, 117600, Note_off_c, 6, 67, 80
5, 117600, Note_on_c, 6, 65, 95
5, 117840, Note_off_c, 6, 65, 80
5, 117840, Note_on_c, 6, 64, 95
5, 118080, Note_off_c, 6, 64, 80
5, 118080, Note_on_c, 6, 64, 95
5, 118320, Note_off_c, 6, 64, 80
5, 118320, Note_on_c, 6, 65, 95
5, 118560, Note_off_c, 6, 65, 80
5, 118560, Note_on_c, 6, 64, 95
5, 118800, Note_off_c, 6, 64, 80
5, 118800, Note_on_c, 6, 62, 95
5, 119040, Note_off_c, 6, 62, 80
5, 119040, Note_on_c, 6, 60, 95
5, 119280, Note_off_c, 6, 60, 80
5, 119280, Note_on_c, 6, 59, 95
5, 119520, Note_off_c, 6, 59, 80
5, 119520, Note_on_c, 6, 59, 95
5, 119760, Note_off_c, 6, 59, 80
5, 119760, Note_on_c, 6, 60, 95
5, 120000, Note_off_c, 6, 60, 80
5, 120000, Note_on_c, 6, 62, 95
5, 120240, Note_off_c, 6, 62, 80
5, 120240, Note_on_c, 6, 60, 95
5, 120720, Note_off_c, 6, 60, 80
5, 120720, Note_on_c, 6, 55, 95
5, 120960, Note_off_c, 6, 55, 80
5, 120960, Note_on_c, 6, 64, 95
5, 121200, Note_off_c, 6, 64, 80
5, 121200, Note_on_c, 6, 67, 95
5, 121440, Note_off_c, 6, 67, 80
5, 121440, Note_on_c, 6, 64, 95
5, 121680, Note_off_c, 6, 64, 80
5, 121680, Note_on_c, 6, 67, 95
5, 122160, Note_off_c, 6, 67, 80
5, 122160, Note_on_c, 6, 60, 95
5, 122400, Note_off_c, 6, 60, 80
5, 122400, Note_on_c, 6, 67, 95
5, 122640, Note_off_c, 6, 67, 80
5, 122640, Note_on_c, 6, 72, 95
5, 122880, Note_off_c, 6, 72, 80
5, 122880, Note_on_c, 6, 67, 95
5, 123120, Note_off_c, 6, 67, 80
5, 123120, Note_on_c, 6, 72, 95
5, 123600, Note_off_c, 6, 72, 80
5, 123600, Note_on_c, 6, 74, 95
5, 123840, Note_off_c, 6, 74, 80
5, 123840, Note_on_c, 6, 76, 95
5, 124080, Note_off_c, 6, 76, 80
5, 124080, Note_on_c, 6, 74, 95
5, 124320, Note_off_c, 6, 74, 80
5, 124320, Note_on_c, 6, 72, 95
5, 124560, Note_off_c, 6, 72, 80
5, 124560, Note_on_c, 6, 76, 95
5, 124800, Note_off_c, 6, 76, 80
5, 124800, Note_on_c, 6, 74, 95
5, 125040, Note_off_c, 6, 74, 80
5, 125040, Note_on_c, 6, 72, 95
5, 125280, Note_off_c, 6, 72, 80
5, 125280, Note_on_c, 6, 69, 95
5, 125760, Note_off_c, 6, 69, 80
5, 125760, Note_on_c, 6, 72, 95
5, 126000, Note_off_c, 6, 72, 80
5, 126000, Note_on_c, 6, 67, 95
5, 126720, Note_off_c, 6, 67, 80
5, 126720, Note_on_c, 6, 64, 95
5, 127440, Note_off_c, 6, 64, 80
5, 127440, Note_on_c, 6, 62, 95
5, 127920, Note_off_c, 6, 62, 80
5, 127920, Note_on_c, 6, 64, 95
5, 128160, Note_off_c, 6, 64, 80
5, 128160, Note_on_c, 6, 60, 95
5, 128400, Note_off_c, 6, 60, 80
5, 128400, Note_on_c, 6, 62, 95
5, 128640, Note_off_c, 6, 62, 80
5, 128640, Note_on_c, 6, 60, 95
5, 128880, Note_off_c, 6, 60, 80
5, 128880, Note_on_c, 6, 59, 95
5, 129120, Note_off_c, 6, 59, 80
5, 129120, Note_on_c, 6, 60, 95
5, 129360, Note_off_c, 6, 60, 80
5, 129360, Note_on_c, 6, 59, 95
5, 129600, Note_off_c, 6, 59, 80
5, 129600, Note_on_c, 6, 57, 95
5, 129840, Note_off_c, 6, 57, 80
5, 129840, Note_on_c, 6, 59, 95
5, 130080, Note_off_c, 6, 59, 80
5, 130320, Note_on_c, 6, 59, 95
5, 130560, Note_off_c, 6, 59, 80
5, 130560, Note_on_c, 6, 60, 95
5, 130800, Note_off_c, 6, 60, 80
5, 130800, Note_on_c, 6, 62, 95
5, 131040, Note_off_c, 6, 62, 80
5, 131040, Note_on_c, 6, 60, 95
5, 131520, Note_off_c, 6, 60, 80
5, 131520, Note_on_c, 6, 64, 95
5, 131760, Note_off_c, 6, 64, 80
5, 131760, Note_on_c, 6, 55, 95
5, 132240, Note_off_c, 6, 55, 80
5, 132240, Note_on_c, 6, 60, 95
5, 132480, Note_off_c, 6, 60, 80
5, 132480, Note_on_c, 6, 57, 95
5, 132720, Note_off_c, 6, 57, 80
5, 132720, Note_on_c, 6, 55, 95
5, 132960, Note_off_c, 6, 55, 80
5, 132960, Note_on_c, 6, 53, 95
5, 133200, Note_off_c, 6, 53, 80
5, 133200, Note_on_c, 6, 57, 95
5, 133440, Note_off_c, 6, 57, 80
5, 133440, Note_on_c, 6, 55, 95
5, 133680, Note_off_c, 6, 55, 80
5, 133680, Note_on_c, 6, 59, 95
5, 133920, Note_off_c, 6, 59, 80
5, 133920, Note_on_c, 6, 60, 95
5, 134160, Note_off_c, 6, 60, 80
5, 134160, Note_on_c, 6, 62, 95
5, 134400, Note_off_c, 6, 62, 80
5, 134400, Note_on_c, 6, 64, 95
5, 134640, Note_off_c, 6, 64, 80
5, 134640, Note_on_c, 6, 67, 95
5, 134880, Note_off_c, 6, 67, 80
5, 134880, Note_on_c, 6, 65, 95
5, 135120, Note_off_c, 6, 65, 80
5, 135120, Note_on_c, 6, 64, 95
5, 135360, Note_off_c, 6, 64, 80
5, 135360, Note_on_c, 6, 65, 95
5, 135600, Note_off_c, 6, 65, 80
5, 135600, Note_on_c, 6, 64, 95
5, 135840, Note_off_c, 6, 64, 80
5, 135840, Note_on_c, 6, 65, 95
5, 136080, Note_off_c, 6, 65, 80
5, 136080, Note_on_c, 6, 62, 95
5, 136320, Note_off_c, 6, 62, 80
5, 136320, Note_on_c, 6, 67, 95
5, 136560, Note_off_c, 6, 67, 80
5, 136560, Note_on_c, 6, 65, 95
5, 136800, Note_off_c, 6, 65, 80
5, 136800, Note_on_c, 6, 64, 95
5, 137040, Note_off_c, 6, 64, 80
5, 137040, Note_on_c, 6, 65, 95
5, 137280, Note_off_c, 6, 65, 80
5, 137280, Note_on_c, 6, 67, 95
5, 137520, Note_off_c, 6, 67, 80
5, 137520, Note_on_c, 6, 60, 95
5, 137760, Note_off_c, 6, 60, 80
5, 137760, Note_on_c, 6, 59, 95
5, 138000, Note_off_c, 6, 59, 80
5, 138000, Note_on_c, 6, 60, 95
5, 138240, Note_off_c, 6, 60, 80
5, 138240, Note_on_c, 6, 57, 95
5, 138480, Note_off_c, 6, 57, 80
5, 138480, Note_on_c, 6, 55, 95
5, 138720, Note_off_c, 6, 55, 80
5, 138720, Note_on_c, 6, 53, 95
5, 138960, Note_off_c, 6, 53, 80
5, 138960, Note_on_c, 6, 55, 95
5, 139200, Note_off_c, 6, 55, 80
5, 139200, Note_on_c, 6, 57, 95
5, 139440, Note_off_c, 6, 57, 80
5, 139440, Note_on_c, 6, 59, 95
5, 139680, Note_off_c, 6, 59, 80
5, 139680, Note_on_c, 6, 60, 95
5, 139920, Note_off_c, 6, 60, 80
5, 139920, Note_on_c, 6, 62, 95
5, 140160, Note_off_c, 6, 62, 80
5, 140160, Note_on_c, 6, 64, 95
5, 140400, Note_off_c, 6, 64, 80
5, 140400, Note_on_c, 6, 67, 95
5, 140640, Note_off_c, 6, 67, 80
5, 140640, Note_on_c, 6, 65, 95
5, 140880, Note_off_c, 6, 65, 80
5, 140880, Note_on_c, 6, 64, 95
5, 141120, Note_off_c, 6, 64, 80
5, 141120, Note_on_c, 6, 64, 95
5, 141360, Note_off_c, 6, 64, 80
5, 141360, Note_on_c, 6, 65, 95
5, 141600, Note_off_c, 6, 65, 80
5, 141600, Note_on_c, 6, 64, 95
5, 141840, Note_off_c, 6, 64, 80
5, 141840, Note_on_c, 6, 62, 95
5, 142080, Note_off_c, 6, 62, 80
5, 142080, Note_on_c, 6, 60, 95
5, 142320, Note_off_c, 6, 60, 80
5, 142320, Note_on_c, 6, 59, 95
5, 142560, Note_off_c, 6, 59, 80
5, 142560, Note_on_c, 6, 60, 95
5, 143040, Note_off_c, 6, 60, 80
5, 143040, Note_on_c, 6, 64, 95
5, 143280, Note_off_c, 6, 64, 80
5, 143280, Note_on_c, 6, 60, 95
5, 143760, Note_off_c, 6, 60, 80
5, 143760, Note_on_c, 6, 55, 95
5, 144000, Note_off_c, 6, 55, 80
5, 144000, Note_on_c, 6, 64, 95
5, 144240, Note_off_c, 6, 64, 80
5, 144240, Note_on_c, 6, 67, 95
5, 144480, Note_off_c, 6, 67, 80
5, 144480, Note_on_c, 6, 64, 95
5, 144720, Note_off_c, 6, 64, 80
5, 144720, Note_on_c, 6, 67, 95
5, 145200, Note_off_c, 6, 67, 80
5, 145200, Note_on_c, 6, 64, 95
5, 145440, Note_off_c, 6, 64, 80
5, 145440, Note_on_c, 6, 67, 95
5, 145680, Note_off_c, 6, 67, 80
5, 145680, Note_on_c, 6, 72, 95
5, 145920, Note_off_c, 6, 72, 80
5, 145920, Note_on_c, 6, 67, 95
5, 146160, Note_off_c, 6, 67, 80
5, 146160, Note_on_c, 6, 72, 95
5, 146640, Note_off_c, 6, 72, 80
5, 146640, Note_on_c, 6, 74, 95
5, 146880, Note_off_c, 6, 74, 80
5, 146880, Note_on_c, 6, 76, 95
5, 147120, Note_off_c, 6, 76, 80
5, 147120, Note_on_c, 6, 74, 95
5, 147360, Note_off_c, 6, 74, 80
5, 147360, Note_on_c, 6, 72, 95
5, 147600, Note_off_c, 6, 72, 80
5, 147600, Note_on_c, 6, 76, 95
5, 147840, Note_off_c, 6, 76, 80
5, 147840, Note_on_c, 6, 74, 95
5, 148080, Note_off_c, 6, 74, 80
5, 148080, Note_on_c, 6, 72, 95
5, 148320, Note_off_c, 6, 72, 80
5, 148320, Note_on_c, 6, 69, 95
5, 148800, Note_off_c, 6, 69, 80
5, 148800, Note_on_c, 6, 72, 95
5, 149040, Note_off_c, 6, 72, 80
5, 149040, Note_on_c, 6, 67, 95
5, 149520, Note_off_c, 6, 67, 80
5, 149520, Note_on_c, 6, 64, 95
5, 149760, Note_off_c, 6, 64, 80
5, 149760, Note_on_c, 6, 64, 95
5, 150000, Note_off_c, 6, 64, 80
5, 150000, Note_on_c, 6, 65, 95
5, 150240, Note_off_c, 6, 65, 80
5, 150240, Note_on_c, 6, 67, 95
5, 150480, Note_off_c, 6, 67, 80
5, 150480, Note_on_c, 6, 62, 95
5, 150960, Note_off_c, 6, 62, 80
5, 150960, Note_on_c, 6, 64, 95
5, 151200, Note_off_c, 6, 64, 80
5, 151200, Note_on_c, 6, 60, 95
5, 151440, Note_off_c, 6, 60, 80
5, 151440, Note_on_c, 6, 59, 95
5, 151680, Note_off_c, 6, 59, 80
5, 151680, Note_on_c, 6, 60, 95
5, 151920, Note_off_c, 6, 60, 80
5, 151920, Note_on_c, 6, 57, 95
5, 152160, Note_off_c, 6, 57, 80
5, 152160, Note_on_c, 6, 59, 95
5, 152400, Note_off_c, 6, 59, 80
5, 152400, Note_on_c, 6, 60, 95
5, 152640, Note_off_c, 6, 60, 80
5, 152640, Note_on_c, 6, 62, 95
5, 152880, Note_off_c, 6, 62, 80
5, 152880, Note_on_c, 6, 64, 95
5, 153120, Note_off_c, 6, 64, 80
5, 153120, Note_on_c, 6, 65, 95
5, 153360, Note_off_c, 6, 65, 80
5, 153360, Note_on_c, 6, 55, 95
5, 153600, Note_off_c, 6, 55, 80
5, 153600, Note_on_c, 6, 57, 95
5, 153840, Note_off_c, 6, 57, 80
5, 153840, Note_on_c, 6, 59, 95
5, 154080, Note_off_c, 6, 59, 80
5, 154080, Note_on_c, 6, 60, 95
5, 154320, Note_off_c, 6, 60, 80
5, 154320, Note_on_c, 6, 62, 95
5, 154560, Note_off_c, 6, 62, 80
5, 154560, Note_on_c, 6, 64, 95
5, 154800, Note_off_c, 6, 64, 80
5, 154800, Note_on_c, 6, 67, 95
5, 155280, Note_off_c, 6, 67, 80
5, 155280, Note_on_c, 6, 67, 95
5, 155520, Note_off_c, 6, 67, 80
5, 155520, Note_on_c, 6, 65, 95
5, 155760, Note_off_c, 6, 65, 80
5, 155760, Note_on_c, 6, 67, 95
5, 156000, Note_off_c, 6, 67, 80
5, 156000, Note_on_c, 6, 65, 95
5, 156240, Note_off_c, 6, 65, 80
5, 156240, Note_on_c, 6, 62, 95
5, 156480, Note_off_c, 6, 62, 80
5, 156480, Note_on_c, 6, 67, 95
5, 156720, Note_off_c, 6, 67, 80
5, 156720, Note_on_c, 6, 65, 95
5, 156960, Note_off_c, 6, 65, 80
5, 156960, Note_on_c, 6, 64, 95
5, 158400, Note_off_c, 6, 64, 80
5, 158400, Note_on_c, 6, 65, 95
5, 159120, Note_off_c, 6, 65, 80
5, 159120, Note_on_c, 6, 62, 95
5, 159840, Note_off_c, 6, 62, 80
5, 159840, Note_on_c, 6, 64, 95
5, 161280, Note_off_c, 6, 64, 80
5, 161280, Note_on_c, 6, 57, 95
5, 162000, Note_off_c, 6, 57, 80
5, 162000, Note_on_c, 6, 59, 95
5, 162720, Note_off_c, 6, 59, 80
5, 162720, Note_on_c, 6, 60, 95
5, 163440, Note_off_c, 6, 60, 80
5, 163440, Note_on_c, 6, 67, 95
5, 163920, Note_off_c, 6, 67, 80
5, 163920, Note_on_c, 6, 65, 95
5, 164160, Note_off_c, 6, 65, 80
5, 164160, Note_on_c, 6, 64, 95
5, 164880, Note_off_c, 6, 64, 80
5, 164880, Note_on_c, 6, 62, 95
5, 165600, Note_off_c, 6, 62, 80
5, 165600, Note_on_c, 6, 60, 95
5, 166320, Note_off_c, 6, 60, 80
5, 166320, Note_on_c, 6, 55, 95
5, 167040, Note_off_c, 6, 55, 80
5, 189840, Note_on_c, 6, 55, 95
5, 190080, Note_off_c, 6, 55, 80
5, 190080, Note_on_c, 6, 64, 95
5, 190320, Note_off_c, 6, 64, 80
5, 190320, Note_on_c, 6, 67, 95
5, 190560, Note_off_c, 6, 67, 80
5, 190560, Note_on_c, 6, 64, 95
5, 190800, Note_off_c, 6, 64, 80
5, 190800, Note_on_c, 6, 67, 95
5, 191280, Note_off_c, 6, 67, 80
5, 191280, Note_on_c, 6, 60, 95
5, 191520, Note_off_c, 6, 60, 80
5, 191520, Note_on_c, 6, 67, 95
5, 191760, Note_off_c, 6, 67, 80
5, 191760, Note_on_c, 6, 72, 95
5, 192000, Note_off_c, 6, 72, 80
5, 192000, Note_on_c, 6, 67, 95
5, 192240, Note_off_c, 6, 67, 80
5, 192240, Note_on_c, 6, 72, 95
5, 192720, Note_off_c, 6, 72, 80
5, 192720, Note_on_c, 6, 74, 95
5, 192960, Note_off_c, 6, 74, 80
5, 192960, Note_on_c, 6, 76, 95
5, 193200, Note_off_c, 6, 76, 80
5, 193200, Note_on_c, 6, 74, 95
5, 193440, Note_off_c, 6, 74, 80
5, 193440, Note_on_c, 6, 72, 95
5, 193680, Note_off_c, 6, 72, 80
5, 193680, Note_on_c, 6, 76, 95
5, 193920, Note_off_c, 6, 76, 80
5, 193920, Note_on_c, 6, 74, 95
5, 194160, Note_off_c, 6, 74, 80
5, 194160, Note_on_c, 6, 72, 95
5, 194400, Note_off_c, 6, 72, 80
5, 194400, Note_on_c, 6, 69, 95
5, 194640, Note_off_c, 6, 69, 80
5, 194640, Note_on_c, 6, 72, 95
5, 194880, Note_off_c, 6, 72, 80
5, 194880, Note_on_c, 6, 72, 95
5, 195120, Note_off_c, 6, 72, 80
5, 195120, Note_on_c, 6, 67, 95
5, 195600, Note_off_c, 6, 67, 80
5, 195600, Note_on_c, 6, 64, 95
5, 195840, Note_off_c, 6, 64, 80
5, 195840, Note_on_c, 6, 64, 95
5, 196080, Note_off_c, 6, 64, 80
5, 196080, Note_on_c, 6, 65, 95
5, 196320, Note_off_c, 6, 65, 80
5, 196320, Note_on_c, 6, 64, 95
5, 196560, Note_off_c, 6, 64, 80
5, 196560, Note_on_c, 6, 62, 95
5, 197040, Note_off_c, 6, 62, 80
5, 197040, Note_on_c, 6, 64, 95
5, 197280, Note_off_c, 6, 64, 80
5, 197280, Note_on_c, 6, 60, 95
5, 197520, Note_off_c, 6, 60, 80
5, 197520, Note_on_c, 6, 59, 95
5, 197760, Note_off_c, 6, 59, 80
5, 197760, Note_on_c, 6, 60, 95
5, 198000, Note_off_c, 6, 60, 80
5, 198000, Note_on_c, 6, 57, 95
5, 198240, Note_off_c, 6, 57, 80
5, 198240, Note_on_c, 6, 59, 95
5, 198480, Note_off_c, 6, 59, 80
5, 198480, Note_on_c, 6, 60, 95
5, 198720, Note_off_c, 6, 60, 80
5, 198720, Note_on_c, 6, 62, 95
5, 198960, Note_off_c, 6, 62, 80
5, 198960, Note_on_c, 6, 64, 95
5, 199200, Note_off_c, 6, 64, 80
5, 199200, Note_on_c, 6, 65, 95
5, 199440, Note_off_c, 6, 65, 80
5, 199440, Note_on_c, 6, 55, 95
5, 199680, Note_off_c, 6, 55, 80
5, 199680, Note_on_c, 6, 57, 95
5, 199920, Note_off_c, 6, 57, 80
5, 199920, Note_on_c, 6, 59, 95
5, 200160, Note_off_c, 6, 59, 80
5, 200160, Note_on_c, 6, 60, 95
5, 200400, Note_off_c, 6, 60, 80
5, 200400, Note_on_c, 6, 62, 95
5, 200640, Note_off_c, 6, 62, 80
5, 200640, Note_on_c, 6, 64, 95
5, 200880, Note_off_c, 6, 64, 80
5, 200880, Note_on_c, 6, 67, 95
5, 201120, Note_off_c, 6, 67, 80
5, 201120, Note_on_c, 6, 65, 95
5, 201360, Note_off_c, 6, 65, 80
5, 201360, Note_on_c, 6, 64, 95
5, 201600, Note_off_c, 6, 64, 80
5, 201600, Note_on_c, 6, 65, 95
5, 201840, Note_off_c, 6, 65, 80
5, 201840, Note_on_c, 6, 64, 95
5, 202080, Note_off_c, 6, 64, 80
5, 202080, Note_on_c, 6, 65, 95
5, 202320, Note_off_c, 6, 65, 80
5, 202320, Note_on_c, 6, 62, 95
5, 202560, Note_off_c, 6, 62, 80
5, 202560, Note_on_c, 6, 67, 95
5, 202800, Note_off_c, 6, 67, 80
5, 202800, Note_on_c, 6, 65, 95
5, 203040, Note_off_c, 6, 65, 80
5, 203040, Note_on_c, 6, 64, 95
5, 203280, Note_off_c, 6, 64, 80
5, 203280, Note_on_c, 6, 65, 95
5, 203520, Note_off_c, 6, 65, 80
5, 203520, Note_on_c, 6, 67, 95
5, 203760, Note_off_c, 6, 67, 80
5, 203760, Note_on_c, 6, 60, 95
5, 204000, Note_off_c, 6, 60, 80
5, 204000, Note_on_c, 6, 62, 95
5, 204240, Note_off_c, 6, 62, 80
5, 204240, Note_on_c, 6, 64, 95
5, 204480, Note_off_c, 6, 64, 80
5, 204480, Note_on_c, 6, 65, 95
5, 204720, Note_off_c, 6, 65, 80
5, 204720, Note_on_c, 6, 64, 95
5, 204960, Note_off_c, 6, 64, 80
5, 204960, Note_on_c, 6, 65, 95
5, 205200, Note_off_c, 6, 65, 80
5, 205200, Note_on_c, 6, 62, 95
5, 205440, Note_off_c, 6, 62, 80
5, 205440, Note_on_c, 6, 67, 95
5, 205680, Note_off_c, 6, 67, 80
5, 205680, Note_on_c, 6, 65, 95
5, 205920, Note_off_c, 6, 65, 80
5, 205920, Note_on_c, 6, 64, 95
5, 206160, Note_off_c, 6, 64, 80
5, 206160, Note_on_c, 6, 65, 95
5, 206400, Note_off_c, 6, 65, 80
5, 206400, Note_on_c, 6, 67, 95
5, 206640, Note_off_c, 6, 67, 80
5, 206640, Note_on_c, 6, 60, 95
5, 206880, Note_off_c, 6, 60, 80
5, 206880, Note_on_c, 6, 59, 95
5, 207120, Note_off_c, 6, 59, 80
5, 207120, Note_on_c, 6, 60, 95
5, 207360, Note_off_c, 6, 60, 80
5, 207360, Note_on_c, 6, 57, 95
5, 207600, Note_off_c, 6, 57, 80
5, 207600, Note_on_c, 6, 55, 95
5, 207840, Note_off_c, 6, 55, 80
5, 207840, Note_on_c, 6, 53, 95
5, 208080, Note_off_c, 6, 53, 80
5, 208080, Note_on_c, 6, 55, 95
5, 208320, Note_off_c, 6, 55, 80
5, 208320, Note_on_c, 6, 57, 95
5, 208560, Note_off_c, 6, 57, 80
5, 208560, Note_on_c, 6, 59, 95
5, 208800, Note_off_c, 6, 59, 80
5, 208800, Note_on_c, 6, 60, 95
5, 209040, Note_off_c, 6, 60, 80
5, 209040, Note_on_c, 6, 62, 95
5, 209280, Note_off_c, 6, 62, 80
5, 209280, Note_on_c, 6, 64, 95
5, 209520, Note_off_c, 6, 64, 80
5, 209520, Note_on_c, 6, 67, 95
5, 209760, Note_off_c, 6, 67, 80
5, 209760, Note_on_c, 6, 65, 95
5, 210000, Note_off_c, 6, 65, 80
5, 210000, Note_on_c, 6, 64, 95
5, 210240, Note_off_c, 6, 64, 80
5, 210240, Note_on_c, 6, 64, 95
5, 210480, Note_off_c, 6, 64, 80
5, 210480, Note_on_c, 6, 65, 95
5, 210720, Note_off_c, 6, 65, 80
5, 210720, Note_on_c, 6, 64, 95
5, 210960, Note_off_c, 6, 64, 80
5, 210960, Note_on_c, 6, 62, 95
5, 211200, Note_off_c, 6, 62, 80
5, 211200, Note_on_c, 6, 60, 95
5, 211440, Note_off_c, 6, 60, 80
5, 211440, Note_on_c, 6, 59, 95
5, 211680, Note_off_c, 6, 59, 80
5, 211680, Note_on_c, 6, 60, 95
5, 211920, Note_off_c, 6, 60, 80
5, 211920, Note_on_c, 6, 55, 95
5, 212160, Note_off_c, 6, 55, 80
5, 212160, Note_on_c, 6, 52, 95
5, 212400, Note_off_c, 6, 52, 80
5, 212400, Note_on_c, 6, 48, 95
5, 213120, Note_off_c, 6, 48, 80
5, 213120, End_track
6, 0, Start_track
6, 0, Title_t, ""
6, 0, Control_c, 11, 100, 0
6, 0, Control_c, 11, 101, 0
6, 0, Control_c, 11, 6, 12
6, 0, Pitch_bend_c, 11, 8192
6, 0, Control_c, 11, 101, 0
6, 0, Control_c, 11, 100, 1
6, 0, Control_c, 11, 6, 64
6, 0, Control_c, 11, 38, 0
6, 0, Control_c, 11, 101, 127
6, 0, Control_c, 11, 100, 127
6, 0, Control_c, 10, 100, 0
6, 0, Control_c, 10, 101, 0
6, 0, Control_c, 10, 6, 12
6, 0, Pitch_bend_c, 10, 8192
6, 0, Control_c, 10, 101, 0
6, 0, Control_c, 10, 100, 1
6, 0, Control_c, 10, 6, 64
6, 0, Control_c, 10, 38, 0
6, 0, Control_c, 10, 101, 127
6, 0, Control_c, 10, 100, 127
6, 0, Control_c, 11, 101, 0
6, 0, Control_c, 11, 100, 2
6, 0, Control_c, 11, 6, 64
6, 0, Control_c, 11, 101, 127
6, 0, Control_c, 11, 100, 127
6, 0, Control_c, 10, 101, 0
6, 0, Control_c, 10, 100, 2
6, 0, Control_c, 10, 6, 64
6, 0, Control_c, 10, 101, 127
6, 0, Control_c, 10, 100, 127
6, 0, Program_c, 11, 89
6, 0, Program_c, 10, 89
6, 0, Control_c, 11, 0, 0
6, 0, Control_c, 10, 0, 0
6, 0, Control_c, 11, 7, 88
6, 0, Control_c, 10, 7, 88
6, 0, Control_c, 11, 10, 64
6, 0, Control_c, 10, 10, 64
6, 0, Control_c, 11, 93, 0
6, 0, Control_c, 10, 93, 0
6, 0, Control_c, 11, 91, 0
6, 0, Control_c, 10, 91, 0
6, 0, Control_c, 11, 92, 0
6, 0, Control_c, 10, 92, 0
6, 0, Control_c, 11, 95, 0
6, 0, Control_c, 10, 95, 0
6, 5760, Note_on_c, 10, 64, 95
6, 5760, Note_on_c, 10, 60, 95
6, 5760, Note_on_c, 10, 55, 95
6, 5760, Note_on_c, 10, 52, 95
6, 5760, Note_on_c, 10, 48, 95
6, 7200, Note_off_c, 10, 64, 80
6, 7200, Note_off_c, 10, 60, 80
6, 7200, Note_off_c, 10, 55, 80
6, 7200, Note_off_c, 10, 52, 80
6, 7200, Note_off_c, 10, 48, 80
6, 7200, Note_on_c, 10, 64, 95
6, 7200, Note_on_c, 10, 60, 95
6, 7200, Note_on_c, 10, 55, 95
6, 7200, Note_on_c, 10, 52, 95
6, 7200, Note_on_c, 10, 48, 95
6, 7200, Note_on_c, 10, 43, 95
6, 7680, Note_off_c, 10, 64, 80
6, 7680, Note_off_c, 10, 60, 80
6, 7680, Note_off_c, 10, 55, 80
6, 7680, Note_off_c, 10, 52, 80
6, 7680, Note_off_c, 10, 48, 80
6, 7680, Note_off_c, 10, 43, 80
6, 7680, Note_on_c, 10, 65, 95
6, 7680, Note_on_c, 10, 60, 95
6, 7680, Note_on_c, 10, 57, 95
6, 7680, Note_on_c, 10, 53, 95
6, 7920, Note_off_c, 10, 65, 80
6, 7920, Note_off_c, 10, 60, 80
6, 7920, Note_off_c, 10, 57, 80
6, 7920, Note_off_c, 10, 53, 80
6, 7920, Note_on_c, 10, 64, 95
6, 7920, Note_on_c, 10, 60, 95
6, 7920, Note_on_c, 10, 55, 95
6, 7920, Note_on_c, 10, 52, 95
6, 7920, Note_on_c, 10, 48, 95
6, 8640, Note_off_c, 10, 64, 80
6, 8640, Note_off_c, 10, 60, 80
6, 8640, Note_off_c, 10, 55, 80
6, 8640, Note_off_c, 10, 52, 80
6, 8640, Note_off_c, 10, 48, 80
6, 8640, Note_on_c, 10, 64, 95
6, 8640, Note_on_c, 10, 60, 95
6, 8640, Note_on_c, 10, 55, 95
6, 8640, Note_on_c, 10, 52, 95
6, 8640, Note_on_c, 10, 48, 95
6, 10080, Note_off_c, 10, 64, 80
6, 10080, Note_off_c, 10, 60, 80
6, 10080, Note_off_c, 10, 55, 80
6, 10080, Note_off_c, 10, 52, 80
6, 10080, Note_off_c, 10, 48, 80
6, 10080, Note_on_c, 10, 64, 95
6, 10080, Note_on_c, 10, 60, 95
6, 10080, Note_on_c, 10, 55, 95
6, 10080, Note_on_c, 10, 52, 95
6, 10080, Note_on_c, 10, 48, 95
6, 10080, Note_on_c, 10, 43, 95
6, 10560, Note_off_c, 10, 64, 80
6, 10560, Note_off_c, 10, 60, 80
6, 10560, Note_off_c, 10, 55, 80
6, 10560, Note_off_c, 10, 52, 80
6, 10560, Note_off_c, 10, 48, 80
6, 10560, Note_off_c, 10, 43, 80
6, 10560, Note_on_c, 10, 65, 95
6, 10560, Note_on_c, 10, 60, 95
6, 10560, Note_on_c, 10, 57, 95
6, 10560, Note_on_c, 10, 53, 95
6, 10800, Note_off_c, 10, 65, 80
6, 10800, Note_off_c, 10, 60, 80
6, 10800, Note_off_c, 10, 57, 80
6, 10800, Note_off_c, 10, 53, 80
6, 10800, Note_on_c, 10, 64, 95
6, 10800, Note_on_c, 10, 60, 95
6, 10800, Note_on_c, 10, 55, 95
6, 10800, Note_on_c, 10, 52, 95
6, 10800, Note_on_c, 10, 48, 95
6, 11520, Note_off_c, 10, 64, 80
6, 11520, Note_off_c, 10, 60, 80
6, 11520, Note_off_c, 10, 55, 80
6, 11520, Note_off_c, 10, 52, 80
6, 11520, Note_off_c, 10, 48, 80
6, 11520, Note_on_c, 10, 64, 95
6, 11520, Note_on_c, 10, 60, 95
6, 11520, Note_on_c, 10, 55, 95
6, 11520, Note_on_c, 10, 52, 95
6, 11520, Note_on_c, 10, 48, 95
6, 12240, Note_off_c, 10, 64, 80
6, 12240, Note_off_c, 10, 60, 80
6, 12240, Note_off_c, 10, 55, 80
6, 12240, Note_off_c, 10, 52, 80
6, 12240, Note_off_c, 10, 48, 80
6, 12240, Note_on_c, 10, 64, 95
6, 12240, Note_on_c, 10, 59, 95
6, 12240, Note_on_c, 10, 55, 95
6, 12240, Note_on_c, 10, 52, 95
6, 12240, Note_on_c, 10, 47, 95
6, 12240, Note_on_c, 10, 40, 95
6, 12960, Note_off_c, 10, 64, 80
6, 12960, Note_off_c, 10, 59, 80
6, 12960, Note_off_c, 10, 55, 80
6, 12960, Note_off_c, 10, 52, 80
6, 12960, Note_off_c, 10, 47, 80
6, 12960, Note_off_c, 10, 40, 80
6, 12960, Note_on_c, 10, 64, 95
6, 12960, Note_on_c, 10, 60, 95
6, 12960, Note_on_c, 10, 57, 95
6, 12960, Note_on_c, 10, 52, 95
6, 12960, Note_on_c, 10, 45, 95
6, 13680, Note_off_c, 10, 64, 80
6, 13680, Note_off_c, 10, 60, 80
6, 13680, Note_off_c, 10, 57, 80
6, 13680, Note_off_c, 10, 52, 80
6, 13680, Note_off_c, 10, 45, 80
6, 13680, Note_on_c, 10, 64, 95
6, 13680, Note_on_c, 10, 60, 95
6, 13680, Note_on_c, 10, 57, 95
6, 13680, Note_on_c, 10, 52, 95
6, 13680, Note_on_c, 10, 45, 95
6, 13680, Note_on_c, 10, 43, 95
6, 14400, Note_off_c, 10, 64, 80
6, 14400, Note_off_c, 10, 60, 80
6, 14400, Note_off_c, 10, 57, 80
6, 14400, Note_off_c, 10, 52, 80
6, 14400, Note_off_c, 10, 45, 80
6, 14400, Note_off_c, 10, 43, 80
6, 14400, Note_on_c, 10, 65, 95
6, 14400, Note_on_c, 10, 62, 95
6, 14400, Note_on_c, 10, 57, 95
6, 14400, Note_on_c, 10, 50, 95
6, 15120, Note_off_c, 10, 65, 80
6, 15120, Note_off_c, 10, 62, 80
6, 15120, Note_off_c, 10, 57, 80
6, 15120, Note_off_c, 10, 50, 80
6, 15120, Note_on_c, 10, 67, 95
6, 15120, Note_on_c, 10, 59, 95
6, 15120, Note_on_c, 10, 55, 95
6, 15120, Note_on_c, 10, 50, 95
6, 15120, Note_on_c, 10, 43, 95
6, 15840, Note_off_c, 10, 67, 80
6, 15840, Note_off_c, 10, 59, 80
6, 15840, Note_off_c, 10, 55, 80
6, 15840, Note_off_c, 10, 50, 80
6, 15840, Note_off_c, 10, 43, 80
6, 15840, Note_on_c, 10, 64, 95
6, 15840, Note_on_c, 10, 60, 95
6, 15840, Note_on_c, 10, 55, 95
6, 15840, Note_on_c, 10, 52, 95
6, 15840, Note_on_c, 10, 48, 95
6, 17280, Note_off_c, 10, 64, 80
6, 17280, Note_off_c, 10, 60, 80
6, 17280, Note_off_c, 10, 55, 80
6, 17280, Note_off_c, 10, 52, 80
6, 17280, Note_off_c, 10, 48, 80
6, 17280, Note_on_c, 10, 65, 95
6, 17280, Note_on_c, 10, 60, 95
6, 17280, Note_on_c, 10, 57, 95
6, 17280, Note_on_c, 10, 53, 95
6, 18000, Note_off_c, 10, 65, 80
6, 18000, Note_off_c, 10, 60, 80
6, 18000, Note_off_c, 10, 57, 80
6, 18000, Note_off_c, 10, 53, 80
6, 18000, Note_on_c, 10, 67, 95
6, 18000, Note_on_c, 10, 59, 95
6, 18000, Note_on_c, 10, 55, 95
6, 18000, Note_on_c, 10, 50, 95
6, 18000, Note_on_c, 10, 43, 95
6, 18720, Note_off_c, 10, 67, 80
6, 18720, Note_off_c, 10, 59, 80
6, 18720, Note_off_c, 10, 55, 80
6, 18720, Note_off_c, 10, 50, 80
6, 18720, Note_off_c, 10, 43, 80
6, 18720, Note_on_c, 10, 64, 95
6, 18720, Note_on_c, 10, 60, 95
6, 18720, Note_on_c, 10, 55, 95
6, 18720, Note_on_c, 10, 52, 95
6, 18720, Note_on_c, 10, 48, 95
6, 19440, Note_off_c, 10, 64, 80
6, 19440, Note_off_c, 10, 60, 80
6, 19440, Note_off_c, 10, 55, 80
6, 19440, Note_off_c, 10, 52, 80
6, 19440, Note_off_c, 10, 48, 80
6, 19440, Note_on_c, 10, 64, 95
6, 19440, Note_on_c, 10, 60, 95
6, 19440, Note_on_c, 10, 57, 95
6, 19440, Note_on_c, 10, 52, 95
6, 19440, Note_on_c, 10, 45, 95
6, 20160, Note_off_c, 10, 64, 80
6, 20160, Note_off_c, 10, 60, 80
6, 20160, Note_off_c, 10, 57, 80
6, 20160, Note_off_c, 10, 52, 80
6, 20160, Note_off_c, 10, 45, 80
6, 20160, Note_on_c, 10, 65, 95
6, 20160, Note_on_c, 10, 62, 95
6, 20160, Note_on_c, 10, 57, 95
6, 20160, Note_on_c, 10, 50, 95
6, 20880, Note_off_c, 10, 65, 80
6, 20880, Note_off_c, 10, 62, 80
6, 20880, Note_off_c, 10, 57, 80
6, 20880, Note_off_c, 10, 50, 80
6, 20880, Note_on_c, 10, 67, 95
6, 20880, Note_on_c, 10, 59, 95
6, 20880, Note_on_c, 10, 55, 95
6, 20880, Note_on_c, 10, 50, 95
6, 20880, Note_on_c, 10, 43, 95
6, 21600, Note_off_c, 10, 67, 80
6, 21600, Note_off_c, 10, 59, 80
6, 21600, Note_off_c, 10, 55, 80
6, 21600, Note_off_c, 10, 50, 80
6, 21600, Note_off_c, 10, 43, 80
6, 21600, Note_on_c, 10, 64, 95
6, 21600, Note_on_c, 10, 60, 95
6, 21600, Note_on_c, 10, 55, 95
6, 21600, Note_on_c, 10, 52, 95
6, 21600, Note_on_c, 10, 48, 95
6, 23040, Note_off_c, 10, 64, 80
6, 23040, Note_off_c, 10, 60, 80
6, 23040, Note_off_c, 10, 55, 80
6, 23040, Note_off_c, 10, 52, 80
6, 23040, Note_off_c, 10, 48, 80
6, 23040, Note_on_c, 10, 65, 95
6, 23040, Note_on_c, 10, 60, 95
6, 23040, Note_on_c, 10, 57, 95
6, 23040, Note_on_c, 10, 53, 95
6, 23760, Note_off_c, 10, 65, 80
6, 23760, Note_off_c, 10, 60, 80
6, 23760, Note_off_c, 10, 57, 80
6, 23760, Note_off_c, 10, 53, 80
6, 23760, Note_on_c, 10, 67, 95
6, 23760, Note_on_c, 10, 59, 95
6, 23760, Note_on_c, 10, 55, 95
6, 23760, Note_on_c, 10, 50, 95
6, 23760, Note_on_c, 10, 43, 95
6, 24480, Note_off_c, 10, 67, 80
6, 24480, Note_off_c, 10, 59, 80
6, 24480, Note_off_c, 10, 55, 80
6, 24480, Note_off_c, 10, 50, 80
6, 24480, Note_off_c, 10, 43, 80
6, 24480, Note_on_c, 10, 64, 95
6, 24480, Note_on_c, 10, 60, 95
6, 24480, Note_on_c, 10, 55, 95
6, 24480, Note_on_c, 10, 52, 95
6, 24480, Note_on_c, 10, 48, 95
6, 25200, Note_off_c, 10, 64, 80
6, 25200, Note_off_c, 10, 60, 80
6, 25200, Note_off_c, 10, 55, 80
6, 25200, Note_off_c, 10, 52, 80
6, 25200, Note_off_c, 10, 48, 80
6, 25200, Note_on_c, 10, 65, 95
6, 25200, Note_on_c, 10, 60, 95
6, 25200, Note_on_c, 10, 57, 95
6, 25200, Note_on_c, 10, 53, 95
6, 25920, Note_off_c, 10, 65, 80
6, 25920, Note_off_c, 10, 60, 80
6, 25920, Note_off_c, 10, 57, 80
6, 25920, Note_off_c, 10, 53, 80
6, 25920, Note_on_c, 10, 64, 95
6, 25920, Note_on_c, 10, 60, 95
6, 25920, Note_on_c, 10, 55, 95
6, 25920, Note_on_c, 10, 52, 95
6, 25920, Note_on_c, 10, 48, 95
6, 26640, Note_off_c, 10, 64, 80
6, 26640, Note_off_c, 10, 60, 80
6, 26640, Note_off_c, 10, 55, 80
6, 26640, Note_off_c, 10, 52, 80
6, 26640, Note_off_c, 10, 48, 80
6, 26640, Note_on_c, 10, 67, 95
6, 26640, Note_on_c, 10, 59, 95
6, 26640, Note_on_c, 10, 55, 95
6, 26640, Note_on_c, 10, 50, 95
6, 26640, Note_on_c, 10, 43, 95
6, 27360, Note_off_c, 10, 67, 80
6, 27360, Note_off_c, 10, 59, 80
6, 27360, Note_off_c, 10, 55, 80
6, 27360, Note_off_c, 10, 50, 80
6, 27360, Note_off_c, 10, 43, 80
6, 27360, Note_on_c, 10, 64, 95
6, 27360, Note_on_c, 10, 60, 95
6, 27360, Note_on_c, 10, 55, 95
6, 27360, Note_on_c, 10, 52, 95
6, 27360, Note_on_c, 10, 48, 95
6, 28800, Note_off_c, 10, 64, 80
6, 28800, Note_off_c, 10, 60, 80
6, 28800, Note_off_c, 10, 55, 80
6, 28800, Note_off_c, 10, 52, 80
6, 28800, Note_off_c, 10, 48, 80
6, 28800, Note_on_c, 10, 64, 95
6, 28800, Note_on_c, 10, 60, 95
6, 28800, Note_on_c, 10, 55, 95
6, 28800, Note_on_c, 10, 52, 95
6, 28800, Note_on_c, 10, 48, 95
6, 30240, Note_off_c, 10, 64, 80
6, 30240, Note_off_c, 10, 60, 80
6, 30240, Note_off_c, 10, 55, 80
6, 30240, Note_off_c, 10, 52, 80
6, 30240, Note_off_c, 10, 48, 80
6, 30240, Note_on_c, 10, 64, 95
6, 30240, Note_on_c, 10, 60, 95
6, 30240, Note_on_c, 10, 55, 95
6, 30240, Note_on_c, 10, 52, 95
6, 30240, Note_on_c, 10, 48, 95
6, 30240, Note_on_c, 10, 43, 95
6, 30720, Note_off_c, 10, 64, 80
6, 30720, Note_off_c, 10, 60, 80
6, 30720, Note_off_c, 10, 55, 80
6, 30720, Note_off_c, 10, 52, 80
6, 30720, Note_off_c, 10, 48, 80
6, 30720, Note_off_c, 10, 43, 80
6, 30720, Note_on_c, 10, 65, 95
6, 30720, Note_on_c, 10, 60, 95
6, 30720, Note_on_c, 10, 57, 95
6, 30720, Note_on_c, 10, 53, 95
6, 30960, Note_off_c, 10, 65, 80
6, 30960, Note_off_c, 10, 60, 80
6, 30960, Note_off_c, 10, 57, 80
6, 30960, Note_off_c, 10, 53, 80
6, 30960, Note_on_c, 10, 64, 95
6, 30960, Note_on_c, 10, 60, 95
6, 30960, Note_on_c, 10, 55, 95
6, 30960, Note_on_c, 10, 52, 95
6, 30960, Note_on_c, 10, 48, 95
6, 31680, Note_off_c, 10, 64, 80
6, 31680, Note_off_c, 10, 60, 80
6, 31680, Note_off_c, 10, 55, 80
6, 31680, Note_off_c, 10, 52, 80
6, 31680, Note_off_c, 10, 48, 80
6, 31680, Note_on_c, 10, 64, 95
6, 31680, Note_on_c, 10, 60, 95
6, 31680, Note_on_c, 10, 55, 95
6, 31680, Note_on_c, 10, 52, 95
6, 31680, Note_on_c, 10, 48, 95
6, 33120, Note_off_c, 10, 64, 80
6, 33120, Note_off_c, 10, 60, 80
6, 33120, Note_off_c, 10, 55, 80
6, 33120, Note_off_c, 10, 52, 80
6, 33120, Note_off_c, 10, 48, 80
6, 33120, Note_on_c, 10, 64, 95
6, 33120, Note_on_c, 10, 60, 95
6, 33120, Note_on_c, 10, 55, 95
6, 33120, Note_on_c, 10, 52, 95
6, 33120, Note_on_c, 10, 48, 95
6, 33120, Note_on_c, 10, 43, 95
6, 33600, Note_off_c, 10, 64, 80
6, 33600, Note_off_c, 10, 60, 80
6, 33600, Note_off_c, 10, 55, 80
6, 33600, Note_off_c, 10, 52, 80
6, 33600, Note_off_c, 10, 48, 80
6, 33600, Note_off_c, 10, 43, 80
6, 33600, Note_on_c, 10, 65, 95
6, 33600, Note_on_c, 10, 60, 95
6, 33600, Note_on_c, 10, 57, 95
6, 33600, Note_on_c, 10, 53, 95
6, 33840, Note_off_c, 10, 65, 80
6, 33840, Note_off_c, 10, 60, 80
6, 33840, Note_off_c, 10, 57, 80
6, 33840, Note_off_c, 10, 53, 80
6, 33840, Note_on_c, 10, 64, 95
6, 33840, Note_on_c, 10, 60, 95
6, 33840, Note_on_c, 10, 55, 95
6, 33840, Note_on_c, 10, 52, 95
6, 33840, Note_on_c, 10, 48, 95
6, 34560, Note_off_c, 10, 64, 80
6, 34560, Note_off_c, 10, 60, 80
6, 34560, Note_off_c, 10, 55, 80
6, 34560, Note_off_c, 10, 52, 80
6, 34560, Note_off_c, 10, 48, 80
6, 34560, Note_on_c, 10, 64, 95
6, 34560, Note_on_c, 10, 60, 95
6, 34560, Note_on_c, 10, 55, 95
6, 34560, Note_on_c, 10, 52, 95
6, 34560, Note_on_c, 10, 48, 95
6, 35280, Note_off_c, 10, 64, 80
6, 35280, Note_off_c, 10, 60, 80
6, 35280, Note_off_c, 10, 55, 80
6, 35280, Note_off_c, 10, 52, 80
6, 35280, Note_off_c, 10, 48, 80
6, 35280, Note_on_c, 10, 64, 95
6, 35280, Note_on_c, 10, 59, 95
6, 35280, Note_on_c, 10, 55, 95
6, 35280, Note_on_c, 10, 52, 95
6, 35280, Note_on_c, 10, 47, 95
6, 35280, Note_on_c, 10, 40, 95
6, 36000, Note_off_c, 10, 64, 80
6, 36000, Note_off_c, 10, 59, 80
6, 36000, Note_off_c, 10, 55, 80
6, 36000, Note_off_c, 10, 52, 80
6, 36000, Note_off_c, 10, 47, 80
6, 36000, Note_off_c, 10, 40, 80
6, 36000, Note_on_c, 10, 64, 95
6, 36000, Note_on_c, 10, 60, 95
6, 36000, Note_on_c, 10, 57, 95
6, 36000, Note_on_c, 10, 52, 95
6, 36000, Note_on_c, 10, 45, 95
6, 36720, Note_off_c, 10, 64, 80
6, 36720, Note_off_c, 10, 60, 80
6, 36720, Note_off_c, 10, 57, 80
6, 36720, Note_off_c, 10, 52, 80
6, 36720, Note_off_c, 10, 45, 80
6, 36720, Note_on_c, 10, 64, 95
6, 36720, Note_on_c, 10, 60, 95
6, 36720, Note_on_c, 10, 57, 95
6, 36720, Note_on_c, 10, 52, 95
6, 36720, Note_on_c, 10, 45, 95
6, 36720, Note_on_c, 10, 43, 95
6, 37440, Note_off_c, 10, 64, 80
6, 37440, Note_off_c, 10, 60, 80
6, 37440, Note_off_c, 10, 57, 80
6, 37440, Note_off_c, 10, 52, 80
6, 37440, Note_off_c, 10, 45, 80
6, 37440, Note_off_c, 10, 43, 80
6, 37440, Note_on_c, 10, 65, 95
6, 37440, Note_on_c, 10, 62, 95
6, 37440, Note_on_c, 10, 57, 95
6, 37440, Note_on_c, 10, 50, 95
6, 38160, Note_off_c, 10, 65, 80
6, 38160, Note_off_c, 10, 62, 80
6, 38160, Note_off_c, 10, 57, 80
6, 38160, Note_off_c, 10, 50, 80
6, 38160, Note_on_c, 10, 67, 95
6, 38160, Note_on_c, 10, 59, 95
6, 38160, Note_on_c, 10, 55, 95
6, 38160, Note_on_c, 10, 50, 95
6, 38160, Note_on_c, 10, 43, 95
6, 38880, Note_off_c, 10, 67, 80
6, 38880, Note_off_c, 10, 59, 80
6, 38880, Note_off_c, 10, 55, 80
6, 38880, Note_off_c, 10, 50, 80
6, 38880, Note_off_c, 10, 43, 80
6, 38880, Note_on_c, 10, 64, 95
6, 38880, Note_on_c, 10, 60, 95
6, 38880, Note_on_c, 10, 55, 95
6, 38880, Note_on_c, 10, 52, 95
6, 38880, Note_on_c, 10, 48, 95
6, 40320, Note_off_c, 10, 64, 80
6, 40320, Note_off_c, 10, 60, 80
6, 40320, Note_off_c, 10, 55, 80
6, 40320, Note_off_c, 10, 52, 80
6, 40320, Note_off_c, 10, 48, 80
6, 40320, Note_on_c, 10, 65, 95
6, 40320, Note_on_c, 10, 60, 95
6, 40320, Note_on_c, 10, 57, 95
6, 40320, Note_on_c, 10, 53, 95
6, 41040, Note_off_c, 10, 65, 80
6, 41040, Note_off_c, 10, 60, 80
6, 41040, Note_off_c, 10, 57, 80
6, 41040, Note_off_c, 10, 53, 80
6, 41040, Note_on_c, 10, 67, 95
6, 41040, Note_on_c, 10, 59, 95
6, 41040, Note_on_c, 10, 55, 95
6, 41040, Note_on_c, 10, 50, 95
6, 41040, Note_on_c, 10, 43, 95
6, 41760, Note_off_c, 10, 67, 80
6, 41760, Note_off_c, 10, 59, 80
6, 41760, Note_off_c, 10, 55, 80
6, 41760, Note_off_c, 10, 50, 80
6, 41760, Note_off_c, 10, 43, 80
6, 41760, Note_on_c, 10, 64, 95
6, 41760, Note_on_c, 10, 60, 95
6, 41760, Note_on_c, 10, 55, 95
6, 41760, Note_on_c, 10, 52, 95
6, 41760, Note_on_c, 10, 48, 95
6, 42480, Note_off_c, 10, 64, 80
6, 42480, Note_off_c, 10, 60, 80
6, 42480, Note_off_c, 10, 55, 80
6, 42480, Note_off_c, 10, 52, 80
6, 42480, Note_off_c, 10, 48, 80
6, 42480, Note_on_c, 10, 64, 95
6, 42480, Note_on_c, 10, 60, 95
6, 42480, Note_on_c, 10, 57, 95
6, 42480, Note_on_c, 10, 52, 95
6, 42480, Note_on_c, 10, 45, 95
6, 43200, Note_off_c, 10, 64, 80
6, 43200, Note_off_c, 10, 60, 80
6, 43200, Note_off_c, 10, 57, 80
6, 43200, Note_off_c, 10, 52, 80
6, 43200, Note_off_c, 10, 45, 80
6, 43200, Note_on_c, 10, 65, 95
6, 43200, Note_on_c, 10, 62, 95
6, 43200, Note_on_c, 10, 57, 95
6, 43200, Note_on_c, 10, 50, 95
6, 43920, Note_off_c, 10, 65, 80
6, 43920, Note_off_c, 10, 62, 80
6, 43920, Note_off_c, 10, 57, 80
6, 43920, Note_off_c, 10, 50, 80
6, 43920, Note_on_c, 10, 67, 95
6, 43920, Note_on_c, 10, 59, 95
6, 43920, Note_on_c, 10, 55, 95
6, 43920, Note_on_c, 10, 50, 95
6, 43920, Note_on_c, 10, 43, 95
6, 44640, Note_off_c, 10, 67, 80
6, 44640, Note_off_c, 10, 59, 80
6, 44640, Note_off_c, 10, 55, 80
6, 44640, Note_off_c, 10, 50, 80
6, 44640, Note_off_c, 10, 43, 80
6, 44640, Note_on_c, 10, 64, 95
6, 44640, Note_on_c, 10, 60, 95
6, 44640, Note_on_c, 10, 55, 95
6, 44640, Note_on_c, 10, 52, 95
6, 44640, Note_on_c, 10, 48, 95
6, 46080, Note_off_c, 10, 64, 80
6, 46080, Note_off_c, 10, 60, 80
6, 46080, Note_off_c, 10, 55, 80
6, 46080, Note_off_c, 10, 52, 80
6, 46080, Note_off_c, 10, 48, 80
6, 46080, Note_on_c, 10, 65, 95
6, 46080, Note_on_c, 10, 60, 95
6, 46080, Note_on_c, 10, 57, 95
6, 46080, Note_on_c, 10, 53, 95
6, 46800, Note_off_c, 10, 65, 80
6, 46800, Note_off_c, 10, 60, 80
6, 46800, Note_off_c, 10, 57, 80
6, 46800, Note_off_c, 10, 53, 80
6, 46800, Note_on_c, 10, 67, 95
6, 46800, Note_on_c, 10, 59, 95
6, 46800, Note_on_c, 10, 55, 95
6, 46800, Note_on_c, 10, 50, 95
6, 46800, Note_on_c, 10, 43, 95
6, 47520, Note_off_c, 10, 67, 80
6, 47520, Note_off_c, 10, 59, 80
6, 47520, Note_off_c, 10, 55, 80
6, 47520, Note_off_c, 10, 50, 80
6, 47520, Note_off_c, 10, 43, 80
6, 47520, Note_on_c, 10, 64, 95
6, 47520, Note_on_c, 10, 60, 95
6, 47520, Note_on_c, 10, 55, 95
6, 47520, Note_on_c, 10, 52, 95
6, 47520, Note_on_c, 10, 48, 95
6, 48240, Note_off_c, 10, 64, 80
6, 48240, Note_off_c, 10, 60, 80
6, 48240, Note_off_c, 10, 55, 80
6, 48240, Note_off_c, 10, 52, 80
6, 48240, Note_off_c, 10, 48, 80
6, 48240, Note_on_c, 10, 65, 95
6, 48240, Note_on_c, 10, 60, 95
6, 48240, Note_on_c, 10, 57, 95
6, 48240, Note_on_c, 10, 53, 95
6, 48960, Note_off_c, 10, 65, 80
6, 48960, Note_off_c, 10, 60, 80
6, 48960, Note_off_c, 10, 57, 80
6, 48960, Note_off_c, 10, 53, 80
6, 48960, Note_on_c, 10, 64, 95
6, 48960, Note_on_c, 10, 60, 95
6, 48960, Note_on_c, 10, 55, 95
6, 48960, Note_on_c, 10, 52, 95
6, 48960, Note_on_c, 10, 48, 95
6, 49680, Note_off_c, 10, 64, 80
6, 49680, Note_off_c, 10, 60, 80
6, 49680, Note_off_c, 10, 55, 80
6, 49680, Note_off_c, 10, 52, 80
6, 49680, Note_off_c, 10, 48, 80
6, 49680, Note_on_c, 10, 67, 95
6, 49680, Note_on_c, 10, 59, 95
6, 49680, Note_on_c, 10, 55, 95
6, 49680, Note_on_c, 10, 50, 95
6, 49680, Note_on_c, 10, 43, 95
6, 50400, Note_off_c, 10, 67, 80
6, 50400, Note_off_c, 10, 59, 80
6, 50400, Note_off_c, 10, 55, 80
6, 50400, Note_off_c, 10, 50, 80
6, 50400, Note_off_c, 10, 43, 80
6, 50400, Note_on_c, 10, 64, 95
6, 50400, Note_on_c, 10, 60, 95
6, 50400, Note_on_c, 10, 55, 95
6, 50400, Note_on_c, 10, 52, 95
6, 50400, Note_on_c, 10, 48, 95
6, 51840, Note_off_c, 10, 64, 80
6, 51840, Note_off_c, 10, 60, 80
6, 51840, Note_off_c, 10, 55, 80
6, 51840, Note_off_c, 10, 52, 80
6, 51840, Note_off_c, 10, 48, 80
6, 51840, Note_on_c, 10, 64, 95
6, 51840, Note_on_c, 10, 60, 95
6, 51840, Note_on_c, 10, 55, 95
6, 51840, Note_on_c, 10, 52, 95
6, 51840, Note_on_c, 10, 48, 95
6, 53280, Note_off_c, 10, 64, 80
6, 53280, Note_off_c, 10, 60, 80
6, 53280, Note_off_c, 10, 55, 80
6, 53280, Note_off_c, 10, 52, 80
6, 53280, Note_off_c, 10, 48, 80
6, 53280, Note_on_c, 10, 64, 95
6, 53280, Note_on_c, 10, 60, 95
6, 53280, Note_on_c, 10, 55, 95
6, 53280, Note_on_c, 10, 52, 95
6, 53280, Note_on_c, 10, 48, 95
6, 53280, Note_on_c, 10, 43, 95
6, 53760, Note_off_c, 10, 64, 80
6, 53760, Note_off_c, 10, 60, 80
6, 53760, Note_off_c, 10, 55, 80
6, 53760, Note_off_c, 10, 52, 80
6, 53760, Note_off_c, 10, 48, 80
6, 53760, Note_off_c, 10, 43, 80
6, 53760, Note_on_c, 10, 65, 95
6, 53760, Note_on_c, 10, 60, 95
6, 53760, Note_on_c, 10, 57, 95
6, 53760, Note_on_c, 10, 53, 95
6, 54000, Note_off_c, 10, 65, 80
6, 54000, Note_off_c, 10, 60, 80
6, 54000, Note_off_c, 10, 57, 80
6, 54000, Note_off_c, 10, 53, 80
6, 54000, Note_on_c, 10, 64, 95
6, 54000, Note_on_c, 10, 60, 95
6, 54000, Note_on_c, 10, 55, 95
6, 54000, Note_on_c, 10, 52, 95
6, 54000, Note_on_c, 10, 48, 95
6, 54720, Note_off_c, 10, 64, 80
6, 54720, Note_off_c, 10, 60, 80
6, 54720, Note_off_c, 10, 55, 80
6, 54720, Note_off_c, 10, 52, 80
6, 54720, Note_off_c, 10, 48, 80
6, 54720, Note_on_c, 10, 64, 95
6, 54720, Note_on_c, 10, 60, 95
6, 54720, Note_on_c, 10, 55, 95
6, 54720, Note_on_c, 10, 52, 95
6, 54720, Note_on_c, 10, 48, 95
6, 56160, Note_off_c, 10, 64, 80
6, 56160, Note_off_c, 10, 60, 80
6, 56160, Note_off_c, 10, 55, 80
6, 56160, Note_off_c, 10, 52, 80
6, 56160, Note_off_c, 10, 48, 80
6, 56160, Note_on_c, 10, 64, 95
6, 56160, Note_on_c, 10, 60, 95
6, 56160, Note_on_c, 10, 55, 95
6, 56160, Note_on_c, 10, 52, 95
6, 56160, Note_on_c, 10, 48, 95
6, 56160, Note_on_c, 10, 43, 95
6, 56640, Note_off_c, 10, 64, 80
6, 56640, Note_off_c, 10, 60, 80
6, 56640, Note_off_c, 10, 55, 80
6, 56640, Note_off_c, 10, 52, 80
6, 56640, Note_off_c, 10, 48, 80
6, 56640, Note_off_c, 10, 43, 80
6, 56640, Note_on_c, 10, 65, 95
6, 56640, Note_on_c, 10, 60, 95
6, 56640, Note_on_c, 10, 57, 95
6, 56640, Note_on_c, 10, 53, 95
6, 56880, Note_off_c, 10, 65, 80
6, 56880, Note_off_c, 10, 60, 80
6, 56880, Note_off_c, 10, 57, 80
6, 56880, Note_off_c, 10, 53, 80
6, 56880, Note_on_c, 10, 64, 95
6, 56880, Note_on_c, 10, 60, 95
6, 56880, Note_on_c, 10, 55, 95
6, 56880, Note_on_c, 10, 52, 95
6, 56880, Note_on_c, 10, 48, 95
6, 57600, Note_off_c, 10, 64, 80
6, 57600, Note_off_c, 10, 60, 80
6, 57600, Note_off_c, 10, 55, 80
6, 57600, Note_off_c, 10, 52, 80
6, 57600, Note_off_c, 10, 48, 80
6, 57600, Note_on_c, 10, 64, 95
6, 57600, Note_on_c, 10, 60, 95
6, 57600, Note_on_c, 10, 55, 95
6, 57600, Note_on_c, 10, 52, 95
6, 57600, Note_on_c, 10, 48, 95
6, 58320, Note_off_c, 10, 64, 80
6, 58320, Note_off_c, 10, 60, 80
6, 58320, Note_off_c, 10, 55, 80
6, 58320, Note_off_c, 10, 52, 80
6, 58320, Note_off_c, 10, 48, 80
6, 58320, Note_on_c, 10, 64, 95
6, 58320, Note_on_c, 10, 59, 95
6, 58320, Note_on_c, 10, 55, 95
6, 58320, Note_on_c, 10, 52, 95
6, 58320, Note_on_c, 10, 47, 95
6, 58320, Note_on_c, 10, 40, 95
6, 59040, Note_off_c, 10, 64, 80
6, 59040, Note_off_c, 10, 59, 80
6, 59040, Note_off_c, 10, 55, 80
6, 59040, Note_off_c, 10, 52, 80
6, 59040, Note_off_c, 10, 47, 80
6, 59040, Note_off_c, 10, 40, 80
6, 59040, Note_on_c, 10, 64, 95
6, 59040, Note_on_c, 10, 60, 95
6, 59040, Note_on_c, 10, 57, 95
6, 59040, Note_on_c, 10, 52, 95
6, 59040, Note_on_c, 10, 45, 95
6, 59760, Note_off_c, 10, 64, 80
6, 59760, Note_off_c, 10, 60, 80
6, 59760, Note_off_c, 10, 57, 80
6, 59760, Note_off_c, 10, 52, 80
6, 59760, Note_off_c, 10, 45, 80
6, 59760, Note_on_c, 10, 64, 95
6, 59760, Note_on_c, 10, 60, 95
6, 59760, Note_on_c, 10, 57, 95
6, 59760, Note_on_c, 10, 52, 95
6, 59760, Note_on_c, 10, 45, 95
6, 59760, Note_on_c, 10, 43, 95
6, 60480, Note_off_c, 10, 64, 80
6, 60480, Note_off_c, 10, 60, 80
6, 60480, Note_off_c, 10, 57, 80
6, 60480, Note_off_c, 10, 52, 80
6, 60480, Note_off_c, 10, 45, 80
6, 60480, Note_off_c, 10, 43, 80
6, 60480, Note_on_c, 10, 65, 95
6, 60480, Note_on_c, 10, 62, 95
6, 60480, Note_on_c, 10, 57, 95
6, 60480, Note_on_c, 10, 50, 95
6, 61200, Note_off_c, 10, 65, 80
6, 61200, Note_off_c, 10, 62, 80
6, 61200, Note_off_c, 10, 57, 80
6, 61200, Note_off_c, 10, 50, 80
6, 61200, Note_on_c, 10, 67, 95
6, 61200, Note_on_c, 10, 59, 95
6, 61200, Note_on_c, 10, 55, 95
6, 61200, Note_on_c, 10, 50, 95
6, 61200, Note_on_c, 10, 43, 95
6, 61920, Note_off_c, 10, 67, 80
6, 61920, Note_off_c, 10, 59, 80
6, 61920, Note_off_c, 10, 55, 80
6, 61920, Note_off_c, 10, 50, 80
6, 61920, Note_off_c, 10, 43, 80
6, 61920, Note_on_c, 10, 64, 95
6, 61920, Note_on_c, 10, 60, 95
6, 61920, Note_on_c, 10, 55, 95
6, 61920, Note_on_c, 10, 52, 95
6, 61920, Note_on_c, 10, 48, 95
6, 63360, Note_off_c, 10, 64, 80
6, 63360, Note_off_c, 10, 60, 80
6, 63360, Note_off_c, 10, 55, 80
6, 63360, Note_off_c, 10, 52, 80
6, 63360, Note_off_c, 10, 48, 80
6, 63360, Note_on_c, 10, 65, 95
6, 63360, Note_on_c, 10, 60, 95
6, 63360, Note_on_c, 10, 57, 95
6, 63360, Note_on_c, 10, 53, 95
6, 64080, Note_off_c, 10, 65, 80
6, 64080, Note_off_c, 10, 60, 80
6, 64080, Note_off_c, 10, 57, 80
6, 64080, Note_off_c, 10, 53, 80
6, 64080, Note_on_c, 10, 67, 95
6, 64080, Note_on_c, 10, 59, 95
6, 64080, Note_on_c, 10, 55, 95
6, 64080, Note_on_c, 10, 50, 95
6, 64080, Note_on_c, 10, 43, 95
6, 64800, Note_off_c, 10, 67, 80
6, 64800, Note_off_c, 10, 59, 80
6, 64800, Note_off_c, 10, 55, 80
6, 64800, Note_off_c, 10, 50, 80
6, 64800, Note_off_c, 10, 43, 80
6, 64800, Note_on_c, 10, 64, 95
6, 64800, Note_on_c, 10, 60, 95
6, 64800, Note_on_c, 10, 55, 95
6, 64800, Note_on_c, 10, 52, 95
6, 64800, Note_on_c, 10, 48, 95
6, 65520, Note_off_c, 10, 64, 80
6, 65520, Note_off_c, 10, 60, 80
6, 65520, Note_off_c, 10, 55, 80
6, 65520, Note_off_c, 10, 52, 80
6, 65520, Note_off_c, 10, 48, 80
6, 65520, Note_on_c, 10, 64, 95
6, 65520, Note_on_c, 10, 60, 95
6, 65520, Note_on_c, 10, 57, 95
6, 65520, Note_on_c, 10, 52, 95
6, 65520, Note_on_c, 10, 45, 95
6, 66240, Note_off_c, 10, 64, 80
6, 66240, Note_off_c, 10, 60, 80
6, 66240, Note_off_c, 10, 57, 80
6, 66240, Note_off_c, 10, 52, 80
6, 66240, Note_off_c, 10, 45, 80
6, 66240, Note_on_c, 10, 65, 95
6, 66240, Note_on_c, 10, 62, 95
6, 66240, Note_on_c, 10, 57, 95
6, 66240, Note_on_c, 10, 50, 95
6, 66960, Note_off_c, 10, 65, 80
6, 66960, Note_off_c, 10, 62, 80
6, 66960, Note_off_c, 10, 57, 80
6, 66960, Note_off_c, 10, 50, 80
6, 66960, Note_on_c, 10, 67, 95
6, 66960, Note_on_c, 10, 59, 95
6, 66960, Note_on_c, 10, 55, 95
6, 66960, Note_on_c, 10, 50, 95
6, 66960, Note_on_c, 10, 43, 95
6, 67680, Note_off_c, 10, 67, 80
6, 67680, Note_off_c, 10, 59, 80
6, 67680, Note_off_c, 10, 55, 80
6, 67680, Note_off_c, 10, 50, 80
6, 67680, Note_off_c, 10, 43, 80
6, 67680, Note_on_c, 10, 64, 95
6, 67680, Note_on_c, 10, 60, 95
6, 67680, Note_on_c, 10, 55, 95
6, 67680, Note_on_c, 10, 52, 95
6, 67680, Note_on_c, 10, 48, 95
6, 69120, Note_off_c, 10, 64, 80
6, 69120, Note_off_c, 10, 60, 80
6, 69120, Note_off_c, 10, 55, 80
6, 69120, Note_off_c, 10, 52, 80
6, 69120, Note_off_c, 10, 48, 80
6, 69120, Note_on_c, 10, 65, 95
6, 69120, Note_on_c, 10, 60, 95
6, 69120, Note_on_c, 10, 57, 95
6, 69120, Note_on_c, 10, 53, 95
6, 69840, Note_off_c, 10, 65, 80
6, 69840, Note_off_c, 10, 60, 80
6, 69840, Note_off_c, 10, 57, 80
6, 69840, Note_off_c, 10, 53, 80
6, 69840, Note_on_c, 10, 67, 95
6, 69840, Note_on_c, 10, 59, 95
6, 69840, Note_on_c, 10, 55, 95
6, 69840, Note_on_c, 10, 50, 95
6, 69840, Note_on_c, 10, 43, 95
6, 70560, Note_off_c, 10, 67, 80
6, 70560, Note_off_c, 10, 59, 80
6, 70560, Note_off_c, 10, 55, 80
6, 70560, Note_off_c, 10, 50, 80
6, 70560, Note_off_c, 10, 43, 80
6, 70560, Note_on_c, 10, 64, 95
6, 70560, Note_on_c, 10, 60, 95
6, 70560, Note_on_c, 10, 55, 95
6, 70560, Note_on_c, 10, 52, 95
6, 70560, Note_on_c, 10, 48, 95
6, 71280, Note_off_c, 10, 64, 80
6, 71280, Note_off_c, 10, 60, 80
6, 71280, Note_off_c, 10, 55, 80
6, 71280, Note_off_c, 10, 52, 80
6, 71280, Note_off_c, 10, 48, 80
6, 71280, Note_on_c, 10, 65, 95
6, 71280, Note_on_c, 10, 60, 95
6, 71280, Note_on_c, 10, 57, 95
6, 71280, Note_on_c, 10, 53, 95
6, 72000, Note_off_c, 10, 65, 80
6, 72000, Note_off_c, 10, 60, 80
6, 72000, Note_off_c, 10, 57, 80
6, 72000, Note_off_c, 10, 53, 80
6, 72000, Note_on_c, 10, 64, 95
6, 72000, Note_on_c, 10, 60, 95
6, 72000, Note_on_c, 10, 55, 95
6, 72000, Note_on_c, 10, 52, 95
6, 72000, Note_on_c, 10, 48, 95
6, 72720, Note_off_c, 10, 64, 80
6, 72720, Note_off_c, 10, 60, 80
6, 72720, Note_off_c, 10, 55, 80
6, 72720, Note_off_c, 10, 52, 80
6, 72720, Note_off_c, 10, 48, 80
6, 72720, Note_on_c, 10, 67, 95
6, 72720, Note_on_c, 10, 59, 95
6, 72720, Note_on_c, 10, 55, 95
6, 72720, Note_on_c, 10, 50, 95
6, 72720, Note_on_c, 10, 43, 95
6, 73440, Note_off_c, 10, 67, 80
6, 73440, Note_off_c, 10, 59, 80
6, 73440, Note_off_c, 10, 55, 80
6, 73440, Note_off_c, 10, 50, 80
6, 73440, Note_off_c, 10, 43, 80
6, 73440, Note_on_c, 10, 64, 95
6, 73440, Note_on_c, 10, 60, 95
6, 73440, Note_on_c, 10, 55, 95
6, 73440, Note_on_c, 10, 52, 95
6, 73440, Note_on_c, 10, 48, 95
6, 74880, Note_off_c, 10, 64, 80
6, 74880, Note_off_c, 10, 60, 80
6, 74880, Note_off_c, 10, 55, 80
6, 74880, Note_off_c, 10, 52, 80
6, 74880, Note_off_c, 10, 48, 80
6, 74880, Note_on_c, 10, 64, 95
6, 74880, Note_on_c, 10, 60, 95
6, 74880, Note_on_c, 10, 55, 95
6, 74880, Note_on_c, 10, 52, 95
6, 74880, Note_on_c, 10, 48, 95
6, 76320, Note_off_c, 10, 64, 80
6, 76320, Note_off_c, 10, 60, 80
6, 76320, Note_off_c, 10, 55, 80
6, 76320, Note_off_c, 10, 52, 80
6, 76320, Note_off_c, 10, 48, 80
6, 76320, Note_on_c, 10, 64, 95
6, 76320, Note_on_c, 10, 60, 95
6, 76320, Note_on_c, 10, 55, 95
6, 76320, Note_on_c, 10, 52, 95
6, 76320, Note_on_c, 10, 48, 95
6, 76320, Note_on_c, 10, 43, 95
6, 76800, Note_off_c, 10, 64, 80
6, 76800, Note_off_c, 10, 60, 80
6, 76800, Note_off_c, 10, 55, 80
6, 76800, Note_off_c, 10, 52, 80
6, 76800, Note_off_c, 10, 48, 80
6, 76800, Note_off_c, 10, 43, 80
6, 76800, Note_on_c, 10, 65, 95
6, 76800, Note_on_c, 10, 60, 95
6, 76800, Note_on_c, 10, 57, 95
6, 76800, Note_on_c, 10, 53, 95
6, 77040, Note_off_c, 10, 65, 80
6, 77040, Note_off_c, 10, 60, 80
6, 77040, Note_off_c, 10, 57, 80
6, 77040, Note_off_c, 10, 53, 80
6, 77040, Note_on_c, 10, 64, 95
6, 77040, Note_on_c, 10, 60, 95
6, 77040, Note_on_c, 10, 55, 95
6, 77040, Note_on_c, 10, 52, 95
6, 77040, Note_on_c, 10, 48, 95
6, 77760, Note_off_c, 10, 64, 80
6, 77760, Note_off_c, 10, 60, 80
6, 77760, Note_off_c, 10, 55, 80
6, 77760, Note_off_c, 10, 52, 80
6, 77760, Note_off_c, 10, 48, 80
6, 77760, Note_on_c, 10, 64, 95
6, 77760, Note_on_c, 10, 60, 95
6, 77760, Note_on_c, 10, 55, 95
6, 77760, Note_on_c, 10, 52, 95
6, 77760, Note_on_c, 10, 48, 95
6, 79200, Note_off_c, 10, 64, 80
6, 79200, Note_off_c, 10, 60, 80
6, 79200, Note_off_c, 10, 55, 80
6, 79200, Note_off_c, 10, 52, 80
6, 79200, Note_off_c, 10, 48, 80
6, 79200, Note_on_c, 10, 64, 95
6, 79200, Note_on_c, 10, 60, 95
6, 79200, Note_on_c, 10, 55, 95
6, 79200, Note_on_c, 10, 52, 95
6, 79200, Note_on_c, 10, 48, 95
6, 79200, Note_on_c, 10, 43, 95
6, 79680, Note_off_c, 10, 64, 80
6, 79680, Note_off_c, 10, 60, 80
6, 79680, Note_off_c, 10, 55, 80
6, 79680, Note_off_c, 10, 52, 80
6, 79680, Note_off_c, 10, 48, 80
6, 79680, Note_off_c, 10, 43, 80
6, 79680, Note_on_c, 10, 65, 95
6, 79680, Note_on_c, 10, 60, 95
6, 79680, Note_on_c, 10, 57, 95
6, 79680, Note_on_c, 10, 53, 95
6, 79920, Note_off_c, 10, 65, 80
6, 79920, Note_off_c, 10, 60, 80
6, 79920, Note_off_c, 10, 57, 80
6, 79920, Note_off_c, 10, 53, 80
6, 79920, Note_on_c, 10, 64, 95
6, 79920, Note_on_c, 10, 60, 95
6, 79920, Note_on_c, 10, 55, 95
6, 79920, Note_on_c, 10, 52, 95
6, 79920, Note_on_c, 10, 48, 95
6, 80640, Note_off_c, 10, 64, 80
6, 80640, Note_off_c, 10, 60, 80
6, 80640, Note_off_c, 10, 55, 80
6, 80640, Note_off_c, 10, 52, 80
6, 80640, Note_off_c, 10, 48, 80
6, 80640, Note_on_c, 10, 64, 95
6, 80640, Note_on_c, 10, 60, 95
6, 80640, Note_on_c, 10, 55, 95
6, 80640, Note_on_c, 10, 52, 95
6, 80640, Note_on_c, 10, 48, 95
6, 81360, Note_off_c, 10, 64, 80
6, 81360, Note_off_c, 10, 60, 80
6, 81360, Note_off_c, 10, 55, 80
6, 81360, Note_off_c, 10, 52, 80
6, 81360, Note_off_c, 10, 48, 80
6, 81360, Note_on_c, 10, 64, 95
6, 81360, Note_on_c, 10, 59, 95
6, 81360, Note_on_c, 10, 55, 95
6, 81360, Note_on_c, 10, 52, 95
6, 81360, Note_on_c, 10, 47, 95
6, 81360, Note_on_c, 10, 40, 95
6, 82080, Note_off_c, 10, 64, 80
6, 82080, Note_off_c, 10, 59, 80
6, 82080, Note_off_c, 10, 55, 80
6, 82080, Note_off_c, 10, 52, 80
6, 82080, Note_off_c, 10, 47, 80
6, 82080, Note_off_c, 10, 40, 80
6, 82080, Note_on_c, 10, 64, 95
6, 82080, Note_on_c, 10, 60, 95
6, 82080, Note_on_c, 10, 57, 95
6, 82080, Note_on_c, 10, 52, 95
6, 82080, Note_on_c, 10, 45, 95
6, 82800, Note_off_c, 10, 64, 80
6, 82800, Note_off_c, 10, 60, 80
6, 82800, Note_off_c, 10, 57, 80
6, 82800, Note_off_c, 10, 52, 80
6, 82800, Note_off_c, 10, 45, 80
6, 82800, Note_on_c, 10, 64, 95
6, 82800, Note_on_c, 10, 60, 95
6, 82800, Note_on_c, 10, 57, 95
6, 82800, Note_on_c, 10, 52, 95
6, 82800, Note_on_c, 10, 45, 95
6, 82800, Note_on_c, 10, 43, 95
6, 83520, Note_off_c, 10, 64, 80
6, 83520, Note_off_c, 10, 60, 80
6, 83520, Note_off_c, 10, 57, 80
6, 83520, Note_off_c, 10, 52, 80
6, 83520, Note_off_c, 10, 45, 80
6, 83520, Note_off_c, 10, 43, 80
6, 83520, Note_on_c, 10, 65, 95
6, 83520, Note_on_c, 10, 62, 95
6, 83520, Note_on_c, 10, 57, 95
6, 83520, Note_on_c, 10, 50, 95
6, 84240, Note_off_c, 10, 65, 80
6, 84240, Note_off_c, 10, 62, 80
6, 84240, Note_off_c, 10, 57, 80
6, 84240, Note_off_c, 10, 50, 80
6, 84240, Note_on_c, 10, 67, 95
6, 84240, Note_on_c, 10, 59, 95
6, 84240, Note_on_c, 10, 55, 95
6, 84240, Note_on_c, 10, 50, 95
6, 84240, Note_on_c, 10, 43, 95
6, 84960, Note_off_c, 10, 67, 80
6, 84960, Note_off_c, 10, 59, 80
6, 84960, Note_off_c, 10, 55, 80
6, 84960, Note_off_c, 10, 50, 80
6, 84960, Note_off_c, 10, 43, 80
6, 84960, Note_on_c, 10, 64, 95
6, 84960, Note_on_c, 10, 60, 95
6, 84960, Note_on_c, 10, 55, 95
6, 84960, Note_on_c, 10, 52, 95
6, 84960, Note_on_c, 10, 48, 95
6, 86400, Note_off_c, 10, 64, 80
6, 86400, Note_off_c, 10, 60, 80
6, 86400, Note_off_c, 10, 55, 80
6, 86400, Note_off_c, 10, 52, 80
6, 86400, Note_off_c, 10, 48, 80
6, 86400, Note_on_c, 10, 65, 95
6, 86400, Note_on_c, 10, 60, 95
6, 86400, Note_on_c, 10, 57, 95
6, 86400, Note_on_c, 10, 53, 95
6, 87120, Note_off_c, 10, 65, 80
6, 87120, Note_off_c, 10, 60, 80
6, 87120, Note_off_c, 10, 57, 80
6, 87120, Note_off_c, 10, 53, 80
6, 87120, Note_on_c, 10, 67, 95
6, 87120, Note_on_c, 10, 59, 95
6, 87120, Note_on_c, 10, 55, 95
6, 87120, Note_on_c, 10, 50, 95
6, 87120, Note_on_c, 10, 43, 95
6, 87840, Note_off_c, 10, 67, 80
6, 87840, Note_off_c, 10, 59, 80
6, 87840, Note_off_c, 10, 55, 80
6, 87840, Note_off_c, 10, 50, 80
6, 87840, Note_off_c, 10, 43, 80
6, 87840, Note_on_c, 10, 64, 95
6, 87840, Note_on_c, 10, 60, 95
6, 87840, Note_on_c, 10, 55, 95
6, 87840, Note_on_c, 10, 52, 95
6, 87840, Note_on_c, 10, 48, 95
6, 88560, Note_off_c, 10, 64, 80
6, 88560, Note_off_c, 10, 60, 80
6, 88560, Note_off_c, 10, 55, 80
6, 88560, Note_off_c, 10, 52, 80
6, 88560, Note_off_c, 10, 48, 80
6, 88560, Note_on_c, 10, 64, 95
6, 88560, Note_on_c, 10, 60, 95
6, 88560, Note_on_c, 10, 57, 95
6, 88560, Note_on_c, 10, 52, 95
6, 88560, Note_on_c, 10, 45, 95
6, 89280, Note_off_c, 10, 64, 80
6, 89280, Note_off_c, 10, 60, 80
6, 89280, Note_off_c, 10, 57, 80
6, 89280, Note_off_c, 10, 52, 80
6, 89280, Note_off_c, 10, 45, 80
6, 89280, Note_on_c, 10, 65, 95
6, 89280, Note_on_c, 10, 62, 95
6, 89280, Note_on_c, 10, 57, 95
6, 89280, Note_on_c, 10, 50, 95
6, 90000, Note_off_c, 10, 65, 80
6, 90000, Note_off_c, 10, 62, 80
6, 90000, Note_off_c, 10, 57, 80
6, 90000, Note_off_c, 10, 50, 80
6, 90000, Note_on_c, 10, 67, 95
6, 90000, Note_on_c, 10, 59, 95
6, 90000, Note_on_c, 10, 55, 95
6, 90000, Note_on_c, 10, 50, 95
6, 90000, Note_on_c, 10, 43, 95
6, 90720, Note_off_c, 10, 67, 80
6, 90720, Note_off_c, 10, 59, 80
6, 90720, Note_off_c, 10, 55, 80
6, 90720, Note_off_c, 10, 50, 80
6, 90720, Note_off_c, 10, 43, 80
6, 90720, Note_on_c, 10, 64, 95
6, 90720, Note_on_c, 10, 60, 95
6, 90720, Note_on_c, 10, 55, 95
6, 90720, Note_on_c, 10, 52, 95
6, 90720, Note_on_c, 10, 48, 95
6, 92160, Note_off_c, 10, 64, 80
6, 92160, Note_off_c, 10, 60, 80
6, 92160, Note_off_c, 10, 55, 80
6, 92160, Note_off_c, 10, 52, 80
6, 92160, Note_off_c, 10, 48, 80
6, 92160, Note_on_c, 10, 65, 95
6, 92160, Note_on_c, 10, 60, 95
6, 92160, Note_on_c, 10, 57, 95
6, 92160, Note_on_c, 10, 53, 95
6, 92880, Note_off_c, 10, 65, 80
6, 92880, Note_off_c, 10, 60, 80
6, 92880, Note_off_c, 10, 57, 80
6, 92880, Note_off_c, 10, 53, 80
6, 92880, Note_on_c, 10, 67, 95
6, 92880, Note_on_c, 10, 59, 95
6, 92880, Note_on_c, 10, 55, 95
6, 92880, Note_on_c, 10, 50, 95
6, 92880, Note_on_c, 10, 43, 95
6, 93600, Note_off_c, 10, 67, 80
6, 93600, Note_off_c, 10, 59, 80
6, 93600, Note_off_c, 10, 55, 80
6, 93600, Note_off_c, 10, 50, 80
6, 93600, Note_off_c, 10, 43, 80
6, 93600, Note_on_c, 10, 64, 95
6, 93600, Note_on_c, 10, 60, 95
6, 93600, Note_on_c, 10, 55, 95
6, 93600, Note_on_c, 10, 52, 95
6, 93600, Note_on_c, 10, 48, 95
6, 94320, Note_off_c, 10, 64, 80
6, 94320, Note_off_c, 10, 60, 80
6, 94320, Note_off_c, 10, 55, 80
6, 94320, Note_off_c, 10, 52, 80
6, 94320, Note_off_c, 10, 48, 80
6, 94320, Note_on_c, 10, 65, 95
6, 94320, Note_on_c, 10, 60, 95
6, 94320, Note_on_c, 10, 57, 95
6, 94320, Note_on_c, 10, 53, 95
6, 95040, Note_off_c, 10, 65, 80
6, 95040, Note_off_c, 10, 60, 80
6, 95040, Note_off_c, 10, 57, 80
6, 95040, Note_off_c, 10, 53, 80
6, 95040, Note_on_c, 10, 64, 95
6, 95040, Note_on_c, 10, 60, 95
6, 95040, Note_on_c, 10, 55, 95
6, 95040, Note_on_c, 10, 52, 95
6, 95040, Note_on_c, 10, 48, 95
6, 95760, Note_off_c, 10, 64, 80
6, 95760, Note_off_c, 10, 60, 80
6, 95760, Note_off_c, 10, 55, 80
6, 95760, Note_off_c, 10, 52, 80
6, 95760, Note_off_c, 10, 48, 80
6, 95760, Note_on_c, 10, 67, 95
6, 95760, Note_on_c, 10, 59, 95
6, 95760, Note_on_c, 10, 55, 95
6, 95760, Note_on_c, 10, 50, 95
6, 95760, Note_on_c, 10, 43, 95
6, 96480, Note_off_c, 10, 67, 80
6, 96480, Note_off_c, 10, 59, 80
6, 96480, Note_off_c, 10, 55, 80
6, 96480, Note_off_c, 10, 50, 80
6, 96480, Note_off_c, 10, 43, 80
6, 96480, Note_on_c, 10, 64, 95
6, 96480, Note_on_c, 10, 60, 95
6, 96480, Note_on_c, 10, 55, 95
6, 96480, Note_on_c, 10, 52, 95
6, 96480, Note_on_c, 10, 48, 95
6, 97920, Note_off_c, 10, 64, 80
6, 97920, Note_off_c, 10, 60, 80
6, 97920, Note_off_c, 10, 55, 80
6, 97920, Note_off_c, 10, 52, 80
6, 97920, Note_off_c, 10, 48, 80
6, 97920, Note_on_c, 10, 64, 95
6, 97920, Note_on_c, 10, 60, 95
6, 97920, Note_on_c, 10, 55, 95
6, 97920, Note_on_c, 10, 52, 95
6, 97920, Note_on_c, 10, 48, 95
6, 99360, Note_off_c, 10, 64, 80
6, 99360, Note_off_c, 10, 60, 80
6, 99360, Note_off_c, 10, 55, 80
6, 99360, Note_off_c, 10, 52, 80
6, 99360, Note_off_c, 10, 48, 80
6, 99360, Note_on_c, 10, 64, 95
6, 99360, Note_on_c, 10, 60, 95
6, 99360, Note_on_c, 10, 55, 95
6, 99360, Note_on_c, 10, 52, 95
6, 99360, Note_on_c, 10, 48, 95
6, 99360, Note_on_c, 10, 43, 95
6, 99840, Note_off_c, 10, 64, 80
6, 99840, Note_off_c, 10, 60, 80
6, 99840, Note_off_c, 10, 55, 80
6, 99840, Note_off_c, 10, 52, 80
6, 99840, Note_off_c, 10, 48, 80
6, 99840, Note_off_c, 10, 43, 80
6, 99840, Note_on_c, 10, 65, 95
6, 99840, Note_on_c, 10, 60, 95
6, 99840, Note_on_c, 10, 57, 95
6, 99840, Note_on_c, 10, 53, 95
6, 100080, Note_off_c, 10, 65, 80
6, 100080, Note_off_c, 10, 60, 80
6, 100080, Note_off_c, 10, 57, 80
6, 100080, Note_off_c, 10, 53, 80
6, 100080, Note_on_c, 10, 64, 95
6, 100080, Note_on_c, 10, 60, 95
6, 100080, Note_on_c, 10, 55, 95
6, 100080, Note_on_c, 10, 52, 95
6, 100080, Note_on_c, 10, 48, 95
6, 100800, Note_off_c, 10, 64, 80
6, 100800, Note_off_c, 10, 60, 80
6, 100800, Note_off_c, 10, 55, 80
6, 100800, Note_off_c, 10, 52, 80
6, 100800, Note_off_c, 10, 48, 80
6, 100800, Note_on_c, 10, 64, 95
6, 100800, Note_on_c, 10, 60, 95
6, 100800, Note_on_c, 10, 55, 95
6, 100800, Note_on_c, 10, 52, 95
6, 100800, Note_on_c, 10, 48, 95
6, 102240, Note_off_c, 10, 64, 80
6, 102240, Note_off_c, 10, 60, 80
6, 102240, Note_off_c, 10, 55, 80
6, 102240, Note_off_c, 10, 52, 80
6, 102240, Note_off_c, 10, 48, 80
6, 102240, Note_on_c, 10, 64, 95
6, 102240, Note_on_c, 10, 60, 95
6, 102240, Note_on_c, 10, 55, 95
6, 102240, Note_on_c, 10, 52, 95
6, 102240, Note_on_c, 10, 48, 95
6, 102240, Note_on_c, 10, 43, 95
6, 102720, Note_off_c, 10, 64, 80
6, 102720, Note_off_c, 10, 60, 80
6, 102720, Note_off_c, 10, 55, 80
6, 102720, Note_off_c, 10, 52, 80
6, 102720, Note_off_c, 10, 48, 80
6, 102720, Note_off_c, 10, 43, 80
6, 102720, Note_on_c, 10, 65, 95
6, 102720, Note_on_c, 10, 60, 95
6, 102720, Note_on_c, 10, 57, 95
6, 102720, Note_on_c, 10, 53, 95
6, 102960, Note_off_c, 10, 65, 80
6, 102960, Note_off_c, 10, 60, 80
6, 102960, Note_off_c, 10, 57, 80
6, 102960, Note_off_c, 10, 53, 80
6, 102960, Note_on_c, 10, 64, 95
6, 102960, Note_on_c, 10, 60, 95
6, 102960, Note_on_c, 10, 55, 95
6, 102960, Note_on_c, 10, 52, 95
6, 102960, Note_on_c, 10, 48, 95
6, 103680, Note_off_c, 10, 64, 80
6, 103680, Note_off_c, 10, 60, 80
6, 103680, Note_off_c, 10, 55, 80
6, 103680, Note_off_c, 10, 52, 80
6, 103680, Note_off_c, 10, 48, 80
6, 103680, Note_on_c, 10, 64, 95
6, 103680, Note_on_c, 10, 60, 95
6, 103680, Note_on_c, 10, 55, 95
6, 103680, Note_on_c, 10, 52, 95
6, 103680, Note_on_c, 10, 48, 95
6, 104400, Note_off_c, 10, 64, 80
6, 104400, Note_off_c, 10, 60, 80
6, 104400, Note_off_c, 10, 55, 80
6, 104400, Note_off_c, 10, 52, 80
6, 104400, Note_off_c, 10, 48, 80
6, 104400, Note_on_c, 10, 64, 95
6, 104400, Note_on_c, 10, 59, 95
6, 104400, Note_on_c, 10, 55, 95
6, 104400, Note_on_c, 10, 52, 95
6, 104400, Note_on_c, 10, 47, 95
6, 104400, Note_on_c, 10, 40, 95
6, 105120, Note_off_c, 10, 64, 80
6, 105120, Note_off_c, 10, 59, 80
6, 105120, Note_off_c, 10, 55, 80
6, 105120, Note_off_c, 10, 52, 80
6, 105120, Note_off_c, 10, 47, 80
6, 105120, Note_off_c, 10, 40, 80
6, 105120, Note_on_c, 10, 64, 95
6, 105120, Note_on_c, 10, 60, 95
6, 105120, Note_on_c, 10, 57, 95
6, 105120, Note_on_c, 10, 52, 95
6, 105120, Note_on_c, 10, 45, 95
6, 105840, Note_off_c, 10, 64, 80
6, 105840, Note_off_c, 10, 60, 80
6, 105840, Note_off_c, 10, 57, 80
6, 105840, Note_off_c, 10, 52, 80
6, 105840, Note_off_c, 10, 45, 80
6, 105840, Note_on_c, 10, 64, 95
6, 105840, Note_on_c, 10, 60, 95
6, 105840, Note_on_c, 10, 57, 95
6, 105840, Note_on_c, 10, 52, 95
6, 105840, Note_on_c, 10, 45, 95
6, 105840, Note_on_c, 10, 43, 95
6, 106560, Note_off_c, 10, 64, 80
6, 106560, Note_off_c, 10, 60, 80
6, 106560, Note_off_c, 10, 57, 80
6, 106560, Note_off_c, 10, 52, 80
6, 106560, Note_off_c, 10, 45, 80
6, 106560, Note_off_c, 10, 43, 80
6, 106560, Note_on_c, 10, 65, 95
6, 106560, Note_on_c, 10, 62, 95
6, 106560, Note_on_c, 10, 57, 95
6, 106560, Note_on_c, 10, 50, 95
6, 107280, Note_off_c, 10, 65, 80
6, 107280, Note_off_c, 10, 62, 80
6, 107280, Note_off_c, 10, 57, 80
6, 107280, Note_off_c, 10, 50, 80
6, 107280, Note_on_c, 10, 67, 95
6, 107280, Note_on_c, 10, 59, 95
6, 107280, Note_on_c, 10, 55, 95
6, 107280, Note_on_c, 10, 50, 95
6, 107280, Note_on_c, 10, 43, 95
6, 108000, Note_off_c, 10, 67, 80
6, 108000, Note_off_c, 10, 59, 80
6, 108000, Note_off_c, 10, 55, 80
6, 108000, Note_off_c, 10, 50, 80
6, 108000, Note_off_c, 10, 43, 80
6, 108000, Note_on_c, 10, 64, 95
6, 108000, Note_on_c, 10, 60, 95
6, 108000, Note_on_c, 10, 55, 95
6, 108000, Note_on_c, 10, 52, 95
6, 108000, Note_on_c, 10, 48, 95
6, 109440, Note_off_c, 10, 64, 80
6, 109440, Note_off_c, 10, 60, 80
6, 109440, Note_off_c, 10, 55, 80
6, 109440, Note_off_c, 10, 52, 80
6, 109440, Note_off_c, 10, 48, 80
6, 109440, Note_on_c, 10, 65, 95
6, 109440, Note_on_c, 10, 60, 95
6, 109440, Note_on_c, 10, 57, 95
6, 109440, Note_on_c, 10, 53, 95
6, 110160, Note_off_c, 10, 65, 80
6, 110160, Note_off_c, 10, 60, 80
6, 110160, Note_off_c, 10, 57, 80
6, 110160, Note_off_c, 10, 53, 80
6, 110160, Note_on_c, 10, 67, 95
6, 110160, Note_on_c, 10, 59, 95
6, 110160, Note_on_c, 10, 55, 95
6, 110160, Note_on_c, 10, 50, 95
6, 110160, Note_on_c, 10, 43, 95
6, 110880, Note_off_c, 10, 67, 80
6, 110880, Note_off_c, 10, 59, 80
6, 110880, Note_off_c, 10, 55, 80
6, 110880, Note_off_c, 10, 50, 80
6, 110880, Note_off_c, 10, 43, 80
6, 110880, Note_on_c, 10, 64, 95
6, 110880, Note_on_c, 10, 60, 95
6, 110880, Note_on_c, 10, 55, 95
6, 110880, Note_on_c, 10, 52, 95
6, 110880, Note_on_c, 10, 48, 95
6, 111600, Note_off_c, 10, 64, 80
6, 111600, Note_off_c, 10, 60, 80
6, 111600, Note_off_c, 10, 55, 80
6, 111600, Note_off_c, 10, 52, 80
6, 111600, Note_off_c, 10, 48, 80
6, 111600, Note_on_c, 10, 64, 95
6, 111600, Note_on_c, 10, 60, 95
6, 111600, Note_on_c, 10, 57, 95
6, 111600, Note_on_c, 10, 52, 95
6, 111600, Note_on_c, 10, 45, 95
6, 112320, Note_off_c, 10, 64, 80
6, 112320, Note_off_c, 10, 60, 80
6, 112320, Note_off_c, 10, 57, 80
6, 112320, Note_off_c, 10, 52, 80
6, 112320, Note_off_c, 10, 45, 80
6, 112320, Note_on_c, 10, 65, 95
6, 112320, Note_on_c, 10, 62, 95
6, 112320, Note_on_c, 10, 57, 95
6, 112320, Note_on_c, 10, 50, 95
6, 113040, Note_off_c, 10, 65, 80
6, 113040, Note_off_c, 10, 62, 80
6, 113040, Note_off_c, 10, 57, 80
6, 113040, Note_off_c, 10, 50, 80
6, 113040, Note_on_c, 10, 67, 95
6, 113040, Note_on_c, 10, 59, 95
6, 113040, Note_on_c, 10, 55, 95
6, 113040, Note_on_c, 10, 50, 95
6, 113040, Note_on_c, 10, 43, 95
6, 113760, Note_off_c, 10, 67, 80
6, 113760, Note_off_c, 10, 59, 80
6, 113760, Note_off_c, 10, 55, 80
6, 113760, Note_off_c, 10, 50, 80
6, 113760, Note_off_c, 10, 43, 80
6, 113760, Note_on_c, 10, 64, 95
6, 113760, Note_on_c, 10, 60, 95
6, 113760, Note_on_c, 10, 55, 95
6, 113760, Note_on_c, 10, 52, 95
6, 113760, Note_on_c, 10, 48, 95
6, 115200, Note_off_c, 10, 64, 80
6, 115200, Note_off_c, 10, 60, 80
6, 115200, Note_off_c, 10, 55, 80
6, 115200, Note_off_c, 10, 52, 80
6, 115200, Note_off_c, 10, 48, 80
6, 115200, Note_on_c, 10, 65, 95
6, 115200, Note_on_c, 10, 60, 95
6, 115200, Note_on_c, 10, 57, 95
6, 115200, Note_on_c, 10, 53, 95
6, 115920, Note_off_c, 10, 65, 80
6, 115920, Note_off_c, 10, 60, 80
6, 115920, Note_off_c, 10, 57, 80
6, 115920, Note_off_c, 10, 53, 80
6, 115920, Note_on_c, 10, 67, 95
6, 115920, Note_on_c, 10, 59, 95
6, 115920, Note_on_c, 10, 55, 95
6, 115920, Note_on_c, 10, 50, 95
6, 115920, Note_on_c, 10, 43, 95
6, 116640, Note_off_c, 10, 67, 80
6, 116640, Note_off_c, 10, 59, 80
6, 116640, Note_off_c, 10, 55, 80
6, 116640, Note_off_c, 10, 50, 80
6, 116640, Note_off_c, 10, 43, 80
6, 116640, Note_on_c, 10, 64, 95
6, 116640, Note_on_c, 10, 60, 95
6, 116640, Note_on_c, 10, 55, 95
6, 116640, Note_on_c, 10, 52, 95
6, 116640, Note_on_c, 10, 48, 95
6, 117360, Note_off_c, 10, 64, 80
6, 117360, Note_off_c, 10, 60, 80
6, 117360, Note_off_c, 10, 55, 80
6, 117360, Note_off_c, 10, 52, 80
6, 117360, Note_off_c, 10, 48, 80
6, 117360, Note_on_c, 10, 65, 95
6, 117360, Note_on_c, 10, 60, 95
6, 117360, Note_on_c, 10, 57, 95
6, 117360, Note_on_c, 10, 53, 95
6, 118080, Note_off_c, 10, 65, 80
6, 118080, Note_off_c, 10, 60, 80
6, 118080, Note_off_c, 10, 57, 80
6, 118080, Note_off_c, 10, 53, 80
6, 118080, Note_on_c, 10, 64, 95
6, 118080, Note_on_c, 10, 60, 95
6, 118080, Note_on_c, 10, 55, 95
6, 118080, Note_on_c, 10, 52, 95
6, 118080, Note_on_c, 10, 48, 95
6, 118800, Note_off_c, 10, 64, 80
6, 118800, Note_off_c, 10, 60, 80
6, 118800, Note_off_c, 10, 55, 80
6, 118800, Note_off_c, 10, 52, 80
6, 118800, Note_off_c, 10, 48, 80
6, 118800, Note_on_c, 10, 67, 95
6, 118800, Note_on_c, 10, 59, 95
6, 118800, Note_on_c, 10, 55, 95
6, 118800, Note_on_c, 10, 50, 95
6, 118800, Note_on_c, 10, 43, 95
6, 119520, Note_off_c, 10, 67, 80
6, 119520, Note_off_c, 10, 59, 80
6, 119520, Note_off_c, 10, 55, 80
6, 119520, Note_off_c, 10, 50, 80
6, 119520, Note_off_c, 10, 43, 80
6, 119520, Note_on_c, 10, 64, 95
6, 119520, Note_on_c, 10, 60, 95
6, 119520, Note_on_c, 10, 55, 95
6, 119520, Note_on_c, 10, 52, 95
6, 119520, Note_on_c, 10, 48, 95
6, 120960, Note_off_c, 10, 64, 80
6, 120960, Note_off_c, 10, 60, 80
6, 120960, Note_off_c, 10, 55, 80
6, 120960, Note_off_c, 10, 52, 80
6, 120960, Note_off_c, 10, 48, 80
6, 120960, Note_on_c, 10, 64, 95
6, 120960, Note_on_c, 10, 60, 95
6, 120960, Note_on_c, 10, 55, 95
6, 120960, Note_on_c, 10, 52, 95
6, 120960, Note_on_c, 10, 48, 95
6, 122400, Note_off_c, 10, 64, 80
6, 122400, Note_off_c, 10, 60, 80
6, 122400, Note_off_c, 10, 55, 80
6, 122400, Note_off_c, 10, 52, 80
6, 122400, Note_off_c, 10, 48, 80
6, 122400, Note_on_c, 10, 64, 95
6, 122400, Note_on_c, 10, 60, 95
6, 122400, Note_on_c, 10, 55, 95
6, 122400, Note_on_c, 10, 52, 95
6, 122400, Note_on_c, 10, 48, 95
6, 122400, Note_on_c, 10, 43, 95
6, 122880, Note_off_c, 10, 64, 80
6, 122880, Note_off_c, 10, 60, 80
6, 122880, Note_off_c, 10, 55, 80
6, 122880, Note_off_c, 10, 52, 80
6, 122880, Note_off_c, 10, 48, 80
6, 122880, Note_off_c, 10, 43, 80
6, 122880, Note_on_c, 10, 65, 95
6, 122880, Note_on_c, 10, 60, 95
6, 122880, Note_on_c, 10, 57, 95
6, 122880, Note_on_c, 10, 53, 95
6, 123120, Note_off_c, 10, 65, 80
6, 123120, Note_off_c, 10, 60, 80
6, 123120, Note_off_c, 10, 57, 80
6, 123120, Note_off_c, 10, 53, 80
6, 123120, Note_on_c, 10, 64, 95
6, 123120, Note_on_c, 10, 60, 95
6, 123120, Note_on_c, 10, 55, 95
6, 123120, Note_on_c, 10, 52, 95
6, 123120, Note_on_c, 10, 48, 95
6, 123840, Note_off_c, 10, 64, 80
6, 123840, Note_off_c, 10, 60, 80
6, 123840, Note_off_c, 10, 55, 80
6, 123840, Note_off_c, 10, 52, 80
6, 123840, Note_off_c, 10, 48, 80
6, 123840, Note_on_c, 10, 64, 95
6, 123840, Note_on_c, 10, 60, 95
6, 123840, Note_on_c, 10, 55, 95
6, 123840, Note_on_c, 10, 52, 95
6, 123840, Note_on_c, 10, 48, 95
6, 125280, Note_off_c, 10, 64, 80
6, 125280, Note_off_c, 10, 60, 80
6, 125280, Note_off_c, 10, 55, 80
6, 125280, Note_off_c, 10, 52, 80
6, 125280, Note_off_c, 10, 48, 80
6, 125280, Note_on_c, 10, 64, 95
6, 125280, Note_on_c, 10, 60, 95
6, 125280, Note_on_c, 10, 55, 95
6, 125280, Note_on_c, 10, 52, 95
6, 125280, Note_on_c, 10, 48, 95
6, 125280, Note_on_c, 10, 43, 95
6, 125760, Note_off_c, 10, 64, 80
6, 125760, Note_off_c, 10, 60, 80
6, 125760, Note_off_c, 10, 55, 80
6, 125760, Note_off_c, 10, 52, 80
6, 125760, Note_off_c, 10, 48, 80
6, 125760, Note_off_c, 10, 43, 80
6, 125760, Note_on_c, 10, 65, 95
6, 125760, Note_on_c, 10, 60, 95
6, 125760, Note_on_c, 10, 57, 95
6, 125760, Note_on_c, 10, 53, 95
6, 126000, Note_off_c, 10, 65, 80
6, 126000, Note_off_c, 10, 60, 80
6, 126000, Note_off_c, 10, 57, 80
6, 126000, Note_off_c, 10, 53, 80
6, 126000, Note_on_c, 10, 64, 95
6, 126000, Note_on_c, 10, 60, 95
6, 126000, Note_on_c, 10, 55, 95
6, 126000, Note_on_c, 10, 52, 95
6, 126000, Note_on_c, 10, 48, 95
6, 126720, Note_off_c, 10, 64, 80
6, 126720, Note_off_c, 10, 60, 80
6, 126720, Note_off_c, 10, 55, 80
6, 126720, Note_off_c, 10, 52, 80
6, 126720, Note_off_c, 10, 48, 80
6, 126720, Note_on_c, 10, 64, 95
6, 126720, Note_on_c, 10, 60, 95
6, 126720, Note_on_c, 10, 55, 95
6, 126720, Note_on_c, 10, 52, 95
6, 126720, Note_on_c, 10, 48, 95
6, 127440, Note_off_c, 10, 64, 80
6, 127440, Note_off_c, 10, 60, 80
6, 127440, Note_off_c, 10, 55, 80
6, 127440, Note_off_c, 10, 52, 80
6, 127440, Note_off_c, 10, 48, 80
6, 127440, Note_on_c, 10, 64, 95
6, 127440, Note_on_c, 10, 59, 95
6, 127440, Note_on_c, 10, 55, 95
6, 127440, Note_on_c, 10, 52, 95
6, 127440, Note_on_c, 10, 47, 95
6, 127440, Note_on_c, 10, 40, 95
6, 128160, Note_off_c, 10, 64, 80
6, 128160, Note_off_c, 10, 59, 80
6, 128160, Note_off_c, 10, 55, 80
6, 128160, Note_off_c, 10, 52, 80
6, 128160, Note_off_c, 10, 47, 80
6, 128160, Note_off_c, 10, 40, 80
6, 128160, Note_on_c, 10, 64, 95
6, 128160, Note_on_c, 10, 60, 95
6, 128160, Note_on_c, 10, 57, 95
6, 128160, Note_on_c, 10, 52, 95
6, 128160, Note_on_c, 10, 45, 95
6, 128880, Note_off_c, 10, 64, 80
6, 128880, Note_off_c, 10, 60, 80
6, 128880, Note_off_c, 10, 57, 80
6, 128880, Note_off_c, 10, 52, 80
6, 128880, Note_off_c, 10, 45, 80
6, 128880, Note_on_c, 10, 64, 95
6, 128880, Note_on_c, 10, 60, 95
6, 128880, Note_on_c, 10, 57, 95
6, 128880, Note_on_c, 10, 52, 95
6, 128880, Note_on_c, 10, 45, 95
6, 128880, Note_on_c, 10, 43, 95
6, 129600, Note_off_c, 10, 64, 80
6, 129600, Note_off_c, 10, 60, 80
6, 129600, Note_off_c, 10, 57, 80
6, 129600, Note_off_c, 10, 52, 80
6, 129600, Note_off_c, 10, 45, 80
6, 129600, Note_off_c, 10, 43, 80
6, 129600, Note_on_c, 10, 65, 95
6, 129600, Note_on_c, 10, 62, 95
6, 129600, Note_on_c, 10, 57, 95
6, 129600, Note_on_c, 10, 50, 95
6, 130320, Note_off_c, 10, 65, 80
6, 130320, Note_off_c, 10, 62, 80
6, 130320, Note_off_c, 10, 57, 80
6, 130320, Note_off_c, 10, 50, 80
6, 130320, Note_on_c, 10, 67, 95
6, 130320, Note_on_c, 10, 59, 95
6, 130320, Note_on_c, 10, 55, 95
6, 130320, Note_on_c, 10, 50, 95
6, 130320, Note_on_c, 10, 43, 95
6, 131040, Note_off_c, 10, 67, 80
6, 131040, Note_off_c, 10, 59, 80
6, 131040, Note_off_c, 10, 55, 80
6, 131040, Note_off_c, 10, 50, 80
6, 131040, Note_off_c, 10, 43, 80
6, 131040, Note_on_c, 10, 64, 95
6, 131040, Note_on_c, 10, 60, 95
6, 131040, Note_on_c, 10, 55, 95
6, 131040, Note_on_c, 10, 52, 95
6, 131040, Note_on_c, 10, 48, 95
6, 132480, Note_off_c, 10, 64, 80
6, 132480, Note_off_c, 10, 60, 80
6, 132480, Note_off_c, 10, 55, 80
6, 132480, Note_off_c, 10, 52, 80
6, 132480, Note_off_c, 10, 48, 80
6, 132480, Note_on_c, 10, 65, 95
6, 132480, Note_on_c, 10, 60, 95
6, 132480, Note_on_c, 10, 57, 95
6, 132480, Note_on_c, 10, 53, 95
6, 133200, Note_off_c, 10, 65, 80
6, 133200, Note_off_c, 10, 60, 80
6, 133200, Note_off_c, 10, 57, 80
6, 133200, Note_off_c, 10, 53, 80
6, 133200, Note_on_c, 10, 67, 95
6, 133200, Note_on_c, 10, 59, 95
6, 133200, Note_on_c, 10, 55, 95
6, 133200, Note_on_c, 10, 50, 95
6, 133200, Note_on_c, 10, 43, 95
6, 133920, Note_off_c, 10, 67, 80
6, 133920, Note_off_c, 10, 59, 80
6, 133920, Note_off_c, 10, 55, 80
6, 133920, Note_off_c, 10, 50, 80
6, 133920, Note_off_c, 10, 43, 80
6, 133920, Note_on_c, 10, 64, 95
6, 133920, Note_on_c, 10, 60, 95
6, 133920, Note_on_c, 10, 55, 95
6, 133920, Note_on_c, 10, 52, 95
6, 133920, Note_on_c, 10, 48, 95
6, 134640, Note_off_c, 10, 64, 80
6, 134640, Note_off_c, 10, 60, 80
6, 134640, Note_off_c, 10, 55, 80
6, 134640, Note_off_c, 10, 52, 80
6, 134640, Note_off_c, 10, 48, 80
6, 134640, Note_on_c, 10, 64, 95
6, 134640, Note_on_c, 10, 60, 95
6, 134640, Note_on_c, 10, 57, 95
6, 134640, Note_on_c, 10, 52, 95
6, 134640, Note_on_c, 10, 45, 95
6, 135360, Note_off_c, 10, 64, 80
6, 135360, Note_off_c, 10, 60, 80
6, 135360, Note_off_c, 10, 57, 80
6, 135360, Note_off_c, 10, 52, 80
6, 135360, Note_off_c, 10, 45, 80
6, 135360, Note_on_c, 10, 65, 95
6, 135360, Note_on_c, 10, 62, 95
6, 135360, Note_on_c, 10, 57, 95
6, 135360, Note_on_c, 10, 50, 95
6, 136080, Note_off_c, 10, 65, 80
6, 136080, Note_off_c, 10, 62, 80
6, 136080, Note_off_c, 10, 57, 80
6, 136080, Note_off_c, 10, 50, 80
6, 136080, Note_on_c, 10, 67, 95
6, 136080, Note_on_c, 10, 59, 95
6, 136080, Note_on_c, 10, 55, 95
6, 136080, Note_on_c, 10, 50, 95
6, 136080, Note_on_c, 10, 43, 95
6, 136800, Note_off_c, 10, 67, 80
6, 136800, Note_off_c, 10, 59, 80
6, 136800, Note_off_c, 10, 55, 80
6, 136800, Note_off_c, 10, 50, 80
6, 136800, Note_off_c, 10, 43, 80
6, 136800, Note_on_c, 10, 64, 95
6, 136800, Note_on_c, 10, 60, 95
6, 136800, Note_on_c, 10, 55, 95
6, 136800, Note_on_c, 10, 52, 95
6, 136800, Note_on_c, 10, 48, 95
6, 138240, Note_off_c, 10, 64, 80
6, 138240, Note_off_c, 10, 60, 80
6, 138240, Note_off_c, 10, 55, 80
6, 138240, Note_off_c, 10, 52, 80
6, 138240, Note_off_c, 10, 48, 80
6, 138240, Note_on_c, 10, 65, 95
6, 138240, Note_on_c, 10, 60, 95
6, 138240, Note_on_c, 10, 57, 95
6, 138240, Note_on_c, 10, 53, 95
6, 138960, Note_off_c, 10, 65, 80
6, 138960, Note_off_c, 10, 60, 80
6, 138960, Note_off_c, 10, 57, 80
6, 138960, Note_off_c, 10, 53, 80
6, 138960, Note_on_c, 10, 67, 95
6, 138960, Note_on_c, 10, 59, 95
6, 138960, Note_on_c, 10, 55, 95
6, 138960, Note_on_c, 10, 50, 95
6, 138960, Note_on_c, 10, 43, 95
6, 139680, Note_off_c, 10, 67, 80
6, 139680, Note_off_c, 10, 59, 80
6, 139680, Note_off_c, 10, 55, 80
6, 139680, Note_off_c, 10, 50, 80
6, 139680, Note_off_c, 10, 43, 80
6, 139680, Note_on_c, 10, 64, 95
6, 139680, Note_on_c, 10, 60, 95
6, 139680, Note_on_c, 10, 55, 95
6, 139680, Note_on_c, 10, 52, 95
6, 139680, Note_on_c, 10, 48, 95
6, 140400, Note_off_c, 10, 64, 80
6, 140400, Note_off_c, 10, 60, 80
6, 140400, Note_off_c, 10, 55, 80
6, 140400, Note_off_c, 10, 52, 80
6, 140400, Note_off_c, 10, 48, 80
6, 140400, Note_on_c, 10, 65, 95
6, 140400, Note_on_c, 10, 60, 95
6, 140400, Note_on_c, 10, 57, 95
6, 140400, Note_on_c, 10, 53, 95
6, 141120, Note_off_c, 10, 65, 80
6, 141120, Note_off_c, 10, 60, 80
6, 141120, Note_off_c, 10, 57, 80
6, 141120, Note_off_c, 10, 53, 80
6, 141120, Note_on_c, 10, 64, 95
6, 141120, Note_on_c, 10, 60, 95
6, 141120, Note_on_c, 10, 55, 95
6, 141120, Note_on_c, 10, 52, 95
6, 141120, Note_on_c, 10, 48, 95
6, 141840, Note_off_c, 10, 64, 80
6, 141840, Note_off_c, 10, 60, 80
6, 141840, Note_off_c, 10, 55, 80
6, 141840, Note_off_c, 10, 52, 80
6, 141840, Note_off_c, 10, 48, 80
6, 141840, Note_on_c, 10, 67, 95
6, 141840, Note_on_c, 10, 59, 95
6, 141840, Note_on_c, 10, 55, 95
6, 141840, Note_on_c, 10, 50, 95
6, 141840, Note_on_c, 10, 43, 95
6, 142560, Note_off_c, 10, 67, 80
6, 142560, Note_off_c, 10, 59, 80
6, 142560, Note_off_c, 10, 55, 80
6, 142560, Note_off_c, 10, 50, 80
6, 142560, Note_off_c, 10, 43, 80
6, 142560, Note_on_c, 10, 64, 95
6, 142560, Note_on_c, 10, 60, 95
6, 142560, Note_on_c, 10, 55, 95
6, 142560, Note_on_c, 10, 52, 95
6, 142560, Note_on_c, 10, 48, 95
6, 144000, Note_off_c, 10, 64, 80
6, 144000, Note_off_c, 10, 60, 80
6, 144000, Note_off_c, 10, 55, 80
6, 144000, Note_off_c, 10, 52, 80
6, 144000, Note_off_c, 10, 48, 80
6, 144000, Note_on_c, 10, 64, 95
6, 144000, Note_on_c, 10, 60, 95
6, 144000, Note_on_c, 10, 55, 95
6, 144000, Note_on_c, 10, 52, 95
6, 144000, Note_on_c, 10, 48, 95
6, 145440, Note_off_c, 10, 64, 80
6, 145440, Note_off_c, 10, 60, 80
6, 145440, Note_off_c, 10, 55, 80
6, 145440, Note_off_c, 10, 52, 80
6, 145440, Note_off_c, 10, 48, 80
6, 145440, Note_on_c, 10, 64, 95
6, 145440, Note_on_c, 10, 60, 95
6, 145440, Note_on_c, 10, 55, 95
6, 145440, Note_on_c, 10, 52, 95
6, 145440, Note_on_c, 10, 48, 95
6, 145440, Note_on_c, 10, 43, 95
6, 145920, Note_off_c, 10, 64, 80
6, 145920, Note_off_c, 10, 60, 80
6, 145920, Note_off_c, 10, 55, 80
6, 145920, Note_off_c, 10, 52, 80
6, 145920, Note_off_c, 10, 48, 80
6, 145920, Note_off_c, 10, 43, 80
6, 145920, Note_on_c, 10, 65, 95
6, 145920, Note_on_c, 10, 60, 95
6, 145920, Note_on_c, 10, 57, 95
6, 145920, Note_on_c, 10, 53, 95
6, 146160, Note_off_c, 10, 65, 80
6, 146160, Note_off_c, 10, 60, 80
6, 146160, Note_off_c, 10, 57, 80
6, 146160, Note_off_c, 10, 53, 80
6, 146160, Note_on_c, 10, 64, 95
6, 146160, Note_on_c, 10, 60, 95
6, 146160, Note_on_c, 10, 55, 95
6, 146160, Note_on_c, 10, 52, 95
6, 146160, Note_on_c, 10, 48, 95
6, 146880, Note_off_c, 10, 64, 80
6, 146880, Note_off_c, 10, 60, 80
6, 146880, Note_off_c, 10, 55, 80
6, 146880, Note_off_c, 10, 52, 80
6, 146880, Note_off_c, 10, 48, 80
6, 146880, Note_on_c, 10, 64, 95
6, 146880, Note_on_c, 10, 60, 95
6, 146880, Note_on_c, 10, 55, 95
6, 146880, Note_on_c, 10, 52, 95
6, 146880, Note_on_c, 10, 48, 95
6, 148320, Note_off_c, 10, 64, 80
6, 148320, Note_off_c, 10, 60, 80
6, 148320, Note_off_c, 10, 55, 80
6, 148320, Note_off_c, 10, 52, 80
6, 148320, Note_off_c, 10, 48, 80
6, 148320, Note_on_c, 10, 64, 95
6, 148320, Note_on_c, 10, 60, 95
6, 148320, Note_on_c, 10, 55, 95
6, 148320, Note_on_c, 10, 52, 95
6, 148320, Note_on_c, 10, 48, 95
6, 148320, Note_on_c, 10, 43, 95
6, 148800, Note_off_c, 10, 64, 80
6, 148800, Note_off_c, 10, 60, 80
6, 148800, Note_off_c, 10, 55, 80
6, 148800, Note_off_c, 10, 52, 80
6, 148800, Note_off_c, 10, 48, 80
6, 148800, Note_off_c, 10, 43, 80
6, 148800, Note_on_c, 10, 65, 95
6, 148800, Note_on_c, 10, 60, 95
6, 148800, Note_on_c, 10, 57, 95
6, 148800, Note_on_c, 10, 53, 95
6, 149040, Note_off_c, 10, 65, 80
6, 149040, Note_off_c, 10, 60, 80
6, 149040, Note_off_c, 10, 57, 80
6, 149040, Note_off_c, 10, 53, 80
6, 149040, Note_on_c, 10, 64, 95
6, 149040, Note_on_c, 10, 60, 95
6, 149040, Note_on_c, 10, 55, 95
6, 149040, Note_on_c, 10, 52, 95
6, 149040, Note_on_c, 10, 48, 95
6, 149760, Note_off_c, 10, 64, 80
6, 149760, Note_off_c, 10, 60, 80
6, 149760, Note_off_c, 10, 55, 80
6, 149760, Note_off_c, 10, 52, 80
6, 149760, Note_off_c, 10, 48, 80
6, 149760, Note_on_c, 10, 64, 95
6, 149760, Note_on_c, 10, 60, 95
6, 149760, Note_on_c, 10, 55, 95
6, 149760, Note_on_c, 10, 52, 95
6, 149760, Note_on_c, 10, 48, 95
6, 150480, Note_off_c, 10, 64, 80
6, 150480, Note_off_c, 10, 60, 80
6, 150480, Note_off_c, 10, 55, 80
6, 150480, Note_off_c, 10, 52, 80
6, 150480, Note_off_c, 10, 48, 80
6, 150480, Note_on_c, 10, 64, 95
6, 150480, Note_on_c, 10, 59, 95
6, 150480, Note_on_c, 10, 55, 95
6, 150480, Note_on_c, 10, 52, 95
6, 150480, Note_on_c, 10, 47, 95
6, 150480, Note_on_c, 10, 40, 95
6, 151200, Note_off_c, 10, 64, 80
6, 151200, Note_off_c, 10, 59, 80
6, 151200, Note_off_c, 10, 55, 80
6, 151200, Note_off_c, 10, 52, 80
6, 151200, Note_off_c, 10, 47, 80
6, 151200, Note_off_c, 10, 40, 80
6, 151200, Note_on_c, 10, 64, 95
6, 151200, Note_on_c, 10, 60, 95
6, 151200, Note_on_c, 10, 57, 95
6, 151200, Note_on_c, 10, 52, 95
6, 151200, Note_on_c, 10, 45, 95
6, 151920, Note_off_c, 10, 64, 80
6, 151920, Note_off_c, 10, 60, 80
6, 151920, Note_off_c, 10, 57, 80
6, 151920, Note_off_c, 10, 52, 80
6, 151920, Note_off_c, 10, 45, 80
6, 151920, Note_on_c, 10, 64, 95
6, 151920, Note_on_c, 10, 60, 95
6, 151920, Note_on_c, 10, 57, 95
6, 151920, Note_on_c, 10, 52, 95
6, 151920, Note_on_c, 10, 45, 95
6, 151920, Note_on_c, 10, 43, 95
6, 152640, Note_off_c, 10, 64, 80
6, 152640, Note_off_c, 10, 60, 80
6, 152640, Note_off_c, 10, 57, 80
6, 152640, Note_off_c, 10, 52, 80
6, 152640, Note_off_c, 10, 45, 80
6, 152640, Note_off_c, 10, 43, 80
6, 152640, Note_on_c, 10, 65, 95
6, 152640, Note_on_c, 10, 62, 95
6, 152640, Note_on_c, 10, 57, 95
6, 152640, Note_on_c, 10, 50, 95
6, 153360, Note_off_c, 10, 65, 80
6, 153360, Note_off_c, 10, 62, 80
6, 153360, Note_off_c, 10, 57, 80
6, 153360, Note_off_c, 10, 50, 80
6, 153360, Note_on_c, 10, 67, 95
6, 153360, Note_on_c, 10, 59, 95
6, 153360, Note_on_c, 10, 55, 95
6, 153360, Note_on_c, 10, 50, 95
6, 153360, Note_on_c, 10, 43, 95
6, 154080, Note_off_c, 10, 67, 80
6, 154080, Note_off_c, 10, 59, 80
6, 154080, Note_off_c, 10, 55, 80
6, 154080, Note_off_c, 10, 50, 80
6, 154080, Note_off_c, 10, 43, 80
6, 154080, Note_on_c, 10, 64, 95
6, 154080, Note_on_c, 10, 60, 95
6, 154080, Note_on_c, 10, 55, 95
6, 154080, Note_on_c, 10, 52, 95
6, 154080, Note_on_c, 10, 48, 95
6, 155520, Note_off_c, 10, 64, 80
6, 155520, Note_off_c, 10, 60, 80
6, 155520, Note_off_c, 10, 55, 80
6, 155520, Note_off_c, 10, 52, 80
6, 155520, Note_off_c, 10, 48, 80
6, 155520, Note_on_c, 10, 65, 95
6, 155520, Note_on_c, 10, 60, 95
6, 155520, Note_on_c, 10, 57, 95
6, 155520, Note_on_c, 10, 53, 95
6, 156240, Note_off_c, 10, 65, 80
6, 156240, Note_off_c, 10, 60, 80
6, 156240, Note_off_c, 10, 57, 80
6, 156240, Note_off_c, 10, 53, 80
6, 156240, Note_on_c, 10, 67, 95
6, 156240, Note_on_c, 10, 59, 95
6, 156240, Note_on_c, 10, 55, 95
6, 156240, Note_on_c, 10, 50, 95
6, 156240, Note_on_c, 10, 43, 95
6, 156960, Note_off_c, 10, 67, 80
6, 156960, Note_off_c, 10, 59, 80
6, 156960, Note_off_c, 10, 55, 80
6, 156960, Note_off_c, 10, 50, 80
6, 156960, Note_off_c, 10, 43, 80
6, 156960, Note_on_c, 10, 64, 95
6, 156960, Note_on_c, 10, 60, 95
6, 156960, Note_on_c, 10, 55, 95
6, 156960, Note_on_c, 10, 52, 95
6, 156960, Note_on_c, 10, 48, 95
6, 157680, Note_off_c, 10, 64, 80
6, 157680, Note_off_c, 10, 60, 80
6, 157680, Note_off_c, 10, 55, 80
6, 157680, Note_off_c, 10, 52, 80
6, 157680, Note_off_c, 10, 48, 80
6, 157680, Note_on_c, 10, 64, 95
6, 157680, Note_on_c, 10, 60, 95
6, 157680, Note_on_c, 10, 57, 95
6, 157680, Note_on_c, 10, 52, 95
6, 157680, Note_on_c, 10, 45, 95
6, 158400, Note_off_c, 10, 64, 80
6, 158400, Note_off_c, 10, 60, 80
6, 158400, Note_off_c, 10, 57, 80
6, 158400, Note_off_c, 10, 52, 80
6, 158400, Note_off_c, 10, 45, 80
6, 158400, Note_on_c, 10, 65, 95
6, 158400, Note_on_c, 10, 62, 95
6, 158400, Note_on_c, 10, 57, 95
6, 158400, Note_on_c, 10, 50, 95
6, 159120, Note_off_c, 10, 65, 80
6, 159120, Note_off_c, 10, 62, 80
6, 159120, Note_off_c, 10, 57, 80
6, 159120, Note_off_c, 10, 50, 80
6, 159120, Note_on_c, 10, 67, 95
6, 159120, Note_on_c, 10, 59, 95
6, 159120, Note_on_c, 10, 55, 95
6, 159120, Note_on_c, 10, 50, 95
6, 159120, Note_on_c, 10, 43, 95
6, 159840, Note_off_c, 10, 67, 80
6, 159840, Note_off_c, 10, 59, 80
6, 159840, Note_off_c, 10, 55, 80
6, 159840, Note_off_c, 10, 50, 80
6, 159840, Note_off_c, 10, 43, 80
6, 159840, Note_on_c, 10, 64, 95
6, 159840, Note_on_c, 10, 60, 95
6, 159840, Note_on_c, 10, 55, 95
6, 159840, Note_on_c, 10, 52, 95
6, 159840, Note_on_c, 10, 48, 95
6, 161280, Note_off_c, 10, 64, 80
6, 161280, Note_off_c, 10, 60, 80
6, 161280, Note_off_c, 10, 55, 80
6, 161280, Note_off_c, 10, 52, 80
6, 161280, Note_off_c, 10, 48, 80
6, 161280, Note_on_c, 10, 65, 95
6, 161280, Note_on_c, 10, 60, 95
6, 161280, Note_on_c, 10, 57, 95
6, 161280, Note_on_c, 10, 53, 95
6, 162000, Note_off_c, 10, 65, 80
6, 162000, Note_off_c, 10, 60, 80
6, 162000, Note_off_c, 10, 57, 80
6, 162000, Note_off_c, 10, 53, 80
6, 162000, Note_on_c, 10, 67, 95
6, 162000, Note_on_c, 10, 59, 95
6, 162000, Note_on_c, 10, 55, 95
6, 162000, Note_on_c, 10, 50, 95
6, 162000, Note_on_c, 10, 43, 95
6, 162720, Note_off_c, 10, 67, 80
6, 162720, Note_off_c, 10, 59, 80
6, 162720, Note_off_c, 10, 55, 80
6, 162720, Note_off_c, 10, 50, 80
6, 162720, Note_off_c, 10, 43, 80
6, 162720, Note_on_c, 10, 64, 95
6, 162720, Note_on_c, 10, 60, 95
6, 162720, Note_on_c, 10, 55, 95
6, 162720, Note_on_c, 10, 52, 95
6, 162720, Note_on_c, 10, 48, 95
6, 163440, Note_off_c, 10, 64, 80
6, 163440, Note_off_c, 10, 60, 80
6, 163440, Note_off_c, 10, 55, 80
6, 163440, Note_off_c, 10, 52, 80
6, 163440, Note_off_c, 10, 48, 80
6, 163440, Note_on_c, 10, 65, 95
6, 163440, Note_on_c, 10, 60, 95
6, 163440, Note_on_c, 10, 57, 95
6, 163440, Note_on_c, 10, 53, 95
6, 164160, Note_off_c, 10, 65, 80
6, 164160, Note_off_c, 10, 60, 80
6, 164160, Note_off_c, 10, 57, 80
6, 164160, Note_off_c, 10, 53, 80
6, 164160, Note_on_c, 10, 64, 95
6, 164160, Note_on_c, 10, 60, 95
6, 164160, Note_on_c, 10, 55, 95
6, 164160, Note_on_c, 10, 52, 95
6, 164160, Note_on_c, 10, 48, 95
6, 164880, Note_off_c, 10, 64, 80
6, 164880, Note_off_c, 10, 60, 80
6, 164880, Note_off_c, 10, 55, 80
6, 164880, Note_off_c, 10, 52, 80
6, 164880, Note_off_c, 10, 48, 80
6, 164880, Note_on_c, 10, 67, 95
6, 164880, Note_on_c, 10, 59, 95
6, 164880, Note_on_c, 10, 55, 95
6, 164880, Note_on_c, 10, 50, 95
6, 164880, Note_on_c, 10, 43, 95
6, 165600, Note_off_c, 10, 67, 80
6, 165600, Note_off_c, 10, 59, 80
6, 165600, Note_off_c, 10, 55, 80
6, 165600, Note_off_c, 10, 50, 80
6, 165600, Note_off_c, 10, 43, 80
6, 165600, Note_on_c, 10, 64, 95
6, 165600, Note_on_c, 10, 60, 95
6, 165600, Note_on_c, 10, 55, 95
6, 165600, Note_on_c, 10, 52, 95
6, 165600, Note_on_c, 10, 48, 95
6, 167040, Note_off_c, 10, 64, 80
6, 167040, Note_off_c, 10, 60, 80
6, 167040, Note_off_c, 10, 55, 80
6, 167040, Note_off_c, 10, 52, 80
6, 167040, Note_off_c, 10, 48, 80
6, 167040, Note_on_c, 10, 64, 95
6, 167040, Note_on_c, 10, 60, 95
6, 167040, Note_on_c, 10, 55, 95
6, 167040, Note_on_c, 10, 52, 95
6, 167040, Note_on_c, 10, 48, 95
6, 168480, Note_off_c, 10, 64, 80
6, 168480, Note_off_c, 10, 60, 80
6, 168480, Note_off_c, 10, 55, 80
6, 168480, Note_off_c, 10, 52, 80
6, 168480, Note_off_c, 10, 48, 80
6, 168480, Note_on_c, 10, 64, 95
6, 168480, Note_on_c, 10, 60, 95
6, 168480, Note_on_c, 10, 55, 95
6, 168480, Note_on_c, 10, 52, 95
6, 168480, Note_on_c, 10, 48, 95
6, 168480, Note_on_c, 10, 43, 95
6, 168960, Note_off_c, 10, 64, 80
6, 168960, Note_off_c, 10, 60, 80
6, 168960, Note_off_c, 10, 55, 80
6, 168960, Note_off_c, 10, 52, 80
6, 168960, Note_off_c, 10, 48, 80
6, 168960, Note_off_c, 10, 43, 80
6, 168960, Note_on_c, 10, 65, 95
6, 168960, Note_on_c, 10, 60, 95
6, 168960, Note_on_c, 10, 57, 95
6, 168960, Note_on_c, 10, 53, 95
6, 169200, Note_off_c, 10, 65, 80
6, 169200, Note_off_c, 10, 60, 80
6, 169200, Note_off_c, 10, 57, 80
6, 169200, Note_off_c, 10, 53, 80
6, 169200, Note_on_c, 10, 64, 95
6, 169200, Note_on_c, 10, 60, 95
6, 169200, Note_on_c, 10, 55, 95
6, 169200, Note_on_c, 10, 52, 95
6, 169200, Note_on_c, 10, 48, 95
6, 169920, Note_off_c, 10, 64, 80
6, 169920, Note_off_c, 10, 60, 80
6, 169920, Note_off_c, 10, 55, 80
6, 169920, Note_off_c, 10, 52, 80
6, 169920, Note_off_c, 10, 48, 80
6, 169920, Note_on_c, 10, 64, 95
6, 169920, Note_on_c, 10, 60, 95
6, 169920, Note_on_c, 10, 55, 95
6, 169920, Note_on_c, 10, 52, 95
6, 169920, Note_on_c, 10, 48, 95
6, 171360, Note_off_c, 10, 64, 80
6, 171360, Note_off_c, 10, 60, 80
6, 171360, Note_off_c, 10, 55, 80
6, 171360, Note_off_c, 10, 52, 80
6, 171360, Note_off_c, 10, 48, 80
6, 171360, Note_on_c, 10, 64, 95
6, 171360, Note_on_c, 10, 60, 95
6, 171360, Note_on_c, 10, 55, 95
6, 171360, Note_on_c, 10, 52, 95
6, 171360, Note_on_c, 10, 48, 95
6, 171360, Note_on_c, 10, 43, 95
6, 171840, Note_off_c, 10, 64, 80
6, 171840, Note_off_c, 10, 60, 80
6, 171840, Note_off_c, 10, 55, 80
6, 171840, Note_off_c, 10, 52, 80
6, 171840, Note_off_c, 10, 48, 80
6, 171840, Note_off_c, 10, 43, 80
6, 171840, Note_on_c, 10, 65, 95
6, 171840, Note_on_c, 10, 60, 95
6, 171840, Note_on_c, 10, 57, 95
6, 171840, Note_on_c, 10, 53, 95
6, 172080, Note_off_c, 10, 65, 80
6, 172080, Note_off_c, 10, 60, 80
6, 172080, Note_off_c, 10, 57, 80
6, 172080, Note_off_c, 10, 53, 80
6, 172080, Note_on_c, 10, 64, 95
6, 172080, Note_on_c, 10, 60, 95
6, 172080, Note_on_c, 10, 55, 95
6, 172080, Note_on_c, 10, 52, 95
6, 172080, Note_on_c, 10, 48, 95
6, 172800, Note_off_c, 10, 64, 80
6, 172800, Note_off_c, 10, 60, 80
6, 172800, Note_off_c, 10, 55, 80
6, 172800, Note_off_c, 10, 52, 80
6, 172800, Note_off_c, 10, 48, 80
6, 172800, Note_on_c, 10, 64, 95
6, 172800, Note_on_c, 10, 60, 95
6, 172800, Note_on_c, 10, 55, 95
6, 172800, Note_on_c, 10, 52, 95
6, 172800, Note_on_c, 10, 48, 95
6, 173520, Note_off_c, 10, 64, 80
6, 173520, Note_off_c, 10, 60, 80
6, 173520, Note_off_c, 10, 55, 80
6, 173520, Note_off_c, 10, 52, 80
6, 173520, Note_off_c, 10, 48, 80
6, 173520, Note_on_c, 10, 64, 95
6, 173520, Note_on_c, 10, 59, 95
6, 173520, Note_on_c, 10, 55, 95
6, 173520, Note_on_c, 10, 52, 95
6, 173520, Note_on_c, 10, 47, 95
6, 173520, Note_on_c, 10, 40, 95
6, 174240, Note_off_c, 10, 64, 80
6, 174240, Note_off_c, 10, 59, 80
6, 174240, Note_off_c, 10, 55, 80
6, 174240, Note_off_c, 10, 52, 80
6, 174240, Note_off_c, 10, 47, 80
6, 174240, Note_off_c, 10, 40, 80
6, 174240, Note_on_c, 10, 64, 95
6, 174240, Note_on_c, 10, 60, 95
6, 174240, Note_on_c, 10, 57, 95
6, 174240, Note_on_c, 10, 52, 95
6, 174240, Note_on_c, 10, 45, 95
6, 174960, Note_off_c, 10, 64, 80
6, 174960, Note_off_c, 10, 60, 80
6, 174960, Note_off_c, 10, 57, 80
6, 174960, Note_off_c, 10, 52, 80
6, 174960, Note_off_c, 10, 45, 80
6, 174960, Note_on_c, 10, 64, 95
6, 174960, Note_on_c, 10, 60, 95
6, 174960, Note_on_c, 10, 57, 95
6, 174960, Note_on_c, 10, 52, 95
6, 174960, Note_on_c, 10, 45, 95
6, 174960, Note_on_c, 10, 43, 95
6, 175680, Note_off_c, 10, 64, 80
6, 175680, Note_off_c, 10, 60, 80
6, 175680, Note_off_c, 10, 57, 80
6, 175680, Note_off_c, 10, 52, 80
6, 175680, Note_off_c, 10, 45, 80
6, 175680, Note_off_c, 10, 43, 80
6, 175680, Note_on_c, 10, 65, 95
6, 175680, Note_on_c, 10, 62, 95
6, 175680, Note_on_c, 10, 57, 95
6, 175680, Note_on_c, 10, 50, 95
6, 176400, Note_off_c, 10, 65, 80
6, 176400, Note_off_c, 10, 62, 80
6, 176400, Note_off_c, 10, 57, 80
6, 176400, Note_off_c, 10, 50, 80
6, 176400, Note_on_c, 10, 67, 95
6, 176400, Note_on_c, 10, 59, 95
6, 176400, Note_on_c, 10, 55, 95
6, 176400, Note_on_c, 10, 50, 95
6, 176400, Note_on_c, 10, 43, 95
6, 177120, Note_off_c, 10, 67, 80
6, 177120, Note_off_c, 10, 59, 80
6, 177120, Note_off_c, 10, 55, 80
6, 177120, Note_off_c, 10, 50, 80
6, 177120, Note_off_c, 10, 43, 80
6, 177120, Note_on_c, 10, 64, 95
6, 177120, Note_on_c, 10, 60, 95
6, 177120, Note_on_c, 10, 55, 95
6, 177120, Note_on_c, 10, 52, 95
6, 177120, Note_on_c, 10, 48, 95
6, 178560, Note_off_c, 10, 64, 80
6, 178560, Note_off_c, 10, 60, 80
6, 178560, Note_off_c, 10, 55, 80
6, 178560, Note_off_c, 10, 52, 80
6, 178560, Note_off_c, 10, 48, 80
6, 178560, Note_on_c, 10, 65, 95
6, 178560, Note_on_c, 10, 60, 95
6, 178560, Note_on_c, 10, 57, 95
6, 178560, Note_on_c, 10, 53, 95
6, 179280, Note_off_c, 10, 65, 80
6, 179280, Note_off_c, 10, 60, 80
6, 179280, Note_off_c, 10, 57, 80
6, 179280, Note_off_c, 10, 53, 80
6, 179280, Note_on_c, 10, 67, 95
6, 179280, Note_on_c, 10, 59, 95
6, 179280, Note_on_c, 10, 55, 95
6, 179280, Note_on_c, 10, 50, 95
6, 179280, Note_on_c, 10, 43, 95
6, 180000, Note_off_c, 10, 67, 80
6, 180000, Note_off_c, 10, 59, 80
6, 180000, Note_off_c, 10, 55, 80
6, 180000, Note_off_c, 10, 50, 80
6, 180000, Note_off_c, 10, 43, 80
6, 180000, Note_on_c, 10, 64, 95
6, 180000, Note_on_c, 10, 60, 95
6, 180000, Note_on_c, 10, 55, 95
6, 180000, Note_on_c, 10, 52, 95
6, 180000, Note_on_c, 10, 48, 95
6, 180720, Note_off_c, 10, 64, 80
6, 180720, Note_off_c, 10, 60, 80
6, 180720, Note_off_c, 10, 55, 80
6, 180720, Note_off_c, 10, 52, 80
6, 180720, Note_off_c, 10, 48, 80
6, 180720, Note_on_c, 10, 64, 95
6, 180720, Note_on_c, 10, 60, 95
6, 180720, Note_on_c, 10, 57, 95
6, 180720, Note_on_c, 10, 52, 95
6, 180720, Note_on_c, 10, 45, 95
6, 181440, Note_off_c, 10, 64, 80
6, 181440, Note_off_c, 10, 60, 80
6, 181440, Note_off_c, 10, 57, 80
6, 181440, Note_off_c, 10, 52, 80
6, 181440, Note_off_c, 10, 45, 80
6, 181440, Note_on_c, 10, 65, 95
6, 181440, Note_on_c, 10, 62, 95
6, 181440, Note_on_c, 10, 57, 95
6, 181440, Note_on_c, 10, 50, 95
6, 182160, Note_off_c, 10, 65, 80
6, 182160, Note_off_c, 10, 62, 80
6, 182160, Note_off_c, 10, 57, 80
6, 182160, Note_off_c, 10, 50, 80
6, 182160, Note_on_c, 10, 67, 95
6, 182160, Note_on_c, 10, 59, 95
6, 182160, Note_on_c, 10, 55, 95
6, 182160, Note_on_c, 10, 50, 95
6, 182160, Note_on_c, 10, 43, 95
6, 182880, Note_off_c, 10, 67, 80
6, 182880, Note_off_c, 10, 59, 80
6, 182880, Note_off_c, 10, 55, 80
6, 182880, Note_off_c, 10, 50, 80
6, 182880, Note_off_c, 10, 43, 80
6, 182880, Note_on_c, 10, 64, 95
6, 182880, Note_on_c, 10, 60, 95
6, 182880, Note_on_c, 10, 55, 95
6, 182880, Note_on_c, 10, 52, 95
6, 182880, Note_on_c, 10, 48, 95
6, 184320, Note_off_c, 10, 64, 80
6, 184320, Note_off_c, 10, 60, 80
6, 184320, Note_off_c, 10, 55, 80
6, 184320, Note_off_c, 10, 52, 80
6, 184320, Note_off_c, 10, 48, 80
6, 184320, Note_on_c, 10, 65, 95
6, 184320, Note_on_c, 10, 60, 95
6, 184320, Note_on_c, 10, 57, 95
6, 184320, Note_on_c, 10, 53, 95
6, 185040, Note_off_c, 10, 65, 80
6, 185040, Note_off_c, 10, 60, 80
6, 185040, Note_off_c, 10, 57, 80
6, 185040, Note_off_c, 10, 53, 80
6, 185040, Note_on_c, 10, 67, 95
6, 185040, Note_on_c, 10, 59, 95
6, 185040, Note_on_c, 10, 55, 95
6, 185040, Note_on_c, 10, 50, 95
6, 185040, Note_on_c, 10, 43, 95
6, 185760, Note_off_c, 10, 67, 80
6, 185760, Note_off_c, 10, 59, 80
6, 185760, Note_off_c, 10, 55, 80
6, 185760, Note_off_c, 10, 50, 80
6, 185760, Note_off_c, 10, 43, 80
6, 185760, Note_on_c, 10, 64, 95
6, 185760, Note_on_c, 10, 60, 95
6, 185760, Note_on_c, 10, 55, 95
6, 185760, Note_on_c, 10, 52, 95
6, 185760, Note_on_c, 10, 48, 95
6, 186480, Note_off_c, 10, 64, 80
6, 186480, Note_off_c, 10, 60, 80
6, 186480, Note_off_c, 10, 55, 80
6, 186480, Note_off_c, 10, 52, 80
6, 186480, Note_off_c, 10, 48, 80
6, 186480, Note_on_c, 10, 65, 95
6, 186480, Note_on_c, 10, 60, 95
6, 186480, Note_on_c, 10, 57, 95
6, 186480, Note_on_c, 10, 53, 95
6, 187200, Note_off_c, 10, 65, 80
6, 187200, Note_off_c, 10, 60, 80
6, 187200, Note_off_c, 10, 57, 80
6, 187200, Note_off_c, 10, 53, 80
6, 187200, Note_on_c, 10, 64, 95
6, 187200, Note_on_c, 10, 60, 95
6, 187200, Note_on_c, 10, 55, 95
6, 187200, Note_on_c, 10, 52, 95
6, 187200, Note_on_c, 10, 48, 95
6, 187920, Note_off_c, 10, 64, 80
6, 187920, Note_off_c, 10, 60, 80
6, 187920, Note_off_c, 10, 55, 80
6, 187920, Note_off_c, 10, 52, 80
6, 187920, Note_off_c, 10, 48, 80
6, 187920, Note_on_c, 10, 67, 95
6, 187920, Note_on_c, 10, 59, 95
6, 187920, Note_on_c, 10, 55, 95
6, 187920, Note_on_c, 10, 50, 95
6, 187920, Note_on_c, 10, 43, 95
6, 188640, Note_off_c, 10, 67, 80
6, 188640, Note_off_c, 10, 59, 80
6, 188640, Note_off_c, 10, 55, 80
6, 188640, Note_off_c, 10, 50, 80
6, 188640, Note_off_c, 10, 43, 80
6, 188640, Note_on_c, 10, 64, 95
6, 188640, Note_on_c, 10, 60, 95
6, 188640, Note_on_c, 10, 55, 95
6, 188640, Note_on_c, 10, 52, 95
6, 188640, Note_on_c, 10, 48, 95
6, 190080, Note_off_c, 10, 64, 80
6, 190080, Note_off_c, 10, 60, 80
6, 190080, Note_off_c, 10, 55, 80
6, 190080, Note_off_c, 10, 52, 80
6, 190080, Note_off_c, 10, 48, 80
6, 190080, Note_on_c, 10, 64, 95
6, 190080, Note_on_c, 10, 60, 95
6, 190080, Note_on_c, 10, 55, 95
6, 190080, Note_on_c, 10, 52, 95
6, 190080, Note_on_c, 10, 48, 95
6, 191520, Note_off_c, 10, 64, 80
6, 191520, Note_off_c, 10, 60, 80
6, 191520, Note_off_c, 10, 55, 80
6, 191520, Note_off_c, 10, 52, 80
6, 191520, Note_off_c, 10, 48, 80
6, 191520, Note_on_c, 10, 64, 95
6, 191520, Note_on_c, 10, 60, 95
6, 191520, Note_on_c, 10, 55, 95
6, 191520, Note_on_c, 10, 52, 95
6, 191520, Note_on_c, 10, 48, 95
6, 191520, Note_on_c, 10, 43, 95
6, 192000, Note_off_c, 10, 64, 80
6, 192000, Note_off_c, 10, 60, 80
6, 192000, Note_off_c, 10, 55, 80
6, 192000, Note_off_c, 10, 52, 80
6, 192000, Note_off_c, 10, 48, 80
6, 192000, Note_off_c, 10, 43, 80
6, 192000, Note_on_c, 10, 65, 95
6, 192000, Note_on_c, 10, 60, 95
6, 192000, Note_on_c, 10, 57, 95
6, 192000, Note_on_c, 10, 53, 95
6, 192240, Note_off_c, 10, 65, 80
6, 192240, Note_off_c, 10, 60, 80
6, 192240, Note_off_c, 10, 57, 80
6, 192240, Note_off_c, 10, 53, 80
6, 192240, Note_on_c, 10, 64, 95
6, 192240, Note_on_c, 10, 60, 95
6, 192240, Note_on_c, 10, 55, 95
6, 192240, Note_on_c, 10, 52, 95
6, 192240, Note_on_c, 10, 48, 95
6, 192960, Note_off_c, 10, 64, 80
6, 192960, Note_off_c, 10, 60, 80
6, 192960, Note_off_c, 10, 55, 80
6, 192960, Note_off_c, 10, 52, 80
6, 192960, Note_off_c, 10, 48, 80
6, 192960, Note_on_c, 10, 64, 95
6, 192960, Note_on_c, 10, 60, 95
6, 192960, Note_on_c, 10, 55, 95
6, 192960, Note_on_c, 10, 52, 95
6, 192960, Note_on_c, 10, 48, 95
6, 194400, Note_off_c, 10, 64, 80
6, 194400, Note_off_c, 10, 60, 80
6, 194400, Note_off_c, 10, 55, 80
6, 194400, Note_off_c, 10, 52, 80
6, 194400, Note_off_c, 10, 48, 80
6, 194400, Note_on_c, 10, 64, 95
6, 194400, Note_on_c, 10, 60, 95
6, 194400, Note_on_c, 10, 55, 95
6, 194400, Note_on_c, 10, 52, 95
6, 194400, Note_on_c, 10, 48, 95
6, 194400, Note_on_c, 10, 43, 95
6, 194880, Note_off_c, 10, 64, 80
6, 194880, Note_off_c, 10, 60, 80
6, 194880, Note_off_c, 10, 55, 80
6, 194880, Note_off_c, 10, 52, 80
6, 194880, Note_off_c, 10, 48, 80
6, 194880, Note_off_c, 10, 43, 80
6, 194880, Note_on_c, 10, 65, 95
6, 194880, Note_on_c, 10, 60, 95
6, 194880, Note_on_c, 10, 57, 95
6, 194880, Note_on_c, 10, 53, 95
6, 195120, Note_off_c, 10, 65, 80
6, 195120, Note_off_c, 10, 60, 80
6, 195120, Note_off_c, 10, 57, 80
6, 195120, Note_off_c, 10, 53, 80
6, 195120, Note_on_c, 10, 64, 95
6, 195120, Note_on_c, 10, 60, 95
6, 195120, Note_on_c, 10, 55, 95
6, 195120, Note_on_c, 10, 52, 95
6, 195120, Note_on_c, 10, 48, 95
6, 195840, Note_off_c, 10, 64, 80
6, 195840, Note_off_c, 10, 60, 80
6, 195840, Note_off_c, 10, 55, 80
6, 195840, Note_off_c, 10, 52, 80
6, 195840, Note_off_c, 10, 48, 80
6, 195840, Note_on_c, 10, 64, 95
6, 195840, Note_on_c, 10, 60, 95
6, 195840, Note_on_c, 10, 55, 95
6, 195840, Note_on_c, 10, 52, 95
6, 195840, Note_on_c, 10, 48, 95
6, 196560, Note_off_c, 10, 64, 80
6, 196560, Note_off_c, 10, 60, 80
6, 196560, Note_off_c, 10, 55, 80
6, 196560, Note_off_c, 10, 52, 80
6, 196560, Note_off_c, 10, 48, 80
6, 196560, Note_on_c, 10, 64, 95
6, 196560, Note_on_c, 10, 59, 95
6, 196560, Note_on_c, 10, 55, 95
6, 196560, Note_on_c, 10, 52, 95
6, 196560, Note_on_c, 10, 47, 95
6, 196560, Note_on_c, 10, 40, 95
6, 197280, Note_off_c, 10, 64, 80
6, 197280, Note_off_c, 10, 59, 80
6, 197280, Note_off_c, 10, 55, 80
6, 197280, Note_off_c, 10, 52, 80
6, 197280, Note_off_c, 10, 47, 80
6, 197280, Note_off_c, 10, 40, 80
6, 197280, Note_on_c, 10, 64, 95
6, 197280, Note_on_c, 10, 60, 95
6, 197280, Note_on_c, 10, 57, 95
6, 197280, Note_on_c, 10, 52, 95
6, 197280, Note_on_c, 10, 45, 95
6, 198000, Note_off_c, 10, 64, 80
6, 198000, Note_off_c, 10, 60, 80
6, 198000, Note_off_c, 10, 57, 80
6, 198000, Note_off_c, 10, 52, 80
6, 198000, Note_off_c, 10, 45, 80
6, 198000, Note_on_c, 10, 64, 95
6, 198000, Note_on_c, 10, 60, 95
6, 198000, Note_on_c, 10, 57, 95
6, 198000, Note_on_c, 10, 52, 95
6, 198000, Note_on_c, 10, 45, 95
6, 198000, Note_on_c, 10, 43, 95
6, 198720, Note_off_c, 10, 64, 80
6, 198720, Note_off_c, 10, 60, 80
6, 198720, Note_off_c, 10, 57, 80
6, 198720, Note_off_c, 10, 52, 80
6, 198720, Note_off_c, 10, 45, 80
6, 198720, Note_off_c, 10, 43, 80
6, 198720, Note_on_c, 10, 65, 95
6, 198720, Note_on_c, 10, 62, 95
6, 198720, Note_on_c, 10, 57, 95
6, 198720, Note_on_c, 10, 50, 95
6, 199440, Note_off_c, 10, 65, 80
6, 199440, Note_off_c, 10, 62, 80
6, 199440, Note_off_c, 10, 57, 80
6, 199440, Note_off_c, 10, 50, 80
6, 199440, Note_on_c, 10, 67, 95
6, 199440, Note_on_c, 10, 59, 95
6, 199440, Note_on_c, 10, 55, 95
6, 199440, Note_on_c, 10, 50, 95
6, 199440, Note_on_c, 10, 43, 95
6, 200160, Note_off_c, 10, 67, 80
6, 200160, Note_off_c, 10, 59, 80
6, 200160, Note_off_c, 10, 55, 80
6, 200160, Note_off_c, 10, 50, 80
6, 200160, Note_off_c, 10, 43, 80
6, 200160, Note_on_c, 10, 64, 95
6, 200160, Note_on_c, 10, 60, 95
6, 200160, Note_on_c, 10, 55, 95
6, 200160, Note_on_c, 10, 52, 95
6, 200160, Note_on_c, 10, 48, 95
6, 201600, Note_off_c, 10, 64, 80
6, 201600, Note_off_c, 10, 60, 80
6, 201600, Note_off_c, 10, 55, 80
6, 201600, Note_off_c, 10, 52, 80
6, 201600, Note_off_c, 10, 48, 80
6, 201600, Note_on_c, 10, 65, 95
6, 201600, Note_on_c, 10, 60, 95
6, 201600, Note_on_c, 10, 57, 95
6, 201600, Note_on_c, 10, 53, 95
6, 202320, Note_off_c, 10, 65, 80
6, 202320, Note_off_c, 10, 60, 80
6, 202320, Note_off_c, 10, 57, 80
6, 202320, Note_off_c, 10, 53, 80
6, 202320, Note_on_c, 10, 67, 95
6, 202320, Note_on_c, 10, 59, 95
6, 202320, Note_on_c, 10, 55, 95
6, 202320, Note_on_c, 10, 50, 95
6, 202320, Note_on_c, 10, 43, 95
6, 203040, Note_off_c, 10, 67, 80
6, 203040, Note_off_c, 10, 59, 80
6, 203040, Note_off_c, 10, 55, 80
6, 203040, Note_off_c, 10, 50, 80
6, 203040, Note_off_c, 10, 43, 80
6, 203040, Note_on_c, 10, 64, 95
6, 203040, Note_on_c, 10, 60, 95
6, 203040, Note_on_c, 10, 55, 95
6, 203040, Note_on_c, 10, 52, 95
6, 203040, Note_on_c, 10, 48, 95
6, 203760, Note_off_c, 10, 64, 80
6, 203760, Note_off_c, 10, 60, 80
6, 203760, Note_off_c, 10, 55, 80
6, 203760, Note_off_c, 10, 52, 80
6, 203760, Note_off_c, 10, 48, 80
6, 203760, Note_on_c, 10, 64, 95
6, 203760, Note_on_c, 10, 60, 95
6, 203760, Note_on_c, 10, 57, 95
6, 203760, Note_on_c, 10, 52, 95
6, 203760, Note_on_c, 10, 45, 95
6, 204480, Note_off_c, 10, 64, 80
6, 204480, Note_off_c, 10, 60, 80
6, 204480, Note_off_c, 10, 57, 80
6, 204480, Note_off_c, 10, 52, 80
6, 204480, Note_off_c, 10, 45, 80
6, 204480, Note_on_c, 10, 65, 95
6, 204480, Note_on_c, 10, 62, 95
6, 204480, Note_on_c, 10, 57, 95
6, 204480, Note_on_c, 10, 50, 95
6, 205200, Note_off_c, 10, 65, 80
6, 205200, Note_off_c, 10, 62, 80
6, 205200, Note_off_c, 10, 57, 80
6, 205200, Note_off_c, 10, 50, 80
6, 205200, Note_on_c, 10, 67, 95
6, 205200, Note_on_c, 10, 59, 95
6, 205200, Note_on_c, 10, 55, 95
6, 205200, Note_on_c, 10, 50, 95
6, 205200, Note_on_c, 10, 43, 95
6, 205920, Note_off_c, 10, 67, 80
6, 205920, Note_off_c, 10, 59, 80
6, 205920, Note_off_c, 10, 55, 80
6, 205920, Note_off_c, 10, 50, 80
6, 205920, Note_off_c, 10, 43, 80
6, 205920, Note_on_c, 10, 64, 95
6, 205920, Note_on_c, 10, 60, 95
6, 205920, Note_on_c, 10, 55, 95
6, 205920, Note_on_c, 10, 52, 95
6, 205920, Note_on_c, 10, 48, 95
6, 207360, Note_off_c, 10, 64, 80
6, 207360, Note_off_c, 10, 60, 80
6, 207360, Note_off_c, 10, 55, 80
6, 207360, Note_off_c, 10, 52, 80
6, 207360, Note_off_c, 10, 48, 80
6, 207360, Note_on_c, 10, 65, 95
6, 207360, Note_on_c, 10, 60, 95
6, 207360, Note_on_c, 10, 57, 95
6, 207360, Note_on_c, 10, 53, 95
6, 208080, Note_off_c, 10, 65, 80
6, 208080, Note_off_c, 10, 60, 80
6, 208080, Note_off_c, 10, 57, 80
6, 208080, Note_off_c, 10, 53, 80
6, 208080, Note_on_c, 10, 67, 95
6, 208080, Note_on_c, 10, 59, 95
6, 208080, Note_on_c, 10, 55, 95
6, 208080, Note_on_c, 10, 50, 95
6, 208080, Note_on_c, 10, 43, 95
6, 208800, Note_off_c, 10, 67, 80
6, 208800, Note_off_c, 10, 59, 80
6, 208800, Note_off_c, 10, 55, 80
6, 208800, Note_off_c, 10, 50, 80
6, 208800, Note_off_c, 10, 43, 80
6, 208800, Note_on_c, 10, 64, 95
6, 208800, Note_on_c, 10, 60, 95
6, 208800, Note_on_c, 10, 55, 95
6, 208800, Note_on_c, 10, 52, 95
6, 208800, Note_on_c, 10, 48, 95
6, 209520, Note_off_c, 10, 64, 80
6, 209520, Note_off_c, 10, 60, 80
6, 209520, Note_off_c, 10, 55, 80
6, 209520, Note_off_c, 10, 52, 80
6, 209520, Note_off_c, 10, 48, 80
6, 209520, Note_on_c, 10, 65, 95
6, 209520, Note_on_c, 10, 60, 95
6, 209520, Note_on_c, 10, 57, 95
6, 209520, Note_on_c, 10, 53, 95
6, 210240, Note_off_c, 10, 65, 80
6, 210240, Note_off_c, 10, 60, 80
6, 210240, Note_off_c, 10, 57, 80
6, 210240, Note_off_c, 10, 53, 80
6, 210240, Note_on_c, 10, 64, 95
6, 210240, Note_on_c, 10, 60, 95
6, 210240, Note_on_c, 10, 55, 95
6, 210240, Note_on_c, 10, 52, 95
6, 210240, Note_on_c, 10, 48, 95
6, 210960, Note_off_c, 10, 64, 80
6, 210960, Note_off_c, 10, 60, 80
6, 210960, Note_off_c, 10, 55, 80
6, 210960, Note_off_c, 10, 52, 80
6, 210960, Note_off_c, 10, 48, 80
6, 210960, Note_on_c, 10, 67, 95
6, 210960, Note_on_c, 10, 59, 95
6, 210960, Note_on_c, 10, 55, 95
6, 210960, Note_on_c, 10, 50, 95
6, 210960, Note_on_c, 10, 43, 95
6, 211680, Note_off_c, 10, 67, 80
6, 211680, Note_off_c, 10, 59, 80
6, 211680, Note_off_c, 10, 55, 80
6, 211680, Note_off_c, 10, 50, 80
6, 211680, Note_off_c, 10, 43, 80
6, 211680, Note_on_c, 10, 64, 95
6, 211680, Note_on_c, 10, 60, 95
6, 211680, Note_on_c, 10, 55, 95
6, 211680, Note_on_c, 10, 52, 95
6, 211680, Note_on_c, 10, 48, 95
6, 213120, Note_off_c, 10, 64, 80
6, 213120, Note_off_c, 10, 60, 80
6, 213120, Note_off_c, 10, 55, 80
6, 213120, Note_off_c, 10, 52, 80
6, 213120, Note_off_c, 10, 48, 80
6, 213120, End_track
7, 0, Start_track
7, 0, Title_t, ""
7, 0, Control_c, 13, 100, 0
7, 0, Control_c, 13, 101, 0
7, 0, Control_c, 13, 6, 12
7, 0, Pitch_bend_c, 13, 8192
7, 0, Control_c, 13, 101, 0
7, 0, Control_c, 13, 100, 1
7, 0, Control_c, 13, 6, 64
7, 0, Control_c, 13, 38, 0
7, 0, Control_c, 13, 101, 127
7, 0, Control_c, 13, 100, 127
7, 0, Control_c, 12, 100, 0
7, 0, Control_c, 12, 101, 0
7, 0, Control_c, 12, 6, 12
7, 0, Pitch_bend_c, 12, 8192
7, 0, Control_c, 12, 101, 0
7, 0, Control_c, 12, 100, 1
7, 0, Control_c, 12, 6, 64
7, 0, Control_c, 12, 38, 0
7, 0, Control_c, 12, 101, 127
7, 0, Control_c, 12, 100, 127
7, 0, Control_c, 13, 101, 0
7, 0, Control_c, 13, 100, 2
7, 0, Control_c, 13, 6, 64
7, 0, Control_c, 13, 101, 127
7, 0, Control_c, 13, 100, 127
7, 0, Control_c, 12, 101, 0
7, 0, Control_c, 12, 100, 2
7, 0, Control_c, 12, 6, 64
7, 0, Control_c, 12, 101, 127
7, 0, Control_c, 12, 100, 127
7, 0, Program_c, 13, 78
7, 0, Program_c, 12, 78
7, 0, Control_c, 13, 0, 0
7, 0, Control_c, 12, 0, 0
7, 0, Control_c, 13, 7, 127
7, 0, Control_c, 12, 7, 127
7, 0, Control_c, 13, 10, 64
7, 0, Control_c, 12, 10, 64
7, 0, Control_c, 13, 93, 0
7, 0, Control_c, 12, 93, 0
7, 0, Control_c, 13, 91, 0
7, 0, Control_c, 12, 91, 0
7, 0, Control_c, 13, 92, 0
7, 0, Control_c, 12, 92, 0
7, 0, Control_c, 13, 95, 0
7, 0, Control_c, 12, 95, 0
7, 28800, Note_on_c, 12, 72, 95
7, 29040, Note_off_c, 12, 72, 80
7, 29280, Note_on_c, 12, 72, 95
7, 29520, Note_off_c, 12, 72, 80
7, 29520, Note_on_c, 12, 76, 95
7, 30000, Note_off_c, 12, 76, 80
7, 30000, Note_on_c, 12, 77, 95
7, 30240, Note_off_c, 12, 77, 80
7, 30240, Note_on_c, 12, 79, 95
7, 30480, Note_off_c, 12, 79, 80
7, 30720, Note_on_c, 12, 81, 95
7, 30960, Note_off_c, 12, 81, 80
7, 30960, Note_on_c, 12, 79, 95
7, 31080, Note_off_c, 12, 79, 80
7, 31080, Note_on_c, 12, 81, 76
7, 31200, Note_off_c, 12, 81, 80
7, 31200, Note_on_c, 12, 79, 76
7, 31320, Note_off_c, 12, 79, 80
7, 31320, Note_on_c, 12, 77, 95
7, 31440, Note_off_c, 12, 77, 80
7, 31440, Note_on_c, 12, 76, 76
7, 31560, Note_off_c, 12, 76, 80
7, 31560, Note_on_c, 12, 74, 76
7, 31680, Note_off_c, 12, 74, 80
7, 31680, Note_on_c, 12, 72, 95
7, 31920, Note_off_c, 12, 72, 80
7, 32160, Note_on_c, 12, 72, 95
7, 32400, Note_off_c, 12, 72, 80
7, 32400, Note_on_c, 12, 76, 95
7, 32880, Note_off_c, 12, 76, 80
7, 32880, Note_on_c, 12, 77, 95
7, 33120, Note_off_c, 12, 77, 80
7, 33120, Note_on_c, 12, 79, 95
7, 33360, Note_off_c, 12, 79, 80
7, 33600, Note_on_c, 12, 81, 95
7, 33840, Note_off_c, 12, 81, 80
7, 33840, Note_on_c, 12, 79, 95
7, 34320, Note_off_c, 12, 79, 80
7, 34560, Note_on_c, 12, 79, 95
7, 34800, Note_off_c, 12, 79, 80
7, 35040, Note_on_c, 12, 81, 95
7, 35280, Note_off_c, 12, 81, 80
7, 35280, Note_on_c, 12, 79, 95
7, 35760, Note_off_c, 12, 79, 80
7, 35760, Note_on_c, 12, 77, 95
7, 36000, Note_off_c, 12, 77, 80
7, 36000, Note_on_c, 12, 76, 95
7, 36480, Note_off_c, 12, 76, 80
7, 36480, Note_on_c, 12, 74, 95
7, 36560, Note_off_c, 12, 74, 80
7, 36560, Note_on_c, 12, 76, 76
7, 36640, Note_off_c, 12, 76, 80
7, 36640, Note_on_c, 12, 74, 76
7, 36720, Note_off_c, 12, 74, 80
7, 36720, Note_on_c, 12, 72, 95
7, 37200, Note_off_c, 12, 72, 80
7, 37440, Note_on_c, 12, 74, 95
7, 38160, Note_off_c, 12, 74, 80
7, 38160, Note_on_c, 12, 76, 95
7, 38640, Note_off_c, 12, 76, 80
7, 38640, Note_on_c, 12, 74, 95
7, 38720, Note_off_c, 12, 74, 80
7, 38720, Note_on_c, 12, 76, 76
7, 38800, Note_off_c, 12, 76, 80
7, 38800, Note_on_c, 12, 74, 76
7, 38880, Note_off_c, 12, 74, 80
7, 38880, Note_on_c, 12, 72, 95
7, 39360, Note_off_c, 12, 72, 80
7, 39360, Note_on_c, 12, 74, 95
7, 39600, Note_off_c, 12, 74, 80
7, 39600, Note_on_c, 12, 76, 95
7, 40080, Note_off_c, 12, 76, 80
7, 40080, Note_on_c, 12, 77, 95
7, 40320, Note_off_c, 12, 77, 80
7, 40320, Note_on_c, 12, 79, 95
7, 40800, Note_off_c, 12, 79, 80
7, 40800, Note_on_c, 12, 81, 95
7, 41040, Note_off_c, 12, 81, 80
7, 41040, Note_on_c, 12, 79, 95
7, 41520, Note_off_c, 12, 79, 80
7, 41520, Note_on_c, 12, 77, 95
7, 41760, Note_off_c, 12, 77, 80
7, 41760, Note_on_c, 12, 76, 95
7, 42480, Note_off_c, 12, 76, 80
7, 42480, Note_on_c, 12, 72, 95
7, 42960, Note_off_c, 12, 72, 80
7, 43200, Note_on_c, 12, 74, 95
7, 43440, Note_off_c, 12, 74, 80
7, 43680, Note_on_c, 12, 74, 95
7, 43920, Note_off_c, 12, 74, 80
7, 43920, Note_on_c, 12, 76, 95
7, 44400, Note_off_c, 12, 76, 80
7, 44400, Note_on_c, 12, 74, 95
7, 44480, Note_off_c, 12, 74, 80
7, 44480, Note_on_c, 12, 76, 76
7, 44560, Note_off_c, 12, 76, 80
7, 44560, Note_on_c, 12, 74, 76
7, 44640, Note_off_c, 12, 74, 80
7, 44640, Note_on_c, 12, 72, 95
7, 45120, Note_off_c, 12, 72, 80
7, 45120, Note_on_c, 12, 74, 95
7, 45360, Note_off_c, 12, 74, 80
7, 45360, Note_on_c, 12, 76, 95
7, 45600, Note_off_c, 12, 76, 80
7, 45600, Note_on_c, 12, 74, 95
7, 45840, Note_off_c, 12, 74, 80
7, 45840, Note_on_c, 12, 72, 95
7, 46080, Note_off_c, 12, 72, 80
7, 46080, Note_on_c, 12, 69, 95
7, 46800, Note_off_c, 12, 69, 80
7, 46800, Note_on_c, 12, 71, 95
7, 47520, Note_off_c, 12, 71, 80
7, 47520, Note_on_c, 12, 72, 95
7, 48000, Note_off_c, 12, 72, 80
7, 48240, Note_on_c, 12, 79, 95
7, 48720, Note_off_c, 12, 79, 80
7, 48720, Note_on_c, 12, 77, 95
7, 48960, Note_off_c, 12, 77, 80
7, 48960, Note_on_c, 12, 76, 95
7, 49320, Note_off_c, 12, 76, 80
7, 49320, Note_on_c, 12, 77, 95
7, 49440, Note_off_c, 12, 77, 80
7, 49440, Note_on_c, 12, 76, 95
7, 49680, Note_off_c, 12, 76, 80
7, 49680, Note_on_c, 12, 74, 95
7, 50160, Note_off_c, 12, 74, 80
7, 50160, Note_on_c, 12, 74, 95
7, 50400, Note_off_c, 12, 74, 80
7, 50400, Note_on_c, 12, 72, 95
7, 51120, Note_off_c, 12, 72, 80
7, 51600, Note_on_c, 12, 74, 95
7, 51680, Note_off_c, 12, 74, 80
7, 51680, Note_on_c, 12, 72, 76
7, 51760, Note_off_c, 12, 72, 80
7, 51760, Note_on_c, 12, 74, 76
7, 51840, Note_off_c, 12, 74, 80
7, 51840, Note_on_c, 12, 72, 95
7, 52080, Note_off_c, 12, 72, 80
7, 52320, Note_on_c, 12, 72, 95
7, 52560, Note_off_c, 12, 72, 80
7, 52560, Note_on_c, 12, 76, 95
7, 53040, Note_off_c, 12, 76, 80
7, 53040, Note_on_c, 12, 77, 95
7, 53280, Note_off_c, 12, 77, 80
7, 53280, Note_on_c, 12, 79, 95
7, 53520, Note_off_c, 12, 79, 80
7, 53760, Note_on_c, 12, 81, 95
7, 54000, Note_off_c, 12, 81, 80
7, 54000, Note_on_c, 12, 79, 95
7, 54120, Note_off_c, 12, 79, 80
7, 54120, Note_on_c, 12, 81, 76
7, 54240, Note_off_c, 12, 81, 80
7, 54240, Note_on_c, 12, 79, 76
7, 54360, Note_off_c, 12, 79, 80
7, 54360, Note_on_c, 12, 77, 95
7, 54480, Note_off_c, 12, 77, 80
7, 54480, Note_on_c, 12, 76, 76
7, 54600, Note_off_c, 12, 76, 80
7, 54600, Note_on_c, 12, 74, 76
7, 54720, Note_off_c, 12, 74, 80
7, 54720, Note_on_c, 12, 72, 95
7, 54960, Note_off_c, 12, 72, 80
7, 55200, Note_on_c, 12, 72, 95
7, 55440, Note_off_c, 12, 72, 80
7, 55440, Note_on_c, 12, 76, 95
7, 55920, Note_off_c, 12, 76, 80
7, 55920, Note_on_c, 12, 77, 95
7, 56160, Note_off_c, 12, 77, 80
7, 56160, Note_on_c, 12, 79, 95
7, 56400, Note_off_c, 12, 79, 80
7, 56640, Note_on_c, 12, 81, 95
7, 56880, Note_off_c, 12, 81, 80
7, 56880, Note_on_c, 12, 79, 95
7, 57360, Note_off_c, 12, 79, 80
7, 57600, Note_on_c, 12, 79, 95
7, 57840, Note_off_c, 12, 79, 80
7, 58080, Note_on_c, 12, 81, 95
7, 58320, Note_off_c, 12, 81, 80
7, 58320, Note_on_c, 12, 79, 95
7, 58800, Note_off_c, 12, 79, 80
7, 58800, Note_on_c, 12, 77, 95
7, 59040, Note_off_c, 12, 77, 80
7, 59040, Note_on_c, 12, 76, 95
7, 59520, Note_off_c, 12, 76, 80
7, 59520, Note_on_c, 12, 74, 95
7, 59600, Note_off_c, 12, 74, 80
7, 59600, Note_on_c, 12, 76, 76
7, 59680, Note_off_c, 12, 76, 80
7, 59680, Note_on_c, 12, 74, 76
7, 59760, Note_off_c, 12, 74, 80
7, 59760, Note_on_c, 12, 72, 95
7, 60240, Note_off_c, 12, 72, 80
7, 60480, Note_on_c, 12, 74, 95
7, 61200, Note_off_c, 12, 74, 80
7, 61200, Note_on_c, 12, 76, 95
7, 61680, Note_off_c, 12, 76, 80
7, 61680, Note_on_c, 12, 74, 95
7, 61760, Note_off_c, 12, 74, 80
7, 61760, Note_on_c, 12, 76, 76
7, 61840, Note_off_c, 12, 76, 80
7, 61840, Note_on_c, 12, 74, 76
7, 61920, Note_off_c, 12, 74, 80
7, 61920, Note_on_c, 12, 72, 95
7, 62400, Note_off_c, 12, 72, 80
7, 62400, Note_on_c, 12, 74, 95
7, 62640, Note_off_c, 12, 74, 80
7, 62640, Note_on_c, 12, 76, 95
7, 63120, Note_off_c, 12, 76, 80
7, 63120, Note_on_c, 12, 77, 95
7, 63360, Note_off_c, 12, 77, 80
7, 63360, Note_on_c, 12, 79, 95
7, 63840, Note_off_c, 12, 79, 80
7, 63840, Note_on_c, 12, 81, 95
7, 64080, Note_off_c, 12, 81, 80
7, 64080, Note_on_c, 12, 79, 95
7, 64560, Note_off_c, 12, 79, 80
7, 64560, Note_on_c, 12, 77, 95
7, 64800, Note_off_c, 12, 77, 80
7, 64800, Note_on_c, 12, 76, 95
7, 65520, Note_off_c, 12, 76, 80
7, 65520, Note_on_c, 12, 72, 95
7, 66000, Note_off_c, 12, 72, 80
7, 66240, Note_on_c, 12, 74, 95
7, 66480, Note_off_c, 12, 74, 80
7, 66720, Note_on_c, 12, 74, 95
7, 66960, Note_off_c, 12, 74, 80
7, 66960, Note_on_c, 12, 76, 95
7, 67440, Note_off_c, 12, 76, 80
7, 67440, Note_on_c, 12, 74, 95
7, 67520, Note_off_c, 12, 74, 80
7, 67520, Note_on_c, 12, 76, 76
7, 67600, Note_off_c, 12, 76, 80
7, 67600, Note_on_c, 12, 74, 76
7, 67680, Note_off_c, 12, 74, 80
7, 67680, Note_on_c, 12, 72, 95
7, 68160, Note_off_c, 12, 72, 80
7, 68160, Note_on_c, 12, 74, 95
7, 68400, Note_off_c, 12, 74, 80
7, 68400, Note_on_c, 12, 76, 95
7, 68640, Note_off_c, 12, 76, 80
7, 68640, Note_on_c, 12, 74, 95
7, 68880, Note_off_c, 12, 74, 80
7, 68880, Note_on_c, 12, 72, 95
7, 69120, Note_off_c, 12, 72, 80
7, 69120, Note_on_c, 12, 69, 95
7, 69840, Note_off_c, 12, 69, 80
7, 69840, Note_on_c, 12, 71, 95
7, 70560, Note_off_c, 12, 71, 80
7, 70560, Note_on_c, 12, 72, 95
7, 71040, Note_off_c, 12, 72, 80
7, 71280, Note_on_c, 12, 79, 95
7, 71760, Note_off_c, 12, 79, 80
7, 71760, Note_on_c, 12, 77, 95
7, 72000, Note_off_c, 12, 77, 80
7, 72000, Note_on_c, 12, 76, 95
7, 72360, Note_off_c, 12, 76, 80
7, 72360, Note_on_c, 12, 77, 95
7, 72480, Note_off_c, 12, 77, 80
7, 72480, Note_on_c, 12, 76, 95
7, 72720, Note_off_c, 12, 76, 80
7, 72720, Note_on_c, 12, 74, 95
7, 73200, Note_off_c, 12, 74, 80
7, 73200, Note_on_c, 12, 74, 95
7, 73440, Note_off_c, 12, 74, 80
7, 73440, Note_on_c, 12, 72, 95
7, 74160, Note_off_c, 12, 72, 80
7, 74640, Note_on_c, 12, 74, 95
7, 74720, Note_off_c, 12, 74, 80
7, 74720, Note_on_c, 12, 72, 76
7, 74800, Note_off_c, 12, 72, 80
7, 74800, Note_on_c, 12, 74, 76
7, 74880, Note_off_c, 12, 74, 80
7, 74880, Note_on_c, 12, 72, 95
7, 75120, Note_off_c, 12, 72, 80
7, 75360, Note_on_c, 12, 72, 95
7, 75600, Note_off_c, 12, 72, 80
7, 75600, Note_on_c, 12, 76, 95
7, 76080, Note_off_c, 12, 76, 80
7, 76080, Note_on_c, 12, 77, 95
7, 76320, Note_off_c, 12, 77, 80
7, 76320, Note_on_c, 12, 79, 95
7, 76560, Note_off_c, 12, 79, 80
7, 76800, Note_on_c, 12, 81, 95
7, 77040, Note_off_c, 12, 81, 80
7, 77040, Note_on_c, 12, 79, 95
7, 77160, Note_off_c, 12, 79, 80
7, 77160, Note_on_c, 12, 81, 76
7, 77280, Note_off_c, 12, 81, 80
7, 77280, Note_on_c, 12, 79, 76
7, 77400, Note_off_c, 12, 79, 80
7, 77400, Note_on_c, 12, 77, 95
7, 77520, Note_off_c, 12, 77, 80
7, 77520, Note_on_c, 12, 76, 76
7, 77640, Note_off_c, 12, 76, 80
7, 77640, Note_on_c, 12, 74, 76
7, 77760, Note_off_c, 12, 74, 80
7, 77760, Note_on_c, 12, 72, 95
7, 78000, Note_off_c, 12, 72, 80
7, 78240, Note_on_c, 12, 72, 95
7, 78480, Note_off_c, 12, 72, 80
7, 78480, Note_on_c, 12, 76, 95
7, 78960, Note_off_c, 12, 76, 80
7, 78960, Note_on_c, 12, 77, 95
7, 79200, Note_off_c, 12, 77, 80
7, 79200, Note_on_c, 12, 79, 95
7, 79440, Note_off_c, 12, 79, 80
7, 79680, Note_on_c, 12, 81, 95
7, 79920, Note_off_c, 12, 81, 80
7, 79920, Note_on_c, 12, 79, 95
7, 80400, Note_off_c, 12, 79, 80
7, 80640, Note_on_c, 12, 79, 95
7, 80880, Note_off_c, 12, 79, 80
7, 81120, Note_on_c, 12, 81, 95
7, 81360, Note_off_c, 12, 81, 80
7, 81360, Note_on_c, 12, 79, 95
7, 81840, Note_off_c, 12, 79, 80
7, 81840, Note_on_c, 12, 77, 95
7, 82080, Note_off_c, 12, 77, 80
7, 82080, Note_on_c, 12, 76, 95
7, 82560, Note_off_c, 12, 76, 80
7, 82560, Note_on_c, 12, 74, 95
7, 82640, Note_off_c, 12, 74, 80
7, 82640, Note_on_c, 12, 76, 76
7, 82720, Note_off_c, 12, 76, 80
7, 82720, Note_on_c, 12, 74, 76
7, 82800, Note_off_c, 12, 74, 80
7, 82800, Note_on_c, 12, 72, 95
7, 83280, Note_off_c, 12, 72, 80
7, 83520, Note_on_c, 12, 74, 95
7, 84240, Note_off_c, 12, 74, 80
7, 84240, Note_on_c, 12, 76, 95
7, 84720, Note_off_c, 12, 76, 80
7, 84720, Note_on_c, 12, 74, 95
7, 84800, Note_off_c, 12, 74, 80
7, 84800, Note_on_c, 12, 76, 76
7, 84880, Note_off_c, 12, 76, 80
7, 84880, Note_on_c, 12, 74, 76
7, 84960, Note_off_c, 12, 74, 80
7, 84960, Note_on_c, 12, 72, 95
7, 85440, Note_off_c, 12, 72, 80
7, 85440, Note_on_c, 12, 74, 95
7, 85680, Note_off_c, 12, 74, 80
7, 85680, Note_on_c, 12, 76, 95
7, 86160, Note_off_c, 12, 76, 80
7, 86160, Note_on_c, 12, 77, 95
7, 86400, Note_off_c, 12, 77, 80
7, 86400, Note_on_c, 12, 79, 95
7, 86880, Note_off_c, 12, 79, 80
7, 86880, Note_on_c, 12, 81, 95
7, 87120, Note_off_c, 12, 81, 80
7, 87120, Note_on_c, 12, 79, 95
7, 87600, Note_off_c, 12, 79, 80
7, 87600, Note_on_c, 12, 77, 95
7, 87840, Note_off_c, 12, 77, 80
7, 87840, Note_on_c, 12, 76, 95
7, 88560, Note_off_c, 12, 76, 80
7, 88560, Note_on_c, 12, 72, 95
7, 89040, Note_off_c, 12, 72, 80
7, 89280, Note_on_c, 12, 74, 95
7, 89520, Note_off_c, 12, 74, 80
7, 89760, Note_on_c, 12, 74, 95
7, 90000, Note_off_c, 12, 74, 80
7, 90000, Note_on_c, 12, 76, 95
7, 90480, Note_off_c, 12, 76, 80
7, 90480, Note_on_c, 12, 74, 95
7, 90560, Note_off_c, 12, 74, 80
7, 90560, Note_on_c, 12, 76, 76
7, 90640, Note_off_c, 12, 76, 80
7, 90640, Note_on_c, 12, 74, 76
7, 90720, Note_off_c, 12, 74, 80
7, 90720, Note_on_c, 12, 72, 95
7, 91200, Note_off_c, 12, 72, 80
7, 91200, Note_on_c, 12, 74, 95
7, 91440, Note_off_c, 12, 74, 80
7, 91440, Note_on_c, 12, 76, 95
7, 91680, Note_off_c, 12, 76, 80
7, 91680, Note_on_c, 12, 74, 95
7, 91920, Note_off_c, 12, 74, 80
7, 91920, Note_on_c, 12, 72, 95
7, 92160, Note_off_c, 12, 72, 80
7, 92160, Note_on_c, 12, 69, 95
7, 92880, Note_off_c, 12, 69, 80
7, 92880, Note_on_c, 12, 71, 95
7, 93600, Note_off_c, 12, 71, 80
7, 93600, Note_on_c, 12, 72, 95
7, 94080, Note_off_c, 12, 72, 80
7, 94320, Note_on_c, 12, 79, 95
7, 94800, Note_off_c, 12, 79, 80
7, 94800, Note_on_c, 12, 77, 95
7, 95040, Note_off_c, 12, 77, 80
7, 95040, Note_on_c, 12, 76, 95
7, 95280, Note_off_c, 12, 76, 80
7, 95280, Note_on_c, 12, 77, 95
7, 95520, Note_off_c, 12, 77, 80
7, 95520, Note_on_c, 12, 76, 95
7, 95760, Note_off_c, 12, 76, 80
7, 95760, Note_on_c, 12, 74, 95
7, 96120, Note_off_c, 12, 74, 80
7, 96120, Note_on_c, 12, 72, 95
7, 96240, Note_off_c, 12, 72, 80
7, 96240, Note_on_c, 12, 74, 95
7, 96480, Note_off_c, 12, 74, 80
7, 96480, Note_on_c, 12, 72, 95
7, 97920, Note_off_c, 12, 72, 80
7, 167040, Note_on_c, 12, 72, 95
7, 167280, Note_off_c, 12, 72, 80
7, 167520, Note_on_c, 12, 72, 95
7, 167760, Note_off_c, 12, 72, 80
7, 167760, Note_on_c, 12, 76, 95
7, 168240, Note_off_c, 12, 76, 80
7, 168240, Note_on_c, 12, 77, 95
7, 168480, Note_off_c, 12, 77, 80
7, 168480, Note_on_c, 12, 79, 95
7, 168720, Note_off_c, 12, 79, 80
7, 168960, Note_on_c, 12, 81, 95
7, 169200, Note_off_c, 12, 81, 80
7, 169200, Note_on_c, 12, 79, 95
7, 169320, Note_off_c, 12, 79, 80
7, 169320, Note_on_c, 12, 81, 76
7, 169440, Note_off_c, 12, 81, 80
7, 169440, Note_on_c, 12, 79, 76
7, 169560, Note_off_c, 12, 79, 80
7, 169560, Note_on_c, 12, 77, 95
7, 169680, Note_off_c, 12, 77, 80
7, 169680, Note_on_c, 12, 76, 76
7, 169800, Note_off_c, 12, 76, 80
7, 169800, Note_on_c, 12, 74, 76
7, 169920, Note_off_c, 12, 74, 80
7, 169920, Note_on_c, 12, 72, 95
7, 170160, Note_off_c, 12, 72, 80
7, 170400, Note_on_c, 12, 72, 95
7, 170640, Note_off_c, 12, 72, 80
7, 170640, Note_on_c, 12, 76, 95
7, 171120, Note_off_c, 12, 76, 80
7, 171120, Note_on_c, 12, 77, 95
7, 171360, Note_off_c, 12, 77, 80
7, 171360, Note_on_c, 12, 79, 95
7, 171600, Note_off_c, 12, 79, 80
7, 171840, Note_on_c, 12, 81, 95
7, 172080, Note_off_c, 12, 81, 80
7, 172080, Note_on_c, 12, 79, 95
7, 172560, Note_off_c, 12, 79, 80
7, 172800, Note_on_c, 12, 79, 95
7, 173040, Note_off_c, 12, 79, 80
7, 173280, Note_on_c, 12, 81, 95
7, 173520, Note_off_c, 12, 81, 80
7, 173520, Note_on_c, 12, 79, 95
7, 174000, Note_off_c, 12, 79, 80
7, 174000, Note_on_c, 12, 77, 95
7, 174240, Note_off_c, 12, 77, 80
7, 174240, Note_on_c, 12, 76, 95
7, 174720, Note_off_c, 12, 76, 80
7, 174720, Note_on_c, 12, 74, 95
7, 174800, Note_off_c, 12, 74, 80
7, 174800, Note_on_c, 12, 76, 76
7, 174880, Note_off_c, 12, 76, 80
7, 174880, Note_on_c, 12, 74, 76
7, 174960, Note_off_c, 12, 74, 80
7, 174960, Note_on_c, 12, 72, 95
7, 175440, Note_off_c, 12, 72, 80
7, 175680, Note_on_c, 12, 74, 95
7, 176400, Note_off_c, 12, 74, 80
7, 176400, Note_on_c, 12, 76, 95
7, 176880, Note_off_c, 12, 76, 80
7, 176880, Note_on_c, 12, 74, 95
7, 176960, Note_off_c, 12, 74, 80
7, 176960, Note_on_c, 12, 76, 76
7, 177040, Note_off_c, 12, 76, 80
7, 177040, Note_on_c, 12, 74, 76
7, 177120, Note_off_c, 12, 74, 80
7, 177120, Note_on_c, 12, 72, 95
7, 177600, Note_off_c, 12, 72, 80
7, 177600, Note_on_c, 12, 74, 95
7, 177840, Note_off_c, 12, 74, 80
7, 177840, Note_on_c, 12, 76, 95
7, 178320, Note_off_c, 12, 76, 80
7, 178320, Note_on_c, 12, 77, 95
7, 178560, Note_off_c, 12, 77, 80
7, 178560, Note_on_c, 12, 79, 95
7, 178800, Note_off_c, 12, 79, 80
7, 178800, Note_on_c, 12, 79, 95
7, 179040, Note_off_c, 12, 79, 80
7, 179040, Note_on_c, 12, 81, 95
7, 179280, Note_off_c, 12, 81, 80
7, 179280, Note_on_c, 12, 79, 95
7, 179520, Note_off_c, 12, 79, 80
7, 179760, Note_on_c, 12, 77, 95
7, 180000, Note_off_c, 12, 77, 80
7, 180000, Note_on_c, 12, 76, 95
7, 180480, Note_off_c, 12, 76, 80
7, 180480, Note_on_c, 12, 74, 95
7, 180560, Note_off_c, 12, 74, 80
7, 180560, Note_on_c, 12, 76, 76
7, 180640, Note_off_c, 12, 76, 80
7, 180640, Note_on_c, 12, 74, 76
7, 180720, Note_off_c, 12, 74, 80
7, 180720, Note_on_c, 12, 72, 95
7, 180960, Note_off_c, 12, 72, 80
7, 181440, Note_on_c, 12, 74, 95
7, 181680, Note_off_c, 12, 74, 80
7, 181920, Note_on_c, 12, 74, 95
7, 182160, Note_off_c, 12, 74, 80
7, 182160, Note_on_c, 12, 76, 95
7, 182640, Note_off_c, 12, 76, 80
7, 182640, Note_on_c, 12, 74, 95
7, 182720, Note_off_c, 12, 74, 80
7, 182720, Note_on_c, 12, 76, 76
7, 182800, Note_off_c, 12, 76, 80
7, 182800, Note_on_c, 12, 74, 76
7, 182880, Note_off_c, 12, 74, 80
7, 182880, Note_on_c, 12, 72, 95
7, 183360, Note_off_c, 12, 72, 80
7, 183360, Note_on_c, 12, 74, 95
7, 183600, Note_off_c, 12, 74, 80
7, 183600, Note_on_c, 12, 76, 95
7, 183840, Note_off_c, 12, 76, 80
7, 183840, Note_on_c, 12, 74, 95
7, 184080, Note_off_c, 12, 74, 80
7, 184080, Note_on_c, 12, 72, 95
7, 184320, Note_off_c, 12, 72, 80
7, 184320, Note_on_c, 12, 69, 95
7, 185040, Note_off_c, 12, 69, 80
7, 185040, Note_on_c, 12, 71, 95
7, 185760, Note_off_c, 12, 71, 80
7, 185760, Note_on_c, 12, 72, 95
7, 186240, Note_off_c, 12, 72, 80
7, 186240, Note_on_c, 12, 72, 95
7, 186480, Note_off_c, 12, 72, 80
7, 186480, Note_on_c, 12, 79, 95
7, 186720, Note_off_c, 12, 79, 80
7, 186960, Note_on_c, 12, 77, 95
7, 187200, Note_off_c, 12, 77, 80
7, 187200, Note_on_c, 12, 76, 95
7, 187440, Note_off_c, 12, 76, 80
7, 187680, Note_on_c, 12, 76, 95
7, 187920, Note_off_c, 12, 76, 80
7, 187920, Note_on_c, 12, 74, 95
7, 188160, Note_off_c, 12, 74, 80
7, 188400, Note_on_c, 12, 74, 95
7, 188640, Note_off_c, 12, 74, 80
7, 188640, Note_on_c, 12, 72, 95
7, 189840, Note_off_c, 12, 72, 80
7, 195840, Note_on_c, 12, 76, 95
7, 196080, Note_off_c, 12, 76, 80
7, 196080, Note_on_c, 12, 77, 95
7, 196320, Note_off_c, 12, 77, 80
7, 196320, Note_on_c, 12, 76, 95
7, 196560, Note_off_c, 12, 76, 80
7, 196560, Note_on_c, 12, 74, 95
7, 197040, Note_off_c, 12, 74, 80
7, 197040, Note_on_c, 12, 76, 95
7, 197280, Note_off_c, 12, 76, 80
7, 197280, Note_on_c, 12, 72, 95
7, 197520, Note_off_c, 12, 72, 80
7, 197520, Note_on_c, 12, 71, 95
7, 197760, Note_off_c, 12, 71, 80
7, 197760, Note_on_c, 12, 72, 95
7, 198000, Note_off_c, 12, 72, 80
7, 198000, Note_on_c, 12, 69, 95
7, 198240, Note_off_c, 12, 69, 80
7, 198240, Note_on_c, 12, 71, 95
7, 198480, Note_off_c, 12, 71, 80
7, 198480, Note_on_c, 12, 72, 95
7, 198720, Note_off_c, 12, 72, 80
7, 198720, Note_on_c, 12, 74, 95
7, 198960, Note_off_c, 12, 74, 80
7, 198960, Note_on_c, 12, 76, 95
7, 199200, Note_off_c, 12, 76, 80
7, 199200, Note_on_c, 12, 77, 95
7, 199440, Note_off_c, 12, 77, 80
7, 199440, Note_on_c, 12, 67, 95
7, 199680, Note_off_c, 12, 67, 80
7, 199680, Note_on_c, 12, 69, 95
7, 199920, Note_off_c, 12, 69, 80
7, 199920, Note_on_c, 12, 71, 95
7, 200160, Note_off_c, 12, 71, 80
7, 200160, Note_on_c, 12, 72, 95
7, 200400, Note_off_c, 12, 72, 80
7, 200400, Note_on_c, 12, 74, 95
7, 200640, Note_off_c, 12, 74, 80
7, 200640, Note_on_c, 12, 76, 95
7, 200880, Note_off_c, 12, 76, 80
7, 200880, Note_on_c, 12, 79, 95
7, 201120, Note_off_c, 12, 79, 80
7, 201120, Note_on_c, 12, 77, 95
7, 201360, Note_off_c, 12, 77, 80
7, 201360, Note_on_c, 12, 76, 95
7, 201600, Note_off_c, 12, 76, 80
7, 201600, Note_on_c, 12, 77, 95
7, 201840, Note_off_c, 12, 77, 80
7, 201840, Note_on_c, 12, 76, 95
7, 202080, Note_off_c, 12, 76, 80
7, 202080, Note_on_c, 12, 77, 95
7, 202320, Note_off_c, 12, 77, 80
7, 202320, Note_on_c, 12, 74, 95
7, 202560, Note_off_c, 12, 74, 80
7, 202560, Note_on_c, 12, 79, 95
7, 202800, Note_off_c, 12, 79, 80
7, 202800, Note_on_c, 12, 77, 95
7, 203040, Note_off_c, 12, 77, 80
7, 203040, Note_on_c, 12, 76, 95
7, 203280, Note_off_c, 12, 76, 80
7, 203280, Note_on_c, 12, 77, 95
7, 203520, Note_off_c, 12, 77, 80
7, 203520, Note_on_c, 12, 79, 95
7, 203760, Note_off_c, 12, 79, 80
7, 203760, Note_on_c, 12, 72, 95
7, 204000, Note_off_c, 12, 72, 80
7, 204000, Note_on_c, 12, 74, 95
7, 204240, Note_off_c, 12, 74, 80
7, 204240, Note_on_c, 12, 76, 95
7, 204480, Note_off_c, 12, 76, 80
7, 204480, Note_on_c, 12, 77, 95
7, 204720, Note_off_c, 12, 77, 80
7, 204720, Note_on_c, 12, 76, 95
7, 204960, Note_off_c, 12, 76, 80
7, 204960, Note_on_c, 12, 77, 95
7, 205200, Note_off_c, 12, 77, 80
7, 205200, Note_on_c, 12, 74, 95
7, 205440, Note_off_c, 12, 74, 80
7, 205440, Note_on_c, 12, 79, 95
7, 205680, Note_off_c, 12, 79, 80
7, 205680, Note_on_c, 12, 77, 95
7, 205920, Note_off_c, 12, 77, 80
7, 205920, Note_on_c, 12, 76, 95
7, 206160, Note_off_c, 12, 76, 80
7, 206160, Note_on_c, 12, 77, 95
7, 206400, Note_off_c, 12, 77, 80
7, 206400, Note_on_c, 12, 79, 95
7, 206640, Note_off_c, 12, 79, 80
7, 206640, Note_on_c, 12, 72, 95
7, 206880, Note_off_c, 12, 72, 80
7, 206880, Note_on_c, 12, 71, 95
7, 207120, Note_off_c, 12, 71, 80
7, 207120, Note_on_c, 12, 72, 95
7, 207360, Note_off_c, 12, 72, 80
7, 207360, Note_on_c, 12, 69, 95
7, 207600, Note_off_c, 12, 69, 80
7, 207600, Note_on_c, 12, 67, 95
7, 207840, Note_off_c, 12, 67, 80
7, 207840, Note_on_c, 12, 65, 95
7, 208080, Note_off_c, 12, 65, 80
7, 208080, Note_on_c, 12, 67, 95
7, 208320, Note_off_c, 12, 67, 80
7, 208320, Note_on_c, 12, 69, 95
7, 208560, Note_off_c, 12, 69, 80
7, 208560, Note_on_c, 12, 71, 95
7, 208800, Note_off_c, 12, 71, 80
7, 208800, Note_on_c, 12, 72, 95
7, 209040, Note_off_c, 12, 72, 80
7, 209040, Note_on_c, 12, 74, 95
7, 209280, Note_off_c, 12, 74, 80
7, 209280, Note_on_c, 12, 76, 95
7, 209520, Note_off_c, 12, 76, 80
7, 209520, Note_on_c, 12, 79, 95
7, 209760, Note_off_c, 12, 79, 80
7, 209760, Note_on_c, 12, 77, 95
7, 210000, Note_off_c, 12, 77, 80
7, 210000, Note_on_c, 12, 76, 95
7, 210240, Note_off_c, 12, 76, 80
7, 210240, Note_on_c, 12, 76, 95
7, 210480, Note_off_c, 12, 76, 80
7, 210480, Note_on_c, 12, 77, 95
7, 210720, Note_off_c, 12, 77, 80
7, 210720, Note_on_c, 12, 76, 95
7, 210960, Note_off_c, 12, 76, 80
7, 210960, Note_on_c, 12, 74, 95
7, 211200, Note_off_c, 12, 74, 80
7, 211200, Note_on_c, 12, 72, 95
7, 211440, Note_off_c, 12, 72, 80
7, 211440, Note_on_c, 12, 71, 95
7, 211680, Note_off_c, 12, 71, 80
7, 211680, Note_on_c, 12, 72, 95
7, 211920, Note_off_c, 12, 72, 80
7, 211920, Note_on_c, 12, 67, 95
7, 212160, Note_off_c, 12, 67, 80
7, 212160, Note_on_c, 12, 64, 95
7, 212400, Note_off_c, 12, 64, 80
7, 212400, Note_on_c, 12, 60, 95
7, 213120, Note_off_c, 12, 60, 80
7, 213120, End_track
8, 0, Start_track
8, 0, Title_t, ""
8, 0, Control_c, 15, 100, 0
8, 0, Control_c, 15, 101, 0
8, 0, Control_c, 15, 6, 12
8, 0, Pitch_bend_c, 15, 8192
8, 0, Control_c, 15, 101, 0
8, 0, Control_c, 15, 100, 1
8, 0, Control_c, 15, 6, 64
8, 0, Control_c, 15, 38, 0
8, 0, Control_c, 15, 101, 127
8, 0, Control_c, 15, 100, 127
8, 0, Control_c, 14, 100, 0
8, 0, Control_c, 14, 101, 0
8, 0, Control_c, 14, 6, 12
8, 0, Pitch_bend_c, 14, 8192
8, 0, Control_c, 14, 101, 0
8, 0, Control_c, 14, 100, 1
8, 0, Control_c, 14, 6, 64
8, 0, Control_c, 14, 38, 0
8, 0, Control_c, 14, 101, 127
8, 0, Control_c, 14, 100, 127
8, 0, Control_c, 15, 101, 0
8, 0, Control_c, 15, 100, 2
8, 0, Control_c, 15, 6, 64
8, 0, Control_c, 15, 101, 127
8, 0, Control_c, 15, 100, 127
8, 0, Control_c, 14, 101, 0
8, 0, Control_c, 14, 100, 2
8, 0, Control_c, 14, 6, 64
8, 0, Control_c, 14, 101, 127
8, 0, Control_c, 14, 100, 127
8, 0, Program_c, 15, 25
8, 0, Program_c, 14, 25
8, 0, Control_c, 15, 0, 0
8, 0, Control_c, 14, 0, 0
8, 0, Control_c, 15, 7, 72
8, 0, Control_c, 14, 7, 72
8, 0, Control_c, 15, 10, 64
8, 0, Control_c, 14, 10, 64
8, 0, Control_c, 15, 93, 0
8, 0, Control_c, 14, 93, 0
8, 0, Control_c, 15, 91, 0
8, 0, Control_c, 14, 91, 0
8, 0, Control_c, 15, 92, 0
8, 0, Control_c, 14, 92, 0
8, 0, Control_c, 15, 95, 0
8, 0, Control_c, 14, 95, 0
8, 0, Note_on_c, 14, 48, 95
8, 480, Note_off_c, 14, 48, 80
8, 480, Note_on_c, 14, 64, 95
8, 480, Note_on_c, 14, 60, 95
8, 480, Note_on_c, 14, 55, 95
8, 720, Note_off_c, 14, 64, 80
8, 720, Note_off_c, 14, 60, 80
8, 720, Note_off_c, 14, 55, 80
8, 720, Note_on_c, 14, 48, 95
8, 1200, Note_off_c, 14, 48, 80
8, 1200, Note_on_c, 14, 64, 95
8, 1200, Note_on_c, 14, 60, 95
8, 1200, Note_on_c, 14, 55, 95
8, 1440, Note_off_c, 14, 64, 80
8, 1440, Note_off_c, 14, 60, 80
8, 1440, Note_off_c, 14, 55, 80
8, 1440, Note_on_c, 14, 48, 95
8, 1920, Note_off_c, 14, 48, 80
8, 1920, Note_on_c, 14, 64, 95
8, 1920, Note_on_c, 14, 60, 95
8, 1920, Note_on_c, 14, 55, 95
8, 2160, Note_off_c, 14, 64, 80
8, 2160, Note_off_c, 14, 60, 80
8, 2160, Note_off_c, 14, 55, 80
8, 2160, Note_on_c, 14, 48, 95
8, 2640, Note_off_c, 14, 48, 80
8, 2640, Note_on_c, 14, 64, 95
8, 2640, Note_on_c, 14, 60, 95
8, 2640, Note_on_c, 14, 55, 95
8, 2880, Note_off_c, 14, 64, 80
8, 2880, Note_off_c, 14, 60, 80
8, 2880, Note_off_c, 14, 55, 80
8, 2880, Note_on_c, 14, 48, 95
8, 3360, Note_off_c, 14, 48, 80
8, 3360, Note_on_c, 14, 64, 95
8, 3360, Note_on_c, 14, 60, 95
8, 3360, Note_on_c, 14, 55, 95
8, 3600, Note_off_c, 14, 64, 80
8, 3600, Note_off_c, 14, 60, 80
8, 3600, Note_off_c, 14, 55, 80
8, 3600, Note_on_c, 14, 48, 95
8, 4080, Note_off_c, 14, 48, 80
8, 4080, Note_on_c, 14, 64, 95
8, 4080, Note_on_c, 14, 60, 95
8, 4080, Note_on_c, 14, 55, 95
8, 4320, Note_off_c, 14, 64, 80
8, 4320, Note_off_c, 14, 60, 80
8, 4320, Note_off_c, 14, 55, 80
8, 4320, Note_on_c, 14, 48, 95
8, 4800, Note_off_c, 14, 48, 80
8, 4800, Note_on_c, 14, 64, 95
8, 4800, Note_on_c, 14, 60, 95
8, 4800, Note_on_c, 14, 55, 95
8, 5040, Note_off_c, 14, 64, 80
8, 5040, Note_off_c, 14, 60, 80
8, 5040, Note_off_c, 14, 55, 80
8, 5040, Note_on_c, 14, 48, 95
8, 5520, Note_off_c, 14, 48, 80
8, 5520, Note_on_c, 14, 64, 95
8, 5520, Note_on_c, 14, 60, 95
8, 5520, Note_on_c, 14, 55, 95
8, 5760, Note_off_c, 14, 64, 80
8, 5760, Note_off_c, 14, 60, 80
8, 5760, Note_off_c, 14, 55, 80
8, 5760, Note_on_c, 14, 48, 95
8, 6240, Note_off_c, 14, 48, 80
8, 6240, Note_on_c, 14, 64, 95
8, 6240, Note_on_c, 14, 60, 95
8, 6240, Note_on_c, 14, 55, 95
8, 6480, Note_off_c, 14, 64, 80
8, 6480, Note_off_c, 14, 60, 80
8, 6480, Note_off_c, 14, 55, 80
8, 6480, Note_on_c, 14, 48, 95
8, 6960, Note_off_c, 14, 48, 80
8, 6960, Note_on_c, 14, 64, 95
8, 6960, Note_on_c, 14, 60, 95
8, 6960, Note_on_c, 14, 55, 95
8, 7200, Note_off_c, 14, 64, 80
8, 7200, Note_off_c, 14, 60, 80
8, 7200, Note_off_c, 14, 55, 80
8, 7200, Note_on_c, 14, 41, 95
8, 7680, Note_off_c, 14, 41, 80
8, 7680, Note_on_c, 14, 65, 95
8, 7680, Note_on_c, 14, 60, 95
8, 7680, Note_on_c, 14, 57, 95
8, 7920, Note_off_c, 14, 65, 80
8, 7920, Note_off_c, 14, 60, 80
8, 7920, Note_off_c, 14, 57, 80
8, 7920, Note_on_c, 14, 48, 95
8, 8400, Note_off_c, 14, 48, 80
8, 8400, Note_on_c, 14, 64, 95
8, 8400, Note_on_c, 14, 60, 95
8, 8400, Note_on_c, 14, 55, 95
8, 8640, Note_off_c, 14, 64, 80
8, 8640, Note_off_c, 14, 60, 80
8, 8640, Note_off_c, 14, 55, 80
8, 8640, Note_on_c, 14, 48, 95
8, 9120, Note_off_c, 14, 48, 80
8, 9120, Note_on_c, 14, 64, 95
8, 9120, Note_on_c, 14, 60, 95
8, 9120, Note_on_c, 14, 55, 95
8, 9360, Note_off_c, 14, 64, 80
8, 9360, Note_off_c, 14, 60, 80
8, 9360, Note_off_c, 14, 55, 80
8, 9360, Note_on_c, 14, 48, 95
8, 9840, Note_off_c, 14, 48, 80
8, 9840, Note_on_c, 14, 64, 95
8, 9840, Note_on_c, 14, 60, 95
8, 9840, Note_on_c, 14, 55, 95
8, 10080, Note_off_c, 14, 64, 80
8, 10080, Note_off_c, 14, 60, 80
8, 10080, Note_off_c, 14, 55, 80
8, 10080, Note_on_c, 14, 41, 95
8, 10560, Note_off_c, 14, 41, 80
8, 10560, Note_on_c, 14, 65, 95
8, 10560, Note_on_c, 14, 60, 95
8, 10560, Note_on_c, 14, 57, 95
8, 10800, Note_off_c, 14, 65, 80
8, 10800, Note_off_c, 14, 60, 80
8, 10800, Note_off_c, 14, 57, 80
8, 10800, Note_on_c, 14, 48, 95
8, 11280, Note_off_c, 14, 48, 80
8, 11280, Note_on_c, 14, 64, 95
8, 11280, Note_on_c, 14, 60, 95
8, 11280, Note_on_c, 14, 55, 95
8, 11520, Note_off_c, 14, 64, 80
8, 11520, Note_off_c, 14, 60, 80
8, 11520, Note_off_c, 14, 55, 80
8, 11520, Note_on_c, 14, 48, 95
8, 12000, Note_off_c, 14, 48, 80
8, 12000, Note_on_c, 14, 64, 95
8, 12000, Note_on_c, 14, 60, 95
8, 12000, Note_on_c, 14, 55, 95
8, 12240, Note_off_c, 14, 64, 80
8, 12240, Note_off_c, 14, 60, 80
8, 12240, Note_off_c, 14, 55, 80
8, 12240, Note_on_c, 14, 40, 95
8, 12720, Note_off_c, 14, 40, 80
8, 12720, Note_on_c, 14, 64, 95
8, 12720, Note_on_c, 14, 59, 95
8, 12720, Note_on_c, 14, 55, 95
8, 12960, Note_off_c, 14, 64, 80
8, 12960, Note_off_c, 14, 59, 80
8, 12960, Note_off_c, 14, 55, 80
8, 12960, Note_on_c, 14, 45, 95
8, 13440, Note_off_c, 14, 45, 80
8, 13440, Note_on_c, 14, 64, 95
8, 13440, Note_on_c, 14, 60, 95
8, 13440, Note_on_c, 14, 57, 95
8, 13680, Note_off_c, 14, 64, 80
8, 13680, Note_off_c, 14, 60, 80
8, 13680, Note_off_c, 14, 57, 80
8, 13680, Note_on_c, 14, 43, 95
8, 14160, Note_off_c, 14, 43, 80
8, 14160, Note_on_c, 14, 64, 95
8, 14160, Note_on_c, 14, 60, 95
8, 14160, Note_on_c, 14, 57, 95
8, 14400, Note_off_c, 14, 64, 80
8, 14400, Note_off_c, 14, 60, 80
8, 14400, Note_off_c, 14, 57, 80
8, 14400, Note_on_c, 14, 50, 95
8, 14880, Note_off_c, 14, 50, 80
8, 14880, Note_on_c, 14, 65, 95
8, 14880, Note_on_c, 14, 62, 95
8, 14880, Note_on_c, 14, 57, 95
8, 15120, Note_off_c, 14, 65, 80
8, 15120, Note_off_c, 14, 62, 80
8, 15120, Note_off_c, 14, 57, 80
8, 15120, Note_on_c, 14, 43, 95
8, 15600, Note_off_c, 14, 43, 80
8, 15600, Note_on_c, 14, 67, 95
8, 15600, Note_on_c, 14, 59, 95
8, 15600, Note_on_c, 14, 55, 95
8, 15840, Note_off_c, 14, 67, 80
8, 15840, Note_off_c, 14, 59, 80
8, 15840, Note_off_c, 14, 55, 80
8, 15840, Note_on_c, 14, 48, 95
8, 16320, Note_off_c, 14, 48, 80
8, 16320, Note_on_c, 14, 64, 95
8, 16320, Note_on_c, 14, 60, 95
8, 16320, Note_on_c, 14, 55, 95
8, 16560, Note_off_c, 14, 64, 80
8, 16560, Note_off_c, 14, 60, 80
8, 16560, Note_off_c, 14, 55, 80
8, 16560, Note_on_c, 14, 48, 95
8, 17040, Note_off_c, 14, 48, 80
8, 17040, Note_on_c, 14, 64, 95
8, 17040, Note_on_c, 14, 60, 95
8, 17040, Note_on_c, 14, 55, 95
8, 17280, Note_off_c, 14, 64, 80
8, 17280, Note_off_c, 14, 60, 80
8, 17280, Note_off_c, 14, 55, 80
8, 17280, Note_on_c, 14, 41, 95
8, 17760, Note_off_c, 14, 41, 80
8, 17760, Note_on_c, 14, 65, 95
8, 17760, Note_on_c, 14, 60, 95
8, 17760, Note_on_c, 14, 57, 95
8, 18000, Note_off_c, 14, 65, 80
8, 18000, Note_off_c, 14, 60, 80
8, 18000, Note_off_c, 14, 57, 80
8, 18000, Note_on_c, 14, 43, 95
8, 18480, Note_off_c, 14, 43, 80
8, 18480, Note_on_c, 14, 67, 95
8, 18480, Note_on_c, 14, 59, 95
8, 18480, Note_on_c, 14, 55, 95
8, 18720, Note_off_c, 14, 67, 80
8, 18720, Note_off_c, 14, 59, 80
8, 18720, Note_off_c, 14, 55, 80
8, 18720, Note_on_c, 14, 48, 95
8, 19200, Note_off_c, 14, 48, 80
8, 19200, Note_on_c, 14, 64, 95
8, 19200, Note_on_c, 14, 60, 95
8, 19200, Note_on_c, 14, 55, 95
8, 19440, Note_off_c, 14, 64, 80
8, 19440, Note_off_c, 14, 60, 80
8, 19440, Note_off_c, 14, 55, 80
8, 19440, Note_on_c, 14, 45, 95
8, 19920, Note_off_c, 14, 45, 80
8, 19920, Note_on_c, 14, 64, 95
8, 19920, Note_on_c, 14, 60, 95
8, 19920, Note_on_c, 14, 57, 95
8, 20160, Note_off_c, 14, 64, 80
8, 20160, Note_off_c, 14, 60, 80
8, 20160, Note_off_c, 14, 57, 80
8, 20160, Note_on_c, 14, 50, 95
8, 20640, Note_off_c, 14, 50, 80
8, 20640, Note_on_c, 14, 65, 95
8, 20640, Note_on_c, 14, 62, 95
8, 20640, Note_on_c, 14, 57, 95
8, 20880, Note_off_c, 14, 65, 80
8, 20880, Note_off_c, 14, 62, 80
8, 20880, Note_off_c, 14, 57, 80
8, 20880, Note_on_c, 14, 43, 95
8, 21360, Note_off_c, 14, 43, 80
8, 21360, Note_on_c, 14, 67, 95
8, 21360, Note_on_c, 14, 59, 95
8, 21360, Note_on_c, 14, 55, 95
8, 21600, Note_off_c, 14, 67, 80
8, 21600, Note_off_c, 14, 59, 80
8, 21600, Note_off_c, 14, 55, 80
8, 21600, Note_on_c, 14, 48, 95
8, 22080, Note_off_c, 14, 48, 80
8, 22080, Note_on_c, 14, 64, 95
8, 22080, Note_on_c, 14, 60, 95
8, 22080, Note_on_c, 14, 55, 95
8, 22320, Note_off_c, 14, 64, 80
8, 22320, Note_off_c, 14, 60, 80
8, 22320, Note_off_c, 14, 55, 80
8, 22320, Note_on_c, 14, 48, 95
8, 22800, Note_off_c, 14, 48, 80
8, 22800, Note_on_c, 14, 64, 95
8, 22800, Note_on_c, 14, 60, 95
8, 22800, Note_on_c, 14, 55, 95
8, 23040, Note_off_c, 14, 64, 80
8, 23040, Note_off_c, 14, 60, 80
8, 23040, Note_off_c, 14, 55, 80
8, 23040, Note_on_c, 14, 41, 95
8, 23520, Note_off_c, 14, 41, 80
8, 23520, Note_on_c, 14, 65, 95
8, 23520, Note_on_c, 14, 60, 95
8, 23520, Note_on_c, 14, 57, 95
8, 23760, Note_off_c, 14, 65, 80
8, 23760, Note_off_c, 14, 60, 80
8, 23760, Note_off_c, 14, 57, 80
8, 23760, Note_on_c, 14, 43, 95
8, 24240, Note_off_c, 14, 43, 80
8, 24240, Note_on_c, 14, 67, 95
8, 24240, Note_on_c, 14, 59, 95
8, 24240, Note_on_c, 14, 55, 95
8, 24480, Note_off_c, 14, 67, 80
8, 24480, Note_off_c, 14, 59, 80
8, 24480, Note_off_c, 14, 55, 80
8, 24480, Note_on_c, 14, 48, 95
8, 24960, Note_off_c, 14, 48, 80
8, 24960, Note_on_c, 14, 64, 95
8, 24960, Note_on_c, 14, 60, 95
8, 24960, Note_on_c, 14, 55, 95
8, 25200, Note_off_c, 14, 64, 80
8, 25200, Note_off_c, 14, 60, 80
8, 25200, Note_off_c, 14, 55, 80
8, 25200, Note_on_c, 14, 41, 95
8, 25680, Note_off_c, 14, 41, 80
8, 25680, Note_on_c, 14, 65, 95
8, 25680, Note_on_c, 14, 60, 95
8, 25680, Note_on_c, 14, 57, 95
8, 25920, Note_off_c, 14, 65, 80
8, 25920, Note_off_c, 14, 60, 80
8, 25920, Note_off_c, 14, 57, 80
8, 25920, Note_on_c, 14, 48, 95
8, 26400, Note_off_c, 14, 48, 80
8, 26400, Note_on_c, 14, 64, 95
8, 26400, Note_on_c, 14, 60, 95
8, 26400, Note_on_c, 14, 55, 95
8, 26640, Note_off_c, 14, 64, 80
8, 26640, Note_off_c, 14, 60, 80
8, 26640, Note_off_c, 14, 55, 80
8, 26640, Note_on_c, 14, 43, 95
8, 27120, Note_off_c, 14, 43, 80
8, 27120, Note_on_c, 14, 67, 95
8, 27120, Note_on_c, 14, 59, 95
8, 27120, Note_on_c, 14, 55, 95
8, 27360, Note_off_c, 14, 67, 80
8, 27360, Note_off_c, 14, 59, 80
8, 27360, Note_off_c, 14, 55, 80
8, 27360, Note_on_c, 14, 48, 95
8, 27840, Note_off_c, 14, 48, 80
8, 27840, Note_on_c, 14, 64, 95
8, 27840, Note_on_c, 14, 60, 95
8, 27840, Note_on_c, 14, 55, 95
8, 28080, Note_off_c, 14, 64, 80
8, 28080, Note_off_c, 14, 60, 80
8, 28080, Note_off_c, 14, 55, 80
8, 28080, Note_on_c, 14, 48, 95
8, 28560, Note_off_c, 14, 48, 80
8, 28560, Note_on_c, 14, 64, 95
8, 28560, Note_on_c, 14, 60, 95
8, 28560, Note_on_c, 14, 55, 95
8, 28800, Note_off_c, 14, 64, 80
8, 28800, Note_off_c, 14, 60, 80
8, 28800, Note_off_c, 14, 55, 80
8, 28800, Note_on_c, 14, 48, 95
8, 29280, Note_off_c, 14, 48, 80
8, 29280, Note_on_c, 14, 64, 95
8, 29280, Note_on_c, 14, 60, 95
8, 29280, Note_on_c, 14, 55, 95
8, 29520, Note_off_c, 14, 64, 80
8, 29520, Note_off_c, 14, 60, 80
8, 29520, Note_off_c, 14, 55, 80
8, 29520, Note_on_c, 14, 48, 95
8, 30000, Note_off_c, 14, 48, 80
8, 30000, Note_on_c, 14, 64, 95
8, 30000, Note_on_c, 14, 60, 95
8, 30000, Note_on_c, 14, 55, 95
8, 30240, Note_off_c, 14, 64, 80
8, 30240, Note_off_c, 14, 60, 80
8, 30240, Note_off_c, 14, 55, 80
8, 30240, Note_on_c, 14, 41, 95
8, 30720, Note_off_c, 14, 41, 80
8, 30720, Note_on_c, 14, 65, 95
8, 30720, Note_on_c, 14, 60, 95
8, 30720, Note_on_c, 14, 57, 95
8, 30960, Note_off_c, 14, 65, 80
8, 30960, Note_off_c, 14, 60, 80
8, 30960, Note_off_c, 14, 57, 80
8, 30960, Note_on_c, 14, 48, 95
8, 31440, Note_off_c, 14, 48, 80
8, 31440, Note_on_c, 14, 64, 95
8, 31440, Note_on_c, 14, 60, 95
8, 31440, Note_on_c, 14, 55, 95
8, 31680, Note_off_c, 14, 64, 80
8, 31680, Note_off_c, 14, 60, 80
8, 31680, Note_off_c, 14, 55, 80
8, 31680, Note_on_c, 14, 48, 95
8, 32160, Note_off_c, 14, 48, 80
8, 32160, Note_on_c, 14, 64, 95
8, 32160, Note_on_c, 14, 60, 95
8, 32160, Note_on_c, 14, 55, 95
8, 32400, Note_off_c, 14, 64, 80
8, 32400, Note_off_c, 14, 60, 80
8, 32400, Note_off_c, 14, 55, 80
8, 32400, Note_on_c, 14, 48, 95
8, 32880, Note_off_c, 14, 48, 80
8, 32880, Note_on_c, 14, 64, 95
8, 32880, Note_on_c, 14, 60, 95
8, 32880, Note_on_c, 14, 55, 95
8, 33120, Note_off_c, 14, 64, 80
8, 33120, Note_off_c, 14, 60, 80
8, 33120, Note_off_c, 14, 55, 80
8, 33120, Note_on_c, 14, 41, 95
8, 33600, Note_off_c, 14, 41, 80
8, 33600, Note_on_c, 14, 65, 95
8, 33600, Note_on_c, 14, 60, 95
8, 33600, Note_on_c, 14, 57, 95
8, 33840, Note_off_c, 14, 65, 80
8, 33840, Note_off_c, 14, 60, 80
8, 33840, Note_off_c, 14, 57, 80
8, 33840, Note_on_c, 14, 48, 95
8, 34320, Note_off_c, 14, 48, 80
8, 34320, Note_on_c, 14, 64, 95
8, 34320, Note_on_c, 14, 60, 95
8, 34320, Note_on_c, 14, 55, 95
8, 34560, Note_off_c, 14, 64, 80
8, 34560, Note_off_c, 14, 60, 80
8, 34560, Note_off_c, 14, 55, 80
8, 34560, Note_on_c, 14, 48, 95
8, 35040, Note_off_c, 14, 48, 80
8, 35040, Note_on_c, 14, 64, 95
8, 35040, Note_on_c, 14, 60, 95
8, 35040, Note_on_c, 14, 55, 95
8, 35280, Note_off_c, 14, 64, 80
8, 35280, Note_off_c, 14, 60, 80
8, 35280, Note_off_c, 14, 55, 80
8, 35280, Note_on_c, 14, 40, 95
8, 35760, Note_off_c, 14, 40, 80
8, 35760, Note_on_c, 14, 64, 95
8, 35760, Note_on_c, 14, 59, 95
8, 35760, Note_on_c, 14, 55, 95
8, 36000, Note_off_c, 14, 64, 80
8, 36000, Note_off_c, 14, 59, 80
8, 36000, Note_off_c, 14, 55, 80
8, 36000, Note_on_c, 14, 45, 95
8, 36480, Note_off_c, 14, 45, 80
8, 36480, Note_on_c, 14, 64, 95
8, 36480, Note_on_c, 14, 60, 95
8, 36480, Note_on_c, 14, 57, 95
8, 36720, Note_off_c, 14, 64, 80
8, 36720, Note_off_c, 14, 60, 80
8, 36720, Note_off_c, 14, 57, 80
8, 36720, Note_on_c, 14, 43, 95
8, 37200, Note_off_c, 14, 43, 80
8, 37200, Note_on_c, 14, 64, 95
8, 37200, Note_on_c, 14, 60, 95
8, 37200, Note_on_c, 14, 57, 95
8, 37440, Note_off_c, 14, 64, 80
8, 37440, Note_off_c, 14, 60, 80
8, 37440, Note_off_c, 14, 57, 80
8, 37440, Note_on_c, 14, 50, 95
8, 37920, Note_off_c, 14, 50, 80
8, 37920, Note_on_c, 14, 65, 95
8, 37920, Note_on_c, 14, 62, 95
8, 37920, Note_on_c, 14, 57, 95
8, 38160, Note_off_c, 14, 65, 80
8, 38160, Note_off_c, 14, 62, 80
8, 38160, Note_off_c, 14, 57, 80
8, 38160, Note_on_c, 14, 43, 95
8, 38640, Note_off_c, 14, 43, 80
8, 38640, Note_on_c, 14, 67, 95
8, 38640, Note_on_c, 14, 59, 95
8, 38640, Note_on_c, 14, 55, 95
8, 38880, Note_off_c, 14, 67, 80
8, 38880, Note_off_c, 14, 59, 80
8, 38880, Note_off_c, 14, 55, 80
8, 38880, Note_on_c, 14, 48, 95
8, 39360, Note_off_c, 14, 48, 80
8, 39360, Note_on_c, 14, 64, 95
8, 39360, Note_on_c, 14, 60, 95
8, 39360, Note_on_c, 14, 55, 95
8, 39600, Note_off_c, 14, 64, 80
8, 39600, Note_off_c, 14, 60, 80
8, 39600, Note_off_c, 14, 55, 80
8, 39600, Note_on_c, 14, 48, 95
8, 40080, Note_off_c, 14, 48, 80
8, 40080, Note_on_c, 14, 64, 95
8, 40080, Note_on_c, 14, 60, 95
8, 40080, Note_on_c, 14, 55, 95
8, 40320, Note_off_c, 14, 64, 80
8, 40320, Note_off_c, 14, 60, 80
8, 40320, Note_off_c, 14, 55, 80
8, 40320, Note_on_c, 14, 41, 95
8, 40800, Note_off_c, 14, 41, 80
8, 40800, Note_on_c, 14, 65, 95
8, 40800, Note_on_c, 14, 60, 95
8, 40800, Note_on_c, 14, 57, 95
8, 41040, Note_off_c, 14, 65, 80
8, 41040, Note_off_c, 14, 60, 80
8, 41040, Note_off_c, 14, 57, 80
8, 41040, Note_on_c, 14, 43, 95
8, 41520, Note_off_c, 14, 43, 80
8, 41520, Note_on_c, 14, 67, 95
8, 41520, Note_on_c, 14, 59, 95
8, 41520, Note_on_c, 14, 55, 95
8, 41760, Note_off_c, 14, 67, 80
8, 41760, Note_off_c, 14, 59, 80
8, 41760, Note_off_c, 14, 55, 80
8, 41760, Note_on_c, 14, 48, 95
8, 42240, Note_off_c, 14, 48, 80
8, 42240, Note_on_c, 14, 64, 95
8, 42240, Note_on_c, 14, 60, 95
8, 42240, Note_on_c, 14, 55, 95
8, 42480, Note_off_c, 14, 64, 80
8, 42480, Note_off_c, 14, 60, 80
8, 42480, Note_off_c, 14, 55, 80
8, 42480, Note_on_c, 14, 45, 95
8, 42960, Note_off_c, 14, 45, 80
8, 42960, Note_on_c, 14, 64, 95
8, 42960, Note_on_c, 14, 60, 95
8, 42960, Note_on_c, 14, 57, 95
8, 43200, Note_off_c, 14, 64, 80
8, 43200, Note_off_c, 14, 60, 80
8, 43200, Note_off_c, 14, 57, 80
8, 43200, Note_on_c, 14, 50, 95
8, 43680, Note_off_c, 14, 50, 80
8, 43680, Note_on_c, 14, 65, 95
8, 43680, Note_on_c, 14, 62, 95
8, 43680, Note_on_c, 14, 57, 95
8, 43920, Note_off_c, 14, 65, 80
8, 43920, Note_off_c, 14, 62, 80
8, 43920, Note_off_c, 14, 57, 80
8, 43920, Note_on_c, 14, 43, 95
8, 44400, Note_off_c, 14, 43, 80
8, 44400, Note_on_c, 14, 67, 95
8, 44400, Note_on_c, 14, 59, 95
8, 44400, Note_on_c, 14, 55, 95
8, 44640, Note_off_c, 14, 67, 80
8, 44640, Note_off_c, 14, 59, 80
8, 44640, Note_off_c, 14, 55, 80
8, 44640, Note_on_c, 14, 48, 95
8, 45120, Note_off_c, 14, 48, 80
8, 45120, Note_on_c, 14, 64, 95
8, 45120, Note_on_c, 14, 60, 95
8, 45120, Note_on_c, 14, 55, 95
8, 45360, Note_off_c, 14, 64, 80
8, 45360, Note_off_c, 14, 60, 80
8, 45360, Note_off_c, 14, 55, 80
8, 45360, Note_on_c, 14, 48, 95
8, 45840, Note_off_c, 14, 48, 80
8, 45840, Note_on_c, 14, 64, 95
8, 45840, Note_on_c, 14, 60, 95
8, 45840, Note_on_c, 14, 55, 95
8, 46080, Note_off_c, 14, 64, 80
8, 46080, Note_off_c, 14, 60, 80
8, 46080, Note_off_c, 14, 55, 80
8, 46080, Note_on_c, 14, 41, 95
8, 46560, Note_off_c, 14, 41, 80
8, 46560, Note_on_c, 14, 65, 95
8, 46560, Note_on_c, 14, 60, 95
8, 46560, Note_on_c, 14, 57, 95
8, 46800, Note_off_c, 14, 65, 80
8, 46800, Note_off_c, 14, 60, 80
8, 46800, Note_off_c, 14, 57, 80
8, 46800, Note_on_c, 14, 43, 95
8, 47280, Note_off_c, 14, 43, 80
8, 47280, Note_on_c, 14, 67, 95
8, 47280, Note_on_c, 14, 59, 95
8, 47280, Note_on_c, 14, 55, 95
8, 47520, Note_off_c, 14, 67, 80
8, 47520, Note_off_c, 14, 59, 80
8, 47520, Note_off_c, 14, 55, 80
8, 47520, Note_on_c, 14, 48, 95
8, 48000, Note_off_c, 14, 48, 80
8, 48000, Note_on_c, 14, 64, 95
8, 48000, Note_on_c, 14, 60, 95
8, 48000, Note_on_c, 14, 55, 95
8, 48240, Note_off_c, 14, 64, 80
8, 48240, Note_off_c, 14, 60, 80
8, 48240, Note_off_c, 14, 55, 80
8, 48240, Note_on_c, 14, 41, 95
8, 48720, Note_off_c, 14, 41, 80
8, 48720, Note_on_c, 14, 65, 95
8, 48720, Note_on_c, 14, 60, 95
8, 48720, Note_on_c, 14, 57, 95
8, 48960, Note_off_c, 14, 65, 80
8, 48960, Note_off_c, 14, 60, 80
8, 48960, Note_off_c, 14, 57, 80
8, 48960, Note_on_c, 14, 48, 95
8, 49440, Note_off_c, 14, 48, 80
8, 49440, Note_on_c, 14, 64, 95
8, 49440, Note_on_c, 14, 60, 95
8, 49440, Note_on_c, 14, 55, 95
8, 49680, Note_off_c, 14, 64, 80
8, 49680, Note_off_c, 14, 60, 80
8, 49680, Note_off_c, 14, 55, 80
8, 49680, Note_on_c, 14, 43, 95
8, 50160, Note_off_c, 14, 43, 80
8, 50160, Note_on_c, 14, 67, 95
8, 50160, Note_on_c, 14, 59, 95
8, 50160, Note_on_c, 14, 55, 95
8, 50400, Note_off_c, 14, 67, 80
8, 50400, Note_off_c, 14, 59, 80
8, 50400, Note_off_c, 14, 55, 80
8, 50400, Note_on_c, 14, 48, 95
8, 50880, Note_off_c, 14, 48, 80
8, 50880, Note_on_c, 14, 64, 95
8, 50880, Note_on_c, 14, 60, 95
8, 50880, Note_on_c, 14, 55, 95
8, 51120, Note_off_c, 14, 64, 80
8, 51120, Note_off_c, 14, 60, 80
8, 51120, Note_off_c, 14, 55, 80
8, 51120, Note_on_c, 14, 48, 95
8, 51600, Note_off_c, 14, 48, 80
8, 51600, Note_on_c, 14, 64, 95
8, 51600, Note_on_c, 14, 60, 95
8, 51600, Note_on_c, 14, 55, 95
8, 51840, Note_off_c, 14, 64, 80
8, 51840, Note_off_c, 14, 60, 80
8, 51840, Note_off_c, 14, 55, 80
8, 51840, Note_on_c, 14, 48, 95
8, 52320, Note_off_c, 14, 48, 80
8, 52320, Note_on_c, 14, 64, 95
8, 52320, Note_on_c, 14, 60, 95
8, 52320, Note_on_c, 14, 55, 95
8, 52560, Note_off_c, 14, 64, 80
8, 52560, Note_off_c, 14, 60, 80
8, 52560, Note_off_c, 14, 55, 80
8, 52560, Note_on_c, 14, 48, 95
8, 53040, Note_off_c, 14, 48, 80
8, 53040, Note_on_c, 14, 64, 95
8, 53040, Note_on_c, 14, 60, 95
8, 53040, Note_on_c, 14, 55, 95
8, 53280, Note_off_c, 14, 64, 80
8, 53280, Note_off_c, 14, 60, 80
8, 53280, Note_off_c, 14, 55, 80
8, 53280, Note_on_c, 14, 41, 95
8, 53760, Note_off_c, 14, 41, 80
8, 53760, Note_on_c, 14, 65, 95
8, 53760, Note_on_c, 14, 60, 95
8, 53760, Note_on_c, 14, 57, 95
8, 54000, Note_off_c, 14, 65, 80
8, 54000, Note_off_c, 14, 60, 80
8, 54000, Note_off_c, 14, 57, 80
8, 54000, Note_on_c, 14, 48, 95
8, 54480, Note_off_c, 14, 48, 80
8, 54480, Note_on_c, 14, 64, 95
8, 54480, Note_on_c, 14, 60, 95
8, 54480, Note_on_c, 14, 55, 95
8, 54720, Note_off_c, 14, 64, 80
8, 54720, Note_off_c, 14, 60, 80
8, 54720, Note_off_c, 14, 55, 80
8, 54720, Note_on_c, 14, 48, 95
8, 55200, Note_off_c, 14, 48, 80
8, 55200, Note_on_c, 14, 64, 95
8, 55200, Note_on_c, 14, 60, 95
8, 55200, Note_on_c, 14, 55, 95
8, 55440, Note_off_c, 14, 64, 80
8, 55440, Note_off_c, 14, 60, 80
8, 55440, Note_off_c, 14, 55, 80
8, 55440, Note_on_c, 14, 48, 95
8, 55920, Note_off_c, 14, 48, 80
8, 55920, Note_on_c, 14, 64, 95
8, 55920, Note_on_c, 14, 60, 95
8, 55920, Note_on_c, 14, 55, 95
8, 56160, Note_off_c, 14, 64, 80
8, 56160, Note_off_c, 14, 60, 80
8, 56160, Note_off_c, 14, 55, 80
8, 56160, Note_on_c, 14, 41, 95
8, 56640, Note_off_c, 14, 41, 80
8, 56640, Note_on_c, 14, 65, 95
8, 56640, Note_on_c, 14, 60, 95
8, 56640, Note_on_c, 14, 57, 95
8, 56880, Note_off_c, 14, 65, 80
8, 56880, Note_off_c, 14, 60, 80
8, 56880, Note_off_c, 14, 57, 80
8, 56880, Note_on_c, 14, 48, 95
8, 57360, Note_off_c, 14, 48, 80
8, 57360, Note_on_c, 14, 64, 95
8, 57360, Note_on_c, 14, 60, 95
8, 57360, Note_on_c, 14, 55, 95
8, 57600, Note_off_c, 14, 64, 80
8, 57600, Note_off_c, 14, 60, 80
8, 57600, Note_off_c, 14, 55, 80
8, 57600, Note_on_c, 14, 48, 95
8, 58080, Note_off_c, 14, 48, 80
8, 58080, Note_on_c, 14, 64, 95
8, 58080, Note_on_c, 14, 60, 95
8, 58080, Note_on_c, 14, 55, 95
8, 58320, Note_off_c, 14, 64, 80
8, 58320, Note_off_c, 14, 60, 80
8, 58320, Note_off_c, 14, 55, 80
8, 58320, Note_on_c, 14, 40, 95
8, 58800, Note_off_c, 14, 40, 80
8, 58800, Note_on_c, 14, 64, 95
8, 58800, Note_on_c, 14, 59, 95
8, 58800, Note_on_c, 14, 55, 95
8, 59040, Note_off_c, 14, 64, 80
8, 59040, Note_off_c, 14, 59, 80
8, 59040, Note_off_c, 14, 55, 80
8, 59040, Note_on_c, 14, 45, 95
8, 59520, Note_off_c, 14, 45, 80
8, 59520, Note_on_c, 14, 64, 95
8, 59520, Note_on_c, 14, 60, 95
8, 59520, Note_on_c, 14, 57, 95
8, 59760, Note_off_c, 14, 64, 80
8, 59760, Note_off_c, 14, 60, 80
8, 59760, Note_off_c, 14, 57, 80
8, 59760, Note_on_c, 14, 43, 95
8, 60240, Note_off_c, 14, 43, 80
8, 60240, Note_on_c, 14, 64, 95
8, 60240, Note_on_c, 14, 60, 95
8, 60240, Note_on_c, 14, 57, 95
8, 60480, Note_off_c, 14, 64, 80
8, 60480, Note_off_c, 14, 60, 80
8, 60480, Note_off_c, 14, 57, 80
8, 60480, Note_on_c, 14, 50, 95
8, 60960, Note_off_c, 14, 50, 80
8, 60960, Note_on_c, 14, 65, 95
8, 60960, Note_on_c, 14, 62, 95
8, 60960, Note_on_c, 14, 57, 95
8, 61200, Note_off_c, 14, 65, 80
8, 61200, Note_off_c, 14, 62, 80
8, 61200, Note_off_c, 14, 57, 80
8, 61200, Note_on_c, 14, 43, 95
8, 61680, Note_off_c, 14, 43, 80
8, 61680, Note_on_c, 14, 67, 95
8, 61680, Note_on_c, 14, 59, 95
8, 61680, Note_on_c, 14, 55, 95
8, 61920, Note_off_c, 14, 67, 80
8, 61920, Note_off_c, 14, 59, 80
8, 61920, Note_off_c, 14, 55, 80
8, 61920, Note_on_c, 14, 48, 95
8, 62400, Note_off_c, 14, 48, 80
8, 62400, Note_on_c, 14, 64, 95
8, 62400, Note_on_c, 14, 60, 95
8, 62400, Note_on_c, 14, 55, 95
8, 62640, Note_off_c, 14, 64, 80
8, 62640, Note_off_c, 14, 60, 80
8, 62640, Note_off_c, 14, 55, 80
8, 62640, Note_on_c, 14, 48, 95
8, 63120, Note_off_c, 14, 48, 80
8, 63120, Note_on_c, 14, 64, 95
8, 63120, Note_on_c, 14, 60, 95
8, 63120, Note_on_c, 14, 55, 95
8, 63360, Note_off_c, 14, 64, 80
8, 63360, Note_off_c, 14, 60, 80
8, 63360, Note_off_c, 14, 55, 80
8, 63360, Note_on_c, 14, 41, 95
8, 63840, Note_off_c, 14, 41, 80
8, 63840, Note_on_c, 14, 65, 95
8, 63840, Note_on_c, 14, 60, 95
8, 63840, Note_on_c, 14, 57, 95
8, 64080, Note_off_c, 14, 65, 80
8, 64080, Note_off_c, 14, 60, 80
8, 64080, Note_off_c, 14, 57, 80
8, 64080, Note_on_c, 14, 43, 95
8, 64560, Note_off_c, 14, 43, 80
8, 64560, Note_on_c, 14, 67, 95
8, 64560, Note_on_c, 14, 59, 95
8, 64560, Note_on_c, 14, 55, 95
8, 64800, Note_off_c, 14, 67, 80
8, 64800, Note_off_c, 14, 59, 80
8, 64800, Note_off_c, 14, 55, 80
8, 64800, Note_on_c, 14, 48, 95
8, 65280, Note_off_c, 14, 48, 80
8, 65280, Note_on_c, 14, 64, 95
8, 65280, Note_on_c, 14, 60, 95
8, 65280, Note_on_c, 14, 55, 95
8, 65520, Note_off_c, 14, 64, 80
8, 65520, Note_off_c, 14, 60, 80
8, 65520, Note_off_c, 14, 55, 80
8, 65520, Note_on_c, 14, 45, 95
8, 66000, Note_off_c, 14, 45, 80
8, 66000, Note_on_c, 14, 64, 95
8, 66000, Note_on_c, 14, 60, 95
8, 66000, Note_on_c, 14, 57, 95
8, 66240, Note_off_c, 14, 64, 80
8, 66240, Note_off_c, 14, 60, 80
8, 66240, Note_off_c, 14, 57, 80
8, 66240, Note_on_c, 14, 50, 95
8, 66720, Note_off_c, 14, 50, 80
8, 66720, Note_on_c, 14, 65, 95
8, 66720, Note_on_c, 14, 62, 95
8, 66720, Note_on_c, 14, 57, 95
8, 66960, Note_off_c, 14, 65, 80
8, 66960, Note_off_c, 14, 62, 80
8, 66960, Note_off_c, 14, 57, 80
8, 66960, Note_on_c, 14, 43, 95
8, 67440, Note_off_c, 14, 43, 80
8, 67440, Note_on_c, 14, 67, 95
8, 67440, Note_on_c, 14, 59, 95
8, 67440, Note_on_c, 14, 55, 95
8, 67680, Note_off_c, 14, 67, 80
8, 67680, Note_off_c, 14, 59, 80
8, 67680, Note_off_c, 14, 55, 80
8, 67680, Note_on_c, 14, 48, 95
8, 68160, Note_off_c, 14, 48, 80
8, 68160, Note_on_c, 14, 64, 95
8, 68160, Note_on_c, 14, 60, 95
8, 68160, Note_on_c, 14, 55, 95
8, 68400, Note_off_c, 14, 64, 80
8, 68400, Note_off_c, 14, 60, 80
8, 68400, Note_off_c, 14, 55, 80
8, 68400, Note_on_c, 14, 48, 95
8, 68880, Note_off_c, 14, 48, 80
8, 68880, Note_on_c, 14, 64, 95
8, 68880, Note_on_c, 14, 60, 95
8, 68880, Note_on_c, 14, 55, 95
8, 69120, Note_off_c, 14, 64, 80
8, 69120, Note_off_c, 14, 60, 80
8, 69120, Note_off_c, 14, 55, 80
8, 69120, Note_on_c, 14, 41, 95
8, 69600, Note_off_c, 14, 41, 80
8, 69600, Note_on_c, 14, 65, 95
8, 69600, Note_on_c, 14, 60, 95
8, 69600, Note_on_c, 14, 57, 95
8, 69840, Note_off_c, 14, 65, 80
8, 69840, Note_off_c, 14, 60, 80
8, 69840, Note_off_c, 14, 57, 80
8, 69840, Note_on_c, 14, 43, 95
8, 70320, Note_off_c, 14, 43, 80
8, 70320, Note_on_c, 14, 67, 95
8, 70320, Note_on_c, 14, 59, 95
8, 70320, Note_on_c, 14, 55, 95
8, 70560, Note_off_c, 14, 67, 80
8, 70560, Note_off_c, 14, 59, 80
8, 70560, Note_off_c, 14, 55, 80
8, 70560, Note_on_c, 14, 48, 95
8, 71040, Note_off_c, 14, 48, 80
8, 71040, Note_on_c, 14, 64, 95
8, 71040, Note_on_c, 14, 60, 95
8, 71040, Note_on_c, 14, 55, 95
8, 71280, Note_off_c, 14, 64, 80
8, 71280, Note_off_c, 14, 60, 80
8, 71280, Note_off_c, 14, 55, 80
8, 71280, Note_on_c, 14, 41, 95
8, 71760, Note_off_c, 14, 41, 80
8, 71760, Note_on_c, 14, 65, 95
8, 71760, Note_on_c, 14, 60, 95
8, 71760, Note_on_c, 14, 57, 95
8, 72000, Note_off_c, 14, 65, 80
8, 72000, Note_off_c, 14, 60, 80
8, 72000, Note_off_c, 14, 57, 80
8, 72000, Note_on_c, 14, 48, 95
8, 72480, Note_off_c, 14, 48, 80
8, 72480, Note_on_c, 14, 64, 95
8, 72480, Note_on_c, 14, 60, 95
8, 72480, Note_on_c, 14, 55, 95
8, 72720, Note_off_c, 14, 64, 80
8, 72720, Note_off_c, 14, 60, 80
8, 72720, Note_off_c, 14, 55, 80
8, 72720, Note_on_c, 14, 43, 95
8, 73200, Note_off_c, 14, 43, 80
8, 73200, Note_on_c, 14, 67, 95
8, 73200, Note_on_c, 14, 59, 95
8, 73200, Note_on_c, 14, 55, 95
8, 73440, Note_off_c, 14, 67, 80
8, 73440, Note_off_c, 14, 59, 80
8, 73440, Note_off_c, 14, 55, 80
8, 73440, Note_on_c, 14, 48, 95
8, 73920, Note_off_c, 14, 48, 80
8, 73920, Note_on_c, 14, 64, 95
8, 73920, Note_on_c, 14, 60, 95
8, 73920, Note_on_c, 14, 55, 95
8, 74160, Note_off_c, 14, 64, 80
8, 74160, Note_off_c, 14, 60, 80
8, 74160, Note_off_c, 14, 55, 80
8, 74160, Note_on_c, 14, 48, 95
8, 74640, Note_off_c, 14, 48, 80
8, 74640, Note_on_c, 14, 64, 95
8, 74640, Note_on_c, 14, 60, 95
8, 74640, Note_on_c, 14, 55, 95
8, 74880, Note_off_c, 14, 64, 80
8, 74880, Note_off_c, 14, 60, 80
8, 74880, Note_off_c, 14, 55, 80
8, 74880, Note_on_c, 14, 48, 95
8, 75360, Note_off_c, 14, 48, 80
8, 75360, Note_on_c, 14, 64, 95
8, 75360, Note_on_c, 14, 60, 95
8, 75360, Note_on_c, 14, 55, 95
8, 75600, Note_off_c, 14, 64, 80
8, 75600, Note_off_c, 14, 60, 80
8, 75600, Note_off_c, 14, 55, 80
8, 75600, Note_on_c, 14, 48, 95
8, 76080, Note_off_c, 14, 48, 80
8, 76080, Note_on_c, 14, 64, 95
8, 76080, Note_on_c, 14, 60, 95
8, 76080, Note_on_c, 14, 55, 95
8, 76320, Note_off_c, 14, 64, 80
8, 76320, Note_off_c, 14, 60, 80
8, 76320, Note_off_c, 14, 55, 80
8, 76320, Note_on_c, 14, 41, 95
8, 76800, Note_off_c, 14, 41, 80
8, 76800, Note_on_c, 14, 65, 95
8, 76800, Note_on_c, 14, 60, 95
8, 76800, Note_on_c, 14, 57, 95
8, 77040, Note_off_c, 14, 65, 80
8, 77040, Note_off_c, 14, 60, 80
8, 77040, Note_off_c, 14, 57, 80
8, 77040, Note_on_c, 14, 48, 95
8, 77520, Note_off_c, 14, 48, 80
8, 77520, Note_on_c, 14, 64, 95
8, 77520, Note_on_c, 14, 60, 95
8, 77520, Note_on_c, 14, 55, 95
8, 77760, Note_off_c, 14, 64, 80
8, 77760, Note_off_c, 14, 60, 80
8, 77760, Note_off_c, 14, 55, 80
8, 77760, Note_on_c, 14, 48, 95
8, 78240, Note_off_c, 14, 48, 80
8, 78240, Note_on_c, 14, 64, 95
8, 78240, Note_on_c, 14, 60, 95
8, 78240, Note_on_c, 14, 55, 95
8, 78480, Note_off_c, 14, 64, 80
8, 78480, Note_off_c, 14, 60, 80
8, 78480, Note_off_c, 14, 55, 80
8, 78480, Note_on_c, 14, 48, 95
8, 78960, Note_off_c, 14, 48, 80
8, 78960, Note_on_c, 14, 64, 95
8, 78960, Note_on_c, 14, 60, 95
8, 78960, Note_on_c, 14, 55, 95
8, 79200, Note_off_c, 14, 64, 80
8, 79200, Note_off_c, 14, 60, 80
8, 79200, Note_off_c, 14, 55, 80
8, 79200, Note_on_c, 14, 41, 95
8, 79680, Note_off_c, 14, 41, 80
8, 79680, Note_on_c, 14, 65, 95
8, 79680, Note_on_c, 14, 60, 95
8, 79680, Note_on_c, 14, 57, 95
8, 79920, Note_off_c, 14, 65, 80
8, 79920, Note_off_c, 14, 60, 80
8, 79920, Note_off_c, 14, 57, 80
8, 79920, Note_on_c, 14, 48, 95
8, 80400, Note_off_c, 14, 48, 80
8, 80400, Note_on_c, 14, 64, 95
8, 80400, Note_on_c, 14, 60, 95
8, 80400, Note_on_c, 14, 55, 95
8, 80640, Note_off_c, 14, 64, 80
8, 80640, Note_off_c, 14, 60, 80
8, 80640, Note_off_c, 14, 55, 80
8, 80640, Note_on_c, 14, 48, 95
8, 81120, Note_off_c, 14, 48, 80
8, 81120, Note_on_c, 14, 64, 95
8, 81120, Note_on_c, 14, 60, 95
8, 81120, Note_on_c, 14, 55, 95
8, 81360, Note_off_c, 14, 64, 80
8, 81360, Note_off_c, 14, 60, 80
8, 81360, Note_off_c, 14, 55, 80
8, 81360, Note_on_c, 14, 40, 95
8, 81840, Note_off_c, 14, 40, 80
8, 81840, Note_on_c, 14, 64, 95
8, 81840, Note_on_c, 14, 59, 95
8, 81840, Note_on_c, 14, 55, 95
8, 82080, Note_off_c, 14, 64, 80
8, 82080, Note_off_c, 14, 59, 80
8, 82080, Note_off_c, 14, 55, 80
8, 82080, Note_on_c, 14, 45, 95
8, 82560, Note_off_c, 14, 45, 80
8, 82560, Note_on_c, 14, 64, 95
8, 82560, Note_on_c, 14, 60, 95
8, 82560, Note_on_c, 14, 57, 95
8, 82800, Note_off_c, 14, 64, 80
8, 82800, Note_off_c, 14, 60, 80
8, 82800, Note_off_c, 14, 57, 80
8, 82800, Note_on_c, 14, 43, 95
8, 83280, Note_off_c, 14, 43, 80
8, 83280, Note_on_c, 14, 64, 95
8, 83280, Note_on_c, 14, 60, 95
8, 83280, Note_on_c, 14, 57, 95
8, 83520, Note_off_c, 14, 64, 80
8, 83520, Note_off_c, 14, 60, 80
8, 83520, Note_off_c, 14, 57, 80
8, 83520, Note_on_c, 14, 50, 95
8, 84000, Note_off_c, 14, 50, 80
8, 84000, Note_on_c, 14, 65, 95
8, 84000, Note_on_c, 14, 62, 95
8, 84000, Note_on_c, 14, 57, 95
8, 84240, Note_off_c, 14, 65, 80
8, 84240, Note_off_c, 14, 62, 80
8, 84240, Note_off_c, 14, 57, 80
8, 84240, Note_on_c, 14, 43, 95
8, 84720, Note_off_c, 14, 43, 80
8, 84720, Note_on_c, 14, 67, 95
8, 84720, Note_on_c, 14, 59, 95
8, 84720, Note_on_c, 14, 55, 95
8, 84960, Note_off_c, 14, 67, 80
8, 84960, Note_off_c, 14, 59, 80
8, 84960, Note_off_c, 14, 55, 80
8, 84960, Note_on_c, 14, 48, 95
8, 85440, Note_off_c, 14, 48, 80
8, 85440, Note_on_c, 14, 64, 95
8, 85440, Note_on_c, 14, 60, 95
8, 85440, Note_on_c, 14, 55, 95
8, 85680, Note_off_c, 14, 64, 80
8, 85680, Note_off_c, 14, 60, 80
8, 85680, Note_off_c, 14, 55, 80
8, 85680, Note_on_c, 14, 48, 95
8, 86160, Note_off_c, 14, 48, 80
8, 86160, Note_on_c, 14, 64, 95
8, 86160, Note_on_c, 14, 60, 95
8, 86160, Note_on_c, 14, 55, 95
8, 86400, Note_off_c, 14, 64, 80
8, 86400, Note_off_c, 14, 60, 80
8, 86400, Note_off_c, 14, 55, 80
8, 86400, Note_on_c, 14, 41, 95
8, 86880, Note_off_c, 14, 41, 80
8, 86880, Note_on_c, 14, 65, 95
8, 86880, Note_on_c, 14, 60, 95
8, 86880, Note_on_c, 14, 57, 95
8, 87120, Note_off_c, 14, 65, 80
8, 87120, Note_off_c, 14, 60, 80
8, 87120, Note_off_c, 14, 57, 80
8, 87120, Note_on_c, 14, 43, 95
8, 87600, Note_off_c, 14, 43, 80
8, 87600, Note_on_c, 14, 67, 95
8, 87600, Note_on_c, 14, 59, 95
8, 87600, Note_on_c, 14, 55, 95
8, 87840, Note_off_c, 14, 67, 80
8, 87840, Note_off_c, 14, 59, 80
8, 87840, Note_off_c, 14, 55, 80
8, 87840, Note_on_c, 14, 48, 95
8, 88320, Note_off_c, 14, 48, 80
8, 88320, Note_on_c, 14, 64, 95
8, 88320, Note_on_c, 14, 60, 95
8, 88320, Note_on_c, 14, 55, 95
8, 88560, Note_off_c, 14, 64, 80
8, 88560, Note_off_c, 14, 60, 80
8, 88560, Note_off_c, 14, 55, 80
8, 88560, Note_on_c, 14, 45, 95
8, 89040, Note_off_c, 14, 45, 80
8, 89040, Note_on_c, 14, 64, 95
8, 89040, Note_on_c, 14, 60, 95
8, 89040, Note_on_c, 14, 57, 95
8, 89280, Note_off_c, 14, 64, 80
8, 89280, Note_off_c, 14, 60, 80
8, 89280, Note_off_c, 14, 57, 80
8, 89280, Note_on_c, 14, 50, 95
8, 89760, Note_off_c, 14, 50, 80
8, 89760, Note_on_c, 14, 65, 95
8, 89760, Note_on_c, 14, 62, 95
8, 89760, Note_on_c, 14, 57, 95
8, 90000, Note_off_c, 14, 65, 80
8, 90000, Note_off_c, 14, 62, 80
8, 90000, Note_off_c, 14, 57, 80
8, 90000, Note_on_c, 14, 43, 95
8, 90480, Note_off_c, 14, 43, 80
8, 90480, Note_on_c, 14, 67, 95
8, 90480, Note_on_c, 14, 59, 95
8, 90480, Note_on_c, 14, 55, 95
8, 90720, Note_off_c, 14, 67, 80
8, 90720, Note_off_c, 14, 59, 80
8, 90720, Note_off_c, 14, 55, 80
8, 90720, Note_on_c, 14, 48, 95
8, 91200, Note_off_c, 14, 48, 80
8, 91200, Note_on_c, 14, 64, 95
8, 91200, Note_on_c, 14, 60, 95
8, 91200, Note_on_c, 14, 55, 95
8, 91440, Note_off_c, 14, 64, 80
8, 91440, Note_off_c, 14, 60, 80
8, 91440, Note_off_c, 14, 55, 80
8, 91440, Note_on_c, 14, 48, 95
8, 91920, Note_off_c, 14, 48, 80
8, 91920, Note_on_c, 14, 64, 95
8, 91920, Note_on_c, 14, 60, 95
8, 91920, Note_on_c, 14, 55, 95
8, 92160, Note_off_c, 14, 64, 80
8, 92160, Note_off_c, 14, 60, 80
8, 92160, Note_off_c, 14, 55, 80
8, 92160, Note_on_c, 14, 41, 95
8, 92640, Note_off_c, 14, 41, 80
8, 92640, Note_on_c, 14, 65, 95
8, 92640, Note_on_c, 14, 60, 95
8, 92640, Note_on_c, 14, 57, 95
8, 92880, Note_off_c, 14, 65, 80
8, 92880, Note_off_c, 14, 60, 80
8, 92880, Note_off_c, 14, 57, 80
8, 92880, Note_on_c, 14, 43, 95
8, 93360, Note_off_c, 14, 43, 80
8, 93360, Note_on_c, 14, 67, 95
8, 93360, Note_on_c, 14, 59, 95
8, 93360, Note_on_c, 14, 55, 95
8, 93600, Note_off_c, 14, 67, 80
8, 93600, Note_off_c, 14, 59, 80
8, 93600, Note_off_c, 14, 55, 80
8, 93600, Note_on_c, 14, 48, 95
8, 94080, Note_off_c, 14, 48, 80
8, 94080, Note_on_c, 14, 64, 95
8, 94080, Note_on_c, 14, 60, 95
8, 94080, Note_on_c, 14, 55, 95
8, 94320, Note_off_c, 14, 64, 80
8, 94320, Note_off_c, 14, 60, 80
8, 94320, Note_off_c, 14, 55, 80
8, 94320, Note_on_c, 14, 41, 95
8, 94800, Note_off_c, 14, 41, 80
8, 94800, Note_on_c, 14, 65, 95
8, 94800, Note_on_c, 14, 60, 95
8, 94800, Note_on_c, 14, 57, 95
8, 95040, Note_off_c, 14, 65, 80
8, 95040, Note_off_c, 14, 60, 80
8, 95040, Note_off_c, 14, 57, 80
8, 95040, Note_on_c, 14, 48, 95
8, 95520, Note_off_c, 14, 48, 80
8, 95520, Note_on_c, 14, 64, 95
8, 95520, Note_on_c, 14, 60, 95
8, 95520, Note_on_c, 14, 55, 95
8, 95760, Note_off_c, 14, 64, 80
8, 95760, Note_off_c, 14, 60, 80
8, 95760, Note_off_c, 14, 55, 80
8, 95760, Note_on_c, 14, 43, 95
8, 96240, Note_off_c, 14, 43, 80
8, 96240, Note_on_c, 14, 67, 95
8, 96240, Note_on_c, 14, 59, 95
8, 96240, Note_on_c, 14, 55, 95
8, 96480, Note_off_c, 14, 67, 80
8, 96480, Note_off_c, 14, 59, 80
8, 96480, Note_off_c, 14, 55, 80
8, 96480, Note_on_c, 14, 48, 95
8, 96960, Note_off_c, 14, 48, 80
8, 96960, Note_on_c, 14, 64, 95
8, 96960, Note_on_c, 14, 60, 95
8, 96960, Note_on_c, 14, 55, 95
8, 97200, Note_off_c, 14, 64, 80
8, 97200, Note_off_c, 14, 60, 80
8, 97200, Note_off_c, 14, 55, 80
8, 97200, Note_on_c, 14, 48, 95
8, 97680, Note_off_c, 14, 48, 80
8, 97680, Note_on_c, 14, 64, 95
8, 97680, Note_on_c, 14, 60, 95
8, 97680, Note_on_c, 14, 55, 95
8, 97920, Note_off_c, 14, 64, 80
8, 97920, Note_off_c, 14, 60, 80
8, 97920, Note_off_c, 14, 55, 80
8, 97920, Note_on_c, 14, 48, 95
8, 98400, Note_off_c, 14, 48, 80
8, 98400, Note_on_c, 14, 64, 95
8, 98400, Note_on_c, 14, 60, 95
8, 98400, Note_on_c, 14, 55, 95
8, 98640, Note_off_c, 14, 64, 80
8, 98640, Note_off_c, 14, 60, 80
8, 98640, Note_off_c, 14, 55, 80
8, 98640, Note_on_c, 14, 48, 95
8, 99120, Note_off_c, 14, 48, 80
8, 99120, Note_on_c, 14, 64, 95
8, 99120, Note_on_c, 14, 60, 95
8, 99120, Note_on_c, 14, 55, 95
8, 99360, Note_off_c, 14, 64, 80
8, 99360, Note_off_c, 14, 60, 80
8, 99360, Note_off_c, 14, 55, 80
8, 99360, Note_on_c, 14, 41, 95
8, 99840, Note_off_c, 14, 41, 80
8, 99840, Note_on_c, 14, 65, 95
8, 99840, Note_on_c, 14, 60, 95
8, 99840, Note_on_c, 14, 57, 95
8, 100080, Note_off_c, 14, 65, 80
8, 100080, Note_off_c, 14, 60, 80
8, 100080, Note_off_c, 14, 57, 80
8, 100080, Note_on_c, 14, 48, 95
8, 100560, Note_off_c, 14, 48, 80
8, 100560, Note_on_c, 14, 64, 95
8, 100560, Note_on_c, 14, 60, 95
8, 100560, Note_on_c, 14, 55, 95
8, 100800, Note_off_c, 14, 64, 80
8, 100800, Note_off_c, 14, 60, 80
8, 100800, Note_off_c, 14, 55, 80
8, 100800, Note_on_c, 14, 48, 95
8, 101280, Note_off_c, 14, 48, 80
8, 101280, Note_on_c, 14, 64, 95
8, 101280, Note_on_c, 14, 60, 95
8, 101280, Note_on_c, 14, 55, 95
8, 101520, Note_off_c, 14, 64, 80
8, 101520, Note_off_c, 14, 60, 80
8, 101520, Note_off_c, 14, 55, 80
8, 101520, Note_on_c, 14, 48, 95
8, 102000, Note_off_c, 14, 48, 80
8, 102000, Note_on_c, 14, 64, 95
8, 102000, Note_on_c, 14, 60, 95
8, 102000, Note_on_c, 14, 55, 95
8, 102240, Note_off_c, 14, 64, 80
8, 102240, Note_off_c, 14, 60, 80
8, 102240, Note_off_c, 14, 55, 80
8, 102240, Note_on_c, 14, 41, 95
8, 102720, Note_off_c, 14, 41, 80
8, 102720, Note_on_c, 14, 65, 95
8, 102720, Note_on_c, 14, 60, 95
8, 102720, Note_on_c, 14, 57, 95
8, 102960, Note_off_c, 14, 65, 80
8, 102960, Note_off_c, 14, 60, 80
8, 102960, Note_off_c, 14, 57, 80
8, 102960, Note_on_c, 14, 48, 95
8, 103440, Note_off_c, 14, 48, 80
8, 103440, Note_on_c, 14, 64, 95
8, 103440, Note_on_c, 14, 60, 95
8, 103440, Note_on_c, 14, 55, 95
8, 103680, Note_off_c, 14, 64, 80
8, 103680, Note_off_c, 14, 60, 80
8, 103680, Note_off_c, 14, 55, 80
8, 103680, Note_on_c, 14, 48, 95
8, 104160, Note_off_c, 14, 48, 80
8, 104160, Note_on_c, 14, 64, 95
8, 104160, Note_on_c, 14, 60, 95
8, 104160, Note_on_c, 14, 55, 95
8, 104400, Note_off_c, 14, 64, 80
8, 104400, Note_off_c, 14, 60, 80
8, 104400, Note_off_c, 14, 55, 80
8, 104400, Note_on_c, 14, 40, 95
8, 104880, Note_off_c, 14, 40, 80
8, 104880, Note_on_c, 14, 64, 95
8, 104880, Note_on_c, 14, 59, 95
8, 104880, Note_on_c, 14, 55, 95
8, 105120, Note_off_c, 14, 64, 80
8, 105120, Note_off_c, 14, 59, 80
8, 105120, Note_off_c, 14, 55, 80
8, 105120, Note_on_c, 14, 45, 95
8, 105600, Note_off_c, 14, 45, 80
8, 105600, Note_on_c, 14, 64, 95
8, 105600, Note_on_c, 14, 60, 95
8, 105600, Note_on_c, 14, 57, 95
8, 105840, Note_off_c, 14, 64, 80
8, 105840, Note_off_c, 14, 60, 80
8, 105840, Note_off_c, 14, 57, 80
8, 105840, Note_on_c, 14, 43, 95
8, 106320, Note_off_c, 14, 43, 80
8, 106320, Note_on_c, 14, 64, 95
8, 106320, Note_on_c, 14, 60, 95
8, 106320, Note_on_c, 14, 57, 95
8, 106560, Note_off_c, 14, 64, 80
8, 106560, Note_off_c, 14, 60, 80
8, 106560, Note_off_c, 14, 57, 80
8, 106560, Note_on_c, 14, 50, 95
8, 107040, Note_off_c, 14, 50, 80
8, 107040, Note_on_c, 14, 65, 95
8, 107040, Note_on_c, 14, 62, 95
8, 107040, Note_on_c, 14, 57, 95
8, 107280, Note_off_c, 14, 65, 80
8, 107280, Note_off_c, 14, 62, 80
8, 107280, Note_off_c, 14, 57, 80
8, 107280, Note_on_c, 14, 43, 95
8, 107760, Note_off_c, 14, 43, 80
8, 107760, Note_on_c, 14, 67, 95
8, 107760, Note_on_c, 14, 59, 95
8, 107760, Note_on_c, 14, 55, 95
8, 108000, Note_off_c, 14, 67, 80
8, 108000, Note_off_c, 14, 59, 80
8, 108000, Note_off_c, 14, 55, 80
8, 108000, Note_on_c, 14, 48, 95
8, 108480, Note_off_c, 14, 48, 80
8, 108480, Note_on_c, 14, 64, 95
8, 108480, Note_on_c, 14, 60, 95
8, 108480, Note_on_c, 14, 55, 95
8, 108720, Note_off_c, 14, 64, 80
8, 108720, Note_off_c, 14, 60, 80
8, 108720, Note_off_c, 14, 55, 80
8, 108720, Note_on_c, 14, 48, 95
8, 109200, Note_off_c, 14, 48, 80
8, 109200, Note_on_c, 14, 64, 95
8, 109200, Note_on_c, 14, 60, 95
8, 109200, Note_on_c, 14, 55, 95
8, 109440, Note_off_c, 14, 64, 80
8, 109440, Note_off_c, 14, 60, 80
8, 109440, Note_off_c, 14, 55, 80
8, 109440, Note_on_c, 14, 41, 95
8, 109920, Note_off_c, 14, 41, 80
8, 109920, Note_on_c, 14, 65, 95
8, 109920, Note_on_c, 14, 60, 95
8, 109920, Note_on_c, 14, 57, 95
8, 110160, Note_off_c, 14, 65, 80
8, 110160, Note_off_c, 14, 60, 80
8, 110160, Note_off_c, 14, 57, 80
8, 110160, Note_on_c, 14, 43, 95
8, 110640, Note_off_c, 14, 43, 80
8, 110640, Note_on_c, 14, 67, 95
8, 110640, Note_on_c, 14, 59, 95
8, 110640, Note_on_c, 14, 55, 95
8, 110880, Note_off_c, 14, 67, 80
8, 110880, Note_off_c, 14, 59, 80
8, 110880, Note_off_c, 14, 55, 80
8, 110880, Note_on_c, 14, 48, 95
8, 111360, Note_off_c, 14, 48, 80
8, 111360, Note_on_c, 14, 64, 95
8, 111360, Note_on_c, 14, 60, 95
8, 111360, Note_on_c, 14, 55, 95
8, 111600, Note_off_c, 14, 64, 80
8, 111600, Note_off_c, 14, 60, 80
8, 111600, Note_off_c, 14, 55, 80
8, 111600, Note_on_c, 14, 45, 95
8, 112080, Note_off_c, 14, 45, 80
8, 112080, Note_on_c, 14, 64, 95
8, 112080, Note_on_c, 14, 60, 95
8, 112080, Note_on_c, 14, 57, 95
8, 112320, Note_off_c, 14, 64, 80
8, 112320, Note_off_c, 14, 60, 80
8, 112320, Note_off_c, 14, 57, 80
8, 112320, Note_on_c, 14, 50, 95
8, 112800, Note_off_c, 14, 50, 80
8, 112800, Note_on_c, 14, 65, 95
8, 112800, Note_on_c, 14, 62, 95
8, 112800, Note_on_c, 14, 57, 95
8, 113040, Note_off_c, 14, 65, 80
8, 113040, Note_off_c, 14, 62, 80
8, 113040, Note_off_c, 14, 57, 80
8, 113040, Note_on_c, 14, 43, 95
8, 113520, Note_off_c, 14, 43, 80
8, 113520, Note_on_c, 14, 67, 95
8, 113520, Note_on_c, 14, 59, 95
8, 113520, Note_on_c, 14, 55, 95
8, 113760, Note_off_c, 14, 67, 80
8, 113760, Note_off_c, 14, 59, 80
8, 113760, Note_off_c, 14, 55, 80
8, 113760, Note_on_c, 14, 48, 95
8, 114240, Note_off_c, 14, 48, 80
8, 114240, Note_on_c, 14, 64, 95
8, 114240, Note_on_c, 14, 60, 95
8, 114240, Note_on_c, 14, 55, 95
8, 114480, Note_off_c, 14, 64, 80
8, 114480, Note_off_c, 14, 60, 80
8, 114480, Note_off_c, 14, 55, 80
8, 114480, Note_on_c, 14, 48, 95
8, 114960, Note_off_c, 14, 48, 80
8, 114960, Note_on_c, 14, 64, 95
8, 114960, Note_on_c, 14, 60, 95
8, 114960, Note_on_c, 14, 55, 95
8, 115200, Note_off_c, 14, 64, 80
8, 115200, Note_off_c, 14, 60, 80
8, 115200, Note_off_c, 14, 55, 80
8, 115200, Note_on_c, 14, 41, 95
8, 115680, Note_off_c, 14, 41, 80
8, 115680, Note_on_c, 14, 65, 95
8, 115680, Note_on_c, 14, 60, 95
8, 115680, Note_on_c, 14, 57, 95
8, 115920, Note_off_c, 14, 65, 80
8, 115920, Note_off_c, 14, 60, 80
8, 115920, Note_off_c, 14, 57, 80
8, 115920, Note_on_c, 14, 43, 95
8, 116400, Note_off_c, 14, 43, 80
8, 116400, Note_on_c, 14, 67, 95
8, 116400, Note_on_c, 14, 59, 95
8, 116400, Note_on_c, 14, 55, 95
8, 116640, Note_off_c, 14, 67, 80
8, 116640, Note_off_c, 14, 59, 80
8, 116640, Note_off_c, 14, 55, 80
8, 116640, Note_on_c, 14, 48, 95
8, 117120, Note_off_c, 14, 48, 80
8, 117120, Note_on_c, 14, 64, 95
8, 117120, Note_on_c, 14, 60, 95
8, 117120, Note_on_c, 14, 55, 95
8, 117360, Note_off_c, 14, 64, 80
8, 117360, Note_off_c, 14, 60, 80
8, 117360, Note_off_c, 14, 55, 80
8, 117360, Note_on_c, 14, 41, 95
8, 117840, Note_off_c, 14, 41, 80
8, 117840, Note_on_c, 14, 65, 95
8, 117840, Note_on_c, 14, 60, 95
8, 117840, Note_on_c, 14, 57, 95
8, 118080, Note_off_c, 14, 65, 80
8, 118080, Note_off_c, 14, 60, 80
8, 118080, Note_off_c, 14, 57, 80
8, 118080, Note_on_c, 14, 48, 95
8, 118560, Note_off_c, 14, 48, 80
8, 118560, Note_on_c, 14, 64, 95
8, 118560, Note_on_c, 14, 60, 95
8, 118560, Note_on_c, 14, 55, 95
8, 118800, Note_off_c, 14, 64, 80
8, 118800, Note_off_c, 14, 60, 80
8, 118800, Note_off_c, 14, 55, 80
8, 118800, Note_on_c, 14, 43, 95
8, 119280, Note_off_c, 14, 43, 80
8, 119280, Note_on_c, 14, 67, 95
8, 119280, Note_on_c, 14, 59, 95
8, 119280, Note_on_c, 14, 55, 95
8, 119520, Note_off_c, 14, 67, 80
8, 119520, Note_off_c, 14, 59, 80
8, 119520, Note_off_c, 14, 55, 80
8, 119520, Note_on_c, 14, 48, 95
8, 120000, Note_off_c, 14, 48, 80
8, 120000, Note_on_c, 14, 64, 95
8, 120000, Note_on_c, 14, 60, 95
8, 120000, Note_on_c, 14, 55, 95
8, 120240, Note_off_c, 14, 64, 80
8, 120240, Note_off_c, 14, 60, 80
8, 120240, Note_off_c, 14, 55, 80
8, 120240, Note_on_c, 14, 48, 95
8, 120720, Note_off_c, 14, 48, 80
8, 120720, Note_on_c, 14, 64, 95
8, 120720, Note_on_c, 14, 60, 95
8, 120720, Note_on_c, 14, 55, 95
8, 120960, Note_off_c, 14, 64, 80
8, 120960, Note_off_c, 14, 60, 80
8, 120960, Note_off_c, 14, 55, 80
8, 120960, Note_on_c, 14, 48, 95
8, 121440, Note_off_c, 14, 48, 80
8, 121440, Note_on_c, 14, 64, 95
8, 121440, Note_on_c, 14, 60, 95
8, 121440, Note_on_c, 14, 55, 95
8, 121680, Note_off_c, 14, 64, 80
8, 121680, Note_off_c, 14, 60, 80
8, 121680, Note_off_c, 14, 55, 80
8, 121680, Note_on_c, 14, 48, 95
8, 122160, Note_off_c, 14, 48, 80
8, 122160, Note_on_c, 14, 64, 95
8, 122160, Note_on_c, 14, 60, 95
8, 122160, Note_on_c, 14, 55, 95
8, 122400, Note_off_c, 14, 64, 80
8, 122400, Note_off_c, 14, 60, 80
8, 122400, Note_off_c, 14, 55, 80
8, 122400, Note_on_c, 14, 41, 95
8, 122880, Note_off_c, 14, 41, 80
8, 122880, Note_on_c, 14, 65, 95
8, 122880, Note_on_c, 14, 60, 95
8, 122880, Note_on_c, 14, 57, 95
8, 123120, Note_off_c, 14, 65, 80
8, 123120, Note_off_c, 14, 60, 80
8, 123120, Note_off_c, 14, 57, 80
8, 123120, Note_on_c, 14, 48, 95
8, 123600, Note_off_c, 14, 48, 80
8, 123600, Note_on_c, 14, 64, 95
8, 123600, Note_on_c, 14, 60, 95
8, 123600, Note_on_c, 14, 55, 95
8, 123840, Note_off_c, 14, 64, 80
8, 123840, Note_off_c, 14, 60, 80
8, 123840, Note_off_c, 14, 55, 80
8, 123840, Note_on_c, 14, 48, 95
8, 124320, Note_off_c, 14, 48, 80
8, 124320, Note_on_c, 14, 64, 95
8, 124320, Note_on_c, 14, 60, 95
8, 124320, Note_on_c, 14, 55, 95
8, 124560, Note_off_c, 14, 64, 80
8, 124560, Note_off_c, 14, 60, 80
8, 124560, Note_off_c, 14, 55, 80
8, 124560, Note_on_c, 14, 48, 95
8, 125040, Note_off_c, 14, 48, 80
8, 125040, Note_on_c, 14, 64, 95
8, 125040, Note_on_c, 14, 60, 95
8, 125040, Note_on_c, 14, 55, 95
8, 125280, Note_off_c, 14, 64, 80
8, 125280, Note_off_c, 14, 60, 80
8, 125280, Note_off_c, 14, 55, 80
8, 125280, Note_on_c, 14, 41, 95
8, 125760, Note_off_c, 14, 41, 80
8, 125760, Note_on_c, 14, 65, 95
8, 125760, Note_on_c, 14, 60, 95
8, 125760, Note_on_c, 14, 57, 95
8, 126000, Note_off_c, 14, 65, 80
8, 126000, Note_off_c, 14, 60, 80
8, 126000, Note_off_c, 14, 57, 80
8, 126000, Note_on_c, 14, 48, 95
8, 126480, Note_off_c, 14, 48, 80
8, 126480, Note_on_c, 14, 64, 95
8, 126480, Note_on_c, 14, 60, 95
8, 126480, Note_on_c, 14, 55, 95
8, 126720, Note_off_c, 14, 64, 80
8, 126720, Note_off_c, 14, 60, 80
8, 126720, Note_off_c, 14, 55, 80
8, 126720, Note_on_c, 14, 48, 95
8, 127200, Note_off_c, 14, 48, 80
8, 127200, Note_on_c, 14, 64, 95
8, 127200, Note_on_c, 14, 60, 95
8, 127200, Note_on_c, 14, 55, 95
8, 127440, Note_off_c, 14, 64, 80
8, 127440, Note_off_c, 14, 60, 80
8, 127440, Note_off_c, 14, 55, 80
8, 127440, Note_on_c, 14, 40, 95
8, 127920, Note_off_c, 14, 40, 80
8, 127920, Note_on_c, 14, 64, 95
8, 127920, Note_on_c, 14, 59, 95
8, 127920, Note_on_c, 14, 55, 95
8, 128160, Note_off_c, 14, 64, 80
8, 128160, Note_off_c, 14, 59, 80
8, 128160, Note_off_c, 14, 55, 80
8, 128160, Note_on_c, 14, 45, 95
8, 128640, Note_off_c, 14, 45, 80
8, 128640, Note_on_c, 14, 64, 95
8, 128640, Note_on_c, 14, 60, 95
8, 128640, Note_on_c, 14, 57, 95
8, 128880, Note_off_c, 14, 64, 80
8, 128880, Note_off_c, 14, 60, 80
8, 128880, Note_off_c, 14, 57, 80
8, 128880, Note_on_c, 14, 43, 95
8, 129360, Note_off_c, 14, 43, 80
8, 129360, Note_on_c, 14, 64, 95
8, 129360, Note_on_c, 14, 60, 95
8, 129360, Note_on_c, 14, 57, 95
8, 129600, Note_off_c, 14, 64, 80
8, 129600, Note_off_c, 14, 60, 80
8, 129600, Note_off_c, 14, 57, 80
8, 129600, Note_on_c, 14, 50, 95
8, 130080, Note_off_c, 14, 50, 80
8, 130080, Note_on_c, 14, 65, 95
8, 130080, Note_on_c, 14, 62, 95
8, 130080, Note_on_c, 14, 57, 95
8, 130320, Note_off_c, 14, 65, 80
8, 130320, Note_off_c, 14, 62, 80
8, 130320, Note_off_c, 14, 57, 80
8, 130320, Note_on_c, 14, 43, 95
8, 130800, Note_off_c, 14, 43, 80
8, 130800, Note_on_c, 14, 67, 95
8, 130800, Note_on_c, 14, 59, 95
8, 130800, Note_on_c, 14, 55, 95
8, 131040, Note_off_c, 14, 67, 80
8, 131040, Note_off_c, 14, 59, 80
8, 131040, Note_off_c, 14, 55, 80
8, 131040, Note_on_c, 14, 48, 95
8, 131520, Note_off_c, 14, 48, 80
8, 131520, Note_on_c, 14, 64, 95
8, 131520, Note_on_c, 14, 60, 95
8, 131520, Note_on_c, 14, 55, 95
8, 131760, Note_off_c, 14, 64, 80
8, 131760, Note_off_c, 14, 60, 80
8, 131760, Note_off_c, 14, 55, 80
8, 131760, Note_on_c, 14, 48, 95
8, 132240, Note_off_c, 14, 48, 80
8, 132240, Note_on_c, 14, 64, 95
8, 132240, Note_on_c, 14, 60, 95
8, 132240, Note_on_c, 14, 55, 95
8, 132480, Note_off_c, 14, 64, 80
8, 132480, Note_off_c, 14, 60, 80
8, 132480, Note_off_c, 14, 55, 80
8, 132480, Note_on_c, 14, 41, 95
8, 132960, Note_off_c, 14, 41, 80
8, 132960, Note_on_c, 14, 65, 95
8, 132960, Note_on_c, 14, 60, 95
8, 132960, Note_on_c, 14, 57, 95
8, 133200, Note_off_c, 14, 65, 80
8, 133200, Note_off_c, 14, 60, 80
8, 133200, Note_off_c, 14, 57, 80
8, 133200, Note_on_c, 14, 43, 95
8, 133680, Note_off_c, 14, 43, 80
8, 133680, Note_on_c, 14, 67, 95
8, 133680, Note_on_c, 14, 59, 95
8, 133680, Note_on_c, 14, 55, 95
8, 133920, Note_off_c, 14, 67, 80
8, 133920, Note_off_c, 14, 59, 80
8, 133920, Note_off_c, 14, 55, 80
8, 133920, Note_on_c, 14, 48, 95
8, 134400, Note_off_c, 14, 48, 80
8, 134400, Note_on_c, 14, 64, 95
8, 134400, Note_on_c, 14, 60, 95
8, 134400, Note_on_c, 14, 55, 95
8, 134640, Note_off_c, 14, 64, 80
8, 134640, Note_off_c, 14, 60, 80
8, 134640, Note_off_c, 14, 55, 80
8, 134640, Note_on_c, 14, 45, 95
8, 135120, Note_off_c, 14, 45, 80
8, 135120, Note_on_c, 14, 64, 95
8, 135120, Note_on_c, 14, 60, 95
8, 135120, Note_on_c, 14, 57, 95
8, 135360, Note_off_c, 14, 64, 80
8, 135360, Note_off_c, 14, 60, 80
8, 135360, Note_off_c, 14, 57, 80
8, 135360, Note_on_c, 14, 50, 95
8, 135840, Note_off_c, 14, 50, 80
8, 135840, Note_on_c, 14, 65, 95
8, 135840, Note_on_c, 14, 62, 95
8, 135840, Note_on_c, 14, 57, 95
8, 136080, Note_off_c, 14, 65, 80
8, 136080, Note_off_c, 14, 62, 80
8, 136080, Note_off_c, 14, 57, 80
8, 136080, Note_on_c, 14, 43, 95
8, 136560, Note_off_c, 14, 43, 80
8, 136560, Note_on_c, 14, 67, 95
8, 136560, Note_on_c, 14, 59, 95
8, 136560, Note_on_c, 14, 55, 95
8, 136800, Note_off_c, 14, 67, 80
8, 136800, Note_off_c, 14, 59, 80
8, 136800, Note_off_c, 14, 55, 80
8, 136800, Note_on_c, 14, 48, 95
8, 137280, Note_off_c, 14, 48, 80
8, 137280, Note_on_c, 14, 64, 95
8, 137280, Note_on_c, 14, 60, 95
8, 137280, Note_on_c, 14, 55, 95
8, 137520, Note_off_c, 14, 64, 80
8, 137520, Note_off_c, 14, 60, 80
8, 137520, Note_off_c, 14, 55, 80
8, 137520, Note_on_c, 14, 48, 95
8, 138000, Note_off_c, 14, 48, 80
8, 138000, Note_on_c, 14, 64, 95
8, 138000, Note_on_c, 14, 60, 95
8, 138000, Note_on_c, 14, 55, 95
8, 138240, Note_off_c, 14, 64, 80
8, 138240, Note_off_c, 14, 60, 80
8, 138240, Note_off_c, 14, 55, 80
8, 138240, Note_on_c, 14, 41, 95
8, 138720, Note_off_c, 14, 41, 80
8, 138720, Note_on_c, 14, 65, 95
8, 138720, Note_on_c, 14, 60, 95
8, 138720, Note_on_c, 14, 57, 95
8, 138960, Note_off_c, 14, 65, 80
8, 138960, Note_off_c, 14, 60, 80
8, 138960, Note_off_c, 14, 57, 80
8, 138960, Note_on_c, 14, 43, 95
8, 139440, Note_off_c, 14, 43, 80
8, 139440, Note_on_c, 14, 67, 95
8, 139440, Note_on_c, 14, 59, 95
8, 139440, Note_on_c, 14, 55, 95
8, 139680, Note_off_c, 14, 67, 80
8, 139680, Note_off_c, 14, 59, 80
8, 139680, Note_off_c, 14, 55, 80
8, 139680, Note_on_c, 14, 48, 95
8, 140160, Note_off_c, 14, 48, 80
8, 140160, Note_on_c, 14, 64, 95
8, 140160, Note_on_c, 14, 60, 95
8, 140160, Note_on_c, 14, 55, 95
8, 140400, Note_off_c, 14, 64, 80
8, 140400, Note_off_c, 14, 60, 80
8, 140400, Note_off_c, 14, 55, 80
8, 140400, Note_on_c, 14, 41, 95
8, 140880, Note_off_c, 14, 41, 80
8, 140880, Note_on_c, 14, 65, 95
8, 140880, Note_on_c, 14, 60, 95
8, 140880, Note_on_c, 14, 57, 95
8, 141120, Note_off_c, 14, 65, 80
8, 141120, Note_off_c, 14, 60, 80
8, 141120, Note_off_c, 14, 57, 80
8, 141120, Note_on_c, 14, 48, 95
8, 141600, Note_off_c, 14, 48, 80
8, 141600, Note_on_c, 14, 64, 95
8, 141600, Note_on_c, 14, 60, 95
8, 141600, Note_on_c, 14, 55, 95
8, 141840, Note_off_c, 14, 64, 80
8, 141840, Note_off_c, 14, 60, 80
8, 141840, Note_off_c, 14, 55, 80
8, 141840, Note_on_c, 14, 43, 95
8, 142320, Note_off_c, 14, 43, 80
8, 142320, Note_on_c, 14, 67, 95
8, 142320, Note_on_c, 14, 59, 95
8, 142320, Note_on_c, 14, 55, 95
8, 142560, Note_off_c, 14, 67, 80
8, 142560, Note_off_c, 14, 59, 80
8, 142560, Note_off_c, 14, 55, 80
8, 142560, Note_on_c, 14, 48, 95
8, 143040, Note_off_c, 14, 48, 80
8, 143040, Note_on_c, 14, 64, 95
8, 143040, Note_on_c, 14, 60, 95
8, 143040, Note_on_c, 14, 55, 95
8, 143280, Note_off_c, 14, 64, 80
8, 143280, Note_off_c, 14, 60, 80
8, 143280, Note_off_c, 14, 55, 80
8, 143280, Note_on_c, 14, 48, 95
8, 143760, Note_off_c, 14, 48, 80
8, 143760, Note_on_c, 14, 64, 95
8, 143760, Note_on_c, 14, 60, 95
8, 143760, Note_on_c, 14, 55, 95
8, 144000, Note_off_c, 14, 64, 80
8, 144000, Note_off_c, 14, 60, 80
8, 144000, Note_off_c, 14, 55, 80
8, 144000, Note_on_c, 14, 48, 95
8, 144480, Note_off_c, 14, 48, 80
8, 144480, Note_on_c, 14, 64, 95
8, 144480, Note_on_c, 14, 60, 95
8, 144480, Note_on_c, 14, 55, 95
8, 144720, Note_off_c, 14, 64, 80
8, 144720, Note_off_c, 14, 60, 80
8, 144720, Note_off_c, 14, 55, 80
8, 144720, Note_on_c, 14, 48, 95
8, 145200, Note_off_c, 14, 48, 80
8, 145200, Note_on_c, 14, 64, 95
8, 145200, Note_on_c, 14, 60, 95
8, 145200, Note_on_c, 14, 55, 95
8, 145440, Note_off_c, 14, 64, 80
8, 145440, Note_off_c, 14, 60, 80
8, 145440, Note_off_c, 14, 55, 80
8, 145440, Note_on_c, 14, 41, 95
8, 145920, Note_off_c, 14, 41, 80
8, 145920, Note_on_c, 14, 65, 95
8, 145920, Note_on_c, 14, 60, 95
8, 145920, Note_on_c, 14, 57, 95
8, 146160, Note_off_c, 14, 65, 80
8, 146160, Note_off_c, 14, 60, 80
8, 146160, Note_off_c, 14, 57, 80
8, 146160, Note_on_c, 14, 48, 95
8, 146640, Note_off_c, 14, 48, 80
8, 146640, Note_on_c, 14, 64, 95
8, 146640, Note_on_c, 14, 60, 95
8, 146640, Note_on_c, 14, 55, 95
8, 146880, Note_off_c, 14, 64, 80
8, 146880, Note_off_c, 14, 60, 80
8, 146880, Note_off_c, 14, 55, 80
8, 146880, Note_on_c, 14, 48, 95
8, 147360, Note_off_c, 14, 48, 80
8, 147360, Note_on_c, 14, 64, 95
8, 147360, Note_on_c, 14, 60, 95
8, 147360, Note_on_c, 14, 55, 95
8, 147600, Note_off_c, 14, 64, 80
8, 147600, Note_off_c, 14, 60, 80
8, 147600, Note_off_c, 14, 55, 80
8, 147600, Note_on_c, 14, 48, 95
8, 148080, Note_off_c, 14, 48, 80
8, 148080, Note_on_c, 14, 64, 95
8, 148080, Note_on_c, 14, 60, 95
8, 148080, Note_on_c, 14, 55, 95
8, 148320, Note_off_c, 14, 64, 80
8, 148320, Note_off_c, 14, 60, 80
8, 148320, Note_off_c, 14, 55, 80
8, 148320, Note_on_c, 14, 41, 95
8, 148800, Note_off_c, 14, 41, 80
8, 148800, Note_on_c, 14, 65, 95
8, 148800, Note_on_c, 14, 60, 95
8, 148800, Note_on_c, 14, 57, 95
8, 149040, Note_off_c, 14, 65, 80
8, 149040, Note_off_c, 14, 60, 80
8, 149040, Note_off_c, 14, 57, 80
8, 149040, Note_on_c, 14, 48, 95
8, 149520, Note_off_c, 14, 48, 80
8, 149520, Note_on_c, 14, 64, 95
8, 149520, Note_on_c, 14, 60, 95
8, 149520, Note_on_c, 14, 55, 95
8, 149760, Note_off_c, 14, 64, 80
8, 149760, Note_off_c, 14, 60, 80
8, 149760, Note_off_c, 14, 55, 80
8, 149760, Note_on_c, 14, 48, 95
8, 150240, Note_off_c, 14, 48, 80
8, 150240, Note_on_c, 14, 64, 95
8, 150240, Note_on_c, 14, 60, 95
8, 150240, Note_on_c, 14, 55, 95
8, 150480, Note_off_c, 14, 64, 80
8, 150480, Note_off_c, 14, 60, 80
8, 150480, Note_off_c, 14, 55, 80
8, 150480, Note_on_c, 14, 40, 95
8, 150960, Note_off_c, 14, 40, 80
8, 150960, Note_on_c, 14, 64, 95
8, 150960, Note_on_c, 14, 59, 95
8, 150960, Note_on_c, 14, 55, 95
8, 151200, Note_off_c, 14, 64, 80
8, 151200, Note_off_c, 14, 59, 80
8, 151200, Note_off_c, 14, 55, 80
8, 151200, Note_on_c, 14, 45, 95
8, 151680, Note_off_c, 14, 45, 80
8, 151680, Note_on_c, 14, 64, 95
8, 151680, Note_on_c, 14, 60, 95
8, 151680, Note_on_c, 14, 57, 95
8, 151920, Note_off_c, 14, 64, 80
8, 151920, Note_off_c, 14, 60, 80
8, 151920, Note_off_c, 14, 57, 80
8, 151920, Note_on_c, 14, 43, 95
8, 152400, Note_off_c, 14, 43, 80
8, 152400, Note_on_c, 14, 64, 95
8, 152400, Note_on_c, 14, 60, 95
8, 152400, Note_on_c, 14, 57, 95
8, 152640, Note_off_c, 14, 64, 80
8, 152640, Note_off_c, 14, 60, 80
8, 152640, Note_off_c, 14, 57, 80
8, 152640, Note_on_c, 14, 50, 95
8, 153120, Note_off_c, 14, 50, 80
8, 153120, Note_on_c, 14, 65, 95
8, 153120, Note_on_c, 14, 62, 95
8, 153120, Note_on_c, 14, 57, 95
8, 153360, Note_off_c, 14, 65, 80
8, 153360, Note_off_c, 14, 62, 80
8, 153360, Note_off_c, 14, 57, 80
8, 153360, Note_on_c, 14, 43, 95
8, 153840, Note_off_c, 14, 43, 80
8, 153840, Note_on_c, 14, 67, 95
8, 153840, Note_on_c, 14, 59, 95
8, 153840, Note_on_c, 14, 55, 95
8, 154080, Note_off_c, 14, 67, 80
8, 154080, Note_off_c, 14, 59, 80
8, 154080, Note_off_c, 14, 55, 80
8, 154080, Note_on_c, 14, 48, 95
8, 154560, Note_off_c, 14, 48, 80
8, 154560, Note_on_c, 14, 64, 95
8, 154560, Note_on_c, 14, 60, 95
8, 154560, Note_on_c, 14, 55, 95
8, 154800, Note_off_c, 14, 64, 80
8, 154800, Note_off_c, 14, 60, 80
8, 154800, Note_off_c, 14, 55, 80
8, 154800, Note_on_c, 14, 48, 95
8, 155280, Note_off_c, 14, 48, 80
8, 155280, Note_on_c, 14, 64, 95
8, 155280, Note_on_c, 14, 60, 95
8, 155280, Note_on_c, 14, 55, 95
8, 155520, Note_off_c, 14, 64, 80
8, 155520, Note_off_c, 14, 60, 80
8, 155520, Note_off_c, 14, 55, 80
8, 155520, Note_on_c, 14, 41, 95
8, 156000, Note_off_c, 14, 41, 80
8, 156000, Note_on_c, 14, 65, 95
8, 156000, Note_on_c, 14, 60, 95
8, 156000, Note_on_c, 14, 57, 95
8, 156240, Note_off_c, 14, 65, 80
8, 156240, Note_off_c, 14, 60, 80
8, 156240, Note_off_c, 14, 57, 80
8, 156240, Note_on_c, 14, 43, 95
8, 156720, Note_off_c, 14, 43, 80
8, 156720, Note_on_c, 14, 67, 95
8, 156720, Note_on_c, 14, 59, 95
8, 156720, Note_on_c, 14, 55, 95
8, 156960, Note_off_c, 14, 67, 80
8, 156960, Note_off_c, 14, 59, 80
8, 156960, Note_off_c, 14, 55, 80
8, 156960, Note_on_c, 14, 48, 95
8, 157440, Note_off_c, 14, 48, 80
8, 157440, Note_on_c, 14, 64, 95
8, 157440, Note_on_c, 14, 60, 95
8, 157440, Note_on_c, 14, 55, 95
8, 157680, Note_off_c, 14, 64, 80
8, 157680, Note_off_c, 14, 60, 80
8, 157680, Note_off_c, 14, 55, 80
8, 157680, Note_on_c, 14, 45, 95
8, 158160, Note_off_c, 14, 45, 80
8, 158160, Note_on_c, 14, 64, 95
8, 158160, Note_on_c, 14, 60, 95
8, 158160, Note_on_c, 14, 57, 95
8, 158400, Note_off_c, 14, 64, 80
8, 158400, Note_off_c, 14, 60, 80
8, 158400, Note_off_c, 14, 57, 80
8, 158400, Note_on_c, 14, 50, 95
8, 158880, Note_off_c, 14, 50, 80
8, 158880, Note_on_c, 14, 65, 95
8, 158880, Note_on_c, 14, 62, 95
8, 158880, Note_on_c, 14, 57, 95
8, 159120, Note_off_c, 14, 65, 80
8, 159120, Note_off_c, 14, 62, 80
8, 159120, Note_off_c, 14, 57, 80
8, 159120, Note_on_c, 14, 43, 95
8, 159600, Note_off_c, 14, 43, 80
8, 159600, Note_on_c, 14, 67, 95
8, 159600, Note_on_c, 14, 59, 95
8, 159600, Note_on_c, 14, 55, 95
8, 159840, Note_off_c, 14, 67, 80
8, 159840, Note_off_c, 14, 59, 80
8, 159840, Note_off_c, 14, 55, 80
8, 159840, Note_on_c, 14, 48, 95
8, 160320, Note_off_c, 14, 48, 80
8, 160320, Note_on_c, 14, 64, 95
8, 160320, Note_on_c, 14, 60, 95
8, 160320, Note_on_c, 14, 55, 95
8, 160560, Note_off_c, 14, 64, 80
8, 160560, Note_off_c, 14, 60, 80
8, 160560, Note_off_c, 14, 55, 80
8, 160560, Note_on_c, 14, 48, 95
8, 161040, Note_off_c, 14, 48, 80
8, 161040, Note_on_c, 14, 64, 95
8, 161040, Note_on_c, 14, 60, 95
8, 161040, Note_on_c, 14, 55, 95
8, 161280, Note_off_c, 14, 64, 80
8, 161280, Note_off_c, 14, 60, 80
8, 161280, Note_off_c, 14, 55, 80
8, 161280, Note_on_c, 14, 41, 95
8, 161760, Note_off_c, 14, 41, 80
8, 161760, Note_on_c, 14, 65, 95
8, 161760, Note_on_c, 14, 60, 95
8, 161760, Note_on_c, 14, 57, 95
8, 162000, Note_off_c, 14, 65, 80
8, 162000, Note_off_c, 14, 60, 80
8, 162000, Note_off_c, 14, 57, 80
8, 162000, Note_on_c, 14, 43, 95
8, 162480, Note_off_c, 14, 43, 80
8, 162480, Note_on_c, 14, 67, 95
8, 162480, Note_on_c, 14, 59, 95
8, 162480, Note_on_c, 14, 55, 95
8, 162720, Note_off_c, 14, 67, 80
8, 162720, Note_off_c, 14, 59, 80
8, 162720, Note_off_c, 14, 55, 80
8, 162720, Note_on_c, 14, 48, 95
8, 163200, Note_off_c, 14, 48, 80
8, 163200, Note_on_c, 14, 64, 95
8, 163200, Note_on_c, 14, 60, 95
8, 163200, Note_on_c, 14, 55, 95
8, 163440, Note_off_c, 14, 64, 80
8, 163440, Note_off_c, 14, 60, 80
8, 163440, Note_off_c, 14, 55, 80
8, 163440, Note_on_c, 14, 41, 95
8, 163920, Note_off_c, 14, 41, 80
8, 163920, Note_on_c, 14, 65, 95
8, 163920, Note_on_c, 14, 60, 95
8, 163920, Note_on_c, 14, 57, 95
8, 164160, Note_off_c, 14, 65, 80
8, 164160, Note_off_c, 14, 60, 80
8, 164160, Note_off_c, 14, 57, 80
8, 164160, Note_on_c, 14, 48, 95
8, 164640, Note_off_c, 14, 48, 80
8, 164640, Note_on_c, 14, 64, 95
8, 164640, Note_on_c, 14, 60, 95
8, 164640, Note_on_c, 14, 55, 95
8, 164880, Note_off_c, 14, 64, 80
8, 164880, Note_off_c, 14, 60, 80
8, 164880, Note_off_c, 14, 55, 80
8, 164880, Note_on_c, 14, 43, 95
8, 165360, Note_off_c, 14, 43, 80
8, 165360, Note_on_c, 14, 67, 95
8, 165360, Note_on_c, 14, 59, 95
8, 165360, Note_on_c, 14, 55, 95
8, 165600, Note_off_c, 14, 67, 80
8, 165600, Note_off_c, 14, 59, 80
8, 165600, Note_off_c, 14, 55, 80
8, 165600, Note_on_c, 14, 48, 95
8, 166080, Note_off_c, 14, 48, 80
8, 166080, Note_on_c, 14, 64, 95
8, 166080, Note_on_c, 14, 60, 95
8, 166080, Note_on_c, 14, 55, 95
8, 166320, Note_off_c, 14, 64, 80
8, 166320, Note_off_c, 14, 60, 80
8, 166320, Note_off_c, 14, 55, 80
8, 166320, Note_on_c, 14, 48, 95
8, 166800, Note_off_c, 14, 48, 80
8, 166800, Note_on_c, 14, 64, 95
8, 166800, Note_on_c, 14, 60, 95
8, 166800, Note_on_c, 14, 55, 95
8, 167040, Note_off_c, 14, 64, 80
8, 167040, Note_off_c, 14, 60, 80
8, 167040, Note_off_c, 14, 55, 80
8, 167040, Note_on_c, 14, 48, 95
8, 167520, Note_off_c, 14, 48, 80
8, 167520, Note_on_c, 14, 64, 95
8, 167520, Note_on_c, 14, 60, 95
8, 167520, Note_on_c, 14, 55, 95
8, 167760, Note_off_c, 14, 64, 80
8, 167760, Note_off_c, 14, 60, 80
8, 167760, Note_off_c, 14, 55, 80
8, 167760, Note_on_c, 14, 48, 95
8, 168240, Note_off_c, 14, 48, 80
8, 168240, Note_on_c, 14, 64, 95
8, 168240, Note_on_c, 14, 60, 95
8, 168240, Note_on_c, 14, 55, 95
8, 168480, Note_off_c, 14, 64, 80
8, 168480, Note_off_c, 14, 60, 80
8, 168480, Note_off_c, 14, 55, 80
8, 168480, Note_on_c, 14, 41, 95
8, 168960, Note_off_c, 14, 41, 80
8, 168960, Note_on_c, 14, 65, 95
8, 168960, Note_on_c, 14, 60, 95
8, 168960, Note_on_c, 14, 57, 95
8, 169200, Note_off_c, 14, 65, 80
8, 169200, Note_off_c, 14, 60, 80
8, 169200, Note_off_c, 14, 57, 80
8, 169200, Note_on_c, 14, 48, 95
8, 169680, Note_off_c, 14, 48, 80
8, 169680, Note_on_c, 14, 64, 95
8, 169680, Note_on_c, 14, 60, 95
8, 169680, Note_on_c, 14, 55, 95
8, 169920, Note_off_c, 14, 64, 80
8, 169920, Note_off_c, 14, 60, 80
8, 169920, Note_off_c, 14, 55, 80
8, 169920, Note_on_c, 14, 48, 95
8, 170400, Note_off_c, 14, 48, 80
8, 170400, Note_on_c, 14, 64, 95
8, 170400, Note_on_c, 14, 60, 95
8, 170400, Note_on_c, 14, 55, 95
8, 170640, Note_off_c, 14, 64, 80
8, 170640, Note_off_c, 14, 60, 80
8, 170640, Note_off_c, 14, 55, 80
8, 170640, Note_on_c, 14, 48, 95
8, 171120, Note_off_c, 14, 48, 80
8, 171120, Note_on_c, 14, 64, 95
8, 171120, Note_on_c, 14, 60, 95
8, 171120, Note_on_c, 14, 55, 95
8, 171360, Note_off_c, 14, 64, 80
8, 171360, Note_off_c, 14, 60, 80
8, 171360, Note_off_c, 14, 55, 80
8, 171360, Note_on_c, 14, 41, 95
8, 171840, Note_off_c, 14, 41, 80
8, 171840, Note_on_c, 14, 65, 95
8, 171840, Note_on_c, 14, 60, 95
8, 171840, Note_on_c, 14, 57, 95
8, 172080, Note_off_c, 14, 65, 80
8, 172080, Note_off_c, 14, 60, 80
8, 172080, Note_off_c, 14, 57, 80
8, 172080, Note_on_c, 14, 48, 95
8, 172560, Note_off_c, 14, 48, 80
8, 172560, Note_on_c, 14, 64, 95
8, 172560, Note_on_c, 14, 60, 95
8, 172560, Note_on_c, 14, 55, 95
8, 172800, Note_off_c, 14, 64, 80
8, 172800, Note_off_c, 14, 60, 80
8, 172800, Note_off_c, 14, 55, 80
8, 172800, Note_on_c, 14, 48, 95
8, 173280, Note_off_c, 14, 48, 80
8, 173280, Note_on_c, 14, 64, 95
8, 173280, Note_on_c, 14, 60, 95
8, 173280, Note_on_c, 14, 55, 95
8, 173520, Note_off_c, 14, 64, 80
8, 173520, Note_off_c, 14, 60, 80
8, 173520, Note_off_c, 14, 55, 80
8, 173520, Note_on_c, 14, 40, 95
8, 174000, Note_off_c, 14, 40, 80
8, 174000, Note_on_c, 14, 64, 95
8, 174000, Note_on_c, 14, 59, 95
8, 174000, Note_on_c, 14, 55, 95
8, 174240, Note_off_c, 14, 64, 80
8, 174240, Note_off_c, 14, 59, 80
8, 174240, Note_off_c, 14, 55, 80
8, 174240, Note_on_c, 14, 45, 95
8, 174720, Note_off_c, 14, 45, 80
8, 174720, Note_on_c, 14, 64, 95
8, 174720, Note_on_c, 14, 60, 95
8, 174720, Note_on_c, 14, 57, 95
8, 174960, Note_off_c, 14, 64, 80
8, 174960, Note_off_c, 14, 60, 80
8, 174960, Note_off_c, 14, 57, 80
8, 174960, Note_on_c, 14, 43, 95
8, 175440, Note_off_c, 14, 43, 80
8, 175440, Note_on_c, 14, 64, 95
8, 175440, Note_on_c, 14, 60, 95
8, 175440, Note_on_c, 14, 57, 95
8, 175680, Note_off_c, 14, 64, 80
8, 175680, Note_off_c, 14, 60, 80
8, 175680, Note_off_c, 14, 57, 80
8, 175680, Note_on_c, 14, 50, 95
8, 176160, Note_off_c, 14, 50, 80
8, 176160, Note_on_c, 14, 65, 95
8, 176160, Note_on_c, 14, 62, 95
8, 176160, Note_on_c, 14, 57, 95
8, 176400, Note_off_c, 14, 65, 80
8, 176400, Note_off_c, 14, 62, 80
8, 176400, Note_off_c, 14, 57, 80
8, 176400, Note_on_c, 14, 43, 95
8, 176880, Note_off_c, 14, 43, 80
8, 176880, Note_on_c, 14, 67, 95
8, 176880, Note_on_c, 14, 59, 95
8, 176880, Note_on_c, 14, 55, 95
8, 177120, Note_off_c, 14, 67, 80
8, 177120, Note_off_c, 14, 59, 80
8, 177120, Note_off_c, 14, 55, 80
8, 177120, Note_on_c, 14, 48, 95
8, 177600, Note_off_c, 14, 48, 80
8, 177600, Note_on_c, 14, 64, 95
8, 177600, Note_on_c, 14, 60, 95
8, 177600, Note_on_c, 14, 55, 95
8, 177840, Note_off_c, 14, 64, 80
8, 177840, Note_off_c, 14, 60, 80
8, 177840, Note_off_c, 14, 55, 80
8, 177840, Note_on_c, 14, 48, 95
8, 178320, Note_off_c, 14, 48, 80
8, 178320, Note_on_c, 14, 64, 95
8, 178320, Note_on_c, 14, 60, 95
8, 178320, Note_on_c, 14, 55, 95
8, 178560, Note_off_c, 14, 64, 80
8, 178560, Note_off_c, 14, 60, 80
8, 178560, Note_off_c, 14, 55, 80
8, 178560, Note_on_c, 14, 41, 95
8, 179040, Note_off_c, 14, 41, 80
8, 179040, Note_on_c, 14, 65, 95
8, 179040, Note_on_c, 14, 60, 95
8, 179040, Note_on_c, 14, 57, 95
8, 179280, Note_off_c, 14, 65, 80
8, 179280, Note_off_c, 14, 60, 80
8, 179280, Note_off_c, 14, 57, 80
8, 179280, Note_on_c, 14, 43, 95
8, 179760, Note_off_c, 14, 43, 80
8, 179760, Note_on_c, 14, 67, 95
8, 179760, Note_on_c, 14, 59, 95
8, 179760, Note_on_c, 14, 55, 95
8, 180000, Note_off_c, 14, 67, 80
8, 180000, Note_off_c, 14, 59, 80
8, 180000, Note_off_c, 14, 55, 80
8, 180000, Note_on_c, 14, 48, 95
8, 180480, Note_off_c, 14, 48, 80
8, 180480, Note_on_c, 14, 64, 95
8, 180480, Note_on_c, 14, 60, 95
8, 180480, Note_on_c, 14, 55, 95
8, 180720, Note_off_c, 14, 64, 80
8, 180720, Note_off_c, 14, 60, 80
8, 180720, Note_off_c, 14, 55, 80
8, 180720, Note_on_c, 14, 45, 95
8, 181200, Note_off_c, 14, 45, 80
8, 181200, Note_on_c, 14, 64, 95
8, 181200, Note_on_c, 14, 60, 95
8, 181200, Note_on_c, 14, 57, 95
8, 181440, Note_off_c, 14, 64, 80
8, 181440, Note_off_c, 14, 60, 80
8, 181440, Note_off_c, 14, 57, 80
8, 181440, Note_on_c, 14, 50, 95
8, 181920, Note_off_c, 14, 50, 80
8, 181920, Note_on_c, 14, 65, 95
8, 181920, Note_on_c, 14, 62, 95
8, 181920, Note_on_c, 14, 57, 95
8, 182160, Note_off_c, 14, 65, 80
8, 182160, Note_off_c, 14, 62, 80
8, 182160, Note_off_c, 14, 57, 80
8, 182160, Note_on_c, 14, 43, 95
8, 182640, Note_off_c, 14, 43, 80
8, 182640, Note_on_c, 14, 67, 95
8, 182640, Note_on_c, 14, 59, 95
8, 182640, Note_on_c, 14, 55, 95
8, 182880, Note_off_c, 14, 67, 80
8, 182880, Note_off_c, 14, 59, 80
8, 182880, Note_off_c, 14, 55, 80
8, 182880, Note_on_c, 14, 48, 95
8, 183360, Note_off_c, 14, 48, 80
8, 183360, Note_on_c, 14, 64, 95
8, 183360, Note_on_c, 14, 60, 95
8, 183360, Note_on_c, 14, 55, 95
8, 183600, Note_off_c, 14, 64, 80
8, 183600, Note_off_c, 14, 60, 80
8, 183600, Note_off_c, 14, 55, 80
8, 183600, Note_on_c, 14, 48, 95
8, 184080, Note_off_c, 14, 48, 80
8, 184080, Note_on_c, 14, 64, 95
8, 184080, Note_on_c, 14, 60, 95
8, 184080, Note_on_c, 14, 55, 95
8, 184320, Note_off_c, 14, 64, 80
8, 184320, Note_off_c, 14, 60, 80
8, 184320, Note_off_c, 14, 55, 80
8, 184320, Note_on_c, 14, 41, 95
8, 184800, Note_off_c, 14, 41, 80
8, 184800, Note_on_c, 14, 65, 95
8, 184800, Note_on_c, 14, 60, 95
8, 184800, Note_on_c, 14, 57, 95
8, 185040, Note_off_c, 14, 65, 80
8, 185040, Note_off_c, 14, 60, 80
8, 185040, Note_off_c, 14, 57, 80
8, 185040, Note_on_c, 14, 43, 95
8, 185520, Note_off_c, 14, 43, 80
8, 185520, Note_on_c, 14, 67, 95
8, 185520, Note_on_c, 14, 59, 95
8, 185520, Note_on_c, 14, 55, 95
8, 185760, Note_off_c, 14, 67, 80
8, 185760, Note_off_c, 14, 59, 80
8, 185760, Note_off_c, 14, 55, 80
8, 185760, Note_on_c, 14, 48, 95
8, 186240, Note_off_c, 14, 48, 80
8, 186240, Note_on_c, 14, 64, 95
8, 186240, Note_on_c, 14, 60, 95
8, 186240, Note_on_c, 14, 55, 95
8, 186480, Note_off_c, 14, 64, 80
8, 186480, Note_off_c, 14, 60, 80
8, 186480, Note_off_c, 14, 55, 80
8, 186480, Note_on_c, 14, 41, 95
8, 186960, Note_off_c, 14, 41, 80
8, 186960, Note_on_c, 14, 65, 95
8, 186960, Note_on_c, 14, 60, 95
8, 186960, Note_on_c, 14, 57, 95
8, 187200, Note_off_c, 14, 65, 80
8, 187200, Note_off_c, 14, 60, 80
8, 187200, Note_off_c, 14, 57, 80
8, 187200, Note_on_c, 14, 48, 95
8, 187680, Note_off_c, 14, 48, 80
8, 187680, Note_on_c, 14, 64, 95
8, 187680, Note_on_c, 14, 60, 95
8, 187680, Note_on_c, 14, 55, 95
8, 187920, Note_off_c, 14, 64, 80
8, 187920, Note_off_c, 14, 60, 80
8, 187920, Note_off_c, 14, 55, 80
8, 187920, Note_on_c, 14, 43, 95
8, 188400, Note_off_c, 14, 43, 80
8, 188400, Note_on_c, 14, 67, 95
8, 188400, Note_on_c, 14, 59, 95
8, 188400, Note_on_c, 14, 55, 95
8, 188640, Note_off_c, 14, 67, 80
8, 188640, Note_off_c, 14, 59, 80
8, 188640, Note_off_c, 14, 55, 80
8, 188640, Note_on_c, 14, 48, 95
8, 189120, Note_off_c, 14, 48, 80
8, 189120, Note_on_c, 14, 64, 95
8, 189120, Note_on_c, 14, 60, 95
8, 189120, Note_on_c, 14, 55, 95
8, 189360, Note_off_c, 14, 64, 80
8, 189360, Note_off_c, 14, 60, 80
8, 189360, Note_off_c, 14, 55, 80
8, 189360, Note_on_c, 14, 48, 95
8, 189840, Note_off_c, 14, 48, 80
8, 189840, Note_on_c, 14, 64, 95
8, 189840, Note_on_c, 14, 60, 95
8, 189840, Note_on_c, 14, 55, 95
8, 190080, Note_off_c, 14, 64, 80
8, 190080, Note_off_c, 14, 60, 80
8, 190080, Note_off_c, 14, 55, 80
8, 190080, Note_on_c, 14, 48, 95
8, 190560, Note_off_c, 14, 48, 80
8, 190560, Note_on_c, 14, 64, 95
8, 190560, Note_on_c, 14, 60, 95
8, 190560, Note_on_c, 14, 55, 95
8, 190800, Note_off_c, 14, 64, 80
8, 190800, Note_off_c, 14, 60, 80
8, 190800, Note_off_c, 14, 55, 80
8, 190800, Note_on_c, 14, 48, 95
8, 191280, Note_off_c, 14, 48, 80
8, 191280, Note_on_c, 14, 64, 95
8, 191280, Note_on_c, 14, 60, 95
8, 191280, Note_on_c, 14, 55, 95
8, 191520, Note_off_c, 14, 64, 80
8, 191520, Note_off_c, 14, 60, 80
8, 191520, Note_off_c, 14, 55, 80
8, 191520, Note_on_c, 14, 41, 95
8, 192000, Note_off_c, 14, 41, 80
8, 192000, Note_on_c, 14, 65, 95
8, 192000, Note_on_c, 14, 60, 95
8, 192000, Note_on_c, 14, 57, 95
8, 192240, Note_off_c, 14, 65, 80
8, 192240, Note_off_c, 14, 60, 80
8, 192240, Note_off_c, 14, 57, 80
8, 192240, Note_on_c, 14, 48, 95
8, 192720, Note_off_c, 14, 48, 80
8, 192720, Note_on_c, 14, 64, 95
8, 192720, Note_on_c, 14, 60, 95
8, 192720, Note_on_c, 14, 55, 95
8, 192960, Note_off_c, 14, 64, 80
8, 192960, Note_off_c, 14, 60, 80
8, 192960, Note_off_c, 14, 55, 80
8, 192960, Note_on_c, 14, 48, 95
8, 193440, Note_off_c, 14, 48, 80
8, 193440, Note_on_c, 14, 64, 95
8, 193440, Note_on_c, 14, 60, 95
8, 193440, Note_on_c, 14, 55, 95
8, 193680, Note_off_c, 14, 64, 80
8, 193680, Note_off_c, 14, 60, 80
8, 193680, Note_off_c, 14, 55, 80
8, 193680, Note_on_c, 14, 48, 95
8, 194160, Note_off_c, 14, 48, 80
8, 194160, Note_on_c, 14, 64, 95
8, 194160, Note_on_c, 14, 60, 95
8, 194160, Note_on_c, 14, 55, 95
8, 194400, Note_off_c, 14, 64, 80
8, 194400, Note_off_c, 14, 60, 80
8, 194400, Note_off_c, 14, 55, 80
8, 194400, Note_on_c, 14, 41, 95
8, 194880, Note_off_c, 14, 41, 80
8, 194880, Note_on_c, 14, 65, 95
8, 194880, Note_on_c, 14, 60, 95
8, 194880, Note_on_c, 14, 57, 95
8, 195120, Note_off_c, 14, 65, 80
8, 195120, Note_off_c, 14, 60, 80
8, 195120, Note_off_c, 14, 57, 80
8, 195120, Note_on_c, 14, 48, 95
8, 195600, Note_off_c, 14, 48, 80
8, 195600, Note_on_c, 14, 64, 95
8, 195600, Note_on_c, 14, 60, 95
8, 195600, Note_on_c, 14, 55, 95
8, 195840, Note_off_c, 14, 64, 80
8, 195840, Note_off_c, 14, 60, 80
8, 195840, Note_off_c, 14, 55, 80
8, 195840, Note_on_c, 14, 48, 95
8, 196320, Note_off_c, 14, 48, 80
8, 196320, Note_on_c, 14, 64, 95
8, 196320, Note_on_c, 14, 60, 95
8, 196320, Note_on_c, 14, 55, 95
8, 196560, Note_off_c, 14, 64, 80
8, 196560, Note_off_c, 14, 60, 80
8, 196560, Note_off_c, 14, 55, 80
8, 196560, Note_on_c, 14, 40, 95
8, 197040, Note_off_c, 14, 40, 80
8, 197040, Note_on_c, 14, 64, 95
8, 197040, Note_on_c, 14, 59, 95
8, 197040, Note_on_c, 14, 55, 95
8, 197280, Note_off_c, 14, 64, 80
8, 197280, Note_off_c, 14, 59, 80
8, 197280, Note_off_c, 14, 55, 80
8, 197280, Note_on_c, 14, 45, 95
8, 197760, Note_off_c, 14, 45, 80
8, 197760, Note_on_c, 14, 64, 95
8, 197760, Note_on_c, 14, 60, 95
8, 197760, Note_on_c, 14, 57, 95
8, 198000, Note_off_c, 14, 64, 80
8, 198000, Note_off_c, 14, 60, 80
8, 198000, Note_off_c, 14, 57, 80
8, 198000, Note_on_c, 14, 43, 95
8, 198480, Note_off_c, 14, 43, 80
8, 198480, Note_on_c, 14, 64, 95
8, 198480, Note_on_c, 14, 60, 95
8, 198480, Note_on_c, 14, 57, 95
8, 198720, Note_off_c, 14, 64, 80
8, 198720, Note_off_c, 14, 60, 80
8, 198720, Note_off_c, 14, 57, 80
8, 198720, Note_on_c, 14, 50, 95
8, 199200, Note_off_c, 14, 50, 80
8, 199200, Note_on_c, 14, 65, 95
8, 199200, Note_on_c, 14, 62, 95
8, 199200, Note_on_c, 14, 57, 95
8, 199440, Note_off_c, 14, 65, 80
8, 199440, Note_off_c, 14, 62, 80
8, 199440, Note_off_c, 14, 57, 80
8, 199440, Note_on_c, 14, 43, 95
8, 199920, Note_off_c, 14, 43, 80
8, 199920, Note_on_c, 14, 67, 95
8, 199920, Note_on_c, 14, 59, 95
8, 199920, Note_on_c, 14, 55, 95
8, 200160, Note_off_c, 14, 67, 80
8, 200160, Note_off_c, 14, 59, 80
8, 200160, Note_off_c, 14, 55, 80
8, 200160, Note_on_c, 14, 48, 95
8, 200640, Note_off_c, 14, 48, 80
8, 200640, Note_on_c, 14, 64, 95
8, 200640, Note_on_c, 14, 60, 95
8, 200640, Note_on_c, 14, 55, 95
8, 200880, Note_off_c, 14, 64, 80
8, 200880, Note_off_c, 14, 60, 80
8, 200880, Note_off_c, 14, 55, 80
8, 200880, Note_on_c, 14, 48, 95
8, 201360, Note_off_c, 14, 48, 80
8, 201360, Note_on_c, 14, 64, 95
8, 201360, Note_on_c, 14, 60, 95
8, 201360, Note_on_c, 14, 55, 95
8, 201600, Note_off_c, 14, 64, 80
8, 201600, Note_off_c, 14, 60, 80
8, 201600, Note_off_c, 14, 55, 80
8, 201600, Note_on_c, 14, 41, 95
8, 202080, Note_off_c, 14, 41, 80
8, 202080, Note_on_c, 14, 65, 95
8, 202080, Note_on_c, 14, 60, 95
8, 202080, Note_on_c, 14, 57, 95
8, 202320, Note_off_c, 14, 65, 80
8, 202320, Note_off_c, 14, 60, 80
8, 202320, Note_off_c, 14, 57, 80
8, 202320, Note_on_c, 14, 43, 95
8, 202800, Note_off_c, 14, 43, 80
8, 202800, Note_on_c, 14, 67, 95
8, 202800, Note_on_c, 14, 59, 95
8, 202800, Note_on_c, 14, 55, 95
8, 203040, Note_off_c, 14, 67, 80
8, 203040, Note_off_c, 14, 59, 80
8, 203040, Note_off_c, 14, 55, 80
8, 203040, Note_on_c, 14, 48, 95
8, 203520, Note_off_c, 14, 48, 80
8, 203520, Note_on_c, 14, 64, 95
8, 203520, Note_on_c, 14, 60, 95
8, 203520, Note_on_c, 14, 55, 95
8, 203760, Note_off_c, 14, 64, 80
8, 203760, Note_off_c, 14, 60, 80
8, 203760, Note_off_c, 14, 55, 80
8, 203760, Note_on_c, 14, 45, 95
8, 204240, Note_off_c, 14, 45, 80
8, 204240, Note_on_c, 14, 64, 95
8, 204240, Note_on_c, 14, 60, 95
8, 204240, Note_on_c, 14, 57, 95
8, 204480, Note_off_c, 14, 64, 80
8, 204480, Note_off_c, 14, 60, 80
8, 204480, Note_off_c, 14, 57, 80
8, 204480, Note_on_c, 14, 50, 95
8, 204960, Note_off_c, 14, 50, 80
8, 204960, Note_on_c, 14, 65, 95
8, 204960, Note_on_c, 14, 62, 95
8, 204960, Note_on_c, 14, 57, 95
8, 205200, Note_off_c, 14, 65, 80
8, 205200, Note_off_c, 14, 62, 80
8, 205200, Note_off_c, 14, 57, 80
8, 205200, Note_on_c, 14, 43, 95
8, 205680, Note_off_c, 14, 43, 80
8, 205680, Note_on_c, 14, 67, 95
8, 205680, Note_on_c, 14, 59, 95
8, 205680, Note_on_c, 14, 55, 95
8, 205920, Note_off_c, 14, 67, 80
8, 205920, Note_off_c, 14, 59, 80
8, 205920, Note_off_c, 14, 55, 80
8, 205920, Note_on_c, 14, 48, 95
8, 206400, Note_off_c, 14, 48, 80
8, 206400, Note_on_c, 14, 64, 95
8, 206400, Note_on_c, 14, 60, 95
8, 206400, Note_on_c, 14, 55, 95
8, 206640, Note_off_c, 14, 64, 80
8, 206640, Note_off_c, 14, 60, 80
8, 206640, Note_off_c, 14, 55, 80
8, 206640, Note_on_c, 14, 48, 95
8, 207120, Note_off_c, 14, 48, 80
8, 207120, Note_on_c, 14, 64, 95
8, 207120, Note_on_c, 14, 60, 95
8, 207120, Note_on_c, 14, 55, 95
8, 207360, Note_off_c, 14, 64, 80
8, 207360, Note_off_c, 14, 60, 80
8, 207360, Note_off_c, 14, 55, 80
8, 207360, Note_on_c, 14, 41, 95
8, 207840, Note_off_c, 14, 41, 80
8, 207840, Note_on_c, 14, 65, 95
8, 207840, Note_on_c, 14, 60, 95
8, 207840, Note_on_c, 14, 57, 95
8, 208080, Note_off_c, 14, 65, 80
8, 208080, Note_off_c, 14, 60, 80
8, 208080, Note_off_c, 14, 57, 80
8, 208080, Note_on_c, 14, 43, 95
8, 208560, Note_off_c, 14, 43, 80
8, 208560, Note_on_c, 14, 67, 95
8, 208560, Note_on_c, 14, 59, 95
8, 208560, Note_on_c, 14, 55, 95
8, 208800, Note_off_c, 14, 67, 80
8, 208800, Note_off_c, 14, 59, 80
8, 208800, Note_off_c, 14, 55, 80
8, 208800, Note_on_c, 14, 48, 95
8, 209280, Note_off_c, 14, 48, 80
8, 209280, Note_on_c, 14, 64, 95
8, 209280, Note_on_c, 14, 60, 95
8, 209280, Note_on_c, 14, 55, 95
8, 209520, Note_off_c, 14, 64, 80
8, 209520, Note_off_c, 14, 60, 80
8, 209520, Note_off_c, 14, 55, 80
8, 209520, Note_on_c, 14, 41, 95
8, 210000, Note_off_c, 14, 41, 80
8, 210000, Note_on_c, 14, 65, 95
8, 210000, Note_on_c, 14, 60, 95
8, 210000, Note_on_c, 14, 57, 95
8, 210240, Note_off_c, 14, 65, 80
8, 210240, Note_off_c, 14, 60, 80
8, 210240, Note_off_c, 14, 57, 80
8, 210240, Note_on_c, 14, 48, 95
8, 210720, Note_off_c, 14, 48, 80
8, 210720, Note_on_c, 14, 64, 95
8, 210720, Note_on_c, 14, 60, 95
8, 210720, Note_on_c, 14, 55, 95
8, 210960, Note_off_c, 14, 64, 80
8, 210960, Note_off_c, 14, 60, 80
8, 210960, Note_off_c, 14, 55, 80
8, 210960, Note_on_c, 14, 43, 95
8, 211440, Note_off_c, 14, 43, 80
8, 211440, Note_on_c, 14, 67, 95
8, 211440, Note_on_c, 14, 59, 95
8, 211440, Note_on_c, 14, 55, 95
8, 211680, Note_off_c, 14, 67, 80
8, 211680, Note_off_c, 14, 59, 80
8, 211680, Note_off_c, 14, 55, 80
8, 211680, Note_on_c, 14, 64, 95
8, 211680, Note_on_c, 14, 60, 95
8, 211680, Note_on_c, 14, 55, 95
8, 211680, Note_on_c, 14, 52, 95
8, 211680, Note_on_c, 14, 48, 95
8, 213120, Note_off_c, 14, 64, 80
8, 213120, Note_off_c, 14, 60, 80
8, 213120, Note_off_c, 14, 55, 80
8, 213120, Note_off_c, 14, 52, 80
8, 213120, Note_off_c, 14, 48, 80
8, 213120, End_track
9, 0, Start_track
9, 0, Title_t, ""
9, 0, Control_c, 9, 100, 0
9, 0, Control_c, 9, 101, 0
9, 0, Control_c, 9, 6, 12
9, 0, Pitch_bend_c, 9, 8192
9, 0, Control_c, 9, 101, 0
9, 0, Control_c, 9, 100, 1
9, 0, Control_c, 9, 6, 64
9, 0, Control_c, 9, 38, 0
9, 0, Control_c, 9, 101, 127
9, 0, Control_c, 9, 100, 127
9, 0, Program_c, 9, 24
9, 0, Control_c, 9, 0, 0
9, 0, Control_c, 9, 7, 120
9, 0, Control_c, 9, 10, 64
9, 0, Control_c, 9, 93, 0
9, 0, Control_c, 9, 91, 0
9, 0, Control_c, 9, 92, 0
9, 0, Control_c, 9, 95, 0
9, 74880, Note_on_c, 9, 38, 95
9, 74940, Note_off_c, 9, 38, 80
9, 74940, Note_on_c, 9, 38, 95
9, 75000, Note_off_c, 9, 38, 80
9, 75000, Note_on_c, 9, 38, 95
9, 75060, Note_off_c, 9, 38, 80
9, 75060, Note_on_c, 9, 38, 95
9, 75120, Note_off_c, 9, 38, 80
9, 75360, Note_on_c, 9, 38, 95
9, 75600, Note_off_c, 9, 38, 80
9, 75600, Note_on_c, 9, 38, 95
9, 76080, Note_off_c, 9, 38, 80
9, 76200, Note_on_c, 9, 38, 95
9, 76320, Note_off_c, 9, 38, 80
9, 76320, Note_on_c, 9, 38, 95
9, 76380, Note_off_c, 9, 38, 80
9, 76380, Note_on_c, 9, 38, 95
9, 76440, Note_off_c, 9, 38, 80
9, 76440, Note_on_c, 9, 38, 95
9, 76500, Note_off_c, 9, 38, 80
9, 76500, Note_on_c, 9, 38, 95
9, 76560, Note_off_c, 9, 38, 80
9, 76800, Note_on_c, 9, 38, 95
9, 77040, Note_off_c, 9, 38, 80
9, 77040, Note_on_c, 9, 38, 95
9, 77280, Note_off_c, 9, 38, 80
9, 77280, Note_on_c, 9, 38, 95
9, 77520, Note_off_c, 9, 38, 80
9, 77520, Note_on_c, 9, 38, 95
9, 77640, Note_off_c, 9, 38, 80
9, 77760, Note_on_c, 9, 38, 95
9, 77820, Note_off_c, 9, 38, 80
9, 77820, Note_on_c, 9, 38, 95
9, 77880, Note_off_c, 9, 38, 80
9, 77880, Note_on_c, 9, 38, 95
9, 77940, Note_off_c, 9, 38, 80
9, 77940, Note_on_c, 9, 38, 95
9, 78000, Note_off_c, 9, 38, 80
9, 78240, Note_on_c, 9, 38, 95
9, 78480, Note_off_c, 9, 38, 80
9, 78480, Note_on_c, 9, 38, 95
9, 78960, Note_off_c, 9, 38, 80
9, 79080, Note_on_c, 9, 38, 95
9, 79200, Note_off_c, 9, 38, 80
9, 79200, Note_on_c, 9, 38, 95
9, 79260, Note_off_c, 9, 38, 80
9, 79260, Note_on_c, 9, 38, 95
9, 79320, Note_off_c, 9, 38, 80
9, 79320, Note_on_c, 9, 38, 95
9, 79380, Note_off_c, 9, 38, 80
9, 79380, Note_on_c, 9, 38, 95
9, 79440, Note_off_c, 9, 38, 80
9, 79680, Note_on_c, 9, 38, 95
9, 79920, Note_off_c, 9, 38, 80
9, 79920, Note_on_c, 9, 38, 95
9, 80160, Note_off_c, 9, 38, 80
9, 80160, Note_on_c, 9, 38, 95
9, 80400, Note_off_c, 9, 38, 80
9, 80400, Note_on_c, 9, 38, 95
9, 80520, Note_off_c, 9, 38, 80
9, 80640, Note_on_c, 9, 38, 95
9, 80700, Note_off_c, 9, 38, 80
9, 80700, Note_on_c, 9, 38, 95
9, 80760, Note_off_c, 9, 38, 80
9, 80760, Note_on_c, 9, 38, 95
9, 80820, Note_off_c, 9, 38, 80
9, 80820, Note_on_c, 9, 38, 95
9, 80880, Note_off_c, 9, 38, 80
9, 81120, Note_on_c, 9, 38, 95
9, 81360, Note_off_c, 9, 38, 80
9, 81360, Note_on_c, 9, 38, 95
9, 81840, Note_off_c, 9, 38, 80
9, 81960, Note_on_c, 9, 38, 95
9, 82080, Note_off_c, 9, 38, 80
9, 82080, Note_on_c, 9, 38, 95
9, 82140, Note_off_c, 9, 38, 80
9, 82140, Note_on_c, 9, 38, 95
9, 82200, Note_off_c, 9, 38, 80
9, 82200, Note_on_c, 9, 38, 95
9, 82260, Note_off_c, 9, 38, 80
9, 82260, Note_on_c, 9, 38, 95
9, 82320, Note_off_c, 9, 38, 80
9, 82560, Note_on_c, 9, 38, 95
9, 82800, Note_off_c, 9, 38, 80
9, 82800, Note_on_c, 9, 38, 95
9, 83040, Note_off_c, 9, 38, 80
9, 83040, Note_on_c, 9, 38, 95
9, 83280, Note_off_c, 9, 38, 80
9, 83280, Note_on_c, 9, 38, 95
9, 83400, Note_off_c, 9, 38, 80
9, 83520, Note_on_c, 9, 38, 95
9, 83580, Note_off_c, 9, 38, 80
9, 83580, Note_on_c, 9, 38, 95
9, 83640, Note_off_c, 9, 38, 80
9, 83640, Note_on_c, 9, 38, 95
9, 83700, Note_off_c, 9, 38, 80
9, 83700, Note_on_c, 9, 38, 95
9, 83760, Note_off_c, 9, 38, 80
9, 84000, Note_on_c, 9, 38, 95
9, 84240, Note_off_c, 9, 38, 80
9, 84240, Note_on_c, 9, 38, 95
9, 84720, Note_off_c, 9, 38, 80
9, 84840, Note_on_c, 9, 38, 95
9, 84960, Note_off_c, 9, 38, 80
9, 84960, Note_on_c, 9, 38, 95
9, 85020, Note_off_c, 9, 38, 80
9, 85020, Note_on_c, 9, 38, 95
9, 85080, Note_off_c, 9, 38, 80
9, 85080, Note_on_c, 9, 38, 95
9, 85140, Note_off_c, 9, 38, 80
9, 85140, Note_on_c, 9, 38, 95
9, 85200, Note_off_c, 9, 38, 80
9, 85440, Note_on_c, 9, 38, 95
9, 85680, Note_off_c, 9, 38, 80
9, 85680, Note_on_c, 9, 38, 95
9, 85920, Note_off_c, 9, 38, 80
9, 85920, Note_on_c, 9, 38, 95
9, 86160, Note_off_c, 9, 38, 80
9, 86160, Note_on_c, 9, 38, 95
9, 86280, Note_off_c, 9, 38, 80
9, 86400, Note_on_c, 9, 38, 95
9, 86460, Note_off_c, 9, 38, 80
9, 86460, Note_on_c, 9, 38, 95
9, 86520, Note_off_c, 9, 38, 80
9, 86520, Note_on_c, 9, 38, 95
9, 86580, Note_off_c, 9, 38, 80
9, 86580, Note_on_c, 9, 38, 95
9, 86640, Note_off_c, 9, 38, 80
9, 86880, Note_on_c, 9, 38, 95
9, 87120, Note_off_c, 9, 38, 80
9, 87120, Note_on_c, 9, 38, 95
9, 87600, Note_off_c, 9, 38, 80
9, 87720, Note_on_c, 9, 38, 95
9, 87840, Note_off_c, 9, 38, 80
9, 87840, Note_on_c, 9, 38, 95
9, 87900, Note_off_c, 9, 38, 80
9, 87900, Note_on_c, 9, 38, 95
9, 87960, Note_off_c, 9, 38, 80
9, 87960, Note_on_c, 9, 38, 95
9, 88020, Note_off_c, 9, 38, 80
9, 88020, Note_on_c, 9, 38, 95
9, 88080, Note_off_c, 9, 38, 80
9, 88320, Note_on_c, 9, 38, 95
9, 88560, Note_off_c, 9, 38, 80
9, 88560, Note_on_c, 9, 38, 95
9, 88800, Note_off_c, 9, 38, 80
9, 88800, Note_on_c, 9, 38, 95
9, 89040, Note_off_c, 9, 38, 80
9, 89040, Note_on_c, 9, 38, 95
9, 89160, Note_off_c, 9, 38, 80
9, 89280, Note_on_c, 9, 38, 95
9, 89340, Note_off_c, 9, 38, 80
9, 89340, Note_on_c, 9, 38, 95
9, 89400, Note_off_c, 9, 38, 80
9, 89400, Note_on_c, 9, 38, 95
9, 89460, Note_off_c, 9, 38, 80
9, 89460, Note_on_c, 9, 38, 95
9, 89520, Note_off_c, 9, 38, 80
9, 89760, Note_on_c, 9, 38, 95
9, 90000, Note_off_c, 9, 38, 80
9, 90000, Note_on_c, 9, 38, 95
9, 90480, Note_off_c, 9, 38, 80
9, 90600, Note_on_c, 9, 38, 95
9, 90720, Note_off_c, 9, 38, 80
9, 90720, Note_on_c, 9, 38, 95
9, 90780, Note_off_c, 9, 38, 80
9, 90780, Note_on_c, 9, 38, 95
9, 90840, Note_off_c, 9, 38, 80
9, 90840, Note_on_c, 9, 38, 95
9, 90900, Note_off_c, 9, 38, 80
9, 90900, Note_on_c, 9, 38, 95
9, 90960, Note_off_c, 9, 38, 80
9, 91200, Note_on_c, 9, 38, 95
9, 91440, Note_off_c, 9, 38, 80
9, 91440, Note_on_c, 9, 38, 95
9, 91680, Note_off_c, 9, 38, 80
9, 91680, Note_on_c, 9, 38, 95
9, 91920, Note_off_c, 9, 38, 80
9, 91920, Note_on_c, 9, 38, 95
9, 92040, Note_off_c, 9, 38, 80
9, 92160, Note_on_c, 9, 38, 95
9, 92220, Note_off_c, 9, 38, 80
9, 92220, Note_on_c, 9, 38, 95
9, 92280, Note_off_c, 9, 38, 80
9, 92280, Note_on_c, 9, 38, 95
9, 92340, Note_off_c, 9, 38, 80
9, 92340, Note_on_c, 9, 38, 95
9, 92400, Note_off_c, 9, 38, 80
9, 92640, Note_on_c, 9, 38, 95
9, 92880, Note_off_c, 9, 38, 80
9, 92880, Note_on_c, 9, 38, 95
9, 93360, Note_off_c, 9, 38, 80
9, 93480, Note_on_c, 9, 38, 95
9, 93600, Note_off_c, 9, 38, 80
9, 93600, Note_on_c, 9, 38, 95
9, 93660, Note_off_c, 9, 38, 80
9, 93660, Note_on_c, 9, 38, 95
9, 93720, Note_off_c, 9, 38, 80
9, 93720, Note_on_c, 9, 38, 95
9, 93780, Note_off_c, 9, 38, 80
9, 93780, Note_on_c, 9, 38, 95
9, 93840, Note_off_c, 9, 38, 80
9, 94080, Note_on_c, 9, 38, 95
9, 94320, Note_off_c, 9, 38, 80
9, 94320, Note_on_c, 9, 38, 95
9, 94560, Note_off_c, 9, 38, 80
9, 94560, Note_on_c, 9, 38, 95
9, 94800, Note_off_c, 9, 38, 80
9, 94800, Note_on_c, 9, 38, 95
9, 94920, Note_off_c, 9, 38, 80
9, 95040, Note_on_c, 9, 38, 95
9, 95100, Note_off_c, 9, 38, 80
9, 95100, Note_on_c, 9, 38, 95
9, 95160, Note_off_c, 9, 38, 80
9, 95160, Note_on_c, 9, 38, 95
9, 95220, Note_off_c, 9, 38, 80
9, 95220, Note_on_c, 9, 38, 95
9, 95280, Note_off_c, 9, 38, 80
9, 95520, Note_on_c, 9, 38, 95
9, 95760, Note_off_c, 9, 38, 80
9, 95760, Note_on_c, 9, 38, 95
9, 96240, Note_off_c, 9, 38, 80
9, 96360, Note_on_c, 9, 38, 95
9, 96480, Note_off_c, 9, 38, 80
9, 96480, Note_on_c, 9, 38, 95
9, 96540, Note_off_c, 9, 38, 80
9, 96540, Note_on_c, 9, 38, 95
9, 96600, Note_off_c, 9, 38, 80
9, 96600, Note_on_c, 9, 38, 95
9, 96660, Note_off_c, 9, 38, 80
9, 96660, Note_on_c, 9, 38, 95
9, 96720, Note_off_c, 9, 38, 80
9, 96960, Note_on_c, 9, 38, 95
9, 97200, Note_off_c, 9, 38, 80
9, 97200, Note_on_c, 9, 38, 95
9, 97440, Note_off_c, 9, 38, 80
9, 97440, Note_on_c, 9, 38, 95
9, 97680, Note_off_c, 9, 38, 80
9, 97680, Note_on_c, 9, 38, 95
9, 97800, Note_off_c, 9, 38, 80
9, 97920, Note_on_c, 9, 38, 95
9, 97980, Note_off_c, 9, 38, 80
9, 97980, Note_on_c, 9, 38, 95
9, 98040, Note_off_c, 9, 38, 80
9, 98040, Note_on_c, 9, 38, 95
9, 98100, Note_off_c, 9, 38, 80
9, 98100, Note_on_c, 9, 38, 95
9, 98160, Note_off_c, 9, 38, 80
9, 98400, Note_on_c, 9, 38, 95
9, 98640, Note_off_c, 9, 38, 80
9, 98640, Note_on_c, 9, 38, 95
9, 99120, Note_off_c, 9, 38, 80
9, 99240, Note_on_c, 9, 38, 95
9, 99360, Note_off_c, 9, 38, 80
9, 99360, Note_on_c, 9, 38, 95
9, 99420, Note_off_c, 9, 38, 80
9, 99420, Note_on_c, 9, 38, 95
9, 99480, Note_off_c, 9, 38, 80
9, 99480, Note_on_c, 9, 38, 95
9, 99540, Note_off_c, 9, 38, 80
9, 99540, Note_on_c, 9, 38, 95
9, 99600, Note_off_c, 9, 38, 80
9, 99840, Note_on_c, 9, 38, 95
9, 100080, Note_off_c, 9, 38, 80
9, 100080, Note_on_c, 9, 38, 95
9, 100320, Note_off_c, 9, 38, 80
9, 100320, Note_on_c, 9, 38, 95
9, 100560, Note_off_c, 9, 38, 80
9, 100560, Note_on_c, 9, 38, 95
9, 100680, Note_off_c, 9, 38, 80
9, 100800, Note_on_c, 9, 38, 95
9, 100860, Note_off_c, 9, 38, 80
9, 100860, Note_on_c, 9, 38, 95
9, 100920, Note_off_c, 9, 38, 80
9, 100920, Note_on_c, 9, 38, 95
9, 100980, Note_off_c, 9, 38, 80
9, 100980, Note_on_c, 9, 38, 95
9, 101040, Note_off_c, 9, 38, 80
9, 101280, Note_on_c, 9, 38, 95
9, 101520, Note_off_c, 9, 38, 80
9, 101520, Note_on_c, 9, 38, 95
9, 102000, Note_off_c, 9, 38, 80
9, 102120, Note_on_c, 9, 38, 95
9, 102240, Note_off_c, 9, 38, 80
9, 102240, Note_on_c, 9, 38, 95
9, 102300, Note_off_c, 9, 38, 80
9, 102300, Note_on_c, 9, 38, 95
9, 102360, Note_off_c, 9, 38, 80
9, 102360, Note_on_c, 9, 38, 95
9, 102420, Note_off_c, 9, 38, 80
9, 102420, Note_on_c, 9, 38, 95
9, 102480, Note_off_c, 9, 38, 80
9, 102720, Note_on_c, 9, 38, 95
9, 102960, Note_off_c, 9, 38, 80
9, 102960, Note_on_c, 9, 38, 95
9, 103200, Note_off_c, 9, 38, 80
9, 103200, Note_on_c, 9, 38, 95
9, 103440, Note_off_c, 9, 38, 80
9, 103440, Note_on_c, 9, 38, 95
9, 103560, Note_off_c, 9, 38, 80
9, 103680, Note_on_c, 9, 38, 95
9, 103740, Note_off_c, 9, 38, 80
9, 103740, Note_on_c, 9, 38, 95
9, 103800, Note_off_c, 9, 38, 80
9, 103800, Note_on_c, 9, 38, 95
9, 103860, Note_off_c, 9, 38, 80
9, 103860, Note_on_c, 9, 38, 95
9, 103920, Note_off_c, 9, 38, 80
9, 104160, Note_on_c, 9, 38, 95
9, 104400, Note_off_c, 9, 38, 80
9, 104400, Note_on_c, 9, 38, 95
9, 104880, Note_off_c, 9, 38, 80
9, 105000, Note_on_c, 9, 38, 95
9, 105120, Note_off_c, 9, 38, 80
9, 105120, Note_on_c, 9, 38, 95
9, 105180, Note_off_c, 9, 38, 80
9, 105180, Note_on_c, 9, 38, 95
9, 105240, Note_off_c, 9, 38, 80
9, 105240, Note_on_c, 9, 38, 95
9, 105300, Note_off_c, 9, 38, 80
9, 105300, Note_on_c, 9, 38, 95
9, 105360, Note_off_c, 9, 38, 80
9, 105600, Note_on_c, 9, 38, 95
9, 105840, Note_off_c, 9, 38, 80
9, 105840, Note_on_c, 9, 38, 95
9, 106080, Note_off_c, 9, 38, 80
9, 106080, Note_on_c, 9, 38, 95
9, 106320, Note_off_c, 9, 38, 80
9, 106320, Note_on_c, 9, 38, 95
9, 106440, Note_off_c, 9, 38, 80
9, 106560, Note_on_c, 9, 38, 95
9, 106620, Note_off_c, 9, 38, 80
9, 106620, Note_on_c, 9, 38, 95
9, 106680, Note_off_c, 9, 38, 80
9, 106680, Note_on_c, 9, 38, 95
9, 106740, Note_off_c, 9, 38, 80
9, 106740, Note_on_c, 9, 38, 95
9, 106800, Note_off_c, 9, 38, 80
9, 107040, Note_on_c, 9, 38, 95
9, 107280, Note_off_c, 9, 38, 80
9, 107280, Note_on_c, 9, 38, 95
9, 107760, Note_off_c, 9, 38, 80
9, 107880, Note_on_c, 9, 38, 95
9, 108000, Note_off_c, 9, 38, 80
9, 108000, Note_on_c, 9, 38, 95
9, 108060, Note_off_c, 9, 38, 80
9, 108060, Note_on_c, 9, 38, 95
9, 108120, Note_off_c, 9, 38, 80
9, 108120, Note_on_c, 9, 38, 95
9, 108180, Note_off_c, 9, 38, 80
9, 108180, Note_on_c, 9, 38, 95
9, 108240, Note_off_c, 9, 38, 80
9, 108480, Note_on_c, 9, 38, 95
9, 108720, Note_off_c, 9, 38, 80
9, 108720, Note_on_c, 9, 38, 95
9, 108960, Note_off_c, 9, 38, 80
9, 108960, Note_on_c, 9, 38, 95
9, 109200, Note_off_c, 9, 38, 80
9, 109200, Note_on_c, 9, 38, 95
9, 109320, Note_off_c, 9, 38, 80
9, 109440, Note_on_c, 9, 38, 95
9, 109500, Note_off_c, 9, 38, 80
9, 109500, Note_on_c, 9, 38, 95
9, 109560, Note_off_c, 9, 38, 80
9, 109560, Note_on_c, 9, 38, 95
9, 109620, Note_off_c, 9, 38, 80
9, 109620, Note_on_c, 9, 38, 95
9, 109680, Note_off_c, 9, 38, 80
9, 109920, Note_on_c, 9, 38, 95
9, 110160, Note_off_c, 9, 38, 80
9, 110160, Note_on_c, 9, 38, 95
9, 110640, Note_off_c, 9, 38, 80
9, 110760, Note_on_c, 9, 38, 95
9, 110880, Note_off_c, 9, 38, 80
9, 110880, Note_on_c, 9, 38, 95
9, 110940, Note_off_c, 9, 38, 80
9, 110940, Note_on_c, 9, 38, 95
9, 111000, Note_off_c, 9, 38, 80
9, 111000, Note_on_c, 9, 38, 95
9, 111060, Note_off_c, 9, 38, 80
9, 111060, Note_on_c, 9, 38, 95
9, 111120, Note_off_c, 9, 38, 80
9, 111360, Note_on_c, 9, 38, 95
9, 111600, Note_off_c, 9, 38, 80
9, 111600, Note_on_c, 9, 38, 95
9, 111840, Note_off_c, 9, 38, 80
9, 111840, Note_on_c, 9, 38, 95
9, 112080, Note_off_c, 9, 38, 80
9, 112080, Note_on_c, 9, 38, 95
9, 112200, Note_off_c, 9, 38, 80
9, 112320, Note_on_c, 9, 38, 95
9, 112380, Note_off_c, 9, 38, 80
9, 112380, Note_on_c, 9, 38, 95
9, 112440, Note_off_c, 9, 38, 80
9, 112440, Note_on_c, 9, 38, 95
9, 112500, Note_off_c, 9, 38, 80
9, 112500, Note_on_c, 9, 38, 95
9, 112560, Note_off_c, 9, 38, 80
9, 112800, Note_on_c, 9, 38, 95
9, 113040, Note_off_c, 9, 38, 80
9, 113040, Note_on_c, 9, 38, 95
9, 113520, Note_off_c, 9, 38, 80
9, 113640, Note_on_c, 9, 38, 95
9, 113760, Note_off_c, 9, 38, 80
9, 113760, Note_on_c, 9, 38, 95
9, 113820, Note_off_c, 9, 38, 80
9, 113820, Note_on_c, 9, 38, 95
9, 113880, Note_off_c, 9, 38, 80
9, 113880, Note_on_c, 9, 38, 95
9, 113940, Note_off_c, 9, 38, 80
9, 113940, Note_on_c, 9, 38, 95
9, 114000, Note_off_c, 9, 38, 80
9, 114240, Note_on_c, 9, 38, 95
9, 114480, Note_off_c, 9, 38, 80
9, 114480, Note_on_c, 9, 38, 95
9, 114720, Note_off_c, 9, 38, 80
9, 114720, Note_on_c, 9, 38, 95
9, 114960, Note_off_c, 9, 38, 80
9, 114960, Note_on_c, 9, 38, 95
9, 115080, Note_off_c, 9, 38, 80
9, 115200, Note_on_c, 9, 38, 95
9, 115260, Note_off_c, 9, 38, 80
9, 115260, Note_on_c, 9, 38, 95
9, 115320, Note_off_c, 9, 38, 80
9, 115320, Note_on_c, 9, 38, 95
9, 115380, Note_off_c, 9, 38, 80
9, 115380, Note_on_c, 9, 38, 95
9, 115440, Note_off_c, 9, 38, 80
9, 115680, Note_on_c, 9, 38, 95
9, 115920, Note_off_c, 9, 38, 80
9, 115920, Note_on_c, 9, 38, 95
9, 116400, Note_off_c, 9, 38, 80
9, 116520, Note_on_c, 9, 38, 95
9, 116640, Note_off_c, 9, 38, 80
9, 116640, Note_on_c, 9, 38, 95
9, 116700, Note_off_c, 9, 38, 80
9, 116700, Note_on_c, 9, 38, 95
9, 116760, Note_off_c, 9, 38, 80
9, 116760, Note_on_c, 9, 38, 95
9, 116820, Note_off_c, 9, 38, 80
9, 116820, Note_on_c, 9, 38, 95
9, 116880, Note_off_c, 9, 38, 80
9, 117120, Note_on_c, 9, 38, 95
9, 117360, Note_off_c, 9, 38, 80
9, 117360, Note_on_c, 9, 38, 95
9, 117600, Note_off_c, 9, 38, 80
9, 117600, Note_on_c, 9, 38, 95
9, 117840, Note_off_c, 9, 38, 80
9, 117840, Note_on_c, 9, 38, 95
9, 117960, Note_off_c, 9, 38, 80
9, 118080, Note_on_c, 9, 38, 95
9, 118140, Note_off_c, 9, 38, 80
9, 118140, Note_on_c, 9, 38, 95
9, 118200, Note_off_c, 9, 38, 80
9, 118200, Note_on_c, 9, 38, 95
9, 118260, Note_off_c, 9, 38, 80
9, 118260, Note_on_c, 9, 38, 95
9, 118320, Note_off_c, 9, 38, 80
9, 118560, Note_on_c, 9, 38, 95
9, 118800, Note_off_c, 9, 38, 80
9, 118800, Note_on_c, 9, 38, 95
9, 119280, Note_off_c, 9, 38, 80
9, 119400, Note_on_c, 9, 38, 95
9, 119520, Note_off_c, 9, 38, 80
9, 119520, Note_on_c, 9, 38, 95
9, 119580, Note_off_c, 9, 38, 80
9, 119580, Note_on_c, 9, 38, 95
9, 119640, Note_off_c, 9, 38, 80
9, 119640, Note_on_c, 9, 38, 95
9, 119700, Note_off_c, 9, 38, 80
9, 119700, Note_on_c, 9, 38, 95
9, 119760, Note_off_c, 9, 38, 80
9, 120000, Note_on_c, 9, 38, 95
9, 120240, Note_off_c, 9, 38, 80
9, 120240, Note_on_c, 9, 38, 95
9, 120480, Note_off_c, 9, 38, 80
9, 120480, Note_on_c, 9, 38, 95
9, 120720, Note_off_c, 9, 38, 80
9, 120720, Note_on_c, 9, 38, 95
9, 120840, Note_off_c, 9, 38, 80
9, 120960, Note_on_c, 9, 38, 95
9, 121020, Note_off_c, 9, 38, 80
9, 121020, Note_on_c, 9, 38, 95
9, 121080, Note_off_c, 9, 38, 80
9, 121080, Note_on_c, 9, 38, 95
9, 121140, Note_off_c, 9, 38, 80
9, 121140, Note_on_c, 9, 38, 95
9, 121200, Note_off_c, 9, 38, 80
9, 121440, Note_on_c, 9, 38, 95
9, 121680, Note_off_c, 9, 38, 80
9, 121680, Note_on_c, 9, 38, 95
9, 122160, Note_off_c, 9, 38, 80
9, 122280, Note_on_c, 9, 38, 95
9, 122400, Note_off_c, 9, 38, 80
9, 122400, Note_on_c, 9, 38, 95
9, 122460, Note_off_c, 9, 38, 80
9, 122460, Note_on_c, 9, 38, 95
9, 122520, Note_off_c, 9, 38, 80
9, 122520, Note_on_c, 9, 38, 95
9, 122580, Note_off_c, 9, 38, 80
9, 122580, Note_on_c, 9, 38, 95
9, 122640, Note_off_c, 9, 38, 80
9, 122880, Note_on_c, 9, 38, 95
9, 123120, Note_off_c, 9, 38, 80
9, 123120, Note_on_c, 9, 38, 95
9, 123360, Note_off_c, 9, 38, 80
9, 123360, Note_on_c, 9, 38, 95
9, 123600, Note_off_c, 9, 38, 80
9, 123600, Note_on_c, 9, 38, 95
9, 123720, Note_off_c, 9, 38, 80
9, 123840, Note_on_c, 9, 38, 95
9, 123900, Note_off_c, 9, 38, 80
9, 123900, Note_on_c, 9, 38, 95
9, 123960, Note_off_c, 9, 38, 80
9, 123960, Note_on_c, 9, 38, 95
9, 124020, Note_off_c, 9, 38, 80
9, 124020, Note_on_c, 9, 38, 95
9, 124080, Note_off_c, 9, 38, 80
9, 124320, Note_on_c, 9, 38, 95
9, 124560, Note_off_c, 9, 38, 80
9, 124560, Note_on_c, 9, 38, 95
9, 125040, Note_off_c, 9, 38, 80
9, 125160, Note_on_c, 9, 38, 95
9, 125280, Note_off_c, 9, 38, 80
9, 125280, Note_on_c, 9, 38, 95
9, 125340, Note_off_c, 9, 38, 80
9, 125340, Note_on_c, 9, 38, 95
9, 125400, Note_off_c, 9, 38, 80
9, 125400, Note_on_c, 9, 38, 95
9, 125460, Note_off_c, 9, 38, 80
9, 125460, Note_on_c, 9, 38, 95
9, 125520, Note_off_c, 9, 38, 80
9, 125760, Note_on_c, 9, 38, 95
9, 126000, Note_off_c, 9, 38, 80
9, 126000, Note_on_c, 9, 38, 95
9, 126240, Note_off_c, 9, 38, 80
9, 126240, Note_on_c, 9, 38, 95
9, 126480, Note_off_c, 9, 38, 80
9, 126480, Note_on_c, 9, 38, 95
9, 126600, Note_off_c, 9, 38, 80
9, 126720, Note_on_c, 9, 38, 95
9, 126780, Note_off_c, 9, 38, 80
9, 126780, Note_on_c, 9, 38, 95
9, 126840, Note_off_c, 9, 38, 80
9, 126840, Note_on_c, 9, 38, 95
9, 126900, Note_off_c, 9, 38, 80
9, 126900, Note_on_c, 9, 38, 95
9, 126960, Note_off_c, 9, 38, 80
9, 127200, Note_on_c, 9, 38, 95
9, 127440, Note_off_c, 9, 38, 80
9, 127440, Note_on_c, 9, 38, 95
9, 127920, Note_off_c, 9, 38, 80
9, 128040, Note_on_c, 9, 38, 95
9, 128160, Note_off_c, 9, 38, 80
9, 128160, Note_on_c, 9, 38, 95
9, 128220, Note_off_c, 9, 38, 80
9, 128220, Note_on_c, 9, 38, 95
9, 128280, Note_off_c, 9, 38, 80
9, 128280, Note_on_c, 9, 38, 95
9, 128340, Note_off_c, 9, 38, 80
9, 128340, Note_on_c, 9, 38, 95
9, 128400, Note_off_c, 9, 38, 80
9, 128640, Note_on_c, 9, 38, 95
9, 128880, Note_off_c, 9, 38, 80
9, 128880, Note_on_c, 9, 38, 95
9, 129120, Note_off_c, 9, 38, 80
9, 129120, Note_on_c, 9, 38, 95
9, 129360, Note_off_c, 9, 38, 80
9, 129360, Note_on_c, 9, 38, 95
9, 129480, Note_off_c, 9, 38, 80
9, 129600, Note_on_c, 9, 38, 95
9, 129660, Note_off_c, 9, 38, 80
9, 129660, Note_on_c, 9, 38, 95
9, 129720, Note_off_c, 9, 38, 80
9, 129720, Note_on_c, 9, 38, 95
9, 129780, Note_off_c, 9, 38, 80
9, 129780, Note_on_c, 9, 38, 95
9, 129840, Note_off_c, 9, 38, 80
9, 130080, Note_on_c, 9, 38, 95
9, 130320, Note_off_c, 9, 38, 80
9, 130320, Note_on_c, 9, 38, 95
9, 130800, Note_off_c, 9, 38, 80
9, 130920, Note_on_c, 9, 38, 95
9, 131040, Note_off_c, 9, 38, 80
9, 131040, Note_on_c, 9, 38, 95
9, 131100, Note_off_c, 9, 38, 80
9, 131100, Note_on_c, 9, 38, 95
9, 131160, Note_off_c, 9, 38, 80
9, 131160, Note_on_c, 9, 38, 95
9, 131220, Note_off_c, 9, 38, 80
9, 131220, Note_on_c, 9, 38, 95
9, 131280, Note_off_c, 9, 38, 80
9, 131520, Note_on_c, 9, 38, 95
9, 131760, Note_off_c, 9, 38, 80
9, 131760, Note_on_c, 9, 38, 95
9, 132000, Note_off_c, 9, 38, 80
9, 132000, Note_on_c, 9, 38, 95
9, 132240, Note_off_c, 9, 38, 80
9, 132240, Note_on_c, 9, 38, 95
9, 132360, Note_off_c, 9, 38, 80
9, 132480, Note_on_c, 9, 38, 95
9, 132540, Note_off_c, 9, 38, 80
9, 132540, Note_on_c, 9, 38, 95
9, 132600, Note_off_c, 9, 38, 80
9, 132600, Note_on_c, 9, 38, 95
9, 132660, Note_off_c, 9, 38, 80
9, 132660, Note_on_c, 9, 38, 95
9, 132720, Note_off_c, 9, 38, 80
9, 132960, Note_on_c, 9, 38, 95
9, 133200, Note_off_c, 9, 38, 80
9, 133200, Note_on_c, 9, 38, 95
9, 133680, Note_off_c, 9, 38, 80
9, 133800, Note_on_c, 9, 38, 95
9, 133920, Note_off_c, 9, 38, 80
9, 133920, Note_on_c, 9, 38, 95
9, 133980, Note_off_c, 9, 38, 80
9, 133980, Note_on_c, 9, 38, 95
9, 134040, Note_off_c, 9, 38, 80
9, 134040, Note_on_c, 9, 38, 95
9, 134100, Note_off_c, 9, 38, 80
9, 134100, Note_on_c, 9, 38, 95
9, 134160, Note_off_c, 9, 38, 80
9, 134400, Note_on_c, 9, 38, 95
9, 134640, Note_off_c, 9, 38, 80
9, 134640, Note_on_c, 9, 38, 95
9, 134880, Note_off_c, 9, 38, 80
9, 134880, Note_on_c, 9, 38, 95
9, 135120, Note_off_c, 9, 38, 80
9, 135120, Note_on_c, 9, 38, 95
9, 135240, Note_off_c, 9, 38, 80
9, 135360, Note_on_c, 9, 38, 95
9, 135420, Note_off_c, 9, 38, 80
9, 135420, Note_on_c, 9, 38, 95
9, 135480, Note_off_c, 9, 38, 80
9, 135480, Note_on_c, 9, 38, 95
9, 135540, Note_off_c, 9, 38, 80
9, 135540, Note_on_c, 9, 38, 95
9, 135600, Note_off_c, 9, 38, 80
9, 135840, Note_on_c, 9, 38, 95
9, 136080, Note_off_c, 9, 38, 80
9, 136080, Note_on_c, 9, 38, 95
9, 136560, Note_off_c, 9, 38, 80
9, 136680, Note_on_c, 9, 38, 95
9, 136800, Note_off_c, 9, 38, 80
9, 136800, Note_on_c, 9, 38, 95
9, 136860, Note_off_c, 9, 38, 80
9, 136860, Note_on_c, 9, 38, 95
9, 136920, Note_off_c, 9, 38, 80
9, 136920, Note_on_c, 9, 38, 95
9, 136980, Note_off_c, 9, 38, 80
9, 136980, Note_on_c, 9, 38, 95
9, 137040, Note_off_c, 9, 38, 80
9, 137280, Note_on_c, 9, 38, 95
9, 137520, Note_off_c, 9, 38, 80
9, 137520, Note_on_c, 9, 38, 95
9, 137760, Note_off_c, 9, 38, 80
9, 137760, Note_on_c, 9, 38, 95
9, 138000, Note_off_c, 9, 38, 80
9, 138000, Note_on_c, 9, 38, 95
9, 138120, Note_off_c, 9, 38, 80
9, 138240, Note_on_c, 9, 38, 95
9, 138300, Note_off_c, 9, 38, 80
9, 138300, Note_on_c, 9, 38, 95
9, 138360, Note_off_c, 9, 38, 80
9, 138360, Note_on_c, 9, 38, 95
9, 138420, Note_off_c, 9, 38, 80
9, 138420, Note_on_c, 9, 38, 95
9, 138480, Note_off_c, 9, 38, 80
9, 138720, Note_on_c, 9, 38, 95
9, 138960, Note_off_c, 9, 38, 80
9, 138960, Note_on_c, 9, 38, 95
9, 139440, Note_off_c, 9, 38, 80
9, 139560, Note_on_c, 9, 38, 95
9, 139680, Note_off_c, 9, 38, 80
9, 139680, Note_on_c, 9, 38, 95
9, 139740, Note_off_c, 9, 38, 80
9, 139740, Note_on_c, 9, 38, 95
9, 139800, Note_off_c, 9, 38, 80
9, 139800, Note_on_c, 9, 38, 95
9, 139860, Note_off_c, 9, 38, 80
9, 139860, Note_on_c, 9, 38, 95
9, 139920, Note_off_c, 9, 38, 80
9, 140160, Note_on_c, 9, 38, 95
9, 140400, Note_off_c, 9, 38, 80
9, 140400, Note_on_c, 9, 38, 95
9, 140640, Note_off_c, 9, 38, 80
9, 140640, Note_on_c, 9, 38, 95
9, 140880, Note_off_c, 9, 38, 80
9, 140880, Note_on_c, 9, 38, 95
9, 141000, Note_off_c, 9, 38, 80
9, 141120, Note_on_c, 9, 38, 95
9, 141180, Note_off_c, 9, 38, 80
9, 141180, Note_on_c, 9, 38, 95
9, 141240, Note_off_c, 9, 38, 80
9, 141240, Note_on_c, 9, 38, 95
9, 141300, Note_off_c, 9, 38, 80
9, 141300, Note_on_c, 9, 38, 95
9, 141360, Note_off_c, 9, 38, 80
9, 141600, Note_on_c, 9, 38, 95
9, 141840, Note_off_c, 9, 38, 80
9, 141840, Note_on_c, 9, 38, 95
9, 142320, Note_off_c, 9, 38, 80
9, 142440, Note_on_c, 9, 38, 95
9, 142560, Note_off_c, 9, 38, 80
9, 142560, Note_on_c, 9, 38, 95
9, 142620, Note_off_c, 9, 38, 80
9, 142620, Note_on_c, 9, 38, 95
9, 142680, Note_off_c, 9, 38, 80
9, 142680, Note_on_c, 9, 38, 95
9, 142740, Note_off_c, 9, 38, 80
9, 142740, Note_on_c, 9, 38, 95
9, 142800, Note_off_c, 9, 38, 80
9, 143040, Note_on_c, 9, 38, 95
9, 143280, Note_off_c, 9, 38, 80
9, 143280, Note_on_c, 9, 38, 95
9, 143520, Note_off_c, 9, 38, 80
9, 143520, Note_on_c, 9, 38, 95
9, 143760, Note_off_c, 9, 38, 80
9, 143760, Note_on_c, 9, 38, 95
9, 143880, Note_off_c, 9, 38, 80
9, 144000, Note_on_c, 9, 38, 95
9, 144060, Note_off_c, 9, 38, 80
9, 144060, Note_on_c, 9, 38, 95
9, 144120, Note_off_c, 9, 38, 80
9, 144120, Note_on_c, 9, 38, 95
9, 144180, Note_off_c, 9, 38, 80
9, 144180, Note_on_c, 9, 38, 95
9, 144240, Note_off_c, 9, 38, 80
9, 144480, Note_on_c, 9, 38, 95
9, 144720, Note_off_c, 9, 38, 80
9, 144720, Note_on_c, 9, 38, 95
9, 145200, Note_off_c, 9, 38, 80
9, 145320, Note_on_c, 9, 38, 95
9, 145440, Note_off_c, 9, 38, 80
9, 145440, Note_on_c, 9, 38, 95
9, 145500, Note_off_c, 9, 38, 80
9, 145500, Note_on_c, 9, 38, 95
9, 145560, Note_off_c, 9, 38, 80
9, 145560, Note_on_c, 9, 38, 95
9, 145620, Note_off_c, 9, 38, 80
9, 145620, Note_on_c, 9, 38, 95
9, 145680, Note_off_c, 9, 38, 80
9, 145920, Note_on_c, 9, 38, 95
9, 146160, Note_off_c, 9, 38, 80
9, 146160, Note_on_c, 9, 38, 95
9, 146400, Note_off_c, 9, 38, 80
9, 146400, Note_on_c, 9, 38, 95
9, 146640, Note_off_c, 9, 38, 80
9, 146640, Note_on_c, 9, 38, 95
9, 146760, Note_off_c, 9, 38, 80
9, 146880, Note_on_c, 9, 38, 95
9, 146940, Note_off_c, 9, 38, 80
9, 146940, Note_on_c, 9, 38, 95
9, 147000, Note_off_c, 9, 38, 80
9, 147000, Note_on_c, 9, 38, 95
9, 147060, Note_off_c, 9, 38, 80
9, 147060, Note_on_c, 9, 38, 95
9, 147120, Note_off_c, 9, 38, 80
9, 147360, Note_on_c, 9, 38, 95
9, 147600, Note_off_c, 9, 38, 80
9, 147600, Note_on_c, 9, 38, 95
9, 148080, Note_off_c, 9, 38, 80
9, 148200, Note_on_c, 9, 38, 95
9, 148320, Note_off_c, 9, 38, 80
9, 148320, Note_on_c, 9, 38, 95
9, 148380, Note_off_c, 9, 38, 80
9, 148380, Note_on_c, 9, 38, 95
9, 148440, Note_off_c, 9, 38, 80
9, 148440, Note_on_c, 9, 38, 95
9, 148500, Note_off_c, 9, 38, 80
9, 148500, Note_on_c, 9, 38, 95
9, 148560, Note_off_c, 9, 38, 80
9, 148800, Note_on_c, 9, 38, 95
9, 149040, Note_off_c, 9, 38, 80
9, 149040, Note_on_c, 9, 38, 95
9, 149280, Note_off_c, 9, 38, 80
9, 149280, Note_on_c, 9, 38, 95
9, 149520, Note_off_c, 9, 38, 80
9, 149520, Note_on_c, 9, 38, 95
9, 149640, Note_off_c, 9, 38, 80
9, 149760, Note_on_c, 9, 38, 95
9, 149820, Note_off_c, 9, 38, 80
9, 149820, Note_on_c, 9, 38, 95
9, 149880, Note_off_c, 9, 38, 80
9, 149880, Note_on_c, 9, 38, 95
9, 149940, Note_off_c, 9, 38, 80
9, 149940, Note_on_c, 9, 38, 95
9, 150000, Note_off_c, 9, 38, 80
9, 150240, Note_on_c, 9, 38, 95
9, 150480, Note_off_c, 9, 38, 80
9, 150480, Note_on_c, 9, 38, 95
9, 150960, Note_off_c, 9, 38, 80
9, 151080, Note_on_c, 9, 38, 95
9, 151200, Note_off_c, 9, 38, 80
9, 151200, Note_on_c, 9, 38, 95
9, 151260, Note_off_c, 9, 38, 80
9, 151260, Note_on_c, 9, 38, 95
9, 151320, Note_off_c, 9, 38, 80
9, 151320, Note_on_c, 9, 38, 95
9, 151380, Note_off_c, 9, 38, 80
9, 151380, Note_on_c, 9, 38, 95
9, 151440, Note_off_c, 9, 38, 80
9, 151680, Note_on_c, 9, 38, 95
9, 151920, Note_off_c, 9, 38, 80
9, 151920, Note_on_c, 9, 38, 95
9, 152160, Note_off_c, 9, 38, 80
9, 152160, Note_on_c, 9, 38, 95
9, 152400, Note_off_c, 9, 38, 80
9, 152400, Note_on_c, 9, 38, 95
9, 152520, Note_off_c, 9, 38, 80
9, 152640, Note_on_c, 9, 38, 95
9, 152700, Note_off_c, 9, 38, 80
9, 152700, Note_on_c, 9, 38, 95
9, 152760, Note_off_c, 9, 38, 80
9, 152760, Note_on_c, 9, 38, 95
9, 152820, Note_off_c, 9, 38, 80
9, 152820, Note_on_c, 9, 38, 95
9, 152880, Note_off_c, 9, 38, 80
9, 153120, Note_on_c, 9, 38, 95
9, 153360, Note_off_c, 9, 38, 80
9, 153360, Note_on_c, 9, 38, 95
9, 153840, Note_off_c, 9, 38, 80
9, 153960, Note_on_c, 9, 38, 95
9, 154080, Note_off_c, 9, 38, 80
9, 154080, Note_on_c, 9, 38, 95
9, 154140, Note_off_c, 9, 38, 80
9, 154140, Note_on_c, 9, 38, 95
9, 154200, Note_off_c, 9, 38, 80
9, 154200, Note_on_c, 9, 38, 95
9, 154260, Note_off_c, 9, 38, 80
9, 154260, Note_on_c, 9, 38, 95
9, 154320, Note_off_c, 9, 38, 80
9, 154560, Note_on_c, 9, 38, 95
9, 154800, Note_off_c, 9, 38, 80
9, 154800, Note_on_c, 9, 38, 95
9, 155040, Note_off_c, 9, 38, 80
9, 155040, Note_on_c, 9, 38, 95
9, 155280, Note_off_c, 9, 38, 80
9, 155280, Note_on_c, 9, 38, 95
9, 155400, Note_off_c, 9, 38, 80
9, 155520, Note_on_c, 9, 38, 95
9, 155580, Note_off_c, 9, 38, 80
9, 155580, Note_on_c, 9, 38, 95
9, 155640, Note_off_c, 9, 38, 80
9, 155640, Note_on_c, 9, 38, 95
9, 155700, Note_off_c, 9, 38, 80
9, 155700, Note_on_c, 9, 38, 95
9, 155760, Note_off_c, 9, 38, 80
9, 156000, Note_on_c, 9, 38, 95
9, 156240, Note_off_c, 9, 38, 80
9, 156240, Note_on_c, 9, 38, 95
9, 156720, Note_off_c, 9, 38, 80
9, 156840, Note_on_c, 9, 38, 95
9, 156960, Note_off_c, 9, 38, 80
9, 156960, Note_on_c, 9, 38, 95
9, 157020, Note_off_c, 9, 38, 80
9, 157020, Note_on_c, 9, 38, 95
9, 157080, Note_off_c, 9, 38, 80
9, 157080, Note_on_c, 9, 38, 95
9, 157140, Note_off_c, 9, 38, 80
9, 157140, Note_on_c, 9, 38, 95
9, 157200, Note_off_c, 9, 38, 80
9, 157440, Note_on_c, 9, 38, 95
9, 157680, Note_off_c, 9, 38, 80
9, 157680, Note_on_c, 9, 38, 95
9, 157920, Note_off_c, 9, 38, 80
9, 157920, Note_on_c, 9, 38, 95
9, 158160, Note_off_c, 9, 38, 80
9, 158160, Note_on_c, 9, 38, 95
9, 158280, Note_off_c, 9, 38, 80
9, 158400, Note_on_c, 9, 38, 95
9, 158460, Note_off_c, 9, 38, 80
9, 158460, Note_on_c, 9, 38, 95
9, 158520, Note_off_c, 9, 38, 80
9, 158520, Note_on_c, 9, 38, 95
9, 158580, Note_off_c, 9, 38, 80
9, 158580, Note_on_c, 9, 38, 95
9, 158640, Note_off_c, 9, 38, 80
9, 158880, Note_on_c, 9, 38, 95
9, 159120, Note_off_c, 9, 38, 80
9, 159120, Note_on_c, 9, 38, 95
9, 159600, Note_off_c, 9, 38, 80
9, 159720, Note_on_c, 9, 38, 95
9, 159840, Note_off_c, 9, 38, 80
9, 159840, Note_on_c, 9, 38, 95
9, 159900, Note_off_c, 9, 38, 80
9, 159900, Note_on_c, 9, 38, 95
9, 159960, Note_off_c, 9, 38, 80
9, 159960, Note_on_c, 9, 38, 95
9, 160020, Note_off_c, 9, 38, 80
9, 160020, Note_on_c, 9, 38, 95
9, 160080, Note_off_c, 9, 38, 80
9, 160320, Note_on_c, 9, 38, 95
9, 160560, Note_off_c, 9, 38, 80
9, 160560, Note_on_c, 9, 38, 95
9, 160800, Note_off_c, 9, 38, 80
9, 160800, Note_on_c, 9, 38, 95
9, 161040, Note_off_c, 9, 38, 80
9, 161040, Note_on_c, 9, 38, 95
9, 161160, Note_off_c, 9, 38, 80
9, 161280, Note_on_c, 9, 38, 95
9, 161340, Note_off_c, 9, 38, 80
9, 161340, Note_on_c, 9, 38, 95
9, 161400, Note_off_c, 9, 38, 80
9, 161400, Note_on_c, 9, 38, 95
9, 161460, Note_off_c, 9, 38, 80
9, 161460, Note_on_c, 9, 38, 95
9, 161520, Note_off_c, 9, 38, 80
9, 161760, Note_on_c, 9, 38, 95
9, 162000, Note_off_c, 9, 38, 80
9, 162000, Note_on_c, 9, 38, 95
9, 162480, Note_off_c, 9, 38, 80
9, 162600, Note_on_c, 9, 38, 95
9, 162720, Note_off_c, 9, 38, 80
9, 162720, Note_on_c, 9, 38, 95
9, 162780, Note_off_c, 9, 38, 80
9, 162780, Note_on_c, 9, 38, 95
9, 162840, Note_off_c, 9, 38, 80
9, 162840, Note_on_c, 9, 38, 95
9, 162900, Note_off_c, 9, 38, 80
9, 162900, Note_on_c, 9, 38, 95
9, 162960, Note_off_c, 9, 38, 80
9, 163200, Note_on_c, 9, 38, 95
9, 163440, Note_off_c, 9, 38, 80
9, 163440, Note_on_c, 9, 38, 95
9, 163680, Note_off_c, 9, 38, 80
9, 163680, Note_on_c, 9, 38, 95
9, 163920, Note_off_c, 9, 38, 80
9, 163920, Note_on_c, 9, 38, 95
9, 164040, Note_off_c, 9, 38, 80
9, 164160, Note_on_c, 9, 38, 95
9, 164220, Note_off_c, 9, 38, 80
9, 164220, Note_on_c, 9, 38, 95
9, 164280, Note_off_c, 9, 38, 80
9, 164280, Note_on_c, 9, 38, 95
9, 164340, Note_off_c, 9, 38, 80
9, 164340, Note_on_c, 9, 38, 95
9, 164400, Note_off_c, 9, 38, 80
9, 164640, Note_on_c, 9, 38, 95
9, 164880, Note_off_c, 9, 38, 80
9, 164880, Note_on_c, 9, 38, 95
9, 165360, Note_off_c, 9, 38, 80
9, 165480, Note_on_c, 9, 38, 95
9, 165600, Note_off_c, 9, 38, 80
9, 165600, Note_on_c, 9, 38, 95
9, 165660, Note_off_c, 9, 38, 80
9, 165660, Note_on_c, 9, 38, 95
9, 165720, Note_off_c, 9, 38, 80
9, 165720, Note_on_c, 9, 38, 95
9, 165780, Note_off_c, 9, 38, 80
9, 165780, Note_on_c, 9, 38, 95
9, 165840, Note_off_c, 9, 38, 80
9, 166080, Note_on_c, 9, 38, 95
9, 166320, Note_off_c, 9, 38, 80
9, 166320, Note_on_c, 9, 38, 95
9, 166560, Note_off_c, 9, 38, 80
9, 166560, Note_on_c, 9, 38, 95
9, 166800, Note_off_c, 9, 38, 80
9, 166800, Note_on_c, 9, 38, 95
9, 166920, Note_off_c, 9, 38, 80
9, 167040, Note_on_c, 9, 38, 95
9, 167100, Note_off_c, 9, 38, 80
9, 167100, Note_on_c, 9, 38, 95
9, 167160, Note_off_c, 9, 38, 80
9, 167160, Note_on_c, 9, 38, 95
9, 167220, Note_off_c, 9, 38, 80
9, 167220, Note_on_c, 9, 38, 95
9, 167280, Note_off_c, 9, 38, 80
9, 167520, Note_on_c, 9, 38, 95
9, 167760, Note_off_c, 9, 38, 80
9, 167760, Note_on_c, 9, 38, 95
9, 168240, Note_off_c, 9, 38, 80
9, 168360, Note_on_c, 9, 38, 95
9, 168480, Note_off_c, 9, 38, 80
9, 168480, Note_on_c, 9, 38, 95
9, 168540, Note_off_c, 9, 38, 80
9, 168540, Note_on_c, 9, 38, 95
9, 168600, Note_off_c, 9, 38, 80
9, 168600, Note_on_c, 9, 38, 95
9, 168660, Note_off_c, 9, 38, 80
9, 168660, Note_on_c, 9, 38, 95
9, 168720, Note_off_c, 9, 38, 80
9, 168960, Note_on_c, 9, 38, 95
9, 169200, Note_off_c, 9, 38, 80
9, 169200, Note_on_c, 9, 38, 95
9, 169440, Note_off_c, 9, 38, 80
9, 169440, Note_on_c, 9, 38, 95
9, 169680, Note_off_c, 9, 38, 80
9, 169680, Note_on_c, 9, 38, 95
9, 169800, Note_off_c, 9, 38, 80
9, 169920, Note_on_c, 9, 38, 95
9, 169980, Note_off_c, 9, 38, 80
9, 169980, Note_on_c, 9, 38, 95
9, 170040, Note_off_c, 9, 38, 80
9, 170040, Note_on_c, 9, 38, 95
9, 170100, Note_off_c, 9, 38, 80
9, 170100, Note_on_c, 9, 38, 95
9, 170160, Note_off_c, 9, 38, 80
9, 170400, Note_on_c, 9, 38, 95
9, 170640, Note_off_c, 9, 38, 80
9, 170640, Note_on_c, 9, 38, 95
9, 171120, Note_off_c, 9, 38, 80
9, 171240, Note_on_c, 9, 38, 95
9, 171360, Note_off_c, 9, 38, 80
9, 171360, Note_on_c, 9, 38, 95
9, 171420, Note_off_c, 9, 38, 80
9, 171420, Note_on_c, 9, 38, 95
9, 171480, Note_off_c, 9, 38, 80
9, 171480, Note_on_c, 9, 38, 95
9, 171540, Note_off_c, 9, 38, 80
9, 171540, Note_on_c, 9, 38, 95
9, 171600, Note_off_c, 9, 38, 80
9, 171840, Note_on_c, 9, 38, 95
9, 172080, Note_off_c, 9, 38, 80
9, 172080, Note_on_c, 9, 38, 95
9, 172320, Note_off_c, 9, 38, 80
9, 172320, Note_on_c, 9, 38, 95
9, 172560, Note_off_c, 9, 38, 80
9, 172560, Note_on_c, 9, 38, 95
9, 172680, Note_off_c, 9, 38, 80
9, 172800, Note_on_c, 9, 38, 95
9, 172860, Note_off_c, 9, 38, 80
9, 172860, Note_on_c, 9, 38, 95
9, 172920, Note_off_c, 9, 38, 80
9, 172920, Note_on_c, 9, 38, 95
9, 172980, Note_off_c, 9, 38, 80
9, 172980, Note_on_c, 9, 38, 95
9, 173040, Note_off_c, 9, 38, 80
9, 173280, Note_on_c, 9, 38, 95
9, 173520, Note_off_c, 9, 38, 80
9, 173520, Note_on_c, 9, 38, 95
9, 174000, Note_off_c, 9, 38, 80
9, 174120, Note_on_c, 9, 38, 95
9, 174240, Note_off_c, 9, 38, 80
9, 174240, Note_on_c, 9, 38, 95
9, 174300, Note_off_c, 9, 38, 80
9, 174300, Note_on_c, 9, 38, 95
9, 174360, Note_off_c, 9, 38, 80
9, 174360, Note_on_c, 9, 38, 95
9, 174420, Note_off_c, 9, 38, 80
9, 174420, Note_on_c, 9, 38, 95
9, 174480, Note_off_c, 9, 38, 80
9, 174720, Note_on_c, 9, 38, 95
9, 174960, Note_off_c, 9, 38, 80
9, 174960, Note_on_c, 9, 38, 95
9, 175200, Note_off_c, 9, 38, 80
9, 175200, Note_on_c, 9, 38, 95
9, 175440, Note_off_c, 9, 38, 80
9, 175440, Note_on_c, 9, 38, 95
9, 175560, Note_off_c, 9, 38, 80
9, 175680, Note_on_c, 9, 38, 95
9, 175740, Note_off_c, 9, 38, 80
9, 175740, Note_on_c, 9, 38, 95
9, 175800, Note_off_c, 9, 38, 80
9, 175800, Note_on_c, 9, 38, 95
9, 175860, Note_off_c, 9, 38, 80
9, 175860, Note_on_c, 9, 38, 95
9, 175920, Note_off_c, 9, 38, 80
9, 176160, Note_on_c, 9, 38, 95
9, 176400, Note_off_c, 9, 38, 80
9, 176400, Note_on_c, 9, 38, 95
9, 176880, Note_off_c, 9, 38, 80
9, 177000, Note_on_c, 9, 38, 95
9, 177120, Note_off_c, 9, 38, 80
9, 177120, Note_on_c, 9, 38, 95
9, 177180, Note_off_c, 9, 38, 80
9, 177180, Note_on_c, 9, 38, 95
9, 177240, Note_off_c, 9, 38, 80
9, 177240, Note_on_c, 9, 38, 95
9, 177300, Note_off_c, 9, 38, 80
9, 177300, Note_on_c, 9, 38, 95
9, 177360, Note_off_c, 9, 38, 80
9, 177600, Note_on_c, 9, 38, 95
9, 177840, Note_off_c, 9, 38, 80
9, 177840, Note_on_c, 9, 38, 95
9, 178080, Note_off_c, 9, 38, 80
9, 178080, Note_on_c, 9, 38, 95
9, 178320, Note_off_c, 9, 38, 80
9, 178320, Note_on_c, 9, 38, 95
9, 178440, Note_off_c, 9, 38, 80
9, 178560, Note_on_c, 9, 38, 95
9, 178620, Note_off_c, 9, 38, 80
9, 178620, Note_on_c, 9, 38, 95
9, 178680, Note_off_c, 9, 38, 80
9, 178680, Note_on_c, 9, 38, 95
9, 178740, Note_off_c, 9, 38, 80
9, 178740, Note_on_c, 9, 38, 95
9, 178800, Note_off_c, 9, 38, 80
9, 179040, Note_on_c, 9, 38, 95
9, 179280, Note_off_c, 9, 38, 80
9, 179280, Note_on_c, 9, 38, 95
9, 179760, Note_off_c, 9, 38, 80
9, 179880, Note_on_c, 9, 38, 95
9, 180000, Note_off_c, 9, 38, 80
9, 180000, Note_on_c, 9, 38, 95
9, 180060, Note_off_c, 9, 38, 80
9, 180060, Note_on_c, 9, 38, 95
9, 180120, Note_off_c, 9, 38, 80
9, 180120, Note_on_c, 9, 38, 95
9, 180180, Note_off_c, 9, 38, 80
9, 180180, Note_on_c, 9, 38, 95
9, 180240, Note_off_c, 9, 38, 80
9, 180480, Note_on_c, 9, 38, 95
9, 180720, Note_off_c, 9, 38, 80
9, 180720, Note_on_c, 9, 38, 95
9, 180960, Note_off_c, 9, 38, 80
9, 180960, Note_on_c, 9, 38, 95
9, 181200, Note_off_c, 9, 38, 80
9, 181200, Note_on_c, 9, 38, 95
9, 181320, Note_off_c, 9, 38, 80
9, 181440, Note_on_c, 9, 38, 95
9, 181500, Note_off_c, 9, 38, 80
9, 181500, Note_on_c, 9, 38, 95
9, 181560, Note_off_c, 9, 38, 80
9, 181560, Note_on_c, 9, 38, 95
9, 181620, Note_off_c, 9, 38, 80
9, 181620, Note_on_c, 9, 38, 95
9, 181680, Note_off_c, 9, 38, 80
9, 181920, Note_on_c, 9, 38, 95
9, 182160, Note_off_c, 9, 38, 80
9, 182160, Note_on_c, 9, 38, 95
9, 182640, Note_off_c, 9, 38, 80
9, 182760, Note_on_c, 9, 38, 95
9, 182880, Note_off_c, 9, 38, 80
9, 182880, Note_on_c, 9, 38, 95
9, 182940, Note_off_c, 9, 38, 80
9, 182940, Note_on_c, 9, 38, 95
9, 183000, Note_off_c, 9, 38, 80
9, 183000, Note_on_c, 9, 38, 95
9, 183060, Note_off_c, 9, 38, 80
9, 183060, Note_on_c, 9, 38, 95
9, 183120, Note_off_c, 9, 38, 80
9, 183360, Note_on_c, 9, 38, 95
9, 183600, Note_off_c, 9, 38, 80
9, 183600, Note_on_c, 9, 38, 95
9, 183840, Note_off_c, 9, 38, 80
9, 183840, Note_on_c, 9, 38, 95
9, 184080, Note_off_c, 9, 38, 80
9, 184080, Note_on_c, 9, 38, 95
9, 184200, Note_off_c, 9, 38, 80
9, 184320, Note_on_c, 9, 38, 95
9, 184380, Note_off_c, 9, 38, 80
9, 184380, Note_on_c, 9, 38, 95
9, 184440, Note_off_c, 9, 38, 80
9, 184440, Note_on_c, 9, 38, 95
9, 184500, Note_off_c, 9, 38, 80
9, 184500, Note_on_c, 9, 38, 95
9, 184560, Note_off_c, 9, 38, 80
9, 184800, Note_on_c, 9, 38, 95
9, 185040, Note_off_c, 9, 38, 80
9, 185040, Note_on_c, 9, 38, 95
9, 185520, Note_off_c, 9, 38, 80
9, 185640, Note_on_c, 9, 38, 95
9, 185760, Note_off_c, 9, 38, 80
9, 185760, Note_on_c, 9, 38, 95
9, 185820, Note_off_c, 9, 38, 80
9, 185820, Note_on_c, 9, 38, 95
9, 185880, Note_off_c, 9, 38, 80
9, 185880, Note_on_c, 9, 38, 95
9, 185940, Note_off_c, 9, 38, 80
9, 185940, Note_on_c, 9, 38, 95
9, 186000, Note_off_c, 9, 38, 80
9, 186240, Note_on_c, 9, 38, 95
9, 186480, Note_off_c, 9, 38, 80
9, 186480, Note_on_c, 9, 38, 95
9, 186720, Note_off_c, 9, 38, 80
9, 186720, Note_on_c, 9, 38, 95
9, 186960, Note_off_c, 9, 38, 80
9, 186960, Note_on_c, 9, 38, 95
9, 187080, Note_off_c, 9, 38, 80
9, 187200, Note_on_c, 9, 38, 95
9, 187260, Note_off_c, 9, 38, 80
9, 187260, Note_on_c, 9, 38, 95
9, 187320, Note_off_c, 9, 38, 80
9, 187320, Note_on_c, 9, 38, 95
9, 187380, Note_off_c, 9, 38, 80
9, 187380, Note_on_c, 9, 38, 95
9, 187440, Note_off_c, 9, 38, 80
9, 187680, Note_on_c, 9, 38, 95
9, 187920, Note_off_c, 9, 38, 80
9, 187920, Note_on_c, 9, 38, 95
9, 188400, Note_off_c, 9, 38, 80
9, 188520, Note_on_c, 9, 38, 95
9, 188640, Note_off_c, 9, 38, 80
9, 188640, Note_on_c, 9, 38, 95
9, 188700, Note_off_c, 9, 38, 80
9, 188700, Note_on_c, 9, 38, 95
9, 188760, Note_off_c, 9, 38, 80
9, 188760, Note_on_c, 9, 38, 95
9, 188820, Note_off_c, 9, 38, 80
9, 188820, Note_on_c, 9, 38, 95
9, 188880, Note_off_c, 9, 38, 80
9, 189120, Note_on_c, 9, 38, 95
9, 189360, Note_off_c, 9, 38, 80
9, 189360, Note_on_c, 9, 38, 95
9, 189600, Note_off_c, 9, 38, 80
9, 189600, Note_on_c, 9, 38, 95
9, 189840, Note_off_c, 9, 38, 80
9, 189840, Note_on_c, 9, 38, 95
9, 189960, Note_off_c, 9, 38, 80
9, 190080, Note_on_c, 9, 38, 95
9, 190140, Note_off_c, 9, 38, 80
9, 190140, Note_on_c, 9, 38, 95
9, 190200, Note_off_c, 9, 38, 80
9, 190200, Note_on_c, 9, 38, 95
9, 190260, Note_off_c, 9, 38, 80
9, 190260, Note_on_c, 9, 38, 95
9, 190320, Note_off_c, 9, 38, 80
9, 190560, Note_on_c, 9, 38, 95
9, 190800, Note_off_c, 9, 38, 80
9, 190800, Note_on_c, 9, 38, 95
9, 191280, Note_off_c, 9, 38, 80
9, 191400, Note_on_c, 9, 38, 95
9, 191520, Note_off_c, 9, 38, 80
9, 191520, Note_on_c, 9, 38, 95
9, 191580, Note_off_c, 9, 38, 80
9, 191580, Note_on_c, 9, 38, 95
9, 191640, Note_off_c, 9, 38, 80
9, 191640, Note_on_c, 9, 38, 95
9, 191700, Note_off_c, 9, 38, 80
9, 191700, Note_on_c, 9, 38, 95
9, 191760, Note_off_c, 9, 38, 80
9, 192000, Note_on_c, 9, 38, 95
9, 192240, Note_off_c, 9, 38, 80
9, 192240, Note_on_c, 9, 38, 95
9, 192480, Note_off_c, 9, 38, 80
9, 192480, Note_on_c, 9, 38, 95
9, 192720, Note_off_c, 9, 38, 80
9, 192720, Note_on_c, 9, 38, 95
9, 192840, Note_off_c, 9, 38, 80
9, 192960, Note_on_c, 9, 38, 95
9, 193020, Note_off_c, 9, 38, 80
9, 193020, Note_on_c, 9, 38, 95
9, 193080, Note_off_c, 9, 38, 80
9, 193080, Note_on_c, 9, 38, 95
9, 193140, Note_off_c, 9, 38, 80
9, 193140, Note_on_c, 9, 38, 95
9, 193200, Note_off_c, 9, 38, 80
9, 193440, Note_on_c, 9, 38, 95
9, 193680, Note_off_c, 9, 38, 80
9, 193680, Note_on_c, 9, 38, 95
9, 194160, Note_off_c, 9, 38, 80
9, 194280, Note_on_c, 9, 38, 95
9, 194400, Note_off_c, 9, 38, 80
9, 194400, Note_on_c, 9, 38, 95
9, 194460, Note_off_c, 9, 38, 80
9, 194460, Note_on_c, 9, 38, 95
9, 194520, Note_off_c, 9, 38, 80
9, 194520, Note_on_c, 9, 38, 95
9, 194580, Note_off_c, 9, 38, 80
9, 194580, Note_on_c, 9, 38, 95
9, 194640, Note_off_c, 9, 38, 80
9, 194880, Note_on_c, 9, 38, 95
9, 195120, Note_off_c, 9, 38, 80
9, 195120, Note_on_c, 9, 38, 95
9, 195360, Note_off_c, 9, 38, 80
9, 195360, Note_on_c, 9, 38, 95
9, 195600, Note_off_c, 9, 38, 80
9, 195600, Note_on_c, 9, 38, 95
9, 195720, Note_off_c, 9, 38, 80
9, 195840, Note_on_c, 9, 38, 95
9, 195900, Note_off_c, 9, 38, 80
9, 195900, Note_on_c, 9, 38, 95
9, 195960, Note_off_c, 9, 38, 80
9, 195960, Note_on_c, 9, 38, 95
9, 196020, Note_off_c, 9, 38, 80
9, 196020, Note_on_c, 9, 38, 95
9, 196080, Note_off_c, 9, 38, 80
9, 196320, Note_on_c, 9, 38, 95
9, 196560, Note_off_c, 9, 38, 80
9, 196560, Note_on_c, 9, 38, 95
9, 197040, Note_off_c, 9, 38, 80
9, 197160, Note_on_c, 9, 38, 95
9, 197280, Note_off_c, 9, 38, 80
9, 197280, Note_on_c, 9, 38, 95
9, 197340, Note_off_c, 9, 38, 80
9, 197340, Note_on_c, 9, 38, 95
9, 197400, Note_off_c, 9, 38, 80
9, 197400, Note_on_c, 9, 38, 95
9, 197460, Note_off_c, 9, 38, 80
9, 197460, Note_on_c, 9, 38, 95
9, 197520, Note_off_c, 9, 38, 80
9, 197760, Note_on_c, 9, 38, 95
9, 198000, Note_off_c, 9, 38, 80
9, 198000, Note_on_c, 9, 38, 95
9, 198240, Note_off_c, 9, 38, 80
9, 198240, Note_on_c, 9, 38, 95
9, 198480, Note_off_c, 9, 38, 80
9, 198480, Note_on_c, 9, 38, 95
9, 198600, Note_off_c, 9, 38, 80
9, 198720, Note_on_c, 9, 38, 95
9, 198780, Note_off_c, 9, 38, 80
9, 198780, Note_on_c, 9, 38, 95
9, 198840, Note_off_c, 9, 38, 80
9, 198840, Note_on_c, 9, 38, 95
9, 198900, Note_off_c, 9, 38, 80
9, 198900, Note_on_c, 9, 38, 95
9, 198960, Note_off_c, 9, 38, 80
9, 199200, Note_on_c, 9, 38, 95
9, 199440, Note_off_c, 9, 38, 80
9, 199440, Note_on_c, 9, 38, 95
9, 199920, Note_off_c, 9, 38, 80
9, 200040, Note_on_c, 9, 38, 95
9, 200160, Note_off_c, 9, 38, 80
9, 200160, Note_on_c, 9, 38, 95
9, 200220, Note_off_c, 9, 38, 80
9, 200220, Note_on_c, 9, 38, 95
9, 200280, Note_off_c, 9, 38, 80
9, 200280, Note_on_c, 9, 38, 95
9, 200340, Note_off_c, 9, 38, 80
9, 200340, Note_on_c, 9, 38, 95
9, 200400, Note_off_c, 9, 38, 80
9, 200640, Note_on_c, 9, 38, 95
9, 200880, Note_off_c, 9, 38, 80
9, 200880, Note_on_c, 9, 38, 95
9, 201120, Note_off_c, 9, 38, 80
9, 201120, Note_on_c, 9, 38, 95
9, 201360, Note_off_c, 9, 38, 80
9, 201360, Note_on_c, 9, 38, 95
9, 201480, Note_off_c, 9, 38, 80
9, 201600, Note_on_c, 9, 38, 95
9, 201660, Note_off_c, 9, 38, 80
9, 201660, Note_on_c, 9, 38, 95
9, 201720, Note_off_c, 9, 38, 80
9, 201720, Note_on_c, 9, 38, 95
9, 201780, Note_off_c, 9, 38, 80
9, 201780, Note_on_c, 9, 38, 95
9, 201840, Note_off_c, 9, 38, 80
9, 202080, Note_on_c, 9, 38, 95
9, 202320, Note_off_c, 9, 38, 80
9, 202320, Note_on_c, 9, 38, 95
9, 202800, Note_off_c, 9, 38, 80
9, 202920, Note_on_c, 9, 38, 95
9, 203040, Note_off_c, 9, 38, 80
9, 203040, Note_on_c, 9, 38, 95
9, 203100, Note_off_c, 9, 38, 80
9, 203100, Note_on_c, 9, 38, 95
9, 203160, Note_off_c, 9, 38, 80
9, 203160, Note_on_c, 9, 38, 95
9, 203220, Note_off_c, 9, 38, 80
9, 203220, Note_on_c, 9, 38, 95
9, 203280, Note_off_c, 9, 38, 80
9, 203520, Note_on_c, 9, 38, 95
9, 203760, Note_off_c, 9, 38, 80
9, 203760, Note_on_c, 9, 38, 95
9, 204000, Note_off_c, 9, 38, 80
9, 204000, Note_on_c, 9, 38, 95
9, 204240, Note_off_c, 9, 38, 80
9, 204240, Note_on_c, 9, 38, 95
9, 204360, Note_off_c, 9, 38, 80
9, 204480, Note_on_c, 9, 38, 95
9, 204540, Note_off_c, 9, 38, 80
9, 204540, Note_on_c, 9, 38, 95
9, 204600, Note_off_c, 9, 38, 80
9, 204600, Note_on_c, 9, 38, 95
9, 204660, Note_off_c, 9, 38, 80
9, 204660, Note_on_c, 9, 38, 95
9, 204720, Note_off_c, 9, 38, 80
9, 204960, Note_on_c, 9, 38, 95
9, 205200, Note_off_c, 9, 38, 80
9, 205200, Note_on_c, 9, 38, 95
9, 205680, Note_off_c, 9, 38, 80
9, 205800, Note_on_c, 9, 38, 95
9, 205920, Note_off_c, 9, 38, 80
9, 205920, Note_on_c, 9, 38, 95
9, 205980, Note_off_c, 9, 38, 80
9, 205980, Note_on_c, 9, 38, 95
9, 206040, Note_off_c, 9, 38, 80
9, 206040, Note_on_c, 9, 38, 95
9, 206100, Note_off_c, 9, 38, 80
9, 206100, Note_on_c, 9, 38, 95
9, 206160, Note_off_c, 9, 38, 80
9, 206400, Note_on_c, 9, 38, 95
9, 206640, Note_off_c, 9, 38, 80
9, 206640, Note_on_c, 9, 38, 95
9, 206880, Note_off_c, 9, 38, 80
9, 206880, Note_on_c, 9, 38, 95
9, 207120, Note_off_c, 9, 38, 80
9, 207120, Note_on_c, 9, 38, 95
9, 207240, Note_off_c, 9, 38, 80
9, 207360, Note_on_c, 9, 38, 95
9, 207420, Note_off_c, 9, 38, 80
9, 207420, Note_on_c, 9, 38, 95
9, 207480, Note_off_c, 9, 38, 80
9, 207480, Note_on_c, 9, 38, 95
9, 207540, Note_off_c, 9, 38, 80
9, 207540, Note_on_c, 9, 38, 95
9, 207600, Note_off_c, 9, 38, 80
9, 207840, Note_on_c, 9, 38, 95
9, 208080, Note_off_c, 9, 38, 80
9, 208080, Note_on_c, 9, 38, 95
9, 208560, Note_off_c, 9, 38, 80
9, 208680, Note_on_c, 9, 38, 95
9, 208800, Note_off_c, 9, 38, 80
9, 208800, Note_on_c, 9, 38, 95
9, 208860, Note_off_c, 9, 38, 80
9, 208860, Note_on_c, 9, 38, 95
9, 208920, Note_off_c, 9, 38, 80
9, 208920, Note_on_c, 9, 38, 95
9, 208980, Note_off_c, 9, 38, 80
9, 208980, Note_on_c, 9, 38, 95
9, 209040, Note_off_c, 9, 38, 80
9, 209280, Note_on_c, 9, 38, 95
9, 209520, Note_off_c, 9, 38, 80
9, 209520, Note_on_c, 9, 38, 95
9, 209760, Note_off_c, 9, 38, 80
9, 209760, Note_on_c, 9, 38, 95
9, 210000, Note_off_c, 9, 38, 80
9, 210000, Note_on_c, 9, 38, 95
9, 210120, Note_off_c, 9, 38, 80
9, 210240, Note_on_c, 9, 38, 95
9, 210300, Note_off_c, 9, 38, 80
9, 210300, Note_on_c, 9, 38, 95
9, 210360, Note_off_c, 9, 38, 80
9, 210360, Note_on_c, 9, 38, 95
9, 210420, Note_off_c, 9, 38, 80
9, 210420, Note_on_c, 9, 38, 95
9, 210480, Note_off_c, 9, 38, 80
9, 210720, Note_on_c, 9, 38, 95
9, 210960, Note_off_c, 9, 38, 80
9, 210960, Note_on_c, 9, 38, 95
9, 211440, Note_off_c, 9, 38, 80
9, 211560, Note_on_c, 9, 38, 95
9, 211680, Note_off_c, 9, 38, 80
9, 211680, Note_on_c, 9, 49, 95
9, 211920, Note_off_c, 9, 49, 80
9, 211920, Note_on_c, 9, 49, 95
9, 212160, Note_off_c, 9, 49, 80
9, 212160, Note_on_c, 9, 49, 95
9, 212400, Note_off_c, 9, 49, 80
9, 212400, Note_on_c, 9, 49, 95
9, 213120, Note_off_c, 9, 49, 80
9, 213120, End_track
0, 0, End_of_file